<svg width="353" height="351" viewBox="0 0 353 351" fill="none" xmlns="http://www.w3.org/2000/svg">
<mask id="mask0_1614_2327" style="mask-type:alpha" maskUnits="userSpaceOnUse" x="0" y="0" width="353" height="351">
<rect width="353" height="351" rx="27" fill="white"/>
</mask>
<g mask="url(#mask0_1614_2327)">
<mask id="mask1_1614_2327" style="mask-type:luminance" maskUnits="userSpaceOnUse" x="11" y="13" width="353" height="353">
<path d="M364 13H11V366H364V13Z" fill="white"/>
</mask>
<g mask="url(#mask1_1614_2327)">
<path d="M189.793 175.467C189.793 175.467 196.991 176.6 204.561 184.932C212.137 193.264 223.875 242.12 223.875 242.12C223.875 242.12 234.481 218.643 240.161 215.992C245.841 213.341 256.447 214.474 261.371 222.05C266.296 229.626 257.202 247.045 251.144 254.999C245.086 262.953 229.178 276.587 220.091 275.069C211.003 273.551 195.851 267.493 195.851 267.493L189.793 175.467Z" fill="#0D60AF"/>
<path d="M127.582 285.332C127.582 285.332 122.711 295.512 122.711 306.138C122.711 316.763 124.937 350.98 124.937 350.98H202.837C202.837 350.98 204.591 297.286 199.282 287.106C179.805 290.648 127.575 285.339 127.575 285.339L127.582 285.332Z" fill="#3B464C"/>
<g style="mix-blend-mode:multiply" opacity="0.25">
<path d="M201.88 299.277C186.802 302.96 157.638 307.035 123.994 295.951C125.431 289.825 127.583 285.332 127.583 285.332C127.583 285.332 179.813 290.641 199.29 287.1C200.47 289.366 201.3 293.778 201.88 299.277Z" fill="#4A2D3E"/>
</g>
<path d="M156.013 170.695C156.013 170.695 135.113 171.612 131.666 178.689C128.218 185.773 121.135 272.497 122.855 276.922C124.575 281.348 127.591 282.231 127.591 282.231C127.591 282.231 125.439 288.87 128.023 290.644C130.606 292.412 186.142 300.824 201.645 291.973C202.934 289.76 200.782 282.238 200.782 282.238C200.782 282.238 201.645 284.896 204.654 278.696C207.663 272.497 205.652 199.13 196.929 180.227C194.258 174.432 175.375 169.811 156 170.695H156.013Z" fill="#0D60AF"/>
<g style="mix-blend-mode:multiply" opacity="0.25">
<path d="M135.683 229.115C138.672 243.235 165.542 256.316 165.542 256.316C165.542 256.316 134.408 247.83 131.75 247.445L135.683 229.115Z" fill="#0D60AF"/>
</g>
<path d="M154.819 172.844C159.42 179.361 175.348 181.905 177.763 179.894C178.937 178.916 179.112 174.99 178.991 171.205C178.849 167.218 178.363 163.386 178.363 163.386C178.363 163.386 167.623 160.701 160.708 156.505C159.366 155.702 156.769 153.219 155.824 152.309C154.819 159.554 152.404 169.417 154.819 172.838V172.844Z" fill="#F8AF9B"/>
<g style="mix-blend-mode:multiply" opacity="0.46">
<path d="M158.239 155.934C158.239 155.934 159.656 162.181 165.485 167.004C169.263 170.135 175.247 170.991 178.991 171.207C178.849 167.22 178.363 163.388 178.363 163.388C178.363 163.388 167.623 160.703 160.708 156.507L158.232 155.934H158.239Z" fill="#F8AF9B"/>
</g>
<path d="M195.461 127.711C196.79 133.681 196.938 157.374 190.651 162.981C181.395 171.231 158.903 164.593 152.811 149.495C147.643 136.683 148.203 114.859 162.37 110.771C179.594 105.806 192.722 115.406 195.461 127.711Z" fill="#F8AF9B"/>
<path d="M157.837 143.862C157.837 143.862 163.875 134.202 161.46 120.115C167.7 123.94 194.065 123.738 197.89 122.935C201.715 122.132 198.693 113.875 183.399 107.439C168.105 100.996 154.619 106.636 154.417 112.674C152.406 106.636 150.592 106.434 149.384 108.849C148.176 111.264 153.614 113.679 153.614 113.679C153.614 113.679 147.778 117.707 147.171 127.57C146.571 137.433 152.804 152.727 157.837 143.876V143.862Z" fill="#2D2D2D"/>
<path d="M181.993 135.055C181.993 135.055 185.312 145.019 184.104 147.279C182.897 149.546 179.126 148.79 178.066 147.427" stroke="#DB7665" stroke-miterlimit="10" stroke-linecap="round"/>
<path d="M192.712 126.901C190.499 124.337 186.37 124.182 184.11 125.241C181.843 126.301 183.355 130.072 185.169 129.62C186.984 129.168 190.148 128.716 191.814 129.316C193.474 129.923 193.487 127.792 192.718 126.901H192.712Z" fill="#5A2402"/>
<path d="M165.04 127.503C167.253 124.939 171.381 124.784 173.641 125.843C175.901 126.902 174.397 130.673 172.582 130.221C170.767 129.769 167.603 129.317 165.937 129.918C164.277 130.525 164.264 128.393 165.033 127.503H165.04Z" fill="#5A2402"/>
<path d="M185.467 136.112C185.467 137.448 186.276 138.528 187.282 138.528C188.287 138.528 189.096 137.448 189.096 136.112C189.096 134.777 188.287 133.697 187.282 133.697C186.276 133.697 185.467 134.777 185.467 136.112Z" fill="#5A2402"/>
<path d="M169.318 136.712C169.318 138.048 170.128 139.127 171.133 139.127C172.138 139.127 172.948 138.048 172.948 136.712C172.948 135.376 172.138 134.297 171.133 134.297C170.128 134.297 169.318 135.376 169.318 136.712Z" fill="#5A2402"/>
<path d="M181.688 152.565C181.688 152.565 177.613 152.565 175.501 151.506C173.39 150.447 172.479 150.602 172.182 151.809C171.885 153.017 173.842 155.581 176.709 156.188C179.576 156.795 181.688 155.736 182.747 154.225C183.806 152.713 182.747 152.713 181.688 152.565Z" fill="white"/>
<path d="M156.328 139.43C156.328 139.43 153.765 134.6 149.838 136.259C146.405 137.71 146.971 141.238 148.024 143.957C149.076 146.676 152.254 149.394 154.514 149.239C156.774 149.084 159.04 146.217 156.328 139.43Z" fill="#F8AF9B"/>
<path d="M154.973 146.076C156.43 144.72 155.283 139.93 152.706 138.527C150.392 137.272 149.387 140.49 149.387 140.49" stroke="#DB7665" stroke-miterlimit="10" stroke-linecap="round"/>
<g style="mix-blend-mode:multiply" opacity="0.46">
<path d="M155.573 145.017C155.573 145.017 151.802 146.677 150.891 141.395C150.29 138.527 152.706 138.527 152.706 138.527C152.706 138.527 155.728 140.794 155.573 145.017Z" fill="#F8AF9B"/>
</g>
<path d="M154.82 140.885C154.82 140.885 152.202 140.582 151.898 142.997" stroke="#DB7665" stroke-miterlimit="10" stroke-linecap="round"/>
<path d="M178.571 166.704C178.571 166.704 162.468 166.704 155.627 154.426" stroke="#DB7665" stroke-miterlimit="10" stroke-linecap="round"/>
<path d="M147.945 175.563C147.945 175.563 150.01 164.337 153.653 163.635C156.122 163.163 159.34 166.199 167.287 167.305C176.044 168.526 178.425 166.671 180.517 168.81C182.217 170.557 181.501 183.598 181.501 183.598C181.501 183.598 157.687 187.072 147.952 175.563H147.945Z" fill="#0D60AF"/>
<path d="M149.213 173.984C149.213 173.984 162.415 185.784 181.879 179.132" stroke="#4264A0" stroke-miterlimit="10" stroke-linecap="round"/>
<path d="M128.02 281.668C128.02 281.668 166.953 289.554 195.044 282.653" stroke="#4264A0" stroke-miterlimit="10" stroke-linecap="round"/>
<path d="M137.595 174.195C126.571 178.425 116.371 190.778 112.91 204.129C109.449 217.48 102.15 260.811 105.111 270.209C108.073 279.606 152.093 293.949 163.959 289.989C175.826 286.036 177.31 278.615 176.818 267.733C176.325 256.851 153.078 250.921 131.321 247.953C140.219 221.743 137.595 174.195 137.595 174.195Z" fill="#0D60AF"/>
<path d="M131.199 285.102C144.058 289.366 158.029 291.963 163.959 289.986C175.826 286.033 177.31 278.612 176.818 267.73C176.325 256.848 153.078 250.918 131.321 247.95C140.219 221.741 138.202 177.512 138.202 177.512" stroke="#4264A0" stroke-miterlimit="10" stroke-linecap="round"/>
<path d="M131.756 247.447C126.17 250.746 123.424 256.852 123.424 256.852" stroke="#4264A0" stroke-miterlimit="10" stroke-linecap="round"/>
<path d="M206.144 266.949H262.806C265.91 266.949 269.161 264.432 270.065 261.329L279.267 229.756C280.171 226.653 278.39 224.137 275.28 224.137H218.618C215.515 224.137 212.263 226.653 211.359 229.756L202.157 261.329C201.253 264.432 203.034 266.949 206.137 266.949H206.144Z" fill="#87A1CF"/>
<path d="M207.963 266.949H264.625C267.728 266.949 270.98 264.432 271.884 261.329L281.086 229.756C281.99 226.653 280.209 224.137 277.099 224.137H220.436C217.333 224.137 214.081 226.653 213.177 229.756L203.975 261.329C203.071 264.432 204.852 266.949 207.956 266.949H207.963Z" fill="#AAC2E5"/>
<path d="M184.653 266.949H266.02C267.551 266.949 268.786 268.191 268.786 269.715C268.786 271.247 267.545 272.481 266.02 272.481H184.653C183.121 272.481 181.887 271.24 181.887 269.715C181.887 268.184 183.128 266.949 184.653 266.949Z" fill="#87A1CF"/>
<path d="M200.274 266.949H266.017C267.548 266.949 268.783 268.191 268.783 269.715C268.783 271.247 267.541 272.481 266.017 272.481H200.274C198.742 272.481 197.508 271.24 197.508 269.715C197.508 268.184 198.749 266.949 200.274 266.949Z" fill="#AAC2E5"/>
<path d="M264.625 266.949H207.963" stroke="#4E6989" stroke-miterlimit="10"/>
<path d="M243.99 252.142C243.99 252.142 253.287 246.61 252.052 242.872C250.818 239.135 246.345 242.636 246.345 242.636C246.345 242.636 243.606 239.128 240.523 242.872C237.433 246.61 243.99 252.142 243.99 252.142Z" fill="white"/>
<path d="M176.801 266.672C176.801 266.672 172.369 268.068 172.342 273.553C172.315 279.038 173.725 279.584 173.725 279.584C173.725 279.584 189.91 281.568 194.733 280.846C199.557 280.124 217.677 276.717 218.318 273.405C218.959 270.092 203.955 273.418 193.047 271.219C187.886 269.06 190.152 266.78 192.163 264.736C194.18 262.685 196.049 258.718 194.18 257.679C192.311 256.64 190.065 258.671 188.763 260.755C187.467 262.84 176.801 266.672 176.801 266.672Z" fill="#F8AF9B"/>
<path d="M194.715 181.148C194.715 181.148 204.564 217.882 204.942 247.046" stroke="#4264A0" stroke-miterlimit="10" stroke-linecap="round"/>
<path d="M245.31 217.268C245.31 217.268 248.595 224.493 259.106 222.854C263.046 219.568 268.962 211.351 270.932 207.412C272.902 203.472 278.488 189.014 277.503 186.053C276.518 183.098 270.602 179.482 266.993 180.136C263.383 180.791 256.151 192.624 254.836 194.594C253.52 196.563 253.19 193.278 252.535 189.993C251.881 186.707 250.235 182.767 247.604 183.752C244.973 184.737 244.649 185.068 246.288 189.669C247.927 194.27 245.634 200.179 245.958 203.795C246.281 207.412 247.273 209.381 247.273 212.013C247.273 214.644 245.303 217.268 245.303 217.268H245.31Z" fill="#F8AF9B"/>
<path d="M253.631 194.738C255.466 198.901 254.71 203.596 254.71 203.596" stroke="#DB7665" stroke-miterlimit="10" stroke-linecap="round"/>
<path d="M269.093 180.469L259.297 197.402" stroke="#DB7665" stroke-miterlimit="10" stroke-linecap="round"/>
<path d="M272.252 181.299L263.617 199.892" stroke="#DB7665" stroke-miterlimit="10" stroke-linecap="round"/>
<path d="M274.741 183.125L267.604 201.88" stroke="#DB7665" stroke-miterlimit="10" stroke-linecap="round"/>
<path d="M147.803 322.349L169.364 329.784L190.183 320.865" stroke="#5C5C5C" stroke-miterlimit="10" stroke-linecap="round"/>
<path d="M169.365 329.783V350.825" stroke="#5C5C5C" stroke-miterlimit="10" stroke-linecap="round"/>
<path d="M292.705 44.1126C290.876 44.1126 289.116 44.3689 287.443 44.8479C285.216 38.6076 279.253 34.1348 272.243 34.1348C263.331 34.1348 256.106 41.3601 256.106 50.2719C256.106 50.3934 256.106 50.5148 256.113 50.6295C255.296 50.5013 254.46 50.4339 253.61 50.4339C244.698 50.4339 237.473 57.6592 237.473 66.571C237.473 75.4829 244.698 82.7082 253.61 82.7082H292.705C303.364 82.7082 311.999 74.0662 311.999 63.4138C311.999 52.7613 303.357 44.1193 292.705 44.1193V44.1126Z" fill="#DCDDDE"/>
<path d="M289.136 44.1126C287.308 44.1126 285.547 44.3689 283.874 44.8479C281.648 38.6076 275.684 34.1348 268.675 34.1348C259.763 34.1348 252.538 41.3601 252.538 50.2719C252.538 50.3934 252.538 50.5148 252.544 50.6295C251.728 50.5013 250.892 50.4339 250.041 50.4339C241.13 50.4339 233.904 57.6592 233.904 66.571C233.904 75.4829 241.13 82.7082 250.041 82.7082H289.136C299.796 82.7082 308.431 74.0662 308.431 63.4138C308.431 52.7613 299.789 44.1193 289.136 44.1193V44.1126Z" fill="white"/>
<path d="M292.705 44.1126C290.876 44.1126 289.116 44.3689 287.443 44.8479C285.216 38.6076 279.253 34.1348 272.243 34.1348C263.331 34.1348 256.106 41.3601 256.106 50.2719C256.106 50.3934 256.106 50.5148 256.113 50.6295C255.296 50.5013 254.46 50.4339 253.61 50.4339C244.698 50.4339 237.473 57.6592 237.473 66.571C237.473 75.4829 244.698 82.7082 253.61 82.7082H292.705C303.364 82.7082 311.999 74.0662 311.999 63.4138C311.999 52.7613 303.357 44.1193 292.705 44.1193V44.1126Z" fill="#ACBCCC"/>
<path d="M289.136 44.1126C287.308 44.1126 285.547 44.3689 283.874 44.8479C281.648 38.6076 275.684 34.1348 268.675 34.1348C259.763 34.1348 252.538 41.3601 252.538 50.2719C252.538 50.3934 252.538 50.5148 252.544 50.6295C251.728 50.5013 250.892 50.4339 250.041 50.4339C241.13 50.4339 233.904 57.6592 233.904 66.571C233.904 75.4829 241.13 82.7082 250.041 82.7082H289.136C299.796 82.7082 308.431 74.0662 308.431 63.4138C308.431 52.7613 299.789 44.1193 289.136 44.1193V44.1126Z" fill="#A8CEFF"/>
<path d="M257.224 132.695C255.396 132.695 253.635 132.951 251.962 133.43C249.736 127.19 243.772 122.717 236.763 122.717C227.851 122.717 220.626 129.942 220.626 138.854C220.626 138.975 220.626 139.097 220.632 139.212C219.816 139.083 218.979 139.016 218.129 139.016C209.217 139.016 201.992 146.241 201.992 155.153C201.992 164.065 209.217 171.29 218.129 171.29H257.224C267.883 171.29 276.519 162.648 276.519 151.996C276.519 141.343 267.877 132.701 257.224 132.701V132.695Z" fill="#ACBCCC"/>
<path d="M253.656 132.695C251.828 132.695 250.067 132.951 248.394 133.43C246.167 127.19 240.204 122.717 233.194 122.717C224.282 122.717 217.057 129.942 217.057 138.854C217.057 138.975 217.057 139.097 217.064 139.212C216.248 139.083 215.411 139.016 214.561 139.016C205.649 139.016 198.424 146.241 198.424 155.153C198.424 164.065 205.649 171.29 214.561 171.29H253.656C264.315 171.29 272.95 162.648 272.95 151.996C272.95 141.343 264.308 132.701 253.656 132.701V132.695Z" fill="#A8CEFF"/>
<path d="M155.685 38.0266C153.857 38.0266 152.096 38.283 150.423 38.762C148.197 32.5216 142.233 28.0488 135.224 28.0488C126.312 28.0488 119.086 35.2741 119.086 44.186C119.086 44.3074 119.086 44.4289 119.093 44.5436C118.277 44.4154 117.44 44.3479 116.59 44.3479C107.678 44.3479 100.453 51.5732 100.453 60.4851C100.453 69.397 107.678 76.6223 116.59 76.6223H155.685C166.344 76.6223 174.98 67.9803 174.98 57.3278C174.98 46.6754 166.338 38.0334 155.685 38.0334V38.0266Z" fill="#ACBCCC"/>
<path d="M152.117 38.0266C150.289 38.0266 148.528 38.283 146.855 38.762C144.628 32.5216 138.665 28.0488 131.655 28.0488C122.743 28.0488 115.518 35.2741 115.518 44.186C115.518 44.3074 115.518 44.4289 115.525 44.5436C114.709 44.4154 113.872 44.3479 113.022 44.3479C104.11 44.3479 96.8848 51.5732 96.8848 60.4851C96.8848 69.397 104.11 76.6223 113.022 76.6223H152.117C162.776 76.6223 171.411 67.9803 171.411 57.3278C171.411 46.6754 162.769 38.0334 152.117 38.0334V38.0266Z" fill="#A8CEFF"/>
<path d="M268.789 269.716L274.031 270.087C276.062 270.229 277.633 271.922 277.633 273.952V319.362C277.633 322.654 280.305 325.326 283.597 325.326C286.916 325.326 289.601 322.614 289.561 319.288L287.625 159.906C287.584 156.803 285.061 154.307 281.958 154.307H277.633" stroke="#A8C5E2" stroke-miterlimit="10"/>
<path d="M276.708 156.768H274.711V151.85H276.708C278.064 151.85 279.17 152.949 279.17 154.312C279.17 155.668 278.071 156.774 276.708 156.774V156.768Z" fill="#0A56B8"/>
<path d="M274.71 152.59H273.604V156.017H274.71V152.59Z" fill="#0A56B8"/>
<path d="M274.54 152.912H273.777V153.088H274.54V152.912Z" fill="#0A56B8"/>
<path d="M274.54 153.352H273.777V153.527H274.54V153.352Z" fill="#0A56B8"/>
<path d="M274.54 153.789H273.777V153.964H274.54V153.789Z" fill="#0A56B8"/>
<path d="M274.54 154.221H273.777V154.396H274.54V154.221Z" fill="#0A56B8"/>
<path d="M274.54 154.658H273.777V154.834H274.54V154.658Z" fill="#0A56B8"/>
<path d="M274.54 155.098H273.777V155.273H274.54V155.098Z" fill="#0A56B8"/>
<path d="M274.54 155.531H273.777V155.707H274.54V155.531Z" fill="#0A56B8"/>
<path d="M235.934 119.611V121.608H231.016V119.611C231.016 118.255 232.115 117.148 233.478 117.148C234.834 117.148 235.94 118.248 235.94 119.611H235.934Z" fill="#0A56B8"/>
<path d="M231.758 121.608V122.715H235.185V121.608H231.758Z" fill="#0A56B8"/>
<path d="M232.072 121.775V122.537H232.248V121.775H232.072Z" fill="#0A56B8"/>
<path d="M232.512 121.783V122.545H232.687V121.783H232.512Z" fill="#0A56B8"/>
<path d="M232.941 121.775V122.537H233.117V121.775H232.941Z" fill="#0A56B8"/>
<path d="M233.381 121.775V122.537H233.556V121.775H233.381Z" fill="#0A56B8"/>
<path d="M233.818 121.783V122.545H233.994V121.783H233.818Z" fill="#0A56B8"/>
<path d="M234.252 121.775V122.537H234.427V121.775H234.252Z" fill="#0A56B8"/>
<path d="M234.691 121.775V122.537H234.867V121.775H234.691Z" fill="#0A56B8"/>
<path d="M270.07 84.0254V86.0223C270.07 87.3783 268.971 88.4847 267.608 88.4847C266.252 88.4847 265.146 87.385 265.146 86.0223V84.0254H270.064H270.07Z" fill="#0A56B8"/>
<path d="M269.318 84.0302V82.9238H265.891V84.0302H269.318Z" fill="#0A56B8"/>
<path d="M266.383 83.8541V83.0918H266.207V83.8541H266.383Z" fill="#0A56B8"/>
<path d="M266.814 83.8619V83.0996H266.639V83.8619H266.814Z" fill="#0A56B8"/>
<path d="M267.254 83.8619V83.0996H267.079V83.8619H267.254Z" fill="#0A56B8"/>
<path d="M267.691 83.8541V83.0918H267.516V83.8541H267.691Z" fill="#0A56B8"/>
<path d="M268.125 83.8541V83.0918H267.95V83.8541H268.125Z" fill="#0A56B8"/>
<path d="M268.564 83.8619V83.0996H268.389V83.8619H268.564Z" fill="#0A56B8"/>
<path d="M269.002 83.8541V83.0918H268.827V83.8541H269.002Z" fill="#0A56B8"/>
<path d="M176.114 60.0958H174.117V55.1777H176.114C177.47 55.1777 178.577 56.2774 178.577 57.6401C178.577 58.9961 177.477 60.1025 176.114 60.1025V60.0958Z" fill="#0A56B8"/>
<path d="M174.116 55.918H173.01V59.3451H174.116V55.918Z" fill="#0A56B8"/>
<path d="M173.936 56.2383H173.174V56.4137H173.936V56.2383Z" fill="#0A56B8"/>
<path d="M173.936 56.6777H173.174V56.8531H173.936V56.6777Z" fill="#0A56B8"/>
<path d="M173.936 57.1152H173.174V57.2906H173.936V57.1152Z" fill="#0A56B8"/>
<path d="M173.936 57.5469H173.174V57.7223H173.936V57.5469Z" fill="#0A56B8"/>
<path d="M173.936 57.9844H173.174V58.1598H173.936V57.9844Z" fill="#0A56B8"/>
<path d="M173.936 58.4238H173.174V58.5992H173.936V58.4238Z" fill="#0A56B8"/>
<path d="M173.936 58.8574H173.174V59.0328H173.936V58.8574Z" fill="#0A56B8"/>
<path d="M177.666 57.6328H194.822C196.853 57.6328 198.499 59.2789 198.499 61.3096V91.0136C198.499 93.0442 200.145 94.6903 202.175 94.6903H229.795C231.825 94.6903 233.472 96.3364 233.472 98.367V117.648" stroke="#A8C5E2" stroke-miterlimit="10"/>
<path d="M267.598 87.6406V104.574H233.381" stroke="#A8C5E2" stroke-miterlimit="10"/>
<path d="M107.215 114.639H57.3394C54.3959 114.639 52.0098 117.025 52.0098 119.968V147.426C52.0098 150.369 54.3959 152.755 57.3394 152.755H107.215C110.158 152.755 112.544 150.369 112.544 147.426V119.968C112.544 117.025 110.158 114.639 107.215 114.639Z" fill="#A8CEFF"/>
<path d="M67.756 133.6H69.7V142H67.756V133.6ZM63.94 142H61.996V133.6H63.94V142ZM67.9 138.556H63.796V136.912H67.9V138.556ZM75.7674 142.144C75.1034 142.144 74.4874 142.036 73.9194 141.82C73.3594 141.604 72.8714 141.3 72.4554 140.908C72.0474 140.516 71.7274 140.056 71.4954 139.528C71.2714 139 71.1594 138.424 71.1594 137.8C71.1594 137.176 71.2714 136.6 71.4954 136.072C71.7274 135.544 72.0514 135.084 72.4674 134.692C72.8834 134.3 73.3714 133.996 73.9314 133.78C74.4914 133.564 75.0994 133.456 75.7554 133.456C76.4194 133.456 77.0274 133.564 77.5794 133.78C78.1394 133.996 78.6234 134.3 79.0314 134.692C79.4474 135.084 79.7714 135.544 80.0034 136.072C80.2354 136.592 80.3514 137.168 80.3514 137.8C80.3514 138.424 80.2354 139.004 80.0034 139.54C79.7714 140.068 79.4474 140.528 79.0314 140.92C78.6234 141.304 78.1394 141.604 77.5794 141.82C77.0274 142.036 76.4234 142.144 75.7674 142.144ZM75.7554 140.488C76.1314 140.488 76.4754 140.424 76.7874 140.296C77.1074 140.168 77.3874 139.984 77.6274 139.744C77.8674 139.504 78.0514 139.22 78.1794 138.892C78.3154 138.564 78.3834 138.2 78.3834 137.8C78.3834 137.4 78.3154 137.036 78.1794 136.708C78.0514 136.38 77.8674 136.096 77.6274 135.856C77.3954 135.616 77.1194 135.432 76.7994 135.304C76.4794 135.176 76.1314 135.112 75.7554 135.112C75.3794 135.112 75.0314 135.176 74.7114 135.304C74.3994 135.432 74.1234 135.616 73.8834 135.856C73.6434 136.096 73.4554 136.38 73.3194 136.708C73.1914 137.036 73.1274 137.4 73.1274 137.8C73.1274 138.192 73.1914 138.556 73.3194 138.892C73.4554 139.22 73.6394 139.504 73.8714 139.744C74.1114 139.984 74.3914 140.168 74.7114 140.296C75.0314 140.424 75.3794 140.488 75.7554 140.488ZM84.5724 142.144C83.9004 142.144 83.2564 142.056 82.6404 141.88C82.0244 141.696 81.5284 141.46 81.1524 141.172L81.8124 139.708C82.1724 139.964 82.5964 140.176 83.0844 140.344C83.5804 140.504 84.0804 140.584 84.5844 140.584C84.9684 140.584 85.2764 140.548 85.5084 140.476C85.7484 140.396 85.9244 140.288 86.0364 140.152C86.1484 140.016 86.2044 139.86 86.2044 139.684C86.2044 139.46 86.1164 139.284 85.9404 139.156C85.7644 139.02 85.5324 138.912 85.2444 138.832C84.9564 138.744 84.6364 138.664 84.2844 138.592C83.9404 138.512 83.5924 138.416 83.2404 138.304C82.8964 138.192 82.5804 138.048 82.2924 137.872C82.0044 137.696 81.7684 137.464 81.5844 137.176C81.4084 136.888 81.3204 136.52 81.3204 136.072C81.3204 135.592 81.4484 135.156 81.7044 134.764C81.9684 134.364 82.3604 134.048 82.8804 133.816C83.4084 133.576 84.0684 133.456 84.8604 133.456C85.3884 133.456 85.9084 133.52 86.4204 133.648C86.9324 133.768 87.3844 133.952 87.7764 134.2L87.1764 135.676C86.7844 135.452 86.3924 135.288 86.0004 135.184C85.6084 135.072 85.2244 135.016 84.8484 135.016C84.4724 135.016 84.1644 135.06 83.9244 135.148C83.6844 135.236 83.5124 135.352 83.4084 135.496C83.3044 135.632 83.2524 135.792 83.2524 135.976C83.2524 136.192 83.3404 136.368 83.5164 136.504C83.6924 136.632 83.9244 136.736 84.2124 136.816C84.5004 136.896 84.8164 136.976 85.1604 137.056C85.5124 137.136 85.8604 137.228 86.2044 137.332C86.5564 137.436 86.8764 137.576 87.1644 137.752C87.4524 137.928 87.6844 138.16 87.8604 138.448C88.0444 138.736 88.1364 139.1 88.1364 139.54C88.1364 140.012 88.0044 140.444 87.7404 140.836C87.4764 141.228 87.0804 141.544 86.5524 141.784C86.0324 142.024 85.3724 142.144 84.5724 142.144ZM91.0876 142V135.184H88.3996V133.6H95.7196V135.184H93.0316V142H91.0876Z" fill="white"/>
<path d="M135.534 76.625V94.8738C135.534 98.4898 132.599 101.424 128.983 101.424H88.8358C85.2198 101.424 82.2852 104.359 82.2852 107.975V114.634" stroke="#A8C5E2" stroke-miterlimit="10"/>
<path d="M133.073 77.991V75.9941H137.991V77.991C137.991 79.3471 136.892 80.4535 135.529 80.4535C134.173 80.4535 133.066 79.3538 133.066 77.991H133.073Z" fill="#0A56B8"/>
<path d="M137.248 75.999V74.8926H133.821V75.999H137.248Z" fill="#0A56B8"/>
<path d="M136.932 75.8209V75.0586H136.756V75.8209H136.932Z" fill="#0A56B8"/>
<path d="M136.494 75.8209V75.0586H136.319V75.8209H136.494Z" fill="#0A56B8"/>
<path d="M136.055 75.8209V75.0586H135.879V75.8209H136.055Z" fill="#0A56B8"/>
<path d="M135.621 75.8209V75.0586H135.446V75.8209H135.621Z" fill="#0A56B8"/>
<path d="M135.184 75.8131V75.0508H135.008V75.8131H135.184Z" fill="#0A56B8"/>
<path d="M134.744 75.8209V75.0586H134.569V75.8209H134.744Z" fill="#0A56B8"/>
<path d="M134.312 75.8209V75.0586H134.137V75.8209H134.312Z" fill="#0A56B8"/>
<path d="M84.7345 111.902V113.899H79.8164V111.902C79.8164 110.546 80.9161 109.439 82.2788 109.439C83.6348 109.439 84.7412 110.539 84.7412 111.902H84.7345Z" fill="#0A56B8"/>
<path d="M80.5645 113.894V115H83.9916V113.894H80.5645Z" fill="#0A56B8"/>
<path d="M80.8848 114.068V114.83H81.0602V114.068H80.8848Z" fill="#0A56B8"/>
<path d="M81.3242 114.068V114.83H81.4996V114.068H81.3242Z" fill="#0A56B8"/>
<path d="M81.7617 114.068V114.83H81.9371V114.068H81.7617Z" fill="#0A56B8"/>
<path d="M82.1934 114.068V114.83H82.3688V114.068H82.1934Z" fill="#0A56B8"/>
<path d="M82.6309 114.068V114.83H82.8063V114.068H82.6309Z" fill="#0A56B8"/>
<path d="M83.0703 114.068V114.83H83.2457V114.068H83.0703Z" fill="#0A56B8"/>
<path d="M83.5039 114.068V114.83H83.6793V114.068H83.5039Z" fill="#0A56B8"/>
<path d="M208.848 97.1746C212.673 93.3492 212.674 87.1469 208.848 83.3215C205.023 79.496 198.82 79.496 194.995 83.3215C191.169 87.1469 191.169 93.3492 194.995 97.1746C198.82 101 205.023 101 208.848 97.1746Z" fill="#0D60AF"/>
<path d="M197.297 89.8764L200.542 92.8516C201.169 93.425 202.154 93.3238 202.653 92.6424L206.688 87.1172" stroke="white" stroke-width="2" stroke-miterlimit="10"/>
<path d="M92.5839 206.035H46.4054C45.8428 206.035 45.3867 206.491 45.3867 207.054V215.885C45.3867 216.447 45.8428 216.903 46.4054 216.903H92.5839C93.1465 216.903 93.6026 216.447 93.6026 215.885V207.054C93.6026 206.491 93.1465 206.035 92.5839 206.035Z" fill="#A8CEFF"/>
<path d="M89.3361 216.912H49.6543V219.901H89.3361V216.912Z" fill="#96AABC"/>
<path d="M89.3361 230.768H49.6543V233.756H89.3361V230.768Z" fill="#96AABC"/>
<path d="M89.3868 209.914H73.7016C73.3141 209.914 73 210.228 73 210.616V212.464C73 212.852 73.3141 213.166 73.7016 213.166H89.3868C89.7743 213.166 90.0884 212.852 90.0884 212.464V210.616C90.0884 210.228 89.7743 209.914 89.3868 209.914Z" fill="white"/>
<path d="M52.1072 211.54C52.1072 212.437 51.3786 213.166 50.4813 213.166C49.5841 213.166 48.8555 212.437 48.8555 211.54C48.8555 210.643 49.5841 209.914 50.4813 209.914C51.3786 209.914 52.1072 210.643 52.1072 211.54Z" fill="white"/>
<path d="M57.9978 211.54C57.9978 212.437 57.2692 213.166 56.372 213.166C55.4747 213.166 54.7461 212.437 54.7461 211.54C54.7461 210.643 55.4747 209.914 56.372 209.914C57.2692 209.914 57.9978 210.643 57.9978 211.54Z" fill="white"/>
<path d="M92.5839 219.898H46.4054C45.8428 219.898 45.3867 220.355 45.3867 220.917V229.748C45.3867 230.311 45.8428 230.767 46.4054 230.767H92.5839C93.1465 230.767 93.6026 230.311 93.6026 229.748V220.917C93.6026 220.355 93.1465 219.898 92.5839 219.898Z" fill="#A8CEFF"/>
<path d="M89.3868 223.775H73.7016C73.3141 223.775 73 224.09 73 224.477V226.325C73 226.713 73.3141 227.027 73.7016 227.027H89.3868C89.7743 227.027 90.0884 226.713 90.0884 226.325V224.477C90.0884 224.09 89.7743 223.775 89.3868 223.775Z" fill="white"/>
<path d="M52.1072 225.401C52.1072 226.298 51.3786 227.027 50.4813 227.027C49.5841 227.027 48.8555 226.298 48.8555 225.401C48.8555 224.504 49.5841 223.775 50.4813 223.775C51.3786 223.775 52.1072 224.504 52.1072 225.401Z" fill="white"/>
<path d="M57.9978 225.401C57.9978 226.298 57.2692 227.027 56.372 227.027C55.4747 227.027 54.7461 226.298 54.7461 225.401C54.7461 224.504 55.4747 223.775 56.372 223.775C57.2692 223.775 57.9978 224.504 57.9978 225.401Z" fill="white"/>
<path d="M92.5839 233.754H46.4054C45.8428 233.754 45.3867 234.21 45.3867 234.773V243.604C45.3867 244.166 45.8428 244.622 46.4054 244.622H92.5839C93.1465 244.622 93.6026 244.166 93.6026 243.604V234.773C93.6026 234.21 93.1465 233.754 92.5839 233.754Z" fill="#A8CEFF"/>
<path d="M89.3868 237.637H73.7016C73.3141 237.637 73 237.951 73 238.338V240.187C73 240.574 73.3141 240.888 73.7016 240.888H89.3868C89.7743 240.888 90.0884 240.574 90.0884 240.187V238.338C90.0884 237.951 89.7743 237.637 89.3868 237.637Z" fill="white"/>
<path d="M52.1072 239.263C52.1072 240.16 51.3786 240.888 50.4813 240.888C49.5841 240.888 48.8555 240.16 48.8555 239.263C48.8555 238.365 49.5841 237.637 50.4813 237.637C51.3786 237.637 52.1072 238.365 52.1072 239.263Z" fill="white"/>
<path d="M56.372 240.888C57.2699 240.888 57.9978 240.161 57.9978 239.263C57.9978 238.365 57.2699 237.637 56.372 237.637C55.474 237.637 54.7461 238.365 54.7461 239.263C54.7461 240.161 55.474 240.888 56.372 240.888Z" fill="white"/>
<path d="M70.8849 202.931V204.928H65.9668V202.931C65.9668 201.575 67.0664 200.469 68.4292 200.469C69.7852 200.469 70.8916 201.568 70.8916 202.931H70.8849Z" fill="#0A56B8"/>
<path d="M66.7148 204.929V206.035H70.142V204.929H66.7148Z" fill="#0A56B8"/>
<path d="M67.0312 205.101V205.863H67.2067V205.101H67.0312Z" fill="#0A56B8"/>
<path d="M67.4707 205.101V205.863H67.6461V205.101H67.4707Z" fill="#0A56B8"/>
<path d="M67.9082 205.101V205.863H68.0836V205.101H67.9082Z" fill="#0A56B8"/>
<path d="M68.3398 205.101V205.863H68.5153V205.101H68.3398Z" fill="#0A56B8"/>
<path d="M68.7773 205.101V205.863H68.9528V205.101H68.7773Z" fill="#0A56B8"/>
<path d="M69.2168 205.101V205.863H69.3922V205.101H69.2168Z" fill="#0A56B8"/>
<path d="M69.6504 205.101V205.863H69.8258V205.101H69.6504Z" fill="#0A56B8"/>
<path d="M68.4316 201.22V182.162C68.4316 181.278 69.1468 180.569 70.0238 180.569H83.1453C84.0291 180.569 84.7375 179.854 84.7375 178.977V156.094" stroke="#A8C5E2" stroke-miterlimit="10"/>
<path d="M82.2802 155.864V153.867H87.1982V155.864C87.1982 157.22 86.0986 158.326 84.7358 158.326C83.3798 158.326 82.2734 157.227 82.2734 155.864H82.2802Z" fill="#0A56B8"/>
<path d="M86.4492 153.866V152.76H83.0221V153.866H86.4492Z" fill="#0A56B8"/>
<path d="M86.1348 153.688V152.926H85.9594V153.688H86.1348Z" fill="#0A56B8"/>
<path d="M85.6973 153.688V152.926H85.5219V153.688H85.6973Z" fill="#0A56B8"/>
<path d="M85.2617 153.688V152.926H85.0863V153.688H85.2617Z" fill="#0A56B8"/>
<path d="M84.8242 153.688V152.926H84.6488V153.688H84.8242Z" fill="#0A56B8"/>
<path d="M84.3867 153.688V152.926H84.2113V153.688H84.3867Z" fill="#0A56B8"/>
<path d="M83.9531 153.688V152.926H83.7777V153.688H83.9531Z" fill="#0A56B8"/>
<path d="M83.5156 153.688V152.926H83.3402V153.688H83.5156Z" fill="#0A56B8"/>
<path d="M305.393 108.225C298.178 108.225 292.318 114.07 292.318 121.293C292.318 128.515 298.178 134.368 305.393 134.368C312.609 134.368 318.462 128.508 318.462 121.293C318.462 114.077 312.616 108.225 305.393 108.225ZM305.393 128.621C301.334 128.621 298.051 125.345 298.051 121.293C298.051 117.24 301.334 113.964 305.393 113.964C309.453 113.964 312.722 117.247 312.722 121.293C312.722 125.338 309.439 128.621 305.393 128.621Z" fill="#86B5F2"/>
<path d="M308.933 121.298C308.933 123.261 307.345 124.842 305.389 124.842C303.433 124.842 301.838 123.261 301.838 121.298C301.838 119.335 303.426 117.754 305.389 117.754C307.352 117.754 308.933 119.342 308.933 121.298Z" fill="#86B5F2"/>
<path d="M309.998 99.3887H300.777V111.249H309.998V99.3887Z" fill="#86B5F2"/>
<path d="M293.158 102.552L286.639 109.072L295.026 117.459L301.545 110.939L293.158 102.552Z" fill="#86B5F2"/>
<path d="M283.482 116.686V125.906H295.343V116.686H283.482Z" fill="#86B5F2"/>
<path d="M286.642 133.533L293.162 140.053L301.549 131.666L295.029 125.146L286.642 133.533Z" fill="#86B5F2"/>
<path d="M300.78 143.203H310V131.342H300.78V143.203Z" fill="#86B5F2"/>
<path d="M317.619 140.047L324.139 133.527L315.752 125.14L309.232 131.66L317.619 140.047Z" fill="#86B5F2"/>
<path d="M327.297 125.904V116.684H315.436V125.904H327.297Z" fill="#86B5F2"/>
<path d="M324.139 109.069L317.619 102.549L309.232 110.936L315.752 117.455L324.139 109.069Z" fill="#86B5F2"/>
<path d="M327.906 169.496C327.906 170.421 328.655 171.162 329.572 171.162C330.49 171.162 331.239 170.421 331.239 169.496C331.239 168.571 330.49 167.83 329.572 167.83C328.655 167.83 327.906 168.578 327.906 169.496Z" stroke="#86B5F2" stroke-miterlimit="10"/>
<path d="M339.882 171.668V167.333H335.328C335.279 167.213 335.236 167.086 335.18 166.973L338.399 163.754L335.335 160.69L332.116 163.909C331.996 163.853 331.876 163.81 331.756 163.761V159.207H327.421V163.768C327.301 163.817 327.181 163.86 327.061 163.916L323.842 160.697L320.778 163.761L323.997 166.98C323.94 167.1 323.891 167.22 323.849 167.34H319.295V171.675H323.849C323.898 171.795 323.94 171.915 323.997 172.035L320.778 175.254L323.842 178.318L327.061 175.099C327.181 175.156 327.301 175.205 327.421 175.247V179.801H331.756V175.247C331.876 175.198 332.003 175.156 332.116 175.099L335.335 178.318L338.399 175.254L335.18 172.035C335.236 171.915 335.279 171.795 335.328 171.675H339.882V171.668ZM333.027 169.493C333.027 171.4 331.48 172.939 329.581 172.939C327.682 172.939 326.129 171.4 326.129 169.493C326.129 167.587 327.675 166.048 329.581 166.048C331.488 166.048 333.027 167.594 333.027 169.493Z" stroke="#86B5F2" stroke-miterlimit="10"/>
<path d="M84.4249 74.757C84.4249 79.9249 82.2928 84.5845 78.8475 87.9027C75.5505 91.0938 71.0603 93.0636 66.1183 93.0636C61.1763 93.0636 56.6791 91.0938 53.3821 87.9027C49.9368 84.5845 47.8047 79.9108 47.8047 74.757C47.8047 69.6032 49.9368 64.9295 53.3821 61.6113C56.6862 58.4131 61.1693 56.4434 66.1183 56.4434C71.0674 56.4434 75.5575 58.4131 78.8475 61.6113C82.2928 64.9224 84.4249 69.5891 84.4249 74.757Z" stroke="#86B5F2" stroke-width="2" stroke-miterlimit="10"/>
<path d="M78.8506 61.6035C77.4245 62.9872 75.7795 64.138 73.9581 64.9993C71.5859 66.1289 68.9313 66.7643 66.1144 66.7643C63.2975 66.7643 60.65 66.136 58.2637 64.9993C56.4563 64.138 54.8043 62.9872 53.3711 61.6035C56.6752 58.4053 61.1583 56.4355 66.1073 56.4355C71.0564 56.4355 75.5466 58.4053 78.8365 61.6035H78.8506Z" stroke="#86B5F2" stroke-width="2" stroke-miterlimit="10"/>
<path d="M78.8502 87.9003C75.5532 91.0915 71.063 93.0612 66.121 93.0612C61.179 93.0612 56.6818 91.0915 53.3848 87.9003C54.8109 86.5095 56.4629 85.3587 58.2773 84.4974C60.6636 83.3678 63.3182 82.7324 66.1281 82.7324C68.9379 82.7324 71.5925 83.3608 73.9717 84.4974C75.7932 85.3587 77.4311 86.5095 78.8643 87.9003H78.8502Z" stroke="#86B5F2" stroke-width="2" stroke-miterlimit="10"/>
<path d="M66.1089 93.0628C71.2323 93.0628 75.3857 84.8635 75.3857 74.7492C75.3857 64.6348 71.2323 56.4355 66.1089 56.4355C60.9854 56.4355 56.832 64.6348 56.832 74.7492C56.832 84.8635 60.9854 93.0628 66.1089 93.0628Z" stroke="#86B5F2" stroke-width="2" stroke-miterlimit="10"/>
<path d="M66.1113 56.4434V93.0636" stroke="#86B5F2" stroke-width="2" stroke-miterlimit="10"/>
<path d="M47.8047 74.748H84.4249" stroke="#86B5F2" stroke-width="2" stroke-miterlimit="10"/>
<path d="M76.4064 271.896H45.3848V278.06H76.4064V271.896Z" fill="#86B5F2"/>
<path d="M93.1598 282.662H45.3848V288.825H93.1598V282.662Z" fill="#86B5F2"/>
<path d="M62.0252 292.73H45.3848V298.894H62.0252V292.73Z" fill="#86B5F2"/>
</g>
</g>
</svg>
