<svg width="1957" height="846" viewBox="0 0 1957 846" fill="none" xmlns="http://www.w3.org/2000/svg">
<g opacity="0.15">
<path d="M110.614 198.037H51.9579L51.6442 165.729H100.89C109.568 165.729 116.678 164.632 122.219 162.436C127.761 160.136 131.891 156.842 134.609 152.555C137.432 148.164 138.844 142.832 138.844 136.558C138.844 129.449 137.485 123.698 134.766 119.307C132.152 114.915 128.022 111.726 122.376 109.74C116.835 107.753 109.673 106.76 100.89 106.76H68.2686V298.254H21.2185V69.904H100.89C114.169 69.904 126.036 71.1587 136.491 73.668C147.051 76.1774 155.991 79.9936 163.31 85.1169C170.629 90.2401 176.222 96.7226 180.091 104.564C183.96 112.301 185.894 121.502 185.894 132.167C185.894 141.577 183.75 150.255 179.464 158.201C175.281 166.148 168.642 172.63 159.546 177.649C150.554 182.667 138.791 185.438 124.258 185.961L110.614 198.037ZM108.575 298.254H39.0975L57.4471 261.555H108.575C116.835 261.555 123.579 260.248 128.806 257.634C134.034 254.916 137.903 251.256 140.412 246.656C142.921 242.055 144.176 236.775 144.176 230.815C144.176 224.124 143.026 218.321 140.726 213.407C138.53 208.493 134.975 204.729 130.061 202.115C125.147 199.396 118.664 198.037 110.614 198.037H65.2887L65.6024 165.729H122.063L132.884 178.433C146.79 178.224 157.977 180.681 166.446 185.804C175.02 190.823 181.241 197.358 185.11 205.408C189.083 213.459 191.069 222.085 191.069 231.286C191.069 245.924 187.88 258.261 181.503 268.299C175.125 278.231 165.767 285.707 153.429 290.726C141.196 295.745 126.245 298.254 108.575 298.254ZM319.203 108.956L257.096 298.254H207.066L291.913 69.904H323.751L319.203 108.956ZM370.801 298.254L308.538 108.956L303.519 69.904H335.67L420.988 298.254H370.801ZM367.978 213.25V250.106H247.373V213.25H367.978ZM588.957 261.555V298.254H473.997V261.555H588.957ZM489.21 69.904V298.254H442.16V69.904H489.21ZM762.728 261.555V298.254H647.769V261.555H762.728ZM662.982 69.904V298.254H615.932V69.904H662.982ZM839.734 69.904V298.254H792.84V69.904H839.734ZM1002.68 238.5C1002.68 234.423 1002.06 230.763 1000.8 227.522C999.652 224.176 997.456 221.144 994.215 218.426C990.974 215.603 986.425 212.832 980.57 210.113C974.715 207.395 967.135 204.572 957.829 201.644C947.478 198.299 937.65 194.535 928.345 190.352C919.144 186.17 910.988 181.308 903.879 175.767C896.873 170.121 891.332 163.586 887.254 156.163C883.281 148.739 881.295 140.113 881.295 130.285C881.295 120.77 883.386 112.145 887.568 104.407C891.75 96.5657 897.605 89.8742 905.133 84.3327C912.661 78.6867 921.549 74.3476 931.795 71.3155C942.146 68.2834 953.49 66.7673 965.828 66.7673C982.661 66.7673 997.352 69.7994 1009.9 75.8637C1022.44 81.9279 1032.17 90.2401 1039.07 100.8C1046.07 111.36 1049.58 123.437 1049.58 137.029H1002.84C1002.84 130.337 1001.43 124.482 998.606 119.463C995.888 114.34 991.706 110.315 986.059 107.387C980.518 104.46 973.513 102.996 965.044 102.996C956.888 102.996 950.092 104.251 944.655 106.76C939.218 109.165 935.141 112.458 932.422 116.64C929.704 120.718 928.345 125.319 928.345 130.442C928.345 134.31 929.286 137.813 931.168 140.95C933.154 144.086 936.082 147.014 939.95 149.732C943.819 152.451 948.576 155.012 954.222 157.417C959.868 159.822 966.403 162.175 973.826 164.475C986.269 168.239 997.195 172.473 1006.6 177.178C1016.12 181.883 1024.07 187.163 1030.44 193.018C1036.82 198.874 1041.63 205.513 1044.87 212.936C1048.11 220.36 1049.73 228.777 1049.73 238.187C1049.73 248.119 1047.8 257.007 1043.93 264.848C1040.06 272.69 1034.47 279.329 1027.15 284.766C1019.83 290.203 1011.1 294.333 1000.96 297.156C990.817 299.979 979.472 301.391 966.926 301.391C955.634 301.391 944.499 299.927 933.52 296.999C922.542 293.967 912.557 289.419 903.565 283.355C894.678 277.29 887.568 269.553 882.236 260.143C876.903 250.733 874.237 239.598 874.237 226.738H921.444C921.444 233.848 922.542 239.859 924.738 244.774C926.933 249.688 930.018 253.661 933.991 256.693C938.068 259.725 942.878 261.921 948.419 263.28C954.065 264.639 960.234 265.319 966.926 265.319C975.081 265.319 981.773 264.169 987.001 261.868C992.333 259.568 996.254 256.379 998.763 252.302C1001.38 248.224 1002.68 243.623 1002.68 238.5ZM1183.83 69.904V298.254H1136.93V69.904H1183.83ZM1254.09 69.904V106.76H1067.77V69.904H1254.09ZM1330.94 69.904V298.254H1284.04V69.904H1330.94ZM1507.37 222.503H1554.27C1553.33 237.873 1549.09 251.517 1541.56 263.437C1534.14 275.356 1523.74 284.662 1510.35 291.353C1497.08 298.045 1481.08 301.391 1462.36 301.391C1447.73 301.391 1434.6 298.881 1423 293.863C1411.39 288.739 1401.46 281.42 1393.2 271.906C1385.04 262.391 1378.82 250.89 1374.54 237.402C1370.25 223.915 1368.11 208.806 1368.11 192.077V176.237C1368.11 159.508 1370.3 144.4 1374.69 130.912C1379.19 117.32 1385.57 105.767 1393.83 96.2521C1402.19 86.7375 1412.18 79.4186 1423.78 74.2953C1435.39 69.1721 1448.35 66.6105 1462.68 66.6105C1481.71 66.6105 1497.76 70.0608 1510.83 76.9615C1524 83.8622 1534.19 93.3768 1541.41 105.505C1548.73 117.634 1553.12 131.435 1554.58 146.909H1507.53C1507.01 137.708 1505.18 129.919 1502.04 123.541C1498.91 117.059 1494.15 112.197 1487.77 108.956C1481.5 105.61 1473.13 103.937 1462.68 103.937C1454.84 103.937 1447.99 105.401 1442.13 108.328C1436.28 111.256 1431.36 115.699 1427.39 121.659C1423.42 127.619 1420.44 135.147 1418.45 144.243C1416.57 153.235 1415.63 163.795 1415.63 175.924V192.077C1415.63 203.892 1416.52 214.296 1418.29 223.287C1420.07 232.175 1422.79 239.703 1426.45 245.871C1430.21 251.936 1435.02 256.536 1440.88 259.673C1446.84 262.705 1454 264.221 1462.36 264.221C1472.19 264.221 1480.29 262.653 1486.67 259.516C1493.05 256.379 1497.91 251.727 1501.26 245.558C1504.71 239.389 1506.75 231.704 1507.37 222.503Z" fill="#108CF5"/>
</g>
<path d="M618.301 782.898V843.998H1006.8V773.898L618.301 782.898Z" fill="#F98012"/>
<path d="M649.2 782.2L645.4 844H654.4L657.5 782L649.2 782.2Z" fill="white"/>
<path d="M688.4 781.797H668.4V844.097H688.4V781.797Z" fill="white"/>
<path d="M908.101 803.898H714.301V817.598H908.101V803.898Z" fill="white"/>
<path d="M925.5 775.797V843.997H949.3L946.7 775.297L925.5 775.797Z" fill="white"/>
<path d="M957 775.097V843.997H965L967 774.797L957 775.097Z" fill="white"/>
<path d="M650.9 776.902L985.5 771.002L986 754.602L651.8 748.602C640.8 751.802 641.8 772.802 650.9 776.902Z" fill="#F9F6EF" stroke="url(#paint0_linear_1515_1653)" stroke-width="8" stroke-miterlimit="10"/>
<path d="M676.3 761.301L674.5 820.001L678.2 809.001L682.6 820.201L684.4 761.501L676.3 761.301Z" fill="#115A96"/>
<path d="M668.199 661.799L671.799 743.299L966.999 747.199V657.199L668.199 661.799Z" fill="#F98012"/>
<path d="M703.1 661.199L705.9 743.299L714.3 743.899V661.199H703.1Z" fill="white"/>
<path d="M725.401 661.199H719.801V743.799H725.401V661.199Z" fill="white"/>
<path d="M869.801 692.602H744.301V719.702H869.801V692.602Z" fill="white"/>
<path d="M897.5 658.302V746.302H910.3L908.1 658.102L897.5 658.302Z" fill="white"/>
<path d="M914.4 657.199L917.3 746.299L925.5 746.699L920 657.199H914.4Z" fill="white"/>
<path d="M690.301 588.502L693.001 662.502L795.701 663.502L903.001 657.002L901.701 584.602L690.301 588.502Z" fill="#0D61B0"/>
<g opacity="0.3">
<mask id="mask0_1515_1653" style="mask-type:luminance" maskUnits="userSpaceOnUse" x="704" y="590" width="200" height="68">
<path d="M904 590H704V658H904V590Z" fill="white"/>
</mask>
<g mask="url(#mask0_1515_1653)">
<mask id="mask1_1515_1653" style="mask-type:luminance" maskUnits="userSpaceOnUse" x="704" y="590" width="200" height="68">
<path d="M903.101 590.5H704.801V657.8H903.101V590.5Z" fill="white"/>
</mask>
<g mask="url(#mask1_1515_1653)">
<path d="M704.801 596.7L816.801 657.9L903.001 657L901.801 590.5L704.801 596.7Z" fill="#070B16"/>
</g>
</g>
</g>
<path d="M599.1 573.398L796.6 616.998L999.2 565.998L798.4 527.898L599.1 573.398Z" fill="#0D61B0"/>
<path d="M599.1 573.398L599.2 578.598L796.7 624.098L796.6 616.998L599.1 573.398Z" fill="#0D61B0"/>
<path d="M796.7 624.1L998.2 570L999.2 566L796.6 617L796.7 624.1Z" fill="#2F2975"/>
<g opacity="0.15">
<mask id="mask2_1515_1653" style="mask-type:luminance" maskUnits="userSpaceOnUse" x="599" y="527" width="200" height="91">
<path d="M799 527H599V618H799V527Z" fill="white"/>
</mask>
<g mask="url(#mask2_1515_1653)">
<mask id="mask3_1515_1653" style="mask-type:luminance" maskUnits="userSpaceOnUse" x="599" y="527" width="200" height="90">
<path d="M798.4 527.898H599.1V616.998H798.4V527.898Z" fill="white"/>
</mask>
<g mask="url(#mask3_1515_1653)">
<path d="M798.4 527.898L796.6 616.998L599.1 573.398L798.4 527.898Z" fill="#2F2975"/>
</g>
</g>
</g>
<path d="M796.499 560.898L686.099 592.598L686.199 598.598L676.699 596.998L677.599 591.898C677.599 591.898 754.899 568.098 796.499 560.898Z" fill="#0D1526"/>
<path d="M676.2 631.201C676 631.201 675.7 628.901 675.5 624.801C675.3 620.701 675.1 614.701 675.1 607.201C675.1 603.501 675.2 599.401 675.7 595.001C675.9 593.901 676 592.701 676.5 591.401C676.6 591.201 676.8 590.801 677 590.701L677.5 590.301C677.8 590.101 678.1 589.901 678.4 589.801C679 589.501 679.5 589.201 680.1 589.001C682.3 588.001 684.6 587.301 686.9 586.501C696.3 583.501 706.7 580.701 717.7 577.901C739.7 572.401 759.7 567.901 774.2 564.901C781.5 563.401 787.3 562.201 791.4 561.501C795.5 560.801 797.8 560.501 797.8 560.601C797.8 560.801 795.6 561.501 791.6 562.501C787.6 563.601 781.8 565.001 774.6 566.801C760.2 570.401 740.3 575.101 718.4 580.701C707.5 583.501 697 586.201 687.7 589.001C685.4 589.701 683.1 590.501 681 591.301C680.5 591.501 680 591.701 679.5 592.001C679.3 592.101 679.1 592.201 678.9 592.301C678.8 592.401 678.8 592.401 678.7 592.401L678.6 592.301C678.5 592.201 678.4 592.201 678.3 592.101L678.1 592.001C679.4 592.601 678.5 592.201 678.7 592.301C678.4 593.101 678.2 594.201 678 595.201C677.4 599.401 677.3 603.501 677.1 607.101C676.8 614.501 676.7 620.501 676.6 624.601C676.6 628.901 676.4 631.201 676.2 631.201Z" fill="#EFD387"/>
<path d="M670.4 617.698L672.3 624.398C672.3 624.398 667 640.498 669 655.498L672.8 655.398L674 646.598L675.1 655.398H676.5L676.4 648.398L678.2 655.298L683.8 655.198L683.6 646.198L684.9 654.098L686.7 653.798C686.7 653.798 685.3 634.698 679.8 625.098L680.8 617.398L670.4 617.698Z" fill="#EFD387"/>
<path d="M680.699 624.602C680.699 624.902 678.699 624.902 676.199 625.002C673.699 625.102 671.699 624.902 671.699 624.702C671.699 624.402 673.699 624.202 676.199 624.102C678.699 624.002 680.799 624.402 680.699 624.602Z" fill="#2F2975"/>
<path d="M1852.9 828.1H933.6V211.3C933.6 206.2 937.8 202 942.9 202H1843.6C1848.7 202 1852.9 206.2 1852.9 211.3V828.1Z" fill="#0F1735"/>
<path d="M834.9 826.901C834.9 826.901 898.3 845.201 986 845.201C1073.7 845.201 1813.5 845.201 1813.5 845.201C1813.5 845.201 1907.3 845.201 1956.1 826.901V821.801H834.9V826.901Z" fill="#0F1735"/>
<path d="M1956.1 821.801H834.9V826.901H1956.1V821.801Z" fill="#1C2956"/>
<path d="M1287.6 821.901V825.801C1287.6 828.601 1289.9 830.901 1292.7 830.901H1498.5C1501.2 830.901 1503.4 828.701 1503.4 826.001V821.801L1287.6 821.901Z" fill="#1C2956"/>
<path d="M1830.6 789.801H955.9V232.101C955.9 229.101 958.3 226.801 961.2 226.801H1825.2C1828.2 226.801 1830.5 229.201 1830.5 232.101V789.801H1830.6Z" fill="url(#paint1_linear_1515_1653)"/>
<g opacity="0.1">
<path d="M1460 802.898H1330.9V808.898H1460V802.898Z" fill="#F0E7CF"/>
</g>
<path opacity="0.18" d="M1487.1 202L1470.1 533.5L933.5 633.5V231.6C933.5 215.3 946.8 202 963.1 202H1487.1Z" fill="#F0E7CF"/>
<path d="M1774.4 89.4023L1734.9 177.002L1798.5 202.002C1798.5 202.002 1800.8 214.902 1815.1 209.502L1877.4 238.802L1916 153.302L1774.4 89.4023Z" fill="#3E5E82"/>
<path d="M1739.3 174.203L1803.9 201.803C1803.9 201.803 1805.5 200.503 1808.9 202.003C1812.2 203.503 1812.7 206.403 1812.7 206.403L1875.4 234.803L1878.7 227.403L1827.4 191.003L1742.2 167.703L1739.3 174.203Z" fill="#AEA8AF"/>
<path d="M1779.6 84.9023L1742.2 167.702C1742.2 167.702 1804 185.702 1809 201.502C1809 201.502 1814.2 191.302 1878.3 228.302L1915.3 146.202C1915.3 146.202 1859.6 111.602 1845.4 119.602C1845.4 119.602 1853.5 107.002 1779.6 84.9023Z" fill="#F9FCFB"/>
<g opacity="0.3">
<mask id="mask4_1515_1653" style="mask-type:luminance" maskUnits="userSpaceOnUse" x="1809" y="120" width="36" height="80">
<path d="M1844.4 120H1809.4V200H1844.4V120Z" fill="white"/>
</mask>
<g mask="url(#mask4_1515_1653)">
<mask id="mask5_1515_1653" style="mask-type:luminance" maskUnits="userSpaceOnUse" x="1809" y="120" width="35" height="80">
<path d="M1843.8 120.602H1809.5V199.602H1843.8V120.602Z" fill="white"/>
</mask>
<g mask="url(#mask5_1515_1653)">
<path d="M1809.5 199.603C1808.8 199.303 1815.9 181.403 1825.4 159.603C1834.9 137.803 1843.1 120.403 1843.8 120.703C1844.5 121.003 1837.4 138.903 1827.9 160.703C1818.4 182.503 1810.2 199.903 1809.5 199.603Z" fill="#595C63"/>
</g>
</g>
</g>
<g opacity="0.3">
<mask id="mask6_1515_1653" style="mask-type:luminance" maskUnits="userSpaceOnUse" x="1846" y="142" width="48" height="22">
<path d="M1893.4 142H1846.4V164H1893.4V142Z" fill="white"/>
</mask>
<g mask="url(#mask6_1515_1653)">
<mask id="mask7_1515_1653" style="mask-type:luminance" maskUnits="userSpaceOnUse" x="1847" y="142" width="16" height="22">
<path d="M1862.5 142.102H1847V163.702H1862.5V142.102Z" fill="white"/>
</mask>
<g mask="url(#mask7_1515_1653)">
<path d="M1892.5 163.802C1892.4 163.902 1890 162.502 1886 160.302C1882 158.102 1876.5 155.102 1870.2 152.102C1863.9 149.102 1858.1 146.702 1853.8 145.002C1849.5 143.302 1846.9 142.402 1846.9 142.202C1846.9 142.102 1847.6 142.302 1848.9 142.602C1850.1 142.902 1851.9 143.502 1854.1 144.202C1858.4 145.702 1864.4 148.002 1870.7 151.002C1877 154.002 1882.6 157.102 1886.4 159.502C1888.3 160.702 1889.9 161.702 1890.9 162.502C1892 163.202 1892.6 163.702 1892.5 163.802Z" fill="#595C63"/>
</g>
</g>
</g>
<g opacity="0.3">
<mask id="mask8_1515_1653" style="mask-type:luminance" maskUnits="userSpaceOnUse" x="1850" y="132" width="48" height="22">
<path d="M1897.4 132H1850.4V154H1897.4V132Z" fill="white"/>
</mask>
<g mask="url(#mask8_1515_1653)">
<mask id="mask9_1515_1653" style="mask-type:luminance" maskUnits="userSpaceOnUse" x="1851" y="132" width="12" height="22">
<path d="M1862.4 132.102H1851.2V153.702H1862.4V132.102Z" fill="white"/>
</mask>
<g mask="url(#mask9_1515_1653)">
<path d="M1896.8 153.7C1896.7 153.8 1894.3 152.4 1890.3 150.2C1886.3 148 1880.8 145 1874.5 142C1868.2 139 1862.4 136.6 1858.1 134.9C1853.8 133.2 1851.2 132.3 1851.2 132.1C1851.2 132 1851.9 132.2 1853.2 132.5C1854.4 132.8 1856.2 133.4 1858.4 134.1C1862.7 135.6 1868.7 137.9 1875 140.9C1881.3 143.9 1886.9 147 1890.7 149.4C1892.7 150.6 1894.2 151.6 1895.2 152.4C1896.3 153.2 1896.8 153.6 1896.8 153.7Z" fill="#595C63"/>
</g>
</g>
</g>
<g opacity="0.3">
<mask id="mask10_1515_1653" style="mask-type:luminance" maskUnits="userSpaceOnUse" x="1784" y="102" width="48" height="22">
<path d="M1831.4 102H1784.4V124H1831.4V102Z" fill="white"/>
</mask>
<g mask="url(#mask10_1515_1653)">
<mask id="mask11_1515_1653" style="mask-type:luminance" maskUnits="userSpaceOnUse" x="1784" y="102" width="47" height="22">
<path d="M1830.5 102.102H1784.9V123.702H1830.5V102.102Z" fill="white"/>
</mask>
<g mask="url(#mask11_1515_1653)">
<path d="M1830.5 123.802C1830.4 123.902 1828 122.502 1824 120.302C1820 118.102 1814.5 115.102 1808.2 112.102C1801.9 109.102 1796.1 106.702 1791.8 105.002C1787.5 103.302 1784.9 102.402 1784.9 102.202C1784.9 102.102 1785.6 102.302 1786.9 102.602C1788.1 102.902 1789.9 103.502 1792.1 104.202C1796.4 105.702 1802.4 108.002 1808.7 111.002C1815 114.002 1820.6 117.102 1824.4 119.502C1826.3 120.702 1827.9 121.702 1828.9 122.502C1830 123.302 1830.6 123.702 1830.5 123.802Z" fill="#595C63"/>
</g>
</g>
</g>
<g opacity="0.3">
<mask id="mask12_1515_1653" style="mask-type:luminance" maskUnits="userSpaceOnUse" x="1780" y="112" width="47" height="22">
<path d="M1826.4 112H1780.4V134H1826.4V112Z" fill="white"/>
</mask>
<g mask="url(#mask12_1515_1653)">
<mask id="mask13_1515_1653" style="mask-type:luminance" maskUnits="userSpaceOnUse" x="1780" y="112" width="47" height="22">
<path d="M1826.1 112H1780.5V133.6H1826.1V112Z" fill="white"/>
</mask>
<g mask="url(#mask13_1515_1653)">
<path d="M1826.1 133.599C1826 133.699 1823.6 132.299 1819.6 130.099C1815.6 127.899 1810.1 124.899 1803.8 121.899C1797.5 118.899 1791.7 116.499 1787.4 114.799C1783.1 113.099 1780.5 112.199 1780.5 111.999C1780.5 111.899 1781.2 112.099 1782.5 112.399C1783.7 112.699 1785.5 113.299 1787.7 113.999C1792 115.499 1798 117.799 1804.3 120.799C1810.6 123.799 1816.2 126.899 1820 129.299C1821.9 130.499 1823.5 131.499 1824.5 132.299C1825.6 133.099 1826.1 133.599 1826.1 133.599Z" fill="#595C63"/>
</g>
</g>
</g>
<g opacity="0.3">
<mask id="mask14_1515_1653" style="mask-type:luminance" maskUnits="userSpaceOnUse" x="1775" y="121" width="48" height="23">
<path d="M1822.4 121H1775.4V144H1822.4V121Z" fill="white"/>
</mask>
<g mask="url(#mask14_1515_1653)">
<mask id="mask15_1515_1653" style="mask-type:luminance" maskUnits="userSpaceOnUse" x="1776" y="121" width="46" height="23">
<path d="M1821.7 121.801H1776.1V143.401H1821.7V121.801Z" fill="white"/>
</mask>
<g mask="url(#mask15_1515_1653)">
<path d="M1821.6 143.501C1821.5 143.601 1819.1 142.201 1815.1 140.001C1811.1 137.801 1805.6 134.801 1799.3 131.801C1793 128.801 1787.2 126.401 1782.9 124.701C1778.6 123.001 1776 122.101 1776 121.901C1776 121.801 1776.7 122.001 1778 122.301C1779.2 122.601 1781 123.201 1783.2 123.901C1787.5 125.401 1793.5 127.701 1799.8 130.701C1806.1 133.701 1811.7 136.801 1815.5 139.201C1817.5 140.401 1819 141.401 1820 142.201C1821.1 143.001 1821.7 143.401 1821.6 143.501Z" fill="#595C63"/>
</g>
</g>
</g>
<g opacity="0.3">
<mask id="mask16_1515_1653" style="mask-type:luminance" maskUnits="userSpaceOnUse" x="1771" y="131" width="47" height="23">
<path d="M1817.4 131H1771.4V154H1817.4V131Z" fill="white"/>
</mask>
<g mask="url(#mask16_1515_1653)">
<mask id="mask17_1515_1653" style="mask-type:luminance" maskUnits="userSpaceOnUse" x="1771" y="131" width="47" height="23">
<path d="M1817.2 131.602H1771.6V153.202H1817.2V131.602Z" fill="white"/>
</mask>
<g mask="url(#mask17_1515_1653)">
<path d="M1817.2 153.302C1817.1 153.402 1814.7 152.002 1810.7 149.802C1806.7 147.602 1801.2 144.602 1794.9 141.602C1788.6 138.602 1782.8 136.202 1778.5 134.502C1774.2 132.802 1771.6 131.902 1771.6 131.702C1771.6 131.602 1772.3 131.802 1773.6 132.102C1774.8 132.402 1776.6 133.002 1778.8 133.702C1783.1 135.202 1789.1 137.502 1795.4 140.502C1801.7 143.502 1807.3 146.602 1811.1 149.002C1813 150.202 1814.6 151.202 1815.6 152.002C1816.7 152.802 1817.2 153.202 1817.2 153.302Z" fill="#595C63"/>
</g>
</g>
</g>
<g opacity="0.3">
<mask id="mask18_1515_1653" style="mask-type:luminance" maskUnits="userSpaceOnUse" x="1766" y="141" width="48" height="23">
<path d="M1813.4 141H1766.4V164H1813.4V141Z" fill="white"/>
</mask>
<g mask="url(#mask18_1515_1653)">
<mask id="mask19_1515_1653" style="mask-type:luminance" maskUnits="userSpaceOnUse" x="1767" y="141" width="46" height="23">
<path d="M1812.8 141.5H1767.2V163.1H1812.8V141.5Z" fill="white"/>
</mask>
<g mask="url(#mask19_1515_1653)">
<path d="M1812.8 163.099C1812.7 163.199 1810.3 161.799 1806.3 159.599C1802.3 157.399 1796.8 154.399 1790.5 151.399C1784.2 148.399 1778.4 145.999 1774.1 144.299C1769.8 142.599 1767.2 141.699 1767.2 141.499C1767.2 141.399 1767.9 141.599 1769.2 141.899C1770.4 142.199 1772.2 142.799 1774.4 143.499C1778.7 144.999 1784.7 147.299 1791 150.299C1797.3 153.299 1802.9 156.399 1806.7 158.799C1808.6 159.999 1810.2 160.999 1811.2 161.799C1812.2 162.599 1812.8 163.099 1812.8 163.099Z" fill="#595C63"/>
</g>
</g>
</g>
<g opacity="0.3">
<mask id="mask20_1515_1653" style="mask-type:luminance" maskUnits="userSpaceOnUse" x="1762" y="151" width="47" height="22">
<path d="M1808.4 151H1762.4V173H1808.4V151Z" fill="white"/>
</mask>
<g mask="url(#mask20_1515_1653)">
<mask id="mask21_1515_1653" style="mask-type:luminance" maskUnits="userSpaceOnUse" x="1762" y="151" width="47" height="22">
<path d="M1808.3 151.301H1762.7V172.901H1808.3V151.301Z" fill="white"/>
</mask>
<g mask="url(#mask21_1515_1653)">
<path d="M1808.3 173.001C1808.2 173.101 1805.8 171.701 1801.8 169.501C1797.8 167.301 1792.3 164.301 1786 161.301C1779.7 158.301 1773.9 155.901 1769.6 154.201C1765.3 152.501 1762.7 151.601 1762.7 151.401C1762.7 151.301 1763.4 151.501 1764.7 151.801C1765.9 152.101 1767.7 152.701 1769.9 153.401C1774.2 154.901 1780.2 157.201 1786.5 160.201C1792.8 163.201 1798.4 166.301 1802.2 168.701C1804.2 169.901 1805.7 170.901 1806.7 171.701C1807.8 172.501 1808.4 172.901 1808.3 173.001Z" fill="#595C63"/>
</g>
</g>
</g>
<g opacity="0.3">
<mask id="mask22_1515_1653" style="mask-type:luminance" maskUnits="userSpaceOnUse" x="1842" y="150" width="48" height="23">
<path d="M1889.4 150H1842.4V173H1889.4V150Z" fill="white"/>
</mask>
<g mask="url(#mask22_1515_1653)">
<mask id="mask23_1515_1653" style="mask-type:luminance" maskUnits="userSpaceOnUse" x="1843" y="150" width="20" height="23">
<path d="M1862.4 150.898H1843.2V172.598H1862.4V150.898Z" fill="white"/>
</mask>
<g mask="url(#mask23_1515_1653)">
<path d="M1888.8 172.599C1888.7 172.699 1886.3 171.299 1882.3 169.099C1878.3 166.899 1872.8 163.899 1866.5 160.899C1860.2 157.899 1854.4 155.499 1850.1 153.799C1845.8 152.099 1843.2 151.199 1843.2 150.999C1843.2 150.899 1843.9 151.099 1845.2 151.399C1846.4 151.699 1848.2 152.299 1850.4 152.999C1854.7 154.499 1860.7 156.799 1867 159.799C1873.3 162.799 1878.9 165.899 1882.7 168.299C1884.7 169.499 1886.2 170.499 1887.2 171.299C1888.3 172.099 1888.9 172.499 1888.8 172.599Z" fill="#595C63"/>
</g>
</g>
</g>
<g opacity="0.3">
<mask id="mask24_1515_1653" style="mask-type:luminance" maskUnits="userSpaceOnUse" x="1839" y="160" width="47" height="23">
<path d="M1885.4 160H1839.4V183H1885.4V160Z" fill="white"/>
</mask>
<g mask="url(#mask24_1515_1653)">
<mask id="mask25_1515_1653" style="mask-type:luminance" maskUnits="userSpaceOnUse" x="1839" y="160" width="24" height="23">
<path d="M1862.4 160.602H1839.5V182.202H1862.4V160.602Z" fill="white"/>
</mask>
<g mask="url(#mask25_1515_1653)">
<path d="M1885.1 182.2C1885 182.3 1882.6 180.9 1878.6 178.7C1874.6 176.5 1869.1 173.5 1862.8 170.5C1856.5 167.5 1850.7 165.1 1846.4 163.4C1842.1 161.7 1839.5 160.8 1839.5 160.6C1839.5 160.5 1840.2 160.7 1841.5 161C1842.7 161.3 1844.5 161.9 1846.7 162.6C1851 164.1 1857 166.4 1863.3 169.4C1869.6 172.4 1875.2 175.5 1879 178C1881 179.2 1882.5 180.2 1883.5 181C1884.6 181.7 1885.1 182.1 1885.1 182.2Z" fill="#595C63"/>
</g>
</g>
</g>
<g opacity="0.3">
<mask id="mask26_1515_1653" style="mask-type:luminance" maskUnits="userSpaceOnUse" x="1835" y="170" width="47" height="22">
<path d="M1881.4 170H1835.4V192H1881.4V170Z" fill="white"/>
</mask>
<g mask="url(#mask26_1515_1653)">
<mask id="mask27_1515_1653" style="mask-type:luminance" maskUnits="userSpaceOnUse" x="1835" y="170" width="28" height="22">
<path d="M1862.4 170.199H1835.7V191.799H1862.4V170.199Z" fill="white"/>
</mask>
<g mask="url(#mask27_1515_1653)">
<path d="M1881.3 191.798C1881.2 191.898 1878.8 190.498 1874.8 188.298C1870.8 186.098 1865.3 183.098 1859 180.098C1852.7 177.098 1846.9 174.698 1842.6 172.998C1838.3 171.298 1835.7 170.398 1835.7 170.198C1835.7 170.098 1836.4 170.298 1837.7 170.598C1838.9 170.898 1840.7 171.498 1842.9 172.198C1847.2 173.698 1853.2 175.998 1859.5 178.998C1865.8 181.998 1871.4 185.098 1875.2 187.498C1877.2 188.698 1878.7 189.698 1879.7 190.498C1880.8 191.298 1881.4 191.798 1881.3 191.798Z" fill="#595C63"/>
</g>
</g>
</g>
<g opacity="0.3">
<mask id="mask28_1515_1653" style="mask-type:luminance" maskUnits="userSpaceOnUse" x="1831" y="179" width="48" height="23">
<path d="M1878.4 179H1831.4V202H1878.4V179Z" fill="white"/>
</mask>
<g mask="url(#mask28_1515_1653)">
<mask id="mask29_1515_1653" style="mask-type:luminance" maskUnits="userSpaceOnUse" x="1832" y="179" width="31" height="23">
<path d="M1862.4 179.801H1832V201.501H1862.4V179.801Z" fill="white"/>
</mask>
<g mask="url(#mask29_1515_1653)">
<path d="M1877.6 201.501C1877.5 201.601 1875.1 200.201 1871.1 198.001C1867.1 195.801 1861.6 192.801 1855.3 189.801C1849 186.801 1843.2 184.401 1838.9 182.701C1834.6 181.001 1832 180.101 1832 179.901C1832 179.801 1832.7 180.001 1834 180.301C1835.2 180.601 1837 181.201 1839.2 181.901C1843.5 183.401 1849.5 185.701 1855.8 188.701C1862.1 191.701 1867.7 194.801 1871.6 197.201C1873.5 198.401 1875.1 199.401 1876.1 200.201C1877.1 201.001 1877.6 201.401 1877.6 201.501Z" fill="#595C63"/>
</g>
</g>
</g>
<mask id="mask30_1515_1653" style="mask-type:luminance" maskUnits="userSpaceOnUse" x="887" y="116" width="121" height="120">
<path d="M1007.1 116H887.1V236H1007.1V116Z" fill="white"/>
</mask>
<g mask="url(#mask30_1515_1653)">
<path d="M958.7 164.9C964.8 171.2 964.6 181.3 958.3 187.4C952 193.5 941.9 193.3 935.8 187C929.7 180.7 929.9 170.6 936.2 164.5C942.5 158.4 952.6 158.6 958.7 164.9Z" fill="#FCD472"/>
</g>
<mask id="mask31_1515_1653" style="mask-type:luminance" maskUnits="userSpaceOnUse" x="887" y="116" width="121" height="120">
<path d="M1007.1 116H887.1V236H1007.1V116Z" fill="white"/>
</mask>
<g mask="url(#mask31_1515_1653)">
<path d="M952.999 203.801L943.799 187.101L957.999 181.801L962.699 200.301L952.999 203.801Z" fill="#FCD472"/>
</g>
<mask id="mask32_1515_1653" style="mask-type:luminance" maskUnits="userSpaceOnUse" x="887" y="116" width="121" height="120">
<path d="M1007.1 116H887.1V236H1007.1V116Z" fill="white"/>
</mask>
<g mask="url(#mask32_1515_1653)">
<path d="M950 198.302L953 203.802L962.7 200.302L961 193.602L950 198.302Z" fill="#C6D0CF"/>
</g>
<mask id="mask33_1515_1653" style="mask-type:luminance" maskUnits="userSpaceOnUse" x="887" y="116" width="121" height="120">
<path d="M1007.1 116H887.1V236H1007.1V116Z" fill="white"/>
</mask>
<g mask="url(#mask33_1515_1653)">
<path d="M960.599 195.699C960.699 195.799 958.799 196.899 956.299 198.099C953.799 199.299 951.799 199.999 951.699 199.899C951.699 199.799 953.599 198.899 956.099 197.699C958.599 196.499 960.499 195.599 960.599 195.699Z" fill="#595C63"/>
</g>
<mask id="mask34_1515_1653" style="mask-type:luminance" maskUnits="userSpaceOnUse" x="887" y="116" width="121" height="120">
<path d="M1007.1 116H887.1V236H1007.1V116Z" fill="white"/>
</mask>
<g mask="url(#mask34_1515_1653)">
<path d="M960.799 197.399C960.899 197.499 959.199 198.499 956.899 199.499C954.699 200.499 952.799 201.099 952.799 200.999C952.799 200.899 954.599 200.099 956.799 199.099C958.999 198.099 960.799 197.199 960.799 197.399Z" fill="#595C63"/>
</g>
<mask id="mask35_1515_1653" style="mask-type:luminance" maskUnits="userSpaceOnUse" x="887" y="116" width="121" height="120">
<path d="M1007.1 116H887.1V236H1007.1V116Z" fill="white"/>
</mask>
<g mask="url(#mask35_1515_1653)">
<path d="M961.4 198.899C961.5 198.999 959.8 199.999 957.6 200.999C955.4 201.999 953.5 202.599 953.5 202.499C953.5 202.399 955.2 201.599 957.4 200.599C959.6 199.599 961.4 198.799 961.4 198.899Z" fill="#595C63"/>
</g>
<path d="M1098.6 251.402V255.502H1102.7" stroke="#F98012" stroke-width="0.9582" stroke-linecap="round" stroke-linejoin="round"/>
<path d="M1112 255.504H1144.4" stroke="#F98012" stroke-width="0.9582" stroke-linecap="round" stroke-linejoin="round" stroke-dasharray="10.87 10.87"/>
<path d="M1149.1 255.504H1153.1" stroke="#F98012" stroke-width="0.9582" stroke-linecap="round" stroke-linejoin="round"/>
<path d="M1093.9 97.6023H1056.2C1046.2 97.6023 1038.1 89.5023 1038.1 79.5023C1038.1 69.5023 1046.2 61.4023 1056.2 61.4023H1056.3C1056.2 60.7023 1056.2 60.1023 1056.2 59.4023C1056.2 47.6023 1065.8 38.0023 1077.6 38.0023C1081.4 38.0023 1084.9 39.0023 1088 40.7023C1090.9 29.9023 1100.8 21.9023 1112.5 21.9023C1126.5 21.9023 1137.9 33.3023 1137.9 47.3023C1137.9 49.9023 1137.5 52.4023 1136.8 54.8023C1137.2 54.8023 1137.6 54.7023 1137.9 54.7023C1149.7 54.7023 1159.3 64.3023 1159.3 76.1023C1159.3 87.9023 1149.7 97.5023 1137.9 97.5023H1107.3H1093.9V97.6023Z" fill="url(#paint2_linear_1515_1653)"/>
<path d="M1098.8 127.004V131.104" stroke="#F98012" stroke-width="0.9582" stroke-linecap="round" stroke-linejoin="round"/>
<path d="M1098.8 139.504V252.204" stroke="#F98012" stroke-width="0.9582" stroke-linecap="round" stroke-linejoin="round" stroke-dasharray="9.86 9.86"/>
<path d="M81.0091 265.965H102.893V336.375C102.893 344.572 101.137 351.477 97.6235 357.088C94.1591 362.699 89.3529 366.92 83.2048 369.75C77.1055 372.58 70.0792 373.995 62.1257 373.995C54.1723 373.995 47.0971 372.58 40.9003 369.75C34.7522 366.92 29.9216 362.699 26.4084 357.088C22.944 351.477 21.2118 344.572 21.2118 336.375V265.965H43.1692V336.375C43.1692 341.157 43.9255 345.06 45.4381 348.085C46.9507 351.111 49.1221 353.331 51.9521 354.746C54.831 356.161 58.2222 356.868 62.1257 356.868C66.1269 356.868 69.518 356.161 72.2993 354.746C75.1294 353.331 77.2763 351.111 78.7401 348.085C80.2528 345.06 81.0091 341.157 81.0091 336.375V265.965ZM207.703 265.965V372.531H185.746L142.929 301.097V372.531H120.972V265.965H142.929L185.819 337.473V265.965H207.703ZM250.154 265.965V372.531H228.27V265.965H250.154ZM309.146 350.281L334.251 265.965H358.697L321.589 372.531H305.487L309.146 350.281ZM286.018 265.965L311.049 350.281L314.855 372.531H298.607L261.718 265.965H286.018ZM440.159 355.404V372.531H383.435V355.404H440.159ZM390.608 265.965V372.531H368.651V265.965H390.608ZM432.766 309.367V326.055H383.435V309.367H432.766ZM440.085 265.965V283.165H383.435V265.965H440.085ZM452.967 265.965H492.71C500.859 265.965 507.861 267.185 513.716 269.624C519.62 272.064 524.158 275.675 527.329 280.457C530.501 285.238 532.087 291.118 532.087 298.096C532.087 303.805 531.111 308.708 529.159 312.807C527.256 316.857 524.548 320.248 521.035 322.981C517.571 325.664 513.496 327.811 508.812 329.422L501.859 333.081H467.313L467.166 315.954H492.856C496.711 315.954 499.907 315.271 502.444 313.905C504.982 312.539 506.885 310.636 508.153 308.196C509.471 305.756 510.129 302.926 510.129 299.706C510.129 296.29 509.495 293.338 508.226 290.85C506.958 288.361 505.03 286.458 502.444 285.141C499.858 283.823 496.613 283.165 492.71 283.165H474.924V372.531H452.967V265.965ZM512.545 372.531L488.245 325.03L511.447 324.884L536.039 371.507V372.531H512.545ZM604.473 344.645C604.473 342.742 604.18 341.035 603.595 339.522C603.058 337.961 602.033 336.546 600.521 335.277C599.008 333.959 596.885 332.666 594.153 331.398C591.421 330.129 587.883 328.812 583.54 327.445C578.71 325.884 574.123 324.127 569.78 322.176C565.486 320.224 561.68 317.955 558.362 315.369C555.093 312.734 552.507 309.684 550.604 306.22C548.75 302.756 547.823 298.73 547.823 294.143C547.823 289.703 548.799 285.678 550.751 282.067C552.702 278.407 555.435 275.284 558.948 272.698C562.461 270.063 566.609 268.039 571.391 266.623C576.221 265.208 581.515 264.501 587.273 264.501C595.129 264.501 601.984 265.916 607.84 268.746C613.695 271.576 618.233 275.455 621.453 280.383C624.723 285.312 626.357 290.947 626.357 297.291H604.546C604.546 294.168 603.887 291.435 602.57 289.093C601.301 286.702 599.35 284.824 596.715 283.457C594.129 282.091 590.859 281.408 586.907 281.408C583.101 281.408 579.929 281.994 577.392 283.165C574.855 284.287 572.952 285.824 571.683 287.776C570.415 289.679 569.78 291.826 569.78 294.217C569.78 296.022 570.219 297.657 571.098 299.12C572.025 300.584 573.391 301.95 575.196 303.219C577.002 304.488 579.222 305.683 581.857 306.805C584.492 307.928 587.541 309.026 591.006 310.099C596.812 311.856 601.911 313.832 606.303 316.028C610.743 318.223 614.451 320.687 617.428 323.42C620.404 326.152 622.649 329.251 624.161 332.715C625.674 336.18 626.43 340.108 626.43 344.499C626.43 349.134 625.528 353.282 623.722 356.942C621.917 360.601 619.306 363.7 615.891 366.237C612.475 368.774 608.401 370.701 603.668 372.019C598.935 373.336 593.641 373.995 587.785 373.995C582.516 373.995 577.319 373.312 572.196 371.946C567.072 370.531 562.412 368.408 558.216 365.578C554.069 362.748 550.751 359.137 548.262 354.746C545.774 350.354 544.529 345.158 544.529 339.156H566.56C566.56 342.474 567.072 345.28 568.097 347.573C569.122 349.866 570.561 351.721 572.415 353.136C574.318 354.551 576.563 355.575 579.149 356.21C581.784 356.844 584.663 357.161 587.785 357.161C591.591 357.161 594.714 356.624 597.154 355.551C599.642 354.477 601.472 352.989 602.643 351.086C603.863 349.183 604.473 347.036 604.473 344.645ZM664.709 265.965V372.531H642.825V265.965H664.709ZM730.728 265.965V372.531H708.844V265.965H730.728ZM763.518 265.965V283.165H676.566V265.965H763.518ZM791.843 265.965L814.093 314.564L836.343 265.965H860.276L825.218 333.74V372.531H802.968V333.74L767.836 265.965H791.843Z" fill="black"/>
<path d="M1913.1 845.002H1589.4V794.102L1913.1 786.602V845.002Z" fill="#F98012"/>
<path d="M1615.2 793.502L1612 845.002H1619.6L1622.1 793.402L1615.2 793.502Z" fill="white"/>
<path d="M1647.9 793.199H1631.2V845.099H1647.9V793.199Z" fill="white"/>
<path d="M1830.9 811.602H1669.5V823.002H1830.9V811.602Z" fill="white"/>
<path d="M1845.4 788.201V845.001H1865.2L1863 787.801L1845.4 788.201Z" fill="white"/>
<path d="M1871.6 787.602V845.002H1878.3L1879.9 787.402L1871.6 787.602Z" fill="white"/>
<path d="M1621.8 794.001C1609.2 769.901 1612.7 744.201 1626.1 723.401L1878.7 710.801L1885.8 788.401L1621.8 794.001Z" fill="#F9F6EF" stroke="url(#paint3_linear_1515_1653)" stroke-width="8" stroke-miterlimit="10"/>
<path d="M1627.2 789.7C1615.4 768.2 1618.6 748 1631.2 729.5L1881.9 718.5L1888.9 783.2L1627.2 789.7Z" fill="#F9F6EF"/>
<path d="M1800.3 744.402L1798.2 805.702C1798.2 805.702 1807.7 785.302 1806.7 788.402C1806.2 790.102 1815.5 806.802 1815.5 806.802L1821.3 743.102L1800.3 744.402Z" fill="#4738B3"/>
<g opacity="0.31">
<mask id="mask36_1515_1653" style="mask-type:luminance" maskUnits="userSpaceOnUse" x="1636" y="740" width="235" height="15">
<path d="M1870.7 740.5H1636.7V754.5H1870.7V740.5Z" fill="white"/>
</mask>
<g mask="url(#mask36_1515_1653)">
<mask id="mask37_1515_1653" style="mask-type:luminance" maskUnits="userSpaceOnUse" x="1636" y="740" width="235" height="14">
<path d="M1870.7 740.699H1636.8V753.699H1870.7V740.699Z" fill="white"/>
</mask>
<g mask="url(#mask37_1515_1653)">
<path d="M1870.7 740.901C1870.7 741.001 1869.9 741.101 1868.3 741.201C1866.7 741.301 1864.4 741.401 1861.5 741.601C1855.5 741.801 1846.9 742.201 1836.4 742.601C1815.2 743.401 1786 744.701 1753.7 746.401C1721.4 748.201 1692.2 750.101 1671 751.601C1660.5 752.301 1652 752.901 1646 753.301C1643.1 753.501 1640.8 753.601 1639.2 753.701C1637.6 753.801 1636.8 753.801 1636.8 753.701C1636.8 753.601 1637.6 753.501 1639.2 753.301C1640.8 753.101 1643.1 752.801 1646 752.501C1651.9 751.901 1660.4 751.001 1671 750.101C1692.1 748.201 1721.3 746.001 1753.7 744.301C1786 742.601 1815.3 741.601 1836.5 741.101C1847.1 740.901 1855.7 740.801 1861.6 740.801C1864.5 740.801 1866.8 740.801 1868.4 740.901C1869.9 740.801 1870.7 740.901 1870.7 740.901Z" fill="#E0E0E0"/>
</g>
</g>
</g>
<path d="M1607.1 691.101C1594.1 695.401 1596 720.301 1607.1 724.901L1885.8 712.701V685.801L1607.1 691.101Z" fill="#F98012"/>
<path d="M1610.5 719.002L1888.9 705.302V691.602L1610.5 695.302C1601.4 698.402 1602.8 715.802 1610.5 719.002Z" fill="#F9F6EF"/>
<path d="M1631.2 705.301V754.201L1634 745.001L1638 754.201V705.301H1631.2Z" fill="#6054EF"/>
<defs>
<linearGradient id="paint0_linear_1515_1653" x1="639.81" y1="762.73" x2="990.149" y2="762.73" gradientUnits="userSpaceOnUse">
<stop stop-color="#13568A"/>
<stop offset="1" stop-color="#076BD0"/>
</linearGradient>
<linearGradient id="paint1_linear_1515_1653" x1="1341.75" y1="259.874" x2="1463.05" y2="850.818" gradientUnits="userSpaceOnUse">
<stop stop-color="#14A5FF"/>
<stop offset="0.2095" stop-color="#118FF6"/>
<stop offset="0.6416" stop-color="#0B58DE"/>
<stop offset="1" stop-color="#0526C8"/>
</linearGradient>
<linearGradient id="paint2_linear_1515_1653" x1="1038.07" y1="59.7645" x2="1159.18" y2="59.7645" gradientUnits="userSpaceOnUse">
<stop stop-color="#13568A"/>
<stop offset="1" stop-color="#076BD0"/>
</linearGradient>
<linearGradient id="paint3_linear_1515_1653" x1="1609.95" y1="752.348" x2="1890.12" y2="752.348" gradientUnits="userSpaceOnUse">
<stop stop-color="#13568A"/>
<stop offset="1" stop-color="#076BD0"/>
</linearGradient>
</defs>
</svg>
