<svg width="1358" height="824" viewBox="0 0 1358 824" fill="none" xmlns="http://www.w3.org/2000/svg">
<path d="M19.4707 761.645V822.745H407.971V752.645L19.4707 761.645Z" fill="#F98012"/>
<path d="M50.3703 760.946L46.5703 822.746H55.5703L58.6703 760.746L50.3703 760.946Z" fill="white"/>
<path d="M89.5703 760.543H69.5703V822.843H89.5703V760.543Z" fill="white"/>
<path d="M309.271 782.645H115.471V796.345H309.271V782.645Z" fill="white"/>
<path d="M326.67 754.543V822.743H350.47L347.87 754.043L326.67 754.543Z" fill="white"/>
<path d="M358.17 753.843V822.743H366.17L368.17 753.543L358.17 753.843Z" fill="white"/>
<path d="M52.07 755.648L386.67 749.748L387.17 733.348L52.97 727.348C41.97 730.548 42.97 751.548 52.07 755.648Z" fill="#F9F6EF" stroke="url(#paint0_linear_1584_2226)" stroke-width="8" stroke-miterlimit="10"/>
<path d="M77.47 740.047L75.6699 798.747L79.3699 787.747L83.77 798.947L85.5699 740.247L77.47 740.047Z" fill="#115A96"/>
<path d="M69.3691 640.545L72.9692 722.045L368.169 725.945V635.945L69.3691 640.545Z" fill="#F98012"/>
<path d="M104.27 639.945L107.07 722.045L115.47 722.645V639.945H104.27Z" fill="white"/>
<path d="M126.571 639.945H120.971V722.545H126.571V639.945Z" fill="white"/>
<path d="M270.971 671.348H145.471V698.448H270.971V671.348Z" fill="white"/>
<path d="M298.67 637.048V725.048H311.47L309.27 636.848L298.67 637.048Z" fill="white"/>
<path d="M315.57 635.945L318.47 725.045L326.67 725.445L321.17 635.945H315.57Z" fill="white"/>
<path d="M91.4707 567.248L94.1707 641.248L196.871 642.248L304.171 635.748L302.871 563.348L91.4707 567.248Z" fill="#0D61B0"/>
<g opacity="0.3">
<mask id="mask0_1584_2226" style="mask-type:luminance" maskUnits="userSpaceOnUse" x="105" y="568" width="201" height="69">
<path d="M305.17 568.746H105.17V636.746H305.17V568.746Z" fill="white"/>
</mask>
<g mask="url(#mask0_1584_2226)">
<mask id="mask1_1584_2226" style="mask-type:luminance" maskUnits="userSpaceOnUse" x="105" y="569" width="200" height="68">
<path d="M304.271 569.246H105.971V636.546H304.271V569.246Z" fill="white"/>
</mask>
<g mask="url(#mask1_1584_2226)">
<path d="M105.971 575.446L217.971 636.646L304.171 635.746L302.971 569.246L105.971 575.446Z" fill="#070B16"/>
</g>
</g>
</g>
<path d="M0.269531 552.145L197.77 595.745L400.37 544.745L199.57 506.645L0.269531 552.145Z" fill="#0D61B0"/>
<path d="M0.269531 552.145L0.369507 557.345L197.87 602.845L197.77 595.745L0.269531 552.145Z" fill="#0D61B0"/>
<path d="M197.87 602.846L399.37 548.746L400.37 544.746L197.77 595.746L197.87 602.846Z" fill="#2F2975"/>
<g opacity="0.15">
<mask id="mask2_1584_2226" style="mask-type:luminance" maskUnits="userSpaceOnUse" x="0" y="505" width="201" height="92">
<path d="M200.17 505.746H0.169922V596.746H200.17V505.746Z" fill="white"/>
</mask>
<g mask="url(#mask2_1584_2226)">
<mask id="mask3_1584_2226" style="mask-type:luminance" maskUnits="userSpaceOnUse" x="0" y="506" width="200" height="90">
<path d="M199.57 506.645H0.269531V595.745H199.57V506.645Z" fill="white"/>
</mask>
<g mask="url(#mask3_1584_2226)">
<path d="M199.57 506.645L197.77 595.745L0.269531 552.145L199.57 506.645Z" fill="#2F2975"/>
</g>
</g>
</g>
<path d="M197.669 539.645L87.2692 571.345L87.3691 577.345L77.8691 575.745L78.7692 570.645C78.7692 570.645 156.069 546.845 197.669 539.645Z" fill="#0D1526"/>
<path d="M77.3695 609.947C77.1695 609.947 76.8695 607.647 76.6695 603.547C76.4695 599.447 76.2695 593.447 76.2695 585.947C76.2695 582.247 76.3695 578.147 76.8695 573.747C77.0695 572.647 77.1695 571.447 77.6695 570.147C77.7695 569.947 77.9695 569.547 78.1695 569.447L78.6695 569.047C78.9695 568.847 79.2695 568.647 79.5695 568.547C80.1695 568.247 80.6695 567.947 81.2695 567.747C83.4695 566.747 85.7695 566.047 88.0695 565.247C97.4695 562.247 107.87 559.447 118.87 556.647C140.87 551.147 160.87 546.647 175.37 543.647C182.67 542.147 188.47 540.947 192.57 540.247C196.67 539.547 198.97 539.247 198.97 539.347C198.97 539.547 196.77 540.247 192.77 541.247C188.77 542.347 182.97 543.747 175.77 545.547C161.37 549.147 141.47 553.847 119.57 559.447C108.67 562.247 98.1695 564.947 88.8695 567.747C86.5695 568.447 84.2695 569.247 82.1695 570.047C81.6695 570.247 81.1695 570.447 80.6695 570.747C80.4695 570.847 80.2695 570.947 80.0695 571.047C79.9695 571.147 79.9695 571.147 79.8695 571.147L79.7695 571.047C79.6695 570.947 79.5695 570.947 79.4695 570.847L79.2695 570.747C80.5695 571.347 79.6695 570.947 79.8695 571.047C79.5695 571.847 79.3695 572.947 79.1695 573.947C78.5695 578.147 78.4695 582.247 78.2695 585.847C77.9695 593.247 77.8695 599.247 77.7695 603.347C77.7695 607.647 77.5695 609.947 77.3695 609.947Z" fill="#EFD387"/>
<path d="M71.5698 596.445L73.4698 603.145C73.4698 603.145 68.1697 619.245 70.1697 634.245L73.9698 634.145L75.1697 625.345L76.2698 634.145H77.6697L77.5698 627.145L79.3698 634.044L84.9698 633.945L84.7698 624.945L86.0698 632.845L87.8698 632.544C87.8698 632.544 86.4698 613.445 80.9698 603.845L81.9698 596.145L71.5698 596.445Z" fill="#EFD387"/>
<path d="M81.8691 603.348C81.8691 603.648 79.8691 603.648 77.3691 603.748C74.8691 603.848 72.8691 603.648 72.8691 603.448C72.8691 603.148 74.8691 602.948 77.3691 602.848C79.8691 602.748 81.9691 603.148 81.8691 603.348Z" fill="#2F2975"/>
<path d="M1254.07 806.846H334.77V190.046C334.77 184.946 338.97 180.746 344.07 180.746H1244.77C1249.87 180.746 1254.07 184.946 1254.07 190.046V806.846Z" fill="#0F1735"/>
<path d="M236.07 805.647C236.07 805.647 299.47 823.947 387.17 823.947C474.87 823.947 1214.67 823.947 1214.67 823.947C1214.67 823.947 1308.47 823.947 1357.27 805.647V800.547H236.07V805.647Z" fill="#0F1735"/>
<path d="M1357.27 800.547H236.07V805.647H1357.27V800.547Z" fill="#1C2956"/>
<path d="M688.77 800.647V804.547C688.77 807.347 691.07 809.647 693.87 809.647H899.67C902.37 809.647 904.57 807.447 904.57 804.747V800.547L688.77 800.647Z" fill="#1C2956"/>
<path d="M1231.77 768.547H357.07V210.847C357.07 207.847 359.47 205.547 362.37 205.547H1226.37C1229.37 205.547 1231.67 207.947 1231.67 210.847V768.547H1231.77Z" fill="url(#paint1_linear_1584_2226)"/>
<g opacity="0.1">
<path d="M861.17 781.645H732.07V787.645H861.17V781.645Z" fill="#F0E7CF"/>
</g>
<path opacity="0.18" d="M888.27 180.746L871.27 512.246L334.67 612.246V210.346C334.67 194.046 347.97 180.746 364.27 180.746H888.27Z" fill="#F0E7CF"/>
<path d="M1175.57 68.1484L1136.07 155.748L1199.67 180.748C1199.67 180.748 1201.97 193.648 1216.27 188.248L1278.57 217.548L1317.17 132.048L1175.57 68.1484Z" fill="#3E5E82"/>
<path d="M1140.47 152.949L1205.07 180.549C1205.07 180.549 1206.67 179.249 1210.07 180.749C1213.37 182.249 1213.87 185.149 1213.87 185.149L1276.57 213.549L1279.87 206.149L1228.57 169.749L1143.37 146.449L1140.47 152.949Z" fill="#AEA8AF"/>
<path d="M1180.77 63.6484L1143.37 146.448C1143.37 146.448 1205.17 164.448 1210.17 180.248C1210.17 180.248 1215.37 170.048 1279.47 207.048L1316.47 124.948C1316.47 124.948 1260.77 90.3484 1246.57 98.3484C1246.57 98.3484 1254.67 85.7484 1180.77 63.6484Z" fill="#F9FCFB"/>
<g opacity="0.3">
<mask id="mask4_1584_2226" style="mask-type:luminance" maskUnits="userSpaceOnUse" x="1210" y="98" width="36" height="81">
<path d="M1245.57 98.7461H1210.57V178.746H1245.57V98.7461Z" fill="white"/>
</mask>
<g mask="url(#mask4_1584_2226)">
<mask id="mask5_1584_2226" style="mask-type:luminance" maskUnits="userSpaceOnUse" x="1210" y="99" width="35" height="80">
<path d="M1244.97 99.3477H1210.67V178.348H1244.97V99.3477Z" fill="white"/>
</mask>
<g mask="url(#mask5_1584_2226)">
<path d="M1210.67 178.349C1209.97 178.049 1217.07 160.149 1226.57 138.349C1236.07 116.549 1244.27 99.1491 1244.97 99.4491C1245.67 99.7491 1238.57 117.649 1229.07 139.449C1219.57 161.249 1211.37 178.649 1210.67 178.349Z" fill="#595C63"/>
</g>
</g>
</g>
<g opacity="0.3">
<mask id="mask6_1584_2226" style="mask-type:luminance" maskUnits="userSpaceOnUse" x="1247" y="120" width="48" height="23">
<path d="M1294.57 120.746H1247.57V142.746H1294.57V120.746Z" fill="white"/>
</mask>
<g mask="url(#mask6_1584_2226)">
<mask id="mask7_1584_2226" style="mask-type:luminance" maskUnits="userSpaceOnUse" x="1248" y="120" width="16" height="23">
<path d="M1263.67 120.848H1248.17V142.448H1263.67V120.848Z" fill="white"/>
</mask>
<g mask="url(#mask7_1584_2226)">
<path d="M1293.67 142.548C1293.57 142.648 1291.17 141.248 1287.17 139.048C1283.17 136.848 1277.67 133.848 1271.37 130.848C1265.07 127.848 1259.27 125.448 1254.97 123.748C1250.67 122.048 1248.07 121.148 1248.07 120.948C1248.07 120.848 1248.77 121.048 1250.07 121.348C1251.27 121.648 1253.07 122.248 1255.27 122.948C1259.57 124.448 1265.57 126.748 1271.87 129.748C1278.17 132.748 1283.77 135.848 1287.57 138.248C1289.47 139.448 1291.07 140.448 1292.07 141.248C1293.17 141.948 1293.77 142.448 1293.67 142.548Z" fill="#595C63"/>
</g>
</g>
</g>
<g opacity="0.3">
<mask id="mask8_1584_2226" style="mask-type:luminance" maskUnits="userSpaceOnUse" x="1251" y="110" width="48" height="23">
<path d="M1298.57 110.746H1251.57V132.746H1298.57V110.746Z" fill="white"/>
</mask>
<g mask="url(#mask8_1584_2226)">
<mask id="mask9_1584_2226" style="mask-type:luminance" maskUnits="userSpaceOnUse" x="1252" y="110" width="12" height="23">
<path d="M1263.57 110.848H1252.37V132.448H1263.57V110.848Z" fill="white"/>
</mask>
<g mask="url(#mask9_1584_2226)">
<path d="M1297.97 132.446C1297.87 132.546 1295.47 131.146 1291.47 128.946C1287.47 126.746 1281.97 123.746 1275.67 120.746C1269.37 117.746 1263.57 115.346 1259.27 113.646C1254.97 111.946 1252.37 111.046 1252.37 110.846C1252.37 110.746 1253.07 110.946 1254.37 111.246C1255.57 111.546 1257.37 112.146 1259.57 112.846C1263.87 114.346 1269.87 116.646 1276.17 119.646C1282.47 122.646 1288.07 125.746 1291.87 128.146C1293.87 129.346 1295.37 130.346 1296.37 131.146C1297.47 131.946 1297.97 132.346 1297.97 132.446Z" fill="#595C63"/>
</g>
</g>
</g>
<g opacity="0.3">
<mask id="mask10_1584_2226" style="mask-type:luminance" maskUnits="userSpaceOnUse" x="1185" y="80" width="48" height="23">
<path d="M1232.57 80.7461H1185.57V102.746H1232.57V80.7461Z" fill="white"/>
</mask>
<g mask="url(#mask10_1584_2226)">
<mask id="mask11_1584_2226" style="mask-type:luminance" maskUnits="userSpaceOnUse" x="1186" y="80" width="46" height="23">
<path d="M1231.67 80.8477H1186.07V102.448H1231.67V80.8477Z" fill="white"/>
</mask>
<g mask="url(#mask11_1584_2226)">
<path d="M1231.67 102.548C1231.57 102.648 1229.17 101.248 1225.17 99.0479C1221.17 96.8479 1215.67 93.8479 1209.37 90.8479C1203.07 87.8479 1197.27 85.4479 1192.97 83.7479C1188.67 82.0479 1186.07 81.1479 1186.07 80.9479C1186.07 80.8479 1186.77 81.0479 1188.07 81.3479C1189.27 81.6479 1191.07 82.2479 1193.27 82.9479C1197.57 84.4479 1203.57 86.7479 1209.87 89.7479C1216.17 92.7479 1221.77 95.8479 1225.57 98.2479C1227.47 99.4479 1229.07 100.448 1230.07 101.248C1231.17 102.048 1231.77 102.448 1231.67 102.548Z" fill="#595C63"/>
</g>
</g>
</g>
<g opacity="0.3">
<mask id="mask12_1584_2226" style="mask-type:luminance" maskUnits="userSpaceOnUse" x="1181" y="90" width="47" height="23">
<path d="M1227.57 90.7461H1181.57V112.746H1227.57V90.7461Z" fill="white"/>
</mask>
<g mask="url(#mask12_1584_2226)">
<mask id="mask13_1584_2226" style="mask-type:luminance" maskUnits="userSpaceOnUse" x="1181" y="90" width="47" height="23">
<path d="M1227.27 90.7461H1181.67V112.346H1227.27V90.7461Z" fill="white"/>
</mask>
<g mask="url(#mask13_1584_2226)">
<path d="M1227.27 112.345C1227.17 112.445 1224.77 111.045 1220.77 108.845C1216.77 106.645 1211.27 103.645 1204.97 100.645C1198.67 97.6448 1192.87 95.2448 1188.57 93.5448C1184.27 91.8448 1181.67 90.9448 1181.67 90.7448C1181.67 90.6448 1182.37 90.8448 1183.67 91.1448C1184.87 91.4448 1186.67 92.0448 1188.87 92.7448C1193.17 94.2448 1199.17 96.5448 1205.47 99.5448C1211.77 102.545 1217.37 105.645 1221.17 108.045C1223.07 109.245 1224.67 110.245 1225.67 111.045C1226.77 111.845 1227.27 112.345 1227.27 112.345Z" fill="#595C63"/>
</g>
</g>
</g>
<g opacity="0.3">
<mask id="mask14_1584_2226" style="mask-type:luminance" maskUnits="userSpaceOnUse" x="1176" y="99" width="48" height="24">
<path d="M1223.57 99.7461H1176.57V122.746H1223.57V99.7461Z" fill="white"/>
</mask>
<g mask="url(#mask14_1584_2226)">
<mask id="mask15_1584_2226" style="mask-type:luminance" maskUnits="userSpaceOnUse" x="1177" y="100" width="46" height="23">
<path d="M1222.87 100.547H1177.27V122.147H1222.87V100.547Z" fill="white"/>
</mask>
<g mask="url(#mask15_1584_2226)">
<path d="M1222.77 122.247C1222.67 122.347 1220.27 120.947 1216.27 118.747C1212.27 116.547 1206.77 113.547 1200.47 110.547C1194.17 107.547 1188.37 105.147 1184.07 103.447C1179.77 101.747 1177.17 100.847 1177.17 100.647C1177.17 100.547 1177.87 100.747 1179.17 101.047C1180.37 101.347 1182.17 101.947 1184.37 102.647C1188.67 104.147 1194.67 106.447 1200.97 109.447C1207.27 112.447 1212.87 115.547 1216.67 117.947C1218.67 119.147 1220.17 120.147 1221.17 120.947C1222.27 121.747 1222.87 122.147 1222.77 122.247Z" fill="#595C63"/>
</g>
</g>
</g>
<g opacity="0.3">
<mask id="mask16_1584_2226" style="mask-type:luminance" maskUnits="userSpaceOnUse" x="1172" y="109" width="47" height="24">
<path d="M1218.57 109.746H1172.57V132.746H1218.57V109.746Z" fill="white"/>
</mask>
<g mask="url(#mask16_1584_2226)">
<mask id="mask17_1584_2226" style="mask-type:luminance" maskUnits="userSpaceOnUse" x="1172" y="110" width="47" height="22">
<path d="M1218.37 110.348H1172.77V131.948H1218.37V110.348Z" fill="white"/>
</mask>
<g mask="url(#mask17_1584_2226)">
<path d="M1218.37 132.048C1218.27 132.148 1215.87 130.748 1211.87 128.548C1207.87 126.348 1202.37 123.348 1196.07 120.348C1189.77 117.348 1183.97 114.948 1179.67 113.248C1175.37 111.548 1172.77 110.648 1172.77 110.448C1172.77 110.348 1173.47 110.548 1174.77 110.848C1175.97 111.148 1177.77 111.748 1179.97 112.448C1184.27 113.948 1190.27 116.248 1196.57 119.248C1202.87 122.248 1208.47 125.348 1212.27 127.748C1214.17 128.948 1215.77 129.948 1216.77 130.748C1217.87 131.548 1218.37 131.948 1218.37 132.048Z" fill="#595C63"/>
</g>
</g>
</g>
<g opacity="0.3">
<mask id="mask18_1584_2226" style="mask-type:luminance" maskUnits="userSpaceOnUse" x="1167" y="119" width="48" height="24">
<path d="M1214.57 119.746H1167.57V142.746H1214.57V119.746Z" fill="white"/>
</mask>
<g mask="url(#mask18_1584_2226)">
<mask id="mask19_1584_2226" style="mask-type:luminance" maskUnits="userSpaceOnUse" x="1168" y="120" width="46" height="22">
<path d="M1213.97 120.246H1168.37V141.846H1213.97V120.246Z" fill="white"/>
</mask>
<g mask="url(#mask19_1584_2226)">
<path d="M1213.97 141.845C1213.87 141.945 1211.47 140.545 1207.47 138.345C1203.47 136.145 1197.97 133.145 1191.67 130.145C1185.37 127.145 1179.57 124.745 1175.27 123.045C1170.97 121.345 1168.37 120.445 1168.37 120.245C1168.37 120.145 1169.07 120.345 1170.37 120.645C1171.57 120.945 1173.37 121.545 1175.57 122.245C1179.87 123.745 1185.87 126.045 1192.17 129.045C1198.47 132.045 1204.07 135.145 1207.87 137.545C1209.77 138.745 1211.37 139.745 1212.37 140.545C1213.37 141.345 1213.97 141.845 1213.97 141.845Z" fill="#595C63"/>
</g>
</g>
</g>
<g opacity="0.3">
<mask id="mask20_1584_2226" style="mask-type:luminance" maskUnits="userSpaceOnUse" x="1163" y="129" width="47" height="23">
<path d="M1209.57 129.746H1163.57V151.746H1209.57V129.746Z" fill="white"/>
</mask>
<g mask="url(#mask20_1584_2226)">
<mask id="mask21_1584_2226" style="mask-type:luminance" maskUnits="userSpaceOnUse" x="1163" y="130" width="47" height="22">
<path d="M1209.47 130.047H1163.87V151.647H1209.47V130.047Z" fill="white"/>
</mask>
<g mask="url(#mask21_1584_2226)">
<path d="M1209.47 151.747C1209.37 151.847 1206.97 150.447 1202.97 148.247C1198.97 146.047 1193.47 143.047 1187.17 140.047C1180.87 137.047 1175.07 134.647 1170.77 132.947C1166.47 131.247 1163.87 130.347 1163.87 130.147C1163.87 130.047 1164.57 130.247 1165.87 130.547C1167.07 130.847 1168.87 131.447 1171.07 132.147C1175.37 133.647 1181.37 135.947 1187.67 138.947C1193.97 141.947 1199.57 145.047 1203.37 147.447C1205.37 148.647 1206.87 149.647 1207.87 150.447C1208.97 151.247 1209.57 151.647 1209.47 151.747Z" fill="#595C63"/>
</g>
</g>
</g>
<g opacity="0.3">
<mask id="mask22_1584_2226" style="mask-type:luminance" maskUnits="userSpaceOnUse" x="1243" y="128" width="48" height="24">
<path d="M1290.57 128.746H1243.57V151.746H1290.57V128.746Z" fill="white"/>
</mask>
<g mask="url(#mask22_1584_2226)">
<mask id="mask23_1584_2226" style="mask-type:luminance" maskUnits="userSpaceOnUse" x="1244" y="129" width="20" height="23">
<path d="M1263.57 129.645H1244.37V151.345H1263.57V129.645Z" fill="white"/>
</mask>
<g mask="url(#mask23_1584_2226)">
<path d="M1289.97 151.345C1289.87 151.445 1287.47 150.045 1283.47 147.845C1279.47 145.645 1273.97 142.645 1267.67 139.645C1261.37 136.645 1255.57 134.245 1251.27 132.545C1246.97 130.845 1244.37 129.945 1244.37 129.745C1244.37 129.645 1245.07 129.845 1246.37 130.145C1247.57 130.445 1249.37 131.045 1251.57 131.745C1255.87 133.245 1261.87 135.545 1268.17 138.545C1274.47 141.545 1280.07 144.645 1283.87 147.045C1285.87 148.245 1287.37 149.245 1288.37 150.045C1289.47 150.845 1290.07 151.245 1289.97 151.345Z" fill="#595C63"/>
</g>
</g>
</g>
<g opacity="0.3">
<mask id="mask24_1584_2226" style="mask-type:luminance" maskUnits="userSpaceOnUse" x="1240" y="138" width="47" height="24">
<path d="M1286.57 138.746H1240.57V161.746H1286.57V138.746Z" fill="white"/>
</mask>
<g mask="url(#mask24_1584_2226)">
<mask id="mask25_1584_2226" style="mask-type:luminance" maskUnits="userSpaceOnUse" x="1240" y="139" width="24" height="22">
<path d="M1263.57 139.348H1240.67V160.948H1263.57V139.348Z" fill="white"/>
</mask>
<g mask="url(#mask25_1584_2226)">
<path d="M1286.27 160.946C1286.17 161.046 1283.77 159.646 1279.77 157.446C1275.77 155.246 1270.27 152.246 1263.97 149.246C1257.67 146.246 1251.87 143.846 1247.57 142.146C1243.27 140.446 1240.67 139.546 1240.67 139.346C1240.67 139.246 1241.37 139.446 1242.67 139.746C1243.87 140.046 1245.67 140.646 1247.87 141.346C1252.17 142.846 1258.17 145.146 1264.47 148.146C1270.77 151.146 1276.37 154.246 1280.17 156.746C1282.17 157.946 1283.67 158.946 1284.67 159.746C1285.77 160.446 1286.27 160.846 1286.27 160.946Z" fill="#595C63"/>
</g>
</g>
</g>
<g opacity="0.3">
<mask id="mask26_1584_2226" style="mask-type:luminance" maskUnits="userSpaceOnUse" x="1236" y="148" width="47" height="23">
<path d="M1282.57 148.746H1236.57V170.746H1282.57V148.746Z" fill="white"/>
</mask>
<g mask="url(#mask26_1584_2226)">
<mask id="mask27_1584_2226" style="mask-type:luminance" maskUnits="userSpaceOnUse" x="1236" y="148" width="28" height="23">
<path d="M1263.57 148.945H1236.87V170.545H1263.57V148.945Z" fill="white"/>
</mask>
<g mask="url(#mask27_1584_2226)">
<path d="M1282.47 170.544C1282.37 170.644 1279.97 169.244 1275.97 167.044C1271.97 164.844 1266.47 161.844 1260.17 158.844C1253.87 155.844 1248.07 153.444 1243.77 151.744C1239.47 150.044 1236.87 149.144 1236.87 148.944C1236.87 148.844 1237.57 149.044 1238.87 149.344C1240.07 149.644 1241.87 150.244 1244.07 150.944C1248.37 152.444 1254.37 154.744 1260.67 157.744C1266.97 160.744 1272.57 163.844 1276.37 166.244C1278.37 167.444 1279.87 168.444 1280.87 169.244C1281.97 170.044 1282.57 170.544 1282.47 170.544Z" fill="#595C63"/>
</g>
</g>
</g>
<g opacity="0.3">
<mask id="mask28_1584_2226" style="mask-type:luminance" maskUnits="userSpaceOnUse" x="1232" y="157" width="48" height="24">
<path d="M1279.57 157.746H1232.57V180.746H1279.57V157.746Z" fill="white"/>
</mask>
<g mask="url(#mask28_1584_2226)">
<mask id="mask29_1584_2226" style="mask-type:luminance" maskUnits="userSpaceOnUse" x="1233" y="158" width="31" height="23">
<path d="M1263.57 158.547H1233.17V180.247H1263.57V158.547Z" fill="white"/>
</mask>
<g mask="url(#mask29_1584_2226)">
<path d="M1278.77 180.247C1278.67 180.347 1276.27 178.947 1272.27 176.747C1268.27 174.547 1262.77 171.547 1256.47 168.547C1250.17 165.547 1244.37 163.147 1240.07 161.447C1235.77 159.747 1233.17 158.847 1233.17 158.647C1233.17 158.547 1233.87 158.747 1235.17 159.047C1236.37 159.347 1238.17 159.947 1240.37 160.647C1244.67 162.147 1250.67 164.447 1256.97 167.447C1263.27 170.447 1268.87 173.547 1272.77 175.947C1274.67 177.147 1276.27 178.147 1277.27 178.947C1278.27 179.747 1278.77 180.147 1278.77 180.247Z" fill="#595C63"/>
</g>
</g>
</g>
<mask id="mask30_1584_2226" style="mask-type:luminance" maskUnits="userSpaceOnUse" x="288" y="94" width="121" height="121">
<path d="M408.27 94.7461H288.27V214.746H408.27V94.7461Z" fill="white"/>
</mask>
<g mask="url(#mask30_1584_2226)">
<path d="M359.87 143.646C365.97 149.946 365.77 160.046 359.47 166.146C353.17 172.246 343.07 172.046 336.97 165.746C330.87 159.446 331.07 149.346 337.37 143.246C343.67 137.146 353.77 137.346 359.87 143.646Z" fill="#FCD472"/>
</g>
<mask id="mask31_1584_2226" style="mask-type:luminance" maskUnits="userSpaceOnUse" x="288" y="94" width="121" height="121">
<path d="M408.27 94.7461H288.27V214.746H408.27V94.7461Z" fill="white"/>
</mask>
<g mask="url(#mask31_1584_2226)">
<path d="M354.169 182.547L344.969 165.847L359.169 160.547L363.869 179.047L354.169 182.547Z" fill="#FCD472"/>
</g>
<mask id="mask32_1584_2226" style="mask-type:luminance" maskUnits="userSpaceOnUse" x="288" y="94" width="121" height="121">
<path d="M408.27 94.7461H288.27V214.746H408.27V94.7461Z" fill="white"/>
</mask>
<g mask="url(#mask32_1584_2226)">
<path d="M351.17 177.048L354.17 182.548L363.87 179.048L362.17 172.348L351.17 177.048Z" fill="#C6D0CF"/>
</g>
<mask id="mask33_1584_2226" style="mask-type:luminance" maskUnits="userSpaceOnUse" x="288" y="94" width="121" height="121">
<path d="M408.27 94.7461H288.27V214.746H408.27V94.7461Z" fill="white"/>
</mask>
<g mask="url(#mask33_1584_2226)">
<path d="M361.769 174.445C361.869 174.545 359.969 175.645 357.469 176.845C354.969 178.045 352.969 178.745 352.869 178.645C352.869 178.545 354.769 177.645 357.269 176.445C359.769 175.245 361.669 174.345 361.769 174.445Z" fill="#595C63"/>
</g>
<mask id="mask34_1584_2226" style="mask-type:luminance" maskUnits="userSpaceOnUse" x="288" y="94" width="121" height="121">
<path d="M408.27 94.7461H288.27V214.746H408.27V94.7461Z" fill="white"/>
</mask>
<g mask="url(#mask34_1584_2226)">
<path d="M361.969 176.145C362.069 176.245 360.369 177.245 358.069 178.245C355.869 179.245 353.969 179.845 353.969 179.745C353.969 179.645 355.769 178.845 357.969 177.845C360.169 176.845 361.969 175.945 361.969 176.145Z" fill="#595C63"/>
</g>
<mask id="mask35_1584_2226" style="mask-type:luminance" maskUnits="userSpaceOnUse" x="288" y="94" width="121" height="121">
<path d="M408.27 94.7461H288.27V214.746H408.27V94.7461Z" fill="white"/>
</mask>
<g mask="url(#mask35_1584_2226)">
<path d="M362.57 177.645C362.67 177.745 360.97 178.745 358.77 179.745C356.57 180.745 354.67 181.345 354.67 181.245C354.67 181.145 356.37 180.345 358.57 179.345C360.77 178.345 362.57 177.545 362.57 177.645Z" fill="#595C63"/>
</g>
<path d="M499.77 230.148V234.248H503.87" stroke="#F98012" stroke-width="0.9582" stroke-linecap="round" stroke-linejoin="round"/>
<path d="M513.17 234.25H545.57" stroke="#F98012" stroke-width="0.9582" stroke-linecap="round" stroke-linejoin="round" stroke-dasharray="10.87 10.87"/>
<path d="M550.27 234.25H554.27" stroke="#F98012" stroke-width="0.9582" stroke-linecap="round" stroke-linejoin="round"/>
<path d="M495.07 76.3484H457.37C447.37 76.3484 439.27 68.2484 439.27 58.2484C439.27 48.2484 447.37 40.1484 457.37 40.1484H457.47C457.37 39.4484 457.37 38.8484 457.37 38.1484C457.37 26.3484 466.97 16.7484 478.77 16.7484C482.57 16.7484 486.07 17.7484 489.17 19.4484C492.07 8.64843 501.97 0.648438 513.67 0.648438C527.67 0.648438 539.07 12.0484 539.07 26.0484C539.07 28.6484 538.67 31.1484 537.97 33.5484C538.37 33.5484 538.77 33.4484 539.07 33.4484C550.87 33.4484 560.47 43.0484 560.47 54.8484C560.47 66.6484 550.87 76.2484 539.07 76.2484H508.47H495.07V76.3484Z" fill="url(#paint2_linear_1584_2226)"/>
<path d="M499.969 105.75V109.85" stroke="#F98012" stroke-width="0.9582" stroke-linecap="round" stroke-linejoin="round"/>
<path d="M499.969 118.25V230.95" stroke="#F98012" stroke-width="0.9582" stroke-linecap="round" stroke-linejoin="round" stroke-dasharray="9.86 9.86"/>
<path d="M1314.27 823.748H990.57V772.848L1314.27 765.348V823.748Z" fill="#F98012"/>
<path d="M1016.37 772.248L1013.17 823.748H1020.77L1023.27 772.148L1016.37 772.248Z" fill="white"/>
<path d="M1049.07 771.945H1032.37V823.845H1049.07V771.945Z" fill="white"/>
<path d="M1232.07 790.348H1070.67V801.748H1232.07V790.348Z" fill="white"/>
<path d="M1246.57 766.947V823.747H1266.37L1264.17 766.547L1246.57 766.947Z" fill="white"/>
<path d="M1272.77 766.348V823.748H1279.47L1281.07 766.148L1272.77 766.348Z" fill="white"/>
<path d="M1022.97 772.747C1010.37 748.647 1013.87 722.947 1027.27 702.147L1279.87 689.547L1286.97 767.147L1022.97 772.747Z" fill="#F9F6EF" stroke="url(#paint3_linear_1584_2226)" stroke-width="8" stroke-miterlimit="10"/>
<path d="M1028.37 768.446C1016.57 746.946 1019.77 726.746 1032.37 708.246L1283.07 697.246L1290.07 761.946L1028.37 768.446Z" fill="#F9F6EF"/>
<path d="M1201.47 723.148L1199.37 784.448C1199.37 784.448 1208.87 764.048 1207.87 767.148C1207.37 768.848 1216.67 785.548 1216.67 785.548L1222.47 721.848L1201.47 723.148Z" fill="#4738B3"/>
<g opacity="0.31">
<mask id="mask36_1584_2226" style="mask-type:luminance" maskUnits="userSpaceOnUse" x="1037" y="719" width="235" height="15">
<path d="M1271.87 719.246H1037.87V733.246H1271.87V719.246Z" fill="white"/>
</mask>
<g mask="url(#mask36_1584_2226)">
<mask id="mask37_1584_2226" style="mask-type:luminance" maskUnits="userSpaceOnUse" x="1037" y="719" width="235" height="14">
<path d="M1271.87 719.445H1037.97V732.445H1271.87V719.445Z" fill="white"/>
</mask>
<g mask="url(#mask37_1584_2226)">
<path d="M1271.87 719.647C1271.87 719.747 1271.07 719.847 1269.47 719.947C1267.87 720.047 1265.57 720.147 1262.67 720.347C1256.67 720.547 1248.07 720.947 1237.57 721.347C1216.37 722.147 1187.17 723.447 1154.87 725.147C1122.57 726.947 1093.37 728.847 1072.17 730.347C1061.67 731.047 1053.17 731.647 1047.17 732.047C1044.27 732.247 1041.97 732.347 1040.37 732.447C1038.77 732.547 1037.97 732.547 1037.97 732.447C1037.97 732.347 1038.77 732.247 1040.37 732.047C1041.97 731.847 1044.27 731.547 1047.17 731.247C1053.07 730.647 1061.57 729.747 1072.17 728.847C1093.27 726.947 1122.47 724.747 1154.87 723.047C1187.17 721.347 1216.47 720.347 1237.67 719.847C1248.27 719.647 1256.87 719.547 1262.77 719.547C1265.67 719.547 1267.97 719.547 1269.57 719.647C1271.07 719.547 1271.87 719.647 1271.87 719.647Z" fill="#E0E0E0"/>
</g>
</g>
</g>
<path d="M1008.27 669.847C995.27 674.147 997.17 699.047 1008.27 703.647L1286.97 691.447V664.547L1008.27 669.847Z" fill="#F98012"/>
<path d="M1011.67 697.748L1290.07 684.048V670.348L1011.67 674.048C1002.57 677.148 1003.97 694.548 1011.67 697.748Z" fill="#F9F6EF"/>
<path d="M1032.37 684.047V732.947L1035.17 723.747L1039.17 732.947V684.047H1032.37Z" fill="#6054EF"/>
<defs>
<linearGradient id="paint0_linear_1584_2226" x1="40.9803" y1="741.476" x2="391.319" y2="741.476" gradientUnits="userSpaceOnUse">
<stop stop-color="#13568A"/>
<stop offset="1" stop-color="#076BD0"/>
</linearGradient>
<linearGradient id="paint1_linear_1584_2226" x1="742.923" y1="238.62" x2="864.222" y2="829.565" gradientUnits="userSpaceOnUse">
<stop stop-color="#14A5FF"/>
<stop offset="0.2095" stop-color="#118FF6"/>
<stop offset="0.6416" stop-color="#0B58DE"/>
<stop offset="1" stop-color="#0526C8"/>
</linearGradient>
<linearGradient id="paint2_linear_1584_2226" x1="439.241" y1="38.5106" x2="560.355" y2="38.5106" gradientUnits="userSpaceOnUse">
<stop stop-color="#13568A"/>
<stop offset="1" stop-color="#076BD0"/>
</linearGradient>
<linearGradient id="paint3_linear_1584_2226" x1="1011.12" y1="731.094" x2="1291.29" y2="731.094" gradientUnits="userSpaceOnUse">
<stop stop-color="#13568A"/>
<stop offset="1" stop-color="#076BD0"/>
</linearGradient>
</defs>
</svg>
