<svg width="1564" height="410" viewBox="0 0 1564 410" fill="none" xmlns="http://www.w3.org/2000/svg">
<g opacity="0.15">
<path d="M109.784 197.783H51.1278L50.8141 165.476H100.06C108.738 165.476 115.848 164.378 121.389 162.182C126.931 159.882 131.061 156.588 133.779 152.301C136.602 147.91 138.014 142.578 138.014 136.304C138.014 129.195 136.654 123.444 133.936 119.053C131.322 114.661 127.192 111.472 121.546 109.486C116.005 107.499 108.843 106.506 100.06 106.506H67.4385V298H20.3884V69.6501H100.06C113.339 69.6501 125.206 70.9048 135.661 73.4141C146.221 75.9234 155.161 79.7397 162.48 84.863C169.799 89.9862 175.392 96.4687 179.261 104.31C183.13 112.047 185.064 121.248 185.064 131.913C185.064 141.323 182.92 150.001 178.634 157.947C174.451 165.894 167.812 172.376 158.716 177.395C149.724 182.414 137.961 185.184 123.428 185.707L109.784 197.783ZM107.745 298H38.2674L56.617 261.301H107.745C116.005 261.301 122.749 259.994 127.976 257.38C133.204 254.662 137.073 251.002 139.582 246.402C142.091 241.801 143.346 236.521 143.346 230.561C143.346 223.87 142.196 218.067 139.896 213.153C137.7 208.239 134.145 204.475 129.231 201.861C124.317 199.142 117.834 197.783 109.784 197.783H64.4587L64.7723 165.476H121.232L132.054 178.179C145.96 177.97 157.147 180.427 165.616 185.55C174.19 190.569 180.411 197.104 184.28 205.154C188.253 213.205 190.239 221.831 190.239 231.032C190.239 245.67 187.05 258.007 180.672 268.045C174.295 277.978 164.937 285.453 152.599 290.472C140.366 295.491 125.415 298 107.745 298ZM318.372 108.702L256.266 298H206.236L291.083 69.6501H322.921L318.372 108.702ZM369.971 298L307.708 108.702L302.689 69.6501H334.84L420.158 298H369.971ZM367.148 212.996V249.852H246.543V212.996H367.148ZM588.126 261.301V298H473.167V261.301H588.126ZM488.38 69.6501V298H441.33V69.6501H488.38ZM761.898 261.301V298H646.939V261.301H761.898ZM662.152 69.6501V298H615.102V69.6501H662.152ZM838.904 69.6501V298H792.01V69.6501H838.904ZM1001.85 238.246C1001.85 234.169 1001.23 230.509 999.972 227.268C998.822 223.922 996.626 220.89 993.385 218.172C990.144 215.349 985.595 212.578 979.74 209.859C973.885 207.141 966.305 204.318 956.999 201.39C946.648 198.045 936.82 194.281 927.515 190.098C918.314 185.916 910.158 181.054 903.049 175.513C896.043 169.867 890.502 163.332 886.424 155.909C882.451 148.485 880.464 139.859 880.464 130.031C880.464 120.517 882.556 111.891 886.738 104.154C890.92 96.3118 896.775 89.6203 904.303 84.0788C911.831 78.4328 920.718 74.0937 930.965 71.0616C941.316 68.0295 952.66 66.5134 964.998 66.5134C981.831 66.5134 996.521 69.5455 1009.07 75.6098C1021.61 81.674 1031.34 89.9862 1038.24 100.546C1045.24 111.106 1048.75 123.183 1048.75 136.775H1002.01C1002.01 130.083 1000.6 124.228 997.776 119.21C995.058 114.086 990.875 110.061 985.229 107.133C979.688 104.206 972.683 102.742 964.214 102.742C956.058 102.742 949.262 103.997 943.825 106.506C938.388 108.911 934.311 112.204 931.592 116.387C928.874 120.464 927.515 125.065 927.515 130.188C927.515 134.056 928.456 137.559 930.338 140.696C932.324 143.832 935.252 146.76 939.12 149.478C942.989 152.197 947.746 154.759 953.392 157.163C959.038 159.568 965.573 161.921 972.996 164.221C985.439 167.985 996.365 172.219 1005.77 176.924C1015.29 181.629 1023.24 186.909 1029.61 192.765C1035.99 198.62 1040.8 205.259 1044.04 212.682C1047.28 220.106 1048.9 228.523 1048.9 237.933C1048.9 247.865 1046.97 256.753 1043.1 264.594C1039.23 272.436 1033.64 279.075 1026.32 284.512C1019 289.949 1010.27 294.079 1000.13 296.902C989.987 299.725 978.642 301.137 966.096 301.137C954.804 301.137 943.668 299.673 932.69 296.745C921.712 293.713 911.727 289.165 902.735 283.101C893.848 277.037 886.738 269.299 881.405 259.889C876.073 250.479 873.407 239.344 873.407 226.484H920.614C920.614 233.594 921.712 239.606 923.907 244.52C926.103 249.434 929.188 253.407 933.161 256.439C937.238 259.471 942.048 261.667 947.589 263.026C953.235 264.385 959.404 265.065 966.096 265.065C974.251 265.065 980.943 263.915 986.17 261.615C991.503 259.314 995.424 256.125 997.933 252.048C1000.55 247.97 1001.85 243.37 1001.85 238.246ZM1183 69.6501V298H1136.1V69.6501H1183ZM1253.26 69.6501V106.506H1066.94V69.6501H1253.26ZM1330.11 69.6501V298H1283.21V69.6501H1330.11ZM1506.54 222.249H1553.44C1552.5 237.619 1548.26 251.264 1540.73 263.183C1533.31 275.102 1522.91 284.408 1509.52 291.099C1496.25 297.791 1480.25 301.137 1461.53 301.137C1446.9 301.137 1433.77 298.627 1422.17 293.609C1410.56 288.485 1400.63 281.167 1392.37 271.652C1384.21 262.137 1377.99 250.636 1373.71 237.149C1369.42 223.661 1367.28 208.552 1367.28 191.824V175.983C1367.28 159.254 1369.47 144.146 1373.86 130.658C1378.36 117.066 1384.74 105.513 1393 95.9982C1401.36 86.4836 1411.35 79.1647 1422.95 74.0414C1434.56 68.9182 1447.52 66.3566 1461.85 66.3566C1480.88 66.3566 1496.93 69.8069 1510 76.7076C1523.17 83.6083 1533.36 93.1229 1540.58 105.251C1547.9 117.38 1552.29 131.181 1553.75 146.655H1506.7C1506.18 137.455 1504.35 129.665 1501.21 123.287C1498.08 116.805 1493.32 111.943 1486.94 108.702C1480.67 105.356 1472.3 103.683 1461.85 103.683C1454.01 103.683 1447.16 105.147 1441.3 108.074C1435.45 111.002 1430.53 115.446 1426.56 121.405C1422.59 127.365 1419.61 134.893 1417.62 143.989C1415.74 152.981 1414.8 163.541 1414.8 175.67V191.824C1414.8 203.638 1415.69 214.042 1417.46 223.033C1419.24 231.921 1421.96 239.449 1425.62 245.618C1429.38 251.682 1434.19 256.282 1440.05 259.419C1446.01 262.451 1453.17 263.967 1461.53 263.967C1471.36 263.967 1479.46 262.399 1485.84 259.262C1492.22 256.125 1497.08 251.473 1500.43 245.304C1503.88 239.135 1505.92 231.45 1506.54 222.249Z" fill="#108CF5"/>
</g>
<path d="M80.179 265.711H102.063V336.121C102.063 344.318 100.307 351.223 96.7934 356.834C93.329 362.445 88.5228 366.666 82.3747 369.496C76.2755 372.326 69.2491 373.741 61.2957 373.741C53.3422 373.741 46.267 372.326 40.0702 369.496C33.9221 366.666 29.0915 362.445 25.5783 356.834C22.1139 351.223 20.3817 344.318 20.3817 336.121V265.711H42.3391V336.121C42.3391 340.903 43.0954 344.806 44.608 347.831C46.1207 350.857 48.292 353.077 51.1221 354.492C54.0009 355.907 57.3921 356.614 61.2957 356.614C65.2968 356.614 68.688 355.907 71.4692 354.492C74.2993 353.077 76.4462 350.857 77.9101 347.831C79.4227 344.806 80.179 340.903 80.179 336.121V265.711ZM206.873 265.711V372.277H184.916L142.099 300.843V372.277H120.141V265.711H142.099L184.989 337.219V265.711H206.873ZM249.324 265.711V372.277H227.44V265.711H249.324ZM308.316 350.027L333.421 265.711H357.867L320.759 372.277H304.657L308.316 350.027ZM285.188 265.711L310.219 350.027L314.025 372.277H297.777L260.888 265.711H285.188ZM439.329 355.151V372.277H382.605V355.151H439.329ZM389.778 265.711V372.277H367.821V265.711H389.778ZM431.936 309.113V325.801H382.605V309.113H431.936ZM439.255 265.711V282.911H382.605V265.711H439.255ZM452.137 265.711H491.88C500.028 265.711 507.03 266.931 512.886 269.37C518.79 271.81 523.328 275.421 526.499 280.203C529.671 284.985 531.257 290.864 531.257 297.842C531.257 303.551 530.281 308.455 528.329 312.553C526.426 316.603 523.718 319.994 520.205 322.727C516.74 325.411 512.666 327.557 507.982 329.168L501.029 332.827H466.482L466.336 315.7H492.026C495.881 315.7 499.077 315.017 501.614 313.651C504.152 312.285 506.055 310.382 507.323 307.942C508.641 305.503 509.299 302.672 509.299 299.452C509.299 296.036 508.665 293.084 507.396 290.596C506.128 288.107 504.2 286.204 501.614 284.887C499.028 283.57 495.783 282.911 491.88 282.911H474.094V372.277H452.137V265.711ZM511.715 372.277L487.415 324.776L510.617 324.63L535.209 371.253V372.277H511.715ZM603.643 344.391C603.643 342.488 603.35 340.781 602.765 339.268C602.228 337.707 601.203 336.292 599.691 335.023C598.178 333.706 596.055 332.413 593.323 331.144C590.59 329.875 587.053 328.558 582.71 327.192C577.88 325.63 573.293 323.874 568.95 321.922C564.656 319.97 560.85 317.701 557.532 315.115C554.263 312.48 551.677 309.43 549.774 305.966C547.92 302.502 546.993 298.476 546.993 293.89C546.993 289.449 547.969 285.424 549.921 281.813C551.872 278.153 554.605 275.031 558.118 272.444C561.631 269.81 565.779 267.785 570.56 266.37C575.391 264.955 580.685 264.247 586.443 264.247C594.299 264.247 601.154 265.662 607.01 268.492C612.865 271.322 617.403 275.201 620.623 280.13C623.892 285.058 625.527 290.693 625.527 297.037H603.716C603.716 293.914 603.057 291.181 601.74 288.839C600.471 286.448 598.52 284.57 595.885 283.204C593.299 281.837 590.029 281.154 586.077 281.154C582.271 281.154 579.099 281.74 576.562 282.911C574.025 284.033 572.122 285.57 570.853 287.522C569.585 289.425 568.95 291.572 568.95 293.963C568.95 295.768 569.389 297.403 570.268 298.867C571.195 300.33 572.561 301.697 574.366 302.965C576.172 304.234 578.392 305.429 581.027 306.552C583.662 307.674 586.711 308.772 590.176 309.845C595.982 311.602 601.081 313.578 605.473 315.774C609.913 317.969 613.621 320.434 616.598 323.166C619.574 325.898 621.819 328.997 623.331 332.461C624.844 335.926 625.6 339.854 625.6 344.245C625.6 348.881 624.698 353.028 622.892 356.688C621.087 360.347 618.476 363.446 615.061 365.983C611.645 368.52 607.571 370.448 602.838 371.765C598.105 373.082 592.811 373.741 586.955 373.741C581.686 373.741 576.489 373.058 571.366 371.692C566.242 370.277 561.582 368.154 557.386 365.324C553.239 362.494 549.921 358.883 547.432 354.492C544.943 350.1 543.699 344.904 543.699 338.902H565.73C565.73 342.22 566.242 345.026 567.267 347.319C568.292 349.612 569.731 351.467 571.585 352.882C573.488 354.297 575.733 355.321 578.319 355.956C580.954 356.59 583.832 356.907 586.955 356.907C590.761 356.907 593.884 356.37 596.324 355.297C598.812 354.223 600.642 352.735 601.813 350.832C603.033 348.929 603.643 346.782 603.643 344.391ZM663.879 265.711V372.277H641.995V265.711H663.879ZM729.898 265.711V372.277H708.014V265.711H729.898ZM762.688 265.711V282.911H675.736V265.711H762.688ZM791.013 265.711L813.263 314.31L835.513 265.711H859.446L824.388 333.486V372.277H802.138V333.486L767.006 265.711H791.013Z" fill="black"/>
</svg>
