<svg width="2011" height="796" viewBox="0 0 2011 796" fill="none" xmlns="http://www.w3.org/2000/svg">
<path d="M1800.25 759.196L1797.99 795.629H1803.36L1805.13 759.125L1800.25 759.196Z" fill="white"/>
<path d="M1823.39 758.98H1811.57V795.697H1823.39V758.98Z" fill="white"/>
<path d="M2011 795.627H1782V759.618L2011 754.312V795.627Z" fill="#F98012"/>
<path d="M1963.11 755.443V795.626H1977.11L1975.56 755.16L1963.11 755.443Z" fill="white"/>
<path d="M1981.64 755.02V795.628H1986.38L1987.51 754.879L1981.64 755.02Z" fill="white"/>
<path d="M1804.92 759.547C1796.01 742.498 1798.48 724.316 1807.96 709.601L1986.67 700.688L1991.69 755.585L1804.92 759.547Z" fill="#F9F6EF" stroke="url(#paint0_linear_1731_1576)" stroke-width="8" stroke-miterlimit="10"/>
<path d="M1808.74 756.503C1800.39 741.293 1802.66 727.002 1811.57 713.915L1988.93 706.133L1993.88 751.905L1808.74 756.503Z" fill="#F9F6EF"/>
<path d="M1931.2 724.459L1929.71 767.825C1929.71 767.825 1936.44 753.393 1935.73 755.586C1935.37 756.789 1941.95 768.603 1941.95 768.603L1946.06 723.539L1931.2 724.459Z" fill="#4738B3"/>
<g opacity="0.31">
<mask id="mask0_1731_1576" style="mask-type:luminance" maskUnits="userSpaceOnUse" x="1815" y="721" width="167" height="11">
<path d="M1981.01 721.699H1815.46V731.603H1981.01V721.699Z" fill="white"/>
</mask>
<g mask="url(#mask0_1731_1576)">
<mask id="mask1_1731_1576" style="mask-type:luminance" maskUnits="userSpaceOnUse" x="1815" y="721" width="167" height="11">
<path d="M1981 721.84H1815.53V731.037H1981V721.84Z" fill="white"/>
</mask>
<g mask="url(#mask1_1731_1576)">
<path d="M1981 721.981C1981 722.052 1980.44 722.122 1979.31 722.193C1978.17 722.264 1976.55 722.335 1974.5 722.476C1970.25 722.618 1964.17 722.901 1956.74 723.184C1941.74 723.75 1921.08 724.669 1898.23 725.872C1875.38 727.145 1854.73 728.489 1839.73 729.551C1832.3 730.046 1826.29 730.47 1822.04 730.753C1819.99 730.895 1818.36 730.965 1817.23 731.036C1816.1 731.107 1815.53 731.107 1815.53 731.036C1815.53 730.965 1816.1 730.895 1817.23 730.753C1818.36 730.612 1819.99 730.4 1822.04 730.187C1826.22 729.763 1832.23 729.126 1839.73 728.489C1854.65 727.145 1875.31 725.589 1898.23 724.386C1921.08 723.184 1941.81 722.476 1956.81 722.122C1964.31 721.981 1970.39 721.91 1974.57 721.91C1976.62 721.91 1978.25 721.91 1979.38 721.981C1980.44 721.91 1981 721.981 1981 721.981Z" fill="#E0E0E0"/>
</g>
</g>
</g>
<path d="M1794.52 686.749C1785.32 689.791 1786.67 707.407 1794.52 710.661L1991.69 702.03V683L1794.52 686.749Z" fill="#F98012"/>
<path d="M1796.93 706.489L1993.88 696.797V687.105L1796.93 689.723C1790.49 691.916 1791.48 704.226 1796.93 706.489Z" fill="#F9F6EF"/>
<path d="M1811.57 696.797V731.391L1813.55 724.882L1816.38 731.391V696.797H1811.57Z" fill="#6054EF"/>
<g opacity="0.15">
<path d="M109.784 215.783H51.1278L50.8141 183.476H100.06C108.738 183.476 115.848 182.378 121.389 180.182C126.931 177.882 131.061 174.588 133.779 170.301C136.602 165.91 138.014 160.578 138.014 154.304C138.014 147.195 136.654 141.444 133.936 137.053C131.322 132.661 127.192 129.472 121.546 127.486C116.005 125.499 108.843 124.506 100.06 124.506H67.4385V316H20.3884V87.6501H100.06C113.339 87.6501 125.206 88.9048 135.661 91.4141C146.221 93.9234 155.161 97.7397 162.48 102.863C169.799 107.986 175.392 114.469 179.261 122.31C183.13 130.047 185.064 139.248 185.064 149.913C185.064 159.323 182.92 168.001 178.634 175.947C174.451 183.894 167.812 190.376 158.716 195.395C149.724 200.414 137.961 203.184 123.428 203.707L109.784 215.783ZM107.745 316H38.2674L56.617 279.301H107.745C116.005 279.301 122.749 277.994 127.976 275.38C133.204 272.662 137.073 269.002 139.582 264.402C142.091 259.801 143.346 254.521 143.346 248.561C143.346 241.87 142.196 236.067 139.896 231.153C137.7 226.239 134.145 222.475 129.231 219.861C124.317 217.142 117.834 215.783 109.784 215.783H64.4587L64.7723 183.476H121.232L132.054 196.179C145.96 195.97 157.147 198.427 165.616 203.55C174.19 208.569 180.411 215.104 184.28 223.154C188.253 231.205 190.239 239.831 190.239 249.032C190.239 263.67 187.05 276.007 180.672 286.045C174.295 295.978 164.937 303.453 152.599 308.472C140.366 313.491 125.415 316 107.745 316ZM318.372 126.702L256.266 316H206.236L291.083 87.6501H322.921L318.372 126.702ZM369.971 316L307.708 126.702L302.689 87.6501H334.84L420.158 316H369.971ZM367.148 230.996V267.852H246.543V230.996H367.148ZM588.126 279.301V316H473.167V279.301H588.126ZM488.38 87.6501V316H441.33V87.6501H488.38ZM761.898 279.301V316H646.939V279.301H761.898ZM662.152 87.6501V316H615.102V87.6501H662.152ZM838.904 87.6501V316H792.01V87.6501H838.904ZM1001.85 256.246C1001.85 252.169 1001.23 248.509 999.972 245.268C998.822 241.922 996.626 238.89 993.385 236.172C990.144 233.349 985.595 230.578 979.74 227.859C973.885 225.141 966.305 222.318 956.999 219.39C946.648 216.045 936.82 212.281 927.515 208.098C918.314 203.916 910.158 199.054 903.049 193.513C896.043 187.867 890.502 181.332 886.424 173.909C882.451 166.485 880.464 157.859 880.464 148.031C880.464 138.517 882.556 129.891 886.738 122.154C890.92 114.312 896.775 107.62 904.303 102.079C911.831 96.4328 920.718 92.0937 930.965 89.0616C941.316 86.0295 952.66 84.5134 964.998 84.5134C981.831 84.5134 996.521 87.5455 1009.07 93.6098C1021.61 99.674 1031.34 107.986 1038.24 118.546C1045.24 129.106 1048.75 141.183 1048.75 154.775H1002.01C1002.01 148.083 1000.6 142.228 997.776 137.21C995.058 132.086 990.875 128.061 985.229 125.133C979.688 122.206 972.683 120.742 964.214 120.742C956.058 120.742 949.262 121.997 943.825 124.506C938.388 126.911 934.311 130.204 931.592 134.387C928.874 138.464 927.515 143.065 927.515 148.188C927.515 152.056 928.456 155.559 930.338 158.696C932.324 161.832 935.252 164.76 939.12 167.478C942.989 170.197 947.746 172.759 953.392 175.163C959.038 177.568 965.573 179.921 972.996 182.221C985.439 185.985 996.365 190.219 1005.77 194.924C1015.29 199.629 1023.24 204.909 1029.61 210.765C1035.99 216.62 1040.8 223.259 1044.04 230.682C1047.28 238.106 1048.9 246.523 1048.9 255.933C1048.9 265.865 1046.97 274.753 1043.1 282.594C1039.23 290.436 1033.64 297.075 1026.32 302.512C1019 307.949 1010.27 312.079 1000.13 314.902C989.987 317.725 978.642 319.137 966.096 319.137C954.804 319.137 943.668 317.673 932.69 314.745C921.712 311.713 911.727 307.165 902.735 301.101C893.848 295.037 886.738 287.299 881.405 277.889C876.073 268.479 873.407 257.344 873.407 244.484H920.614C920.614 251.594 921.712 257.606 923.907 262.52C926.103 267.434 929.188 271.407 933.161 274.439C937.238 277.471 942.048 279.667 947.589 281.026C953.235 282.385 959.404 283.065 966.096 283.065C974.251 283.065 980.943 281.915 986.17 279.615C991.503 277.314 995.424 274.125 997.933 270.048C1000.55 265.97 1001.85 261.37 1001.85 256.246ZM1183 87.6501V316H1136.1V87.6501H1183ZM1253.26 87.6501V124.506H1066.94V87.6501H1253.26ZM1330.11 87.6501V316H1283.21V87.6501H1330.11ZM1506.54 240.249H1553.44C1552.5 255.619 1548.26 269.264 1540.73 281.183C1533.31 293.102 1522.91 302.408 1509.52 309.099C1496.25 315.791 1480.25 319.137 1461.53 319.137C1446.9 319.137 1433.77 316.627 1422.17 311.609C1410.56 306.485 1400.63 299.167 1392.37 289.652C1384.21 280.137 1377.99 268.636 1373.71 255.149C1369.42 241.661 1367.28 226.552 1367.28 209.824V193.983C1367.28 177.254 1369.47 162.146 1373.86 148.658C1378.36 135.066 1384.74 123.513 1393 113.998C1401.36 104.484 1411.35 97.1647 1422.95 92.0414C1434.56 86.9182 1447.52 84.3566 1461.85 84.3566C1480.88 84.3566 1496.93 87.8069 1510 94.7076C1523.17 101.608 1533.36 111.123 1540.58 123.251C1547.9 135.38 1552.29 149.181 1553.75 164.655H1506.7C1506.18 155.455 1504.35 147.665 1501.21 141.287C1498.08 134.805 1493.32 129.943 1486.94 126.702C1480.67 123.356 1472.3 121.683 1461.85 121.683C1454.01 121.683 1447.16 123.147 1441.3 126.074C1435.45 129.002 1430.53 133.446 1426.56 139.405C1422.59 145.365 1419.61 152.893 1417.62 161.989C1415.74 170.981 1414.8 181.541 1414.8 193.67V209.824C1414.8 221.638 1415.69 232.042 1417.46 241.033C1419.24 249.921 1421.96 257.449 1425.62 263.618C1429.38 269.682 1434.19 274.282 1440.05 277.419C1446.01 280.451 1453.17 281.967 1461.53 281.967C1471.36 281.967 1479.46 280.399 1485.84 277.262C1492.22 274.125 1497.08 269.473 1500.43 263.304C1503.88 257.135 1505.92 249.45 1506.54 240.249Z" fill="#108CF5"/>
</g>
<path d="M619.471 733.645V794.745H1007.97V724.645L619.471 733.645Z" fill="#F98012"/>
<path d="M650.37 732.946L646.57 794.746H655.57L658.67 732.746L650.37 732.946Z" fill="white"/>
<path d="M689.57 732.543H669.57V794.843H689.57V732.543Z" fill="white"/>
<path d="M909.271 754.645H715.471V768.345H909.271V754.645Z" fill="white"/>
<path d="M926.67 726.543V794.743H950.47L947.87 726.043L926.67 726.543Z" fill="white"/>
<path d="M958.17 725.843V794.743H966.17L968.17 725.543L958.17 725.843Z" fill="white"/>
<path d="M652.07 727.648L986.67 721.748L987.17 705.348L652.97 699.348C641.97 702.548 642.97 723.548 652.07 727.648Z" fill="#F9F6EF" stroke="url(#paint1_linear_1731_1576)" stroke-width="8" stroke-miterlimit="10"/>
<path d="M677.47 712.047L675.67 770.747L679.37 759.747L683.77 770.947L685.57 712.247L677.47 712.047Z" fill="#115A96"/>
<path d="M669.369 612.545L672.969 694.045L968.169 697.945V607.945L669.369 612.545Z" fill="#F98012"/>
<path d="M704.27 611.945L707.07 694.045L715.47 694.645V611.945H704.27Z" fill="white"/>
<path d="M726.571 611.945H720.971V694.545H726.571V611.945Z" fill="white"/>
<path d="M870.971 643.348H745.471V670.448H870.971V643.348Z" fill="white"/>
<path d="M898.67 609.048V697.048H911.47L909.27 608.848L898.67 609.048Z" fill="white"/>
<path d="M915.57 607.945L918.47 697.045L926.67 697.445L921.17 607.945H915.57Z" fill="white"/>
<path d="M691.471 539.248L694.171 613.248L796.871 614.248L904.171 607.748L902.871 535.348L691.471 539.248Z" fill="#0D61B0"/>
<g opacity="0.3">
<mask id="mask2_1731_1576" style="mask-type:luminance" maskUnits="userSpaceOnUse" x="705" y="540" width="201" height="69">
<path d="M905.17 540.746H705.17V608.746H905.17V540.746Z" fill="white"/>
</mask>
<g mask="url(#mask2_1731_1576)">
<mask id="mask3_1731_1576" style="mask-type:luminance" maskUnits="userSpaceOnUse" x="705" y="541" width="200" height="68">
<path d="M904.271 541.246H705.971V608.546H904.271V541.246Z" fill="white"/>
</mask>
<g mask="url(#mask3_1731_1576)">
<path d="M705.971 547.446L817.971 608.646L904.171 607.746L902.971 541.246L705.971 547.446Z" fill="#070B16"/>
</g>
</g>
</g>
<path d="M600.27 524.145L797.77 567.745L1000.37 516.745L799.57 478.645L600.27 524.145Z" fill="#0D61B0"/>
<path d="M600.27 524.145L600.37 529.345L797.87 574.845L797.77 567.745L600.27 524.145Z" fill="#0D61B0"/>
<path d="M797.87 574.846L999.37 520.746L1000.37 516.746L797.77 567.746L797.87 574.846Z" fill="#2F2975"/>
<g opacity="0.15">
<mask id="mask4_1731_1576" style="mask-type:luminance" maskUnits="userSpaceOnUse" x="600" y="477" width="201" height="92">
<path d="M800.17 477.746H600.17V568.746H800.17V477.746Z" fill="white"/>
</mask>
<g mask="url(#mask4_1731_1576)">
<mask id="mask5_1731_1576" style="mask-type:luminance" maskUnits="userSpaceOnUse" x="600" y="478" width="200" height="90">
<path d="M799.57 478.645H600.27V567.745H799.57V478.645Z" fill="white"/>
</mask>
<g mask="url(#mask5_1731_1576)">
<path d="M799.57 478.645L797.77 567.745L600.27 524.145L799.57 478.645Z" fill="#2F2975"/>
</g>
</g>
</g>
<path d="M797.669 511.645L687.269 543.345L687.369 549.345L677.869 547.745L678.769 542.645C678.769 542.645 756.069 518.845 797.669 511.645Z" fill="#0D1526"/>
<path d="M677.37 581.947C677.17 581.947 676.869 579.647 676.669 575.547C676.469 571.447 676.27 565.447 676.27 557.947C676.27 554.247 676.37 550.147 676.87 545.747C677.07 544.647 677.169 543.447 677.669 542.147C677.769 541.947 677.969 541.547 678.169 541.447L678.669 541.047C678.969 540.847 679.27 540.647 679.57 540.547C680.17 540.247 680.67 539.947 681.27 539.747C683.47 538.747 685.77 538.047 688.07 537.247C697.47 534.247 707.87 531.447 718.87 528.647C740.87 523.147 760.87 518.647 775.37 515.647C782.67 514.147 788.47 512.947 792.57 512.247C796.67 511.547 798.97 511.247 798.97 511.347C798.97 511.547 796.77 512.247 792.77 513.247C788.77 514.347 782.97 515.747 775.77 517.547C761.37 521.147 741.47 525.847 719.57 531.447C708.67 534.247 698.17 536.947 688.87 539.747C686.57 540.447 684.269 541.247 682.169 542.047C681.669 542.247 681.169 542.447 680.669 542.747C680.469 542.847 680.27 542.947 680.07 543.047C679.97 543.147 679.97 543.147 679.87 543.147L679.77 543.047C679.67 542.947 679.57 542.947 679.47 542.847L679.27 542.747C680.57 543.347 679.67 542.947 679.87 543.047C679.57 543.847 679.369 544.947 679.169 545.947C678.569 550.147 678.47 554.247 678.27 557.847C677.97 565.247 677.87 571.247 677.77 575.347C677.77 579.647 677.57 581.947 677.37 581.947Z" fill="#EFD387"/>
<path d="M671.57 568.445L673.47 575.145C673.47 575.145 668.17 591.245 670.17 606.245L673.97 606.145L675.17 597.345L676.27 606.145H677.67L677.57 599.145L679.37 606.044L684.97 605.945L684.77 596.945L686.07 604.845L687.87 604.544C687.87 604.544 686.47 585.445 680.97 575.845L681.97 568.145L671.57 568.445Z" fill="#EFD387"/>
<path d="M681.869 575.348C681.869 575.648 679.869 575.648 677.369 575.748C674.869 575.848 672.869 575.648 672.869 575.448C672.869 575.148 674.869 574.948 677.369 574.848C679.869 574.748 681.969 575.148 681.869 575.348Z" fill="#2F2975"/>
<path d="M1854.07 780.873H934.77V237.197C934.77 232.702 938.97 229 944.07 229H1844.77C1849.87 229 1854.07 232.702 1854.07 237.197V780.873Z" fill="#0F1735"/>
<path d="M836.07 779.816C836.07 779.816 899.47 795.946 987.17 795.946C1074.87 795.946 1814.67 795.946 1814.67 795.946C1814.67 795.946 1908.47 795.946 1957.27 779.816V775.32H836.07V779.816Z" fill="#0F1735"/>
<path d="M1957.27 775.32H836.07V779.816H1957.27V775.32Z" fill="#1C2956"/>
<path d="M1288.77 775.408V778.846C1288.77 781.314 1291.07 783.341 1293.87 783.341H1499.67C1502.37 783.341 1504.57 781.402 1504.57 779.022V775.32L1288.77 775.408Z" fill="#1C2956"/>
<path d="M1831.77 747.117H957.07V255.535C957.07 252.891 959.47 250.863 962.37 250.863H1826.37C1829.37 250.863 1831.67 252.979 1831.67 255.535V747.117H1831.77Z" fill="url(#paint2_linear_1731_1576)"/>
<g opacity="0.1">
<path d="M1461.17 758.66H1332.07V763.949H1461.17V758.66Z" fill="#F0E7CF"/>
</g>
<path opacity="0.18" d="M1488.27 229L1471.27 521.199L934.67 609.344V255.091C934.67 240.723 947.97 229 964.27 229H1488.27Z" fill="#F0E7CF"/>
<path d="M1788.5 126.5L1749 214.1L1812.6 239.1C1812.6 239.1 1814.9 252 1829.2 246.6L1891.5 275.9L1930.1 190.4L1788.5 126.5Z" fill="#3E5E82"/>
<path d="M1753.4 211.301L1818 238.901C1818 238.901 1819.6 237.601 1823 239.101C1826.3 240.601 1826.8 243.501 1826.8 243.501L1889.5 271.901L1892.8 264.501L1841.5 228.101L1756.3 204.801L1753.4 211.301Z" fill="#AEA8AF"/>
<path d="M1793.7 122L1756.3 204.8C1756.3 204.8 1818.1 222.8 1823.1 238.6C1823.1 238.6 1828.3 228.4 1892.4 265.4L1929.4 183.3C1929.4 183.3 1873.7 148.7 1859.5 156.7C1859.5 156.7 1867.6 144.1 1793.7 122Z" fill="#F9FCFB"/>
<g opacity="0.3">
<mask id="mask6_1731_1576" style="mask-type:luminance" maskUnits="userSpaceOnUse" x="1823" y="157" width="36" height="81">
<path d="M1858.5 157.098H1823.5V237.098H1858.5V157.098Z" fill="white"/>
</mask>
<g mask="url(#mask6_1731_1576)">
<mask id="mask7_1731_1576" style="mask-type:luminance" maskUnits="userSpaceOnUse" x="1823" y="157" width="35" height="80">
<path d="M1857.9 157.699H1823.6V236.699H1857.9V157.699Z" fill="white"/>
</mask>
<g mask="url(#mask7_1731_1576)">
<path d="M1823.6 236.701C1822.9 236.401 1830 218.501 1839.5 196.701C1849 174.901 1857.2 157.501 1857.9 157.801C1858.6 158.101 1851.5 176.001 1842 197.801C1832.5 219.601 1824.3 237.001 1823.6 236.701Z" fill="#595C63"/>
</g>
</g>
</g>
<g opacity="0.3">
<mask id="mask8_1731_1576" style="mask-type:luminance" maskUnits="userSpaceOnUse" x="1860" y="179" width="48" height="23">
<path d="M1907.5 179.098H1860.5V201.098H1907.5V179.098Z" fill="white"/>
</mask>
<g mask="url(#mask8_1731_1576)">
<mask id="mask9_1731_1576" style="mask-type:luminance" maskUnits="userSpaceOnUse" x="1861" y="179" width="16" height="22">
<path d="M1876.6 179.199H1861.1V200.799H1876.6V179.199Z" fill="white"/>
</mask>
<g mask="url(#mask9_1731_1576)">
<path d="M1906.6 200.899C1906.5 200.999 1904.1 199.599 1900.1 197.399C1896.1 195.199 1890.6 192.199 1884.3 189.199C1878 186.199 1872.2 183.799 1867.9 182.099C1863.6 180.399 1861 179.499 1861 179.299C1861 179.199 1861.7 179.399 1863 179.699C1864.2 179.999 1866 180.599 1868.2 181.299C1872.5 182.799 1878.5 185.099 1884.8 188.099C1891.1 191.099 1896.7 194.199 1900.5 196.599C1902.4 197.799 1904 198.799 1905 199.599C1906.1 200.299 1906.7 200.799 1906.6 200.899Z" fill="#595C63"/>
</g>
</g>
</g>
<g opacity="0.3">
<mask id="mask10_1731_1576" style="mask-type:luminance" maskUnits="userSpaceOnUse" x="1864" y="169" width="48" height="23">
<path d="M1911.5 169.098H1864.5V191.098H1911.5V169.098Z" fill="white"/>
</mask>
<g mask="url(#mask10_1731_1576)">
<mask id="mask11_1731_1576" style="mask-type:luminance" maskUnits="userSpaceOnUse" x="1865" y="169" width="12" height="22">
<path d="M1876.5 169.199H1865.3V190.799H1876.5V169.199Z" fill="white"/>
</mask>
<g mask="url(#mask11_1731_1576)">
<path d="M1910.9 190.798C1910.8 190.898 1908.4 189.498 1904.4 187.298C1900.4 185.098 1894.9 182.098 1888.6 179.098C1882.3 176.098 1876.5 173.698 1872.2 171.998C1867.9 170.298 1865.3 169.398 1865.3 169.198C1865.3 169.098 1866 169.298 1867.3 169.598C1868.5 169.898 1870.3 170.498 1872.5 171.198C1876.8 172.698 1882.8 174.998 1889.1 177.998C1895.4 180.998 1901 184.098 1904.8 186.498C1906.8 187.698 1908.3 188.698 1909.3 189.498C1910.4 190.298 1910.9 190.698 1910.9 190.798Z" fill="#595C63"/>
</g>
</g>
</g>
<g opacity="0.3">
<mask id="mask12_1731_1576" style="mask-type:luminance" maskUnits="userSpaceOnUse" x="1798" y="139" width="48" height="23">
<path d="M1845.5 139.098H1798.5V161.098H1845.5V139.098Z" fill="white"/>
</mask>
<g mask="url(#mask12_1731_1576)">
<mask id="mask13_1731_1576" style="mask-type:luminance" maskUnits="userSpaceOnUse" x="1799" y="139" width="46" height="22">
<path d="M1844.6 139.199H1799V160.799H1844.6V139.199Z" fill="white"/>
</mask>
<g mask="url(#mask13_1731_1576)">
<path d="M1844.6 160.899C1844.5 160.999 1842.1 159.599 1838.1 157.399C1834.1 155.199 1828.6 152.199 1822.3 149.199C1816 146.199 1810.2 143.799 1805.9 142.099C1801.6 140.399 1799 139.499 1799 139.299C1799 139.199 1799.7 139.399 1801 139.699C1802.2 139.999 1804 140.599 1806.2 141.299C1810.5 142.799 1816.5 145.099 1822.8 148.099C1829.1 151.099 1834.7 154.199 1838.5 156.599C1840.4 157.799 1842 158.799 1843 159.599C1844.1 160.399 1844.7 160.799 1844.6 160.899Z" fill="#595C63"/>
</g>
</g>
</g>
<g opacity="0.3">
<mask id="mask14_1731_1576" style="mask-type:luminance" maskUnits="userSpaceOnUse" x="1794" y="149" width="47" height="23">
<path d="M1840.5 149.098H1794.5V171.098H1840.5V149.098Z" fill="white"/>
</mask>
<g mask="url(#mask14_1731_1576)">
<mask id="mask15_1731_1576" style="mask-type:luminance" maskUnits="userSpaceOnUse" x="1794" y="149" width="47" height="22">
<path d="M1840.2 149.098H1794.6V170.698H1840.2V149.098Z" fill="white"/>
</mask>
<g mask="url(#mask15_1731_1576)">
<path d="M1840.2 170.696C1840.1 170.796 1837.7 169.396 1833.7 167.196C1829.7 164.996 1824.2 161.996 1817.9 158.996C1811.6 155.996 1805.8 153.596 1801.5 151.896C1797.2 150.196 1794.6 149.296 1794.6 149.096C1794.6 148.996 1795.3 149.196 1796.6 149.496C1797.8 149.796 1799.6 150.396 1801.8 151.096C1806.1 152.596 1812.1 154.896 1818.4 157.896C1824.7 160.896 1830.3 163.996 1834.1 166.396C1836 167.596 1837.6 168.596 1838.6 169.396C1839.7 170.196 1840.2 170.696 1840.2 170.696Z" fill="#595C63"/>
</g>
</g>
</g>
<g opacity="0.3">
<mask id="mask16_1731_1576" style="mask-type:luminance" maskUnits="userSpaceOnUse" x="1789" y="158" width="48" height="24">
<path d="M1836.5 158.098H1789.5V181.098H1836.5V158.098Z" fill="white"/>
</mask>
<g mask="url(#mask16_1731_1576)">
<mask id="mask17_1731_1576" style="mask-type:luminance" maskUnits="userSpaceOnUse" x="1790" y="158" width="46" height="23">
<path d="M1835.8 158.898H1790.2V180.498H1835.8V158.898Z" fill="white"/>
</mask>
<g mask="url(#mask17_1731_1576)">
<path d="M1835.7 180.599C1835.6 180.699 1833.2 179.299 1829.2 177.099C1825.2 174.899 1819.7 171.899 1813.4 168.899C1807.1 165.899 1801.3 163.499 1797 161.799C1792.7 160.099 1790.1 159.199 1790.1 158.999C1790.1 158.899 1790.8 159.099 1792.1 159.399C1793.3 159.699 1795.1 160.299 1797.3 160.999C1801.6 162.499 1807.6 164.799 1813.9 167.799C1820.2 170.799 1825.8 173.899 1829.6 176.299C1831.6 177.499 1833.1 178.499 1834.1 179.299C1835.2 180.099 1835.8 180.499 1835.7 180.599Z" fill="#595C63"/>
</g>
</g>
</g>
<g opacity="0.3">
<mask id="mask18_1731_1576" style="mask-type:luminance" maskUnits="userSpaceOnUse" x="1785" y="168" width="47" height="24">
<path d="M1831.5 168.098H1785.5V191.098H1831.5V168.098Z" fill="white"/>
</mask>
<g mask="url(#mask18_1731_1576)">
<mask id="mask19_1731_1576" style="mask-type:luminance" maskUnits="userSpaceOnUse" x="1785" y="168" width="47" height="23">
<path d="M1831.3 168.699H1785.7V190.299H1831.3V168.699Z" fill="white"/>
</mask>
<g mask="url(#mask19_1731_1576)">
<path d="M1831.3 190.399C1831.2 190.499 1828.8 189.099 1824.8 186.899C1820.8 184.699 1815.3 181.699 1809 178.699C1802.7 175.699 1796.9 173.299 1792.6 171.599C1788.3 169.899 1785.7 168.999 1785.7 168.799C1785.7 168.699 1786.4 168.899 1787.7 169.199C1788.9 169.499 1790.7 170.099 1792.9 170.799C1797.2 172.299 1803.2 174.599 1809.5 177.599C1815.8 180.599 1821.4 183.699 1825.2 186.099C1827.1 187.299 1828.7 188.299 1829.7 189.099C1830.8 189.899 1831.3 190.299 1831.3 190.399Z" fill="#595C63"/>
</g>
</g>
</g>
<g opacity="0.3">
<mask id="mask20_1731_1576" style="mask-type:luminance" maskUnits="userSpaceOnUse" x="1780" y="178" width="48" height="24">
<path d="M1827.5 178.098H1780.5V201.098H1827.5V178.098Z" fill="white"/>
</mask>
<g mask="url(#mask20_1731_1576)">
<mask id="mask21_1731_1576" style="mask-type:luminance" maskUnits="userSpaceOnUse" x="1781" y="178" width="46" height="23">
<path d="M1826.9 178.598H1781.3V200.198H1826.9V178.598Z" fill="white"/>
</mask>
<g mask="url(#mask21_1731_1576)">
<path d="M1826.9 200.196C1826.8 200.296 1824.4 198.896 1820.4 196.696C1816.4 194.496 1810.9 191.496 1804.6 188.496C1798.3 185.496 1792.5 183.096 1788.2 181.396C1783.9 179.696 1781.3 178.796 1781.3 178.596C1781.3 178.496 1782 178.696 1783.3 178.996C1784.5 179.296 1786.3 179.896 1788.5 180.596C1792.8 182.096 1798.8 184.396 1805.1 187.396C1811.4 190.396 1817 193.496 1820.8 195.896C1822.7 197.096 1824.3 198.096 1825.3 198.896C1826.3 199.696 1826.9 200.196 1826.9 200.196Z" fill="#595C63"/>
</g>
</g>
</g>
<g opacity="0.3">
<mask id="mask22_1731_1576" style="mask-type:luminance" maskUnits="userSpaceOnUse" x="1776" y="188" width="47" height="23">
<path d="M1822.5 188.098H1776.5V210.098H1822.5V188.098Z" fill="white"/>
</mask>
<g mask="url(#mask22_1731_1576)">
<mask id="mask23_1731_1576" style="mask-type:luminance" maskUnits="userSpaceOnUse" x="1776" y="188" width="47" height="22">
<path d="M1822.4 188.398H1776.8V209.998H1822.4V188.398Z" fill="white"/>
</mask>
<g mask="url(#mask23_1731_1576)">
<path d="M1822.4 210.099C1822.3 210.199 1819.9 208.799 1815.9 206.599C1811.9 204.399 1806.4 201.399 1800.1 198.399C1793.8 195.399 1788 192.999 1783.7 191.299C1779.4 189.599 1776.8 188.699 1776.8 188.499C1776.8 188.399 1777.5 188.599 1778.8 188.899C1780 189.199 1781.8 189.799 1784 190.499C1788.3 191.999 1794.3 194.299 1800.6 197.299C1806.9 200.299 1812.5 203.399 1816.3 205.799C1818.3 206.999 1819.8 207.999 1820.8 208.799C1821.9 209.599 1822.5 209.999 1822.4 210.099Z" fill="#595C63"/>
</g>
</g>
</g>
<g opacity="0.3">
<mask id="mask24_1731_1576" style="mask-type:luminance" maskUnits="userSpaceOnUse" x="1856" y="187" width="48" height="24">
<path d="M1903.5 187.098H1856.5V210.098H1903.5V187.098Z" fill="white"/>
</mask>
<g mask="url(#mask24_1731_1576)">
<mask id="mask25_1731_1576" style="mask-type:luminance" maskUnits="userSpaceOnUse" x="1857" y="187" width="20" height="23">
<path d="M1876.5 187.996H1857.3V209.696H1876.5V187.996Z" fill="white"/>
</mask>
<g mask="url(#mask25_1731_1576)">
<path d="M1902.9 209.696C1902.8 209.796 1900.4 208.396 1896.4 206.196C1892.4 203.996 1886.9 200.996 1880.6 197.996C1874.3 194.996 1868.5 192.596 1864.2 190.896C1859.9 189.196 1857.3 188.296 1857.3 188.096C1857.3 187.996 1858 188.196 1859.3 188.496C1860.5 188.796 1862.3 189.396 1864.5 190.096C1868.8 191.596 1874.8 193.896 1881.1 196.896C1887.4 199.896 1893 202.996 1896.8 205.396C1898.8 206.596 1900.3 207.596 1901.3 208.396C1902.4 209.196 1903 209.596 1902.9 209.696Z" fill="#595C63"/>
</g>
</g>
</g>
<g opacity="0.3">
<mask id="mask26_1731_1576" style="mask-type:luminance" maskUnits="userSpaceOnUse" x="1853" y="197" width="47" height="24">
<path d="M1899.5 197.098H1853.5V220.098H1899.5V197.098Z" fill="white"/>
</mask>
<g mask="url(#mask26_1731_1576)">
<mask id="mask27_1731_1576" style="mask-type:luminance" maskUnits="userSpaceOnUse" x="1853" y="197" width="24" height="23">
<path d="M1876.5 197.699H1853.6V219.299H1876.5V197.699Z" fill="white"/>
</mask>
<g mask="url(#mask27_1731_1576)">
<path d="M1899.2 219.298C1899.1 219.398 1896.7 217.998 1892.7 215.798C1888.7 213.598 1883.2 210.598 1876.9 207.598C1870.6 204.598 1864.8 202.198 1860.5 200.498C1856.2 198.798 1853.6 197.898 1853.6 197.698C1853.6 197.598 1854.3 197.798 1855.6 198.098C1856.8 198.398 1858.6 198.998 1860.8 199.698C1865.1 201.198 1871.1 203.498 1877.4 206.498C1883.7 209.498 1889.3 212.598 1893.1 215.098C1895.1 216.298 1896.6 217.298 1897.6 218.098C1898.7 218.798 1899.2 219.198 1899.2 219.298Z" fill="#595C63"/>
</g>
</g>
</g>
<g opacity="0.3">
<mask id="mask28_1731_1576" style="mask-type:luminance" maskUnits="userSpaceOnUse" x="1849" y="207" width="47" height="23">
<path d="M1895.5 207.098H1849.5V229.098H1895.5V207.098Z" fill="white"/>
</mask>
<g mask="url(#mask28_1731_1576)">
<mask id="mask29_1731_1576" style="mask-type:luminance" maskUnits="userSpaceOnUse" x="1849" y="207" width="28" height="22">
<path d="M1876.5 207.297H1849.8V228.897H1876.5V207.297Z" fill="white"/>
</mask>
<g mask="url(#mask29_1731_1576)">
<path d="M1895.4 228.896C1895.3 228.996 1892.9 227.596 1888.9 225.396C1884.9 223.196 1879.4 220.196 1873.1 217.196C1866.8 214.196 1861 211.796 1856.7 210.096C1852.4 208.396 1849.8 207.496 1849.8 207.296C1849.8 207.196 1850.5 207.396 1851.8 207.696C1853 207.996 1854.8 208.596 1857 209.296C1861.3 210.796 1867.3 213.096 1873.6 216.096C1879.9 219.096 1885.5 222.196 1889.3 224.596C1891.3 225.796 1892.8 226.796 1893.8 227.596C1894.9 228.396 1895.5 228.896 1895.4 228.896Z" fill="#595C63"/>
</g>
</g>
</g>
<g opacity="0.3">
<mask id="mask30_1731_1576" style="mask-type:luminance" maskUnits="userSpaceOnUse" x="1845" y="216" width="48" height="24">
<path d="M1892.5 216.098H1845.5V239.098H1892.5V216.098Z" fill="white"/>
</mask>
<g mask="url(#mask30_1731_1576)">
<mask id="mask31_1731_1576" style="mask-type:luminance" maskUnits="userSpaceOnUse" x="1846" y="216" width="31" height="23">
<path d="M1876.5 216.898H1846.1V238.598H1876.5V216.898Z" fill="white"/>
</mask>
<g mask="url(#mask31_1731_1576)">
<path d="M1891.7 238.599C1891.6 238.699 1889.2 237.299 1885.2 235.099C1881.2 232.899 1875.7 229.899 1869.4 226.899C1863.1 223.899 1857.3 221.499 1853 219.799C1848.7 218.099 1846.1 217.199 1846.1 216.999C1846.1 216.899 1846.8 217.099 1848.1 217.399C1849.3 217.699 1851.1 218.299 1853.3 218.999C1857.6 220.499 1863.6 222.799 1869.9 225.799C1876.2 228.799 1881.8 231.899 1885.7 234.299C1887.6 235.499 1889.2 236.499 1890.2 237.299C1891.2 238.099 1891.7 238.499 1891.7 238.599Z" fill="#595C63"/>
</g>
</g>
</g>
<mask id="mask32_1731_1576" style="mask-type:luminance" maskUnits="userSpaceOnUse" x="886" y="133" width="121" height="121">
<path d="M1006.27 133.746H886.27V253.746H1006.27V133.746Z" fill="white"/>
</mask>
<g mask="url(#mask32_1731_1576)">
<path d="M957.87 182.646C963.97 188.946 963.77 199.046 957.47 205.146C951.17 211.246 941.07 211.046 934.97 204.746C928.87 198.446 929.07 188.346 935.37 182.246C941.67 176.146 951.77 176.346 957.87 182.646Z" fill="#FCD472"/>
</g>
<mask id="mask33_1731_1576" style="mask-type:luminance" maskUnits="userSpaceOnUse" x="886" y="133" width="121" height="121">
<path d="M1006.27 133.746H886.27V253.746H1006.27V133.746Z" fill="white"/>
</mask>
<g mask="url(#mask33_1731_1576)">
<path d="M952.169 221.547L942.969 204.847L957.169 199.547L961.869 218.047L952.169 221.547Z" fill="#FCD472"/>
</g>
<mask id="mask34_1731_1576" style="mask-type:luminance" maskUnits="userSpaceOnUse" x="886" y="133" width="121" height="121">
<path d="M1006.27 133.746H886.27V253.746H1006.27V133.746Z" fill="white"/>
</mask>
<g mask="url(#mask34_1731_1576)">
<path d="M949.17 216.048L952.17 221.548L961.87 218.048L960.17 211.348L949.17 216.048Z" fill="#C6D0CF"/>
</g>
<mask id="mask35_1731_1576" style="mask-type:luminance" maskUnits="userSpaceOnUse" x="886" y="133" width="121" height="121">
<path d="M1006.27 133.746H886.27V253.746H1006.27V133.746Z" fill="white"/>
</mask>
<g mask="url(#mask35_1731_1576)">
<path d="M959.769 213.445C959.869 213.545 957.969 214.645 955.469 215.845C952.969 217.045 950.969 217.745 950.869 217.645C950.869 217.545 952.769 216.645 955.269 215.445C957.769 214.245 959.669 213.345 959.769 213.445Z" fill="#595C63"/>
</g>
<mask id="mask36_1731_1576" style="mask-type:luminance" maskUnits="userSpaceOnUse" x="886" y="133" width="121" height="121">
<path d="M1006.27 133.746H886.27V253.746H1006.27V133.746Z" fill="white"/>
</mask>
<g mask="url(#mask36_1731_1576)">
<path d="M959.969 215.145C960.069 215.245 958.369 216.245 956.069 217.245C953.869 218.245 951.969 218.845 951.969 218.745C951.969 218.645 953.769 217.845 955.969 216.845C958.169 215.845 959.969 214.945 959.969 215.145Z" fill="#595C63"/>
</g>
<mask id="mask37_1731_1576" style="mask-type:luminance" maskUnits="userSpaceOnUse" x="886" y="133" width="121" height="121">
<path d="M1006.27 133.746H886.27V253.746H1006.27V133.746Z" fill="white"/>
</mask>
<g mask="url(#mask37_1731_1576)">
<path d="M960.57 216.645C960.67 216.745 958.97 217.745 956.77 218.745C954.57 219.745 952.67 220.345 952.67 220.245C952.67 220.145 954.37 219.345 956.57 218.345C958.77 217.345 960.57 216.545 960.57 216.645Z" fill="#595C63"/>
</g>
<path d="M1097.77 269.148V273.248H1101.87" stroke="#F98012" stroke-width="0.9582" stroke-linecap="round" stroke-linejoin="round"/>
<path d="M1111.17 273.25H1143.57" stroke="#F98012" stroke-width="0.9582" stroke-linecap="round" stroke-linejoin="round" stroke-dasharray="10.87 10.87"/>
<path d="M1148.27 273.25H1152.27" stroke="#F98012" stroke-width="0.9582" stroke-linecap="round" stroke-linejoin="round"/>
<path d="M1093.07 115.348H1055.37C1045.37 115.348 1037.27 107.248 1037.27 97.2484C1037.27 87.2484 1045.37 79.1484 1055.37 79.1484H1055.47C1055.37 78.4484 1055.37 77.8484 1055.37 77.1484C1055.37 65.3484 1064.97 55.7484 1076.77 55.7484C1080.57 55.7484 1084.07 56.7484 1087.17 58.4484C1090.07 47.6484 1099.97 39.6484 1111.67 39.6484C1125.67 39.6484 1137.07 51.0484 1137.07 65.0484C1137.07 67.6484 1136.67 70.1484 1135.97 72.5484C1136.37 72.5484 1136.77 72.4484 1137.07 72.4484C1148.87 72.4484 1158.47 82.0484 1158.47 93.8484C1158.47 105.648 1148.87 115.248 1137.07 115.248H1106.47H1093.07V115.348Z" fill="url(#paint3_linear_1731_1576)"/>
<path d="M1097.97 144.75V148.85" stroke="#F98012" stroke-width="0.9582" stroke-linecap="round" stroke-linejoin="round"/>
<path d="M1097.97 157.25V269.95" stroke="#F98012" stroke-width="0.9582" stroke-linecap="round" stroke-linejoin="round" stroke-dasharray="9.86 9.86"/>
<path d="M80.179 283.711H102.063V354.121C102.063 362.318 100.307 369.223 96.7934 374.834C93.329 380.445 88.5228 384.666 82.3747 387.496C76.2755 390.326 69.2491 391.741 61.2957 391.741C53.3422 391.741 46.267 390.326 40.0702 387.496C33.9221 384.666 29.0915 380.445 25.5783 374.834C22.1139 369.223 20.3817 362.318 20.3817 354.121V283.711H42.3391V354.121C42.3391 358.903 43.0954 362.806 44.608 365.831C46.1207 368.857 48.292 371.077 51.1221 372.492C54.0009 373.907 57.3921 374.614 61.2957 374.614C65.2968 374.614 68.688 373.907 71.4692 372.492C74.2993 371.077 76.4462 368.857 77.9101 365.831C79.4227 362.806 80.179 358.903 80.179 354.121V283.711ZM206.873 283.711V390.277H184.916L142.099 318.843V390.277H120.141V283.711H142.099L184.989 355.219V283.711H206.873ZM249.324 283.711V390.277H227.44V283.711H249.324ZM308.316 368.027L333.421 283.711H357.867L320.759 390.277H304.657L308.316 368.027ZM285.188 283.711L310.219 368.027L314.025 390.277H297.777L260.888 283.711H285.188ZM439.329 373.151V390.277H382.605V373.151H439.329ZM389.778 283.711V390.277H367.821V283.711H389.778ZM431.936 327.113V343.801H382.605V327.113H431.936ZM439.255 283.711V300.911H382.605V283.711H439.255ZM452.137 283.711H491.88C500.028 283.711 507.03 284.931 512.886 287.37C518.79 289.81 523.328 293.421 526.499 298.203C529.671 302.985 531.257 308.864 531.257 315.842C531.257 321.551 530.281 326.455 528.329 330.553C526.426 334.603 523.718 337.994 520.205 340.727C516.74 343.411 512.666 345.557 507.982 347.168L501.029 350.827H466.482L466.336 333.7H492.026C495.881 333.7 499.077 333.017 501.614 331.651C504.152 330.285 506.055 328.382 507.323 325.942C508.641 323.503 509.299 320.672 509.299 317.452C509.299 314.036 508.665 311.084 507.396 308.596C506.128 306.107 504.2 304.204 501.614 302.887C499.028 301.57 495.783 300.911 491.88 300.911H474.094V390.277H452.137V283.711ZM511.715 390.277L487.415 342.776L510.617 342.63L535.209 389.253V390.277H511.715ZM603.643 362.391C603.643 360.488 603.35 358.781 602.765 357.268C602.228 355.707 601.203 354.292 599.691 353.023C598.178 351.706 596.055 350.413 593.323 349.144C590.59 347.875 587.053 346.558 582.71 345.192C577.88 343.63 573.293 341.874 568.95 339.922C564.656 337.97 560.85 335.701 557.532 333.115C554.263 330.48 551.677 327.43 549.774 323.966C547.92 320.502 546.993 316.476 546.993 311.89C546.993 307.449 547.969 303.424 549.921 299.813C551.872 296.153 554.605 293.031 558.118 290.444C561.631 287.81 565.779 285.785 570.56 284.37C575.391 282.955 580.685 282.247 586.443 282.247C594.299 282.247 601.154 283.662 607.01 286.492C612.865 289.322 617.403 293.201 620.623 298.13C623.892 303.058 625.527 308.693 625.527 315.037H603.716C603.716 311.914 603.057 309.181 601.74 306.839C600.471 304.448 598.52 302.57 595.885 301.204C593.299 299.837 590.029 299.154 586.077 299.154C582.271 299.154 579.099 299.74 576.562 300.911C574.025 302.033 572.122 303.57 570.853 305.522C569.585 307.425 568.95 309.572 568.95 311.963C568.95 313.768 569.389 315.403 570.268 316.867C571.195 318.33 572.561 319.697 574.366 320.965C576.172 322.234 578.392 323.429 581.027 324.552C583.662 325.674 586.711 326.772 590.176 327.845C595.982 329.602 601.081 331.578 605.473 333.774C609.913 335.969 613.621 338.434 616.598 341.166C619.574 343.898 621.819 346.997 623.331 350.461C624.844 353.926 625.6 357.854 625.6 362.245C625.6 366.881 624.698 371.028 622.892 374.688C621.087 378.347 618.476 381.446 615.061 383.983C611.645 386.52 607.571 388.448 602.838 389.765C598.105 391.082 592.811 391.741 586.955 391.741C581.686 391.741 576.489 391.058 571.366 389.692C566.242 388.277 561.582 386.154 557.386 383.324C553.239 380.494 549.921 376.883 547.432 372.492C544.943 368.1 543.699 362.904 543.699 356.902H565.73C565.73 360.22 566.242 363.026 567.267 365.319C568.292 367.612 569.731 369.467 571.585 370.882C573.488 372.297 575.733 373.321 578.319 373.956C580.954 374.59 583.832 374.907 586.955 374.907C590.761 374.907 593.884 374.37 596.324 373.297C598.812 372.223 600.642 370.735 601.813 368.832C603.033 366.929 603.643 364.782 603.643 362.391ZM663.879 283.711V390.277H641.995V283.711H663.879ZM729.898 283.711V390.277H708.014V283.711H729.898ZM762.688 283.711V300.911H675.736V283.711H762.688ZM791.013 283.711L813.263 332.31L835.513 283.711H859.446L824.388 351.486V390.277H802.138V351.486L767.006 283.711H791.013Z" fill="black"/>
<defs>
<linearGradient id="paint0_linear_1731_1576" x1="1796.54" y1="730.08" x2="1994.75" y2="730.08" gradientUnits="userSpaceOnUse">
<stop stop-color="#13568A"/>
<stop offset="1" stop-color="#076BD0"/>
</linearGradient>
<linearGradient id="paint1_linear_1731_1576" x1="640.98" y1="713.476" x2="991.319" y2="713.476" gradientUnits="userSpaceOnUse">
<stop stop-color="#13568A"/>
<stop offset="1" stop-color="#076BD0"/>
</linearGradient>
<linearGradient id="paint2_linear_1731_1576" x1="1342.92" y1="280.016" x2="1438.02" y2="805.641" gradientUnits="userSpaceOnUse">
<stop stop-color="#14A5FF"/>
<stop offset="0.2095" stop-color="#118FF6"/>
<stop offset="0.6416" stop-color="#0B58DE"/>
<stop offset="1" stop-color="#0526C8"/>
</linearGradient>
<linearGradient id="paint3_linear_1731_1576" x1="1037.24" y1="77.5106" x2="1158.35" y2="77.5106" gradientUnits="userSpaceOnUse">
<stop stop-color="#13568A"/>
<stop offset="1" stop-color="#076BD0"/>
</linearGradient>
</defs>
</svg>
