<svg width="986" height="894" viewBox="0 0 986 894" fill="none" xmlns="http://www.w3.org/2000/svg">
<path opacity="0.12" d="M545.093 747.813C709.666 668.39 793.61 468.903 793.61 337.134C793.61 205.365 750.006 128.705 649.132 136.391C548.258 144.077 436.985 256.957 339.276 240.128C241.567 223.299 39.0656 275.746 6.41223 421.129C-39.6542 625.84 164.806 931.275 545.093 747.813Z" fill="url(#paint0_linear_224_2739)"/>
<mask id="mask0_224_2739" style="mask-type:luminance" maskUnits="userSpaceOnUse" x="0" y="135" width="794" height="670">
<path d="M545.093 747.813C709.666 668.39 793.61 468.903 793.61 337.134C793.61 205.365 750.006 128.705 649.132 136.391C548.258 144.077 436.985 256.957 339.276 240.128C241.567 223.299 39.0656 275.746 6.41223 421.129C-39.6542 625.84 164.806 931.275 545.093 747.813Z" fill="white"/>
</mask>
<g mask="url(#mask0_224_2739)">
<g opacity="0.55">
<path d="M267.991 834.822C245.284 804.63 226.998 770.972 213.635 734.802C200.423 698.933 192.486 661.457 189.924 623.429L190.929 623.378C193.44 661.307 201.378 698.682 214.539 734.45C227.852 770.52 246.088 804.077 268.794 834.219L267.991 834.822Z" fill="url(#paint1_linear_224_2739)"/>
<path d="M195.552 665.829C189.674 654.877 184.248 646.036 178.923 639.354C176.311 635.988 173.699 633.225 171.187 631.015C168.675 628.805 166.264 627.147 163.853 626.092C159.13 623.982 154.71 624.283 150.942 627.046C149.083 628.453 147.375 630.462 145.868 633.075C144.361 635.737 143.155 638.952 142.201 642.871C141.699 644.83 141.498 646.689 141.397 648.497C141.347 650.306 141.447 652.064 141.749 653.722C142.352 657.037 143.658 660.051 145.416 662.664C146.27 663.97 147.325 665.175 148.43 666.281C149.535 667.386 150.791 668.391 152.097 669.345C154.71 671.154 157.623 672.61 160.738 673.565C173.196 677.534 188.016 674.67 195.552 665.829Z" fill="url(#paint2_linear_224_2739)"/>
<path d="M225.089 761.427C222.979 759.166 220.969 756.956 218.96 754.946C217.955 753.942 216.95 752.937 215.996 751.983C215.041 751.028 214.087 750.074 213.133 749.169C212.178 748.265 211.274 747.411 210.319 746.557C209.365 745.753 208.461 744.95 207.607 744.146C205.848 742.588 204.09 741.182 202.382 739.926C195.65 734.752 189.572 731.737 184.498 730.883C179.374 730.029 175.204 731.436 172.24 735.053C169.276 738.67 167.619 744.548 167.719 752.535C167.82 760.523 171.035 766.702 175.757 770.871C178.168 772.981 180.931 774.539 183.895 775.694C186.909 776.799 190.124 777.452 193.34 777.653C206.351 778.407 220.015 771.926 225.089 761.427Z" fill="url(#paint3_linear_224_2739)"/>
<path d="M211.275 726.664C211.225 720.837 211.526 715.612 212.229 710.89C212.882 706.218 213.937 702.049 215.143 698.432C215.746 696.623 216.449 694.965 217.153 693.458C217.856 691.951 218.66 690.545 219.413 689.289C221.021 686.777 222.779 684.818 224.638 683.361C228.355 680.447 232.374 679.593 236.443 680.648C240.462 681.703 244.531 684.566 248.349 689.238C250.308 691.549 251.413 693.961 251.966 696.372C252.519 698.783 252.418 701.195 251.815 703.556C250.71 708.328 247.395 713.05 243.175 717.069C234.584 725.057 221.573 730.482 211.275 726.664Z" fill="url(#paint4_linear_224_2739)"/>
<path d="M199.92 687.33C200.02 685.722 200.171 684.165 200.372 682.708C200.623 681.251 200.925 679.845 201.276 678.488C202.03 675.826 202.884 673.465 204.039 671.355C206.3 667.185 209.063 664.271 211.926 662.563C214.79 660.855 217.653 660.403 220.065 661.157C222.476 661.91 224.435 663.92 225.39 667.235C225.842 668.893 225.892 670.451 225.49 671.857C225.088 673.314 224.234 674.62 223.129 675.876C220.919 678.338 217.653 680.447 214.187 682.156C210.771 683.864 207.204 685.17 204.491 686.024C201.829 686.878 199.92 687.33 199.92 687.33Z" fill="url(#paint5_linear_224_2739)"/>
<path d="M205.849 709.785C204.091 707.072 202.333 704.661 200.424 702.601C199.469 701.546 198.515 700.592 197.611 699.687C196.656 698.783 195.702 697.979 194.747 697.276C192.838 695.819 190.929 694.664 189.121 693.759C187.312 692.905 185.504 692.303 183.846 692.051C180.53 691.499 177.667 692.152 175.808 693.96C174.854 694.865 174.201 696.07 173.799 697.527C173.397 698.984 173.397 700.692 173.698 702.701C174.05 704.661 174.753 706.318 175.808 707.574C176.913 708.88 178.27 709.835 179.877 710.538C183.042 711.945 187.011 712.347 190.829 712.246C194.647 712.146 198.414 711.543 201.228 710.94C204.041 710.337 205.849 709.785 205.849 709.785Z" fill="url(#paint6_linear_224_2739)"/>
<path d="M232.776 777.402C232.575 775.995 232.374 774.589 232.274 773.283C232.173 771.977 232.123 770.721 232.073 769.515C232.023 767.104 232.123 764.994 232.425 763.085C233.027 759.267 234.183 756.454 235.69 754.645C238.754 751.028 243.276 751.38 247.998 755.65C250.359 757.76 251.263 760.272 251.062 762.834C251.012 763.487 250.911 764.14 250.71 764.793C250.56 765.446 250.309 766.099 250.057 766.702C249.505 767.958 248.751 769.214 247.847 770.369C244.28 775.091 238.151 778.608 232.776 777.402Z" fill="url(#paint7_linear_224_2739)"/>
<path d="M242.37 795.035C240.612 793.377 238.854 791.971 237.146 790.765C235.438 789.56 233.73 788.655 232.072 787.902C230.414 787.198 228.807 786.696 227.3 786.395C225.793 786.093 224.436 785.993 223.18 786.143C220.669 786.344 218.709 787.349 217.705 789.007C217.202 789.811 216.901 790.815 216.851 791.921C216.851 793.026 217.102 794.282 217.705 795.638C218.86 798.351 220.97 799.707 223.582 800.159C226.144 800.611 229.108 800.21 231.871 799.406C237.397 797.899 242.37 795.035 242.37 795.035Z" fill="url(#paint8_linear_224_2739)"/>
<path d="M192.988 649.301C193.29 647.241 193.742 645.282 194.244 643.423C194.747 641.564 195.249 639.806 195.952 638.148C197.258 634.833 198.765 631.919 200.473 629.458C203.94 624.484 207.908 621.169 211.827 619.41C215.745 617.652 219.513 617.501 222.427 618.808C225.34 620.114 227.601 622.877 228.354 627.147C228.756 629.307 228.555 631.216 227.802 632.974C227.048 634.732 225.792 636.29 224.285 637.696C221.171 640.509 216.649 642.77 212.028 644.528C207.406 646.236 202.634 647.492 199.067 648.246C195.45 648.999 192.988 649.301 192.988 649.301Z" fill="url(#paint9_linear_224_2739)"/>
<path d="M190.376 625.288C185.855 619.059 183.042 611.925 181.585 604.842C180.882 601.325 180.48 597.809 180.43 594.443C180.43 591.077 180.58 587.912 181.083 584.999C181.585 582.085 182.339 579.423 183.243 577.212C184.197 574.951 185.353 573.093 186.558 571.736C189.07 568.973 192.034 568.17 195.199 570.028C196.756 570.933 197.811 572.44 198.464 574.399C198.766 575.353 198.967 576.459 199.117 577.664C199.218 578.82 199.318 580.126 199.318 581.482C199.268 584.195 198.917 587.159 198.515 590.273C198.263 591.831 198.012 593.438 197.661 595.046C197.359 596.653 197.058 598.261 196.706 599.869C196.354 601.476 196.003 603.084 195.601 604.641C195.249 606.198 194.898 607.756 194.546 609.263C193.792 612.227 193.089 615.04 192.486 617.401C191.18 622.173 190.376 625.288 190.376 625.288Z" fill="url(#paint10_linear_224_2739)"/>
</g>
</g>
<mask id="mask1_224_2739" style="mask-type:luminance" maskUnits="userSpaceOnUse" x="0" y="135" width="794" height="670">
<path d="M545.093 747.813C709.666 668.39 793.61 468.903 793.61 337.134C793.61 205.365 750.006 128.705 649.132 136.391C548.258 144.077 436.985 256.957 339.276 240.128C241.567 223.299 39.0656 275.746 6.41223 421.129C-39.6542 625.84 164.806 931.275 545.093 747.813Z" fill="white"/>
</mask>
<g mask="url(#mask1_224_2739)">
<g opacity="0.55">
<path d="M599.249 365.366C584.228 433.788 566.395 501.556 545.798 568.47L599.249 365.366Z" fill="url(#paint11_linear_224_2739)"/>
<path d="M590.505 403.696C590.204 400.833 589.802 398.12 589.35 395.508C588.898 392.895 588.395 390.434 587.793 388.123C586.637 383.451 585.331 379.332 583.774 375.715C580.709 368.481 576.992 363.407 572.973 360.393C564.935 354.415 555.642 356.776 547.855 367.426C543.937 372.701 543.334 378.176 544.991 383.25C546.649 388.324 550.517 393.046 555.541 396.864C565.538 404.45 580.157 408.368 590.505 403.696Z" fill="url(#paint12_linear_224_2739)"/>
<path d="M567.649 493.267C566.745 481.763 564.736 472.369 561.973 465.035C559.16 457.7 555.643 452.475 551.725 449.361C543.888 443.081 534.594 445.141 526.355 455.439C522.286 460.614 521.482 465.989 522.939 471.163C524.396 476.287 528.114 481.16 532.987 485.129C542.682 493.066 557.15 497.487 567.649 493.267Z" fill="url(#paint13_linear_224_2739)"/>
<path d="M576.589 459.911C582.617 451.019 588.595 444.237 594.171 439.414C599.748 434.642 605.022 431.829 609.644 430.924C618.888 429.116 625.669 434.993 627.679 447.552C628.684 453.832 626.775 458.856 623.208 462.473C619.591 466.14 614.316 468.501 608.539 469.506C596.784 471.565 583.069 468.25 576.589 459.911Z" fill="url(#paint14_linear_224_2739)"/>
<path d="M585.784 423.389C588.899 418.265 592.516 414.447 596.183 411.784C599.85 409.122 603.568 407.665 606.833 407.263C613.414 406.459 618.186 409.926 617.282 416.858C616.378 423.791 608.441 425.398 600.805 425.298C593.219 425.197 585.784 423.389 585.784 423.389Z" fill="url(#paint15_linear_224_2739)"/>
<path d="M580.611 444.136C579.907 432.18 574.783 423.891 569.308 420.224C563.832 416.557 557.954 417.461 555.643 423.841C551.022 436.651 580.611 444.136 580.611 444.136Z" fill="url(#paint16_linear_224_2739)"/>
<path d="M563.277 508.941C575.736 491.358 587.24 490.906 588.948 503.415C589.802 509.644 584.979 513.211 579.152 514.065C573.274 514.969 566.492 513.211 563.277 508.941Z" fill="url(#paint17_linear_224_2739)"/>
<path d="M558.205 526.725C558.105 522.254 557.151 518.385 555.694 515.321C554.237 512.257 552.378 509.946 550.369 508.489C546.35 505.575 541.929 506.128 540.02 510.85C538.111 515.622 542.632 519.541 547.656 522.354C552.73 525.117 558.205 526.725 558.205 526.725Z" fill="url(#paint18_linear_224_2739)"/>
<path d="M593.972 388.776C595.931 385.461 598.091 382.547 600.301 380.035C602.512 377.523 604.823 375.413 607.184 373.655C611.856 370.139 616.628 368.179 620.848 367.576C629.288 366.371 635.567 370.792 634.512 379.734C633.457 388.676 623.31 390.986 613.463 390.986C603.567 390.986 593.972 388.776 593.972 388.776Z" fill="url(#paint19_linear_224_2739)"/>
<path d="M598.644 367.024C596.032 360.292 594.876 353.36 594.926 346.879C594.926 340.349 596.082 334.32 597.89 329.297C601.507 319.3 607.988 313.673 613.765 317.793C619.542 321.912 615.875 334.32 610.65 345.624C608.038 351.25 605.024 356.625 602.663 360.544C600.352 364.512 598.644 367.024 598.644 367.024Z" fill="url(#paint20_linear_224_2739)"/>
</g>
</g>
<path d="M120.248 175.273C138.031 308.298 193.944 639.705 327.672 823.066C340.03 840.046 361.883 847.13 381.877 840.8L583.374 776.749C609.798 768.359 623.914 739.725 614.47 713.652C576.491 608.76 488.729 352.707 468.283 173.615C465.57 149.703 445.827 131.317 421.815 130.362L185.655 112.177C131.199 112.177 116.279 145.182 120.248 175.273Z" fill="url(#paint21_linear_224_2739)"/>
<path d="M142.452 167.085C160.236 300.11 216.149 631.517 349.877 814.878C362.235 831.858 384.088 838.941 404.082 832.612L605.578 768.561C632.002 760.171 646.119 731.537 636.674 705.464C598.696 600.571 510.934 344.519 490.487 165.427C487.775 141.515 468.032 123.128 444.019 122.174L192.789 111.876C162.497 110.62 138.434 137.044 142.452 167.085Z" fill="url(#paint22_linear_224_2739)"/>
<path d="M180.18 157.239C180.18 157.239 237.298 612.628 355.302 766.802L600.504 693.257C600.504 693.257 486.67 394.152 466.625 163.619C466.676 163.619 301.701 169.245 180.18 157.239Z" fill="white"/>
<path d="M505.463 782.548C511.754 780.049 513.709 770.101 509.828 760.328C505.946 750.556 497.7 744.659 491.408 747.157C485.116 749.656 483.162 759.604 487.043 769.377C490.924 779.15 499.171 785.047 505.463 782.548Z" fill="#302E3D"/>
<path opacity="0.32" d="M635.668 741.182C630.293 753.791 619.693 764.09 605.577 768.561L486.467 806.439C460.847 793.528 430.052 773.886 405.688 745.703L449.594 692.102L576.038 674.921L635.668 741.182Z" fill="#3D53A3"/>
<path d="M681.986 783.23L677.716 848.486C677.716 848.486 745.685 867.224 779.996 844.317C779.996 844.317 726.294 831.406 713.534 807.745C700.774 784.084 705.798 771.273 705.798 771.273L681.986 783.23Z" fill="url(#paint23_linear_224_2739)"/>
<path opacity="0.32" d="M681.986 783.23L697.66 775.343L710.319 801.064C711.223 803.174 712.329 805.384 713.584 807.745C691.38 814.426 687.713 837.836 687.914 850.898C681.634 849.592 677.816 848.537 677.816 848.537" fill="#3D53A3"/>
<path d="M625.972 820.655L651.291 880.939C651.291 880.939 720.516 867.325 740.912 831.456C740.912 831.456 687.109 843.915 665.105 828.442C643.102 812.969 641.846 799.205 641.846 799.205L625.972 820.655Z" fill="url(#paint24_linear_224_2739)"/>
<path opacity="0.32" d="M625.972 820.655L636.471 806.589L659.278 823.971C661.087 825.428 662.996 826.935 665.156 828.492C648.276 844.417 655.46 866.973 661.438 878.578C655.209 880.235 651.341 880.989 651.341 880.989" fill="#3D53A3"/>
<path d="M412.319 389.279C431.56 393.549 481.645 483.019 503.196 528.734C524.748 574.449 497.771 605.193 476.621 600.923C455.472 596.653 415.987 461.619 415.987 461.619L412.319 389.279Z" fill="url(#paint25_linear_224_2739)"/>
<path opacity="0.32" d="M447.887 467.798C473.909 545.563 520.578 566.461 520.578 566.461L511.134 600.873L441.155 585.501L416.037 514.417L447.887 467.798Z" fill="#3D53A3"/>
<path d="M348.62 384.658C296.526 400.08 292.306 406.962 289.593 431.026C286.88 455.089 284.167 533.658 303.358 589.872C322.548 646.086 310.993 651.461 325.261 666.632C339.528 681.804 333.198 695.166 345.305 701.446C357.412 707.725 350.278 701.446 350.278 701.446L485.061 626.494C485.061 626.494 451.906 445.544 412.37 389.33L348.62 384.658Z" fill="url(#paint26_linear_224_2739)"/>
<path d="M343.897 402.19C354.196 417.863 374.139 425.951 374.139 425.951L381.976 408.971L400.915 416.758C400.915 416.758 399.559 387.772 380.62 383.452C373.235 381.744 359.973 380.99 353.894 381.543C343.847 382.397 338.321 393.7 343.897 402.19Z" fill="url(#paint27_linear_224_2739)"/>
<path opacity="0.32" d="M451.404 579.071C451.404 579.071 451.353 579.071 451.253 579.071C449.042 578.87 474.412 622.575 474.412 622.575C460.798 640.057 416.289 631.266 403.127 642.519C389.965 653.772 364.093 629.357 350.329 640.61C336.564 651.863 345.757 682.808 386.398 676.478C390.467 675.825 393.883 675.574 396.747 675.524L350.329 701.345C350.329 701.345 357.462 707.574 345.355 701.345C333.248 695.116 339.578 681.703 325.311 666.532C310.994 651.36 322.649 645.985 303.408 589.771C288.79 546.97 286.881 491.208 287.986 456.445C292.959 454.234 297.732 452.677 299.038 453.531C301.851 455.44 330.234 428.664 330.234 428.664C330.234 428.664 355.302 444.287 368.414 467.647C381.525 491.007 390.015 539.987 410.16 558.524C429.149 576.207 451.002 579.02 451.404 579.071Z" fill="#3D53A3"/>
<path d="M257.441 333.567C257.441 362.503 281.203 354.616 280.6 367.928C279.595 391.439 294.365 389.027 294.365 389.027" stroke="#423F50" stroke-width="3" stroke-miterlimit="10"/>
<path d="M295.068 393.398L304.01 396.261L304.864 393.448L301.147 391.991L305.015 391.137L304.864 386.767L297.429 386.516L295.068 393.398Z" fill="#94AFC4"/>
<path d="M296.374 394.101C286.88 388.977 292.808 385.511 297.429 386.515L296.374 394.101Z" fill="#94AFC4"/>
<path d="M333.398 343.464L256.638 334.773L284.77 212.297L403.779 197.779L402.272 262.584L333.398 343.464Z" fill="#32313D"/>
<path d="M403.527 209.735C390.215 230.734 360.525 229.327 360.525 229.327L380.67 258.866L402.221 262.584L403.527 209.735Z" fill="#302E3D"/>
<path opacity="0.79" d="M363.942 307.595L333.398 343.464L256.638 334.723L271.106 271.727C269.096 303.325 282.158 324.575 292.255 309.956C302.352 295.338 279.194 262.584 346.962 231.839L363.741 297.498L363.942 307.595Z" fill="#23222D"/>
<path d="M425.33 300.663C438.341 293.027 428.997 267.004 416.79 254.094C403.528 240.078 377.405 237.516 387.854 250.025C387.854 250.025 354.799 244.649 335.106 264.342C315.364 284.085 301.549 315.432 347.766 368.933L425.33 300.663Z" fill="url(#paint28_linear_224_2739)"/>
<path d="M319.181 288.958C320.587 284.637 322.547 280.669 324.857 277.001L319.181 288.958Z" fill="#ED4343"/>
<path d="M346.76 336.431L348.669 384.657C349.02 393.499 356.506 400.381 365.297 400.08C374.138 399.728 381.021 392.243 380.719 383.452L379.614 355.972L346.76 336.431Z" fill="#F58B68"/>
<path d="M347.766 368.984C356.155 385.461 380.57 387.42 380.57 387.42L379.665 364.362L346.861 345.925L347.766 368.984Z" fill="#EF6E4A"/>
<path d="M428.544 318.948C432.512 370.29 410.86 385.16 383.18 382.346C358.715 379.885 345.503 347.483 346.86 324.977C348.216 302.471 370.42 290.816 382.125 292.675C393.83 294.534 416.688 292.826 422.766 297.347C428.845 301.868 428.544 318.948 428.544 318.948Z" fill="#F58B68"/>
<path d="M404.23 318.697C406.39 315.985 411.715 315.733 412.921 317.894C414.126 320.004 412.167 319.551 410.108 319.2C406.189 318.547 405.687 320.506 404.531 320.154C404.079 320.004 403.627 319.451 404.23 318.697Z" fill="#232F36"/>
<path d="M383.634 320.205C381.122 317.844 375.797 318.346 374.893 320.657C373.989 322.968 375.848 322.164 377.857 321.511C381.625 320.305 382.429 322.114 383.484 321.662C384.036 321.461 384.338 320.858 383.634 320.205Z" fill="#232F36"/>
<path d="M347.815 331.357C346.509 320.355 336.814 318.296 332.744 322.415C328.675 326.534 330.132 343.213 336.562 350.145C342.993 357.078 349.875 352.707 350.578 349.141C351.181 345.473 347.815 331.357 347.815 331.357Z" fill="#F58B68"/>
<path d="M346.962 334.471C345.706 329.448 339.527 328.795 338.522 331.256C336.764 335.325 339.075 345.021 346.66 343.815L346.962 334.471Z" fill="#EF6E4A"/>
<path d="M405.435 332.06C405.636 334.321 406.791 336.079 408.097 335.979C409.404 335.878 410.308 334.02 410.107 331.759C409.906 329.498 408.751 327.74 407.444 327.841C406.189 327.941 405.234 329.8 405.435 332.06Z" fill="#232F36"/>
<path d="M378.259 334.07C378.46 336.33 379.615 338.088 380.921 337.988C382.227 337.888 383.132 336.029 382.931 333.768C382.73 331.508 381.574 329.749 380.268 329.85C379.062 329.9 378.158 331.859 378.259 334.07Z" fill="#232F36"/>
<path d="M394.836 339.445C395.489 343.113 399.357 344.419 400.362 345.976C403.175 350.095 394.735 351.201 394.735 351.201" stroke="#EF6E4A" stroke-width="3" stroke-miterlimit="10" stroke-linecap="round"/>
<path d="M403.427 362.302C397.398 365.969 388.657 361.75 388.657 361.75C388.657 361.75 391.722 369.536 398.252 369.134C404.833 368.833 403.427 362.302 403.427 362.302Z" fill="white"/>
<path d="M344.551 305.284C347.163 332.11 392.124 316.939 384.036 307.092C384.036 307.092 413.324 318.094 423.672 305.485C434.021 292.926 418.146 267.155 390.316 272.53C362.485 277.855 343.194 291.268 344.551 305.284Z" fill="url(#paint29_linear_224_2739)"/>
<path d="M289.592 431.025C302 404.5 343.143 415.854 356.506 456.897C369.869 497.939 388.607 550.637 394.434 578.267C400.262 605.947 357.611 641.614 335.256 612.176C312.801 582.738 276.229 459.559 289.592 431.025Z" fill="url(#paint30_linear_224_2739)"/>
<path d="M471.446 589.57C486.517 584.747 497.066 586.506 505.305 596.553C513.594 606.6 508.42 607.956 508.42 607.956L467.377 614.839L471.446 589.57Z" fill="#F58B68"/>
<path d="M340.884 617.953C352.689 636.49 377.355 630.412 387.905 635.134C398.454 639.856 401.167 623.68 412.621 631.065C424.075 638.449 434.172 618.003 443.616 623.228C453.061 628.402 476.621 617.953 476.621 617.953L476.421 581.381L371.477 571.786L340.884 617.953Z" fill="url(#paint31_linear_224_2739)"/>
<path d="M730.715 632.572C729.961 600.27 701.628 583.893 679.625 586.556C656.918 585.501 634.262 590.575 582.82 604.842L523.14 635.536C523.14 635.536 545.796 681.703 630.042 667.134C643.204 664.874 654.256 661.407 663.399 657.137C663.047 675.423 662.143 688.836 663.7 711.593C664.705 719.631 666.212 778.507 666.212 778.507L667.116 793.176L711.826 793.478C711.776 793.428 731.519 667.335 730.715 632.572Z" fill="url(#paint32_linear_224_2739)"/>
<path opacity="0.25" d="M724.033 706.117C716.95 749.119 711.826 793.427 711.826 793.427L677.063 793.226C677.063 793.226 671.085 793.779 668.221 783.732C662.193 767.707 665.006 722.494 663.8 708.981C662.595 696.673 663.449 681.803 663.449 656.836C659.43 657.84 634.463 666.28 630.042 667.034C545.846 681.602 523.14 635.435 523.14 635.435L582.82 604.741C607.486 597.909 625.571 593.136 640.19 590.223L654.959 593.739C633.81 630.261 648.73 639.303 672.441 628.101C696.153 616.898 713.534 618.556 717.704 623.127C721.823 627.699 677.515 629.055 665.207 650.405C652.899 671.756 690.928 670.902 688.969 697.527C686.909 723.599 709.264 734.45 724.033 706.117Z" fill="#3D53A3"/>
<path d="M357.512 225.811L387.955 250.075C348.922 272.43 317.474 318.697 317.474 318.697L302.604 289.158C302.504 289.158 315.113 247.312 357.512 225.811Z" fill="#32313D"/>
<path d="M325.912 275.444C325.561 275.947 325.209 276.499 324.857 277.052L325.762 275.143C325.762 275.093 325.812 275.193 325.912 275.444Z" fill="#423F50"/>
<path d="M505.356 498.994L494.605 612.779L653.803 584.797L672.039 493.016C673.898 483.773 666.513 475.283 657.119 475.735L522.788 482.467C513.695 482.919 506.31 489.952 505.356 498.994Z" fill="url(#paint33_linear_224_2739)"/>
<path d="M512.489 499.748L501.387 609.865L660.986 585.551L679.222 493.77C681.081 484.526 673.696 476.036 664.302 476.488L529.971 483.22C520.828 483.672 513.393 490.705 512.489 499.748Z" fill="url(#paint34_linear_224_2739)"/>
<path d="M600.302 541.143C599.297 551.09 594.927 558.725 590.556 558.273C586.136 557.821 583.423 549.432 584.377 539.535C585.332 529.589 589.753 521.953 594.123 522.405C598.544 522.807 601.307 531.246 600.302 541.143Z" fill="white"/>
<path d="M464.111 633.828L650.587 608.157L659.73 598.16L525.449 612.327L474.41 622.625L464.111 633.828Z" fill="url(#paint35_linear_224_2739)"/>
<path d="M460.646 624.082L501.437 609.915L660.987 585.601L659.681 598.16L503.849 619.108L464.112 633.828C460.545 635.184 456.828 632.27 457.179 628.452C457.38 626.443 458.737 624.735 460.646 624.082Z" fill="url(#paint36_linear_224_2739)"/>
<path d="M662.544 804.63C662.544 804.63 640.039 750.224 637.728 742.438C627.58 714.758 627.329 701.546 615.875 675.021C602.814 642.116 584.076 633.727 578.198 630.512C556.948 619.711 520.427 616.848 485.01 626.392C431.76 640.76 350.277 701.395 350.277 701.395C370.975 733.194 401.769 755.7 441.707 744.849C481.645 733.998 505.004 720.937 532.433 704.158C534.794 702.701 537.256 701.345 539.768 699.988C540.069 700.742 540.37 701.546 540.672 702.299C554.035 734.45 626.927 836.781 626.927 836.781L669.276 817.842L662.544 804.63Z" fill="url(#paint37_linear_224_2739)"/>
<path opacity="0.25" d="M626.928 836.781C626.928 836.781 556.748 738.821 539.567 699.738C516.911 713.05 475.717 735.656 441.758 744.85C401.82 755.701 370.975 733.195 350.328 701.395C350.328 701.395 388.457 673.012 429.651 650.456C410.712 713 486.367 706.017 515.705 698.632C545.043 691.248 524.898 662.412 538.261 652.516C551.624 642.619 580.811 683.461 559.109 697.527C537.357 711.593 563.68 739.725 583.574 733.396C603.417 727.066 592.918 738.319 599.951 753.088C606.984 767.858 633.709 791.77 637.226 753.088C637.477 750.124 637.879 747.864 638.381 746.105C647.625 780.668 654.959 809.805 654.959 809.805C654.959 809.805 640.24 833.466 626.928 836.781Z" fill="#3D53A3"/>
<path d="M713.787 215.965C700.876 215.965 690.427 205.516 690.427 192.656C690.427 179.795 700.876 169.346 713.736 169.346H713.787C726.647 169.346 737.096 179.795 737.096 192.656C737.046 205.566 726.647 215.965 713.787 215.965Z" fill="url(#paint38_linear_224_2739)"/>
<path d="M725.592 187.582L720.267 189.993V186.828C720.267 186.226 719.814 185.773 719.212 185.773H702.332C701.73 185.773 701.277 186.226 701.277 186.828V198.533C701.277 199.086 701.73 199.588 702.332 199.588H719.212C719.814 199.588 720.267 199.136 720.267 198.533V195.369L725.592 197.78C725.893 197.88 726.144 197.679 726.144 197.378V187.984C726.194 187.682 725.893 187.481 725.592 187.582Z" fill="white"/>
<path d="M580.309 121.922C568.001 121.922 558.055 111.976 558.055 99.718C558.055 87.4604 568.001 77.5137 580.259 77.5137H580.309C592.567 77.5137 602.514 87.4604 602.514 99.718C602.564 111.976 592.567 121.922 580.309 121.922Z" fill="url(#paint39_linear_224_2739)"/>
<path d="M575.134 90.2236V109.163L588.446 99.7182L575.134 90.2236Z" fill="white"/>
<path d="M722.226 348.488C713.033 348.488 705.598 341.053 705.598 331.91C705.598 322.767 713.033 315.332 722.226 315.332H722.276C731.419 315.332 738.904 322.767 738.904 331.91C738.854 341.053 731.419 348.488 722.226 348.488Z" fill="url(#paint40_linear_224_2739)"/>
<path d="M719.813 332.865C719.813 334.171 718.758 335.226 717.452 335.226C716.146 335.226 715.091 334.171 715.091 332.865C715.091 331.558 716.146 330.503 717.452 330.503C718.758 330.503 719.813 331.558 719.813 332.865Z" fill="white"/>
<path d="M726.947 327.64C728.251 327.64 729.308 326.583 729.308 325.279C729.308 323.975 728.251 322.918 726.947 322.918C725.643 322.918 724.586 323.975 724.586 325.279C724.586 326.583 725.643 327.64 726.947 327.64Z" fill="white"/>
<path d="M726.947 340.902C728.251 340.902 729.308 339.845 729.308 338.541C729.308 337.237 728.251 336.18 726.947 336.18C725.643 336.18 724.586 337.237 724.586 338.541C724.586 339.845 725.643 340.902 726.947 340.902Z" fill="white"/>
<path d="M726.945 338.843L716.848 333.016L726.845 324.978L727.297 325.531L718.104 332.915L727.297 338.24L726.945 338.843Z" fill="white"/>
<path d="M494.054 209.735C485.866 209.735 479.234 203.104 479.234 194.916C479.234 186.727 485.866 180.096 494.054 180.096H494.104C502.293 180.096 508.924 186.727 508.924 194.916C508.874 203.104 502.242 209.735 494.054 209.735Z" fill="url(#paint41_linear_224_2739)"/>
<path d="M499.578 188.586H488.526C487.873 188.586 487.32 189.139 487.32 189.792V195.92C487.32 196.624 487.873 197.126 488.526 197.126H488.878V201.195L492.947 197.126H499.628C500.281 197.126 500.834 196.573 500.834 195.92V189.792C500.834 189.139 500.281 188.586 499.578 188.586Z" fill="white"/>
<path d="M913.826 267.406H716.349V269.968H913.826V267.406Z" fill="url(#paint42_linear_224_2739)"/>
<path d="M716.348 273.685C719.095 273.685 721.322 271.459 721.322 268.712C721.322 265.965 719.095 263.739 716.348 263.739C713.602 263.739 711.375 265.965 711.375 268.712C711.375 271.459 713.602 273.685 716.348 273.685Z" fill="url(#paint43_linear_224_2739)"/>
<path d="M836.964 367.677H713.735V370.239H836.964V367.677Z" fill="url(#paint44_linear_224_2739)"/>
<path d="M716.348 373.957C719.095 373.957 721.322 371.73 721.322 368.984C721.322 366.237 719.095 364.01 716.348 364.01C713.602 364.01 711.375 366.237 711.375 368.984C711.375 371.73 713.602 373.957 716.348 373.957Z" fill="url(#paint45_linear_224_2739)"/>
<path d="M837.315 367.929H834.753V447.804H837.315V367.929Z" fill="url(#paint46_linear_224_2739)"/>
<path d="M880.519 501.958H797.831C796.123 501.958 794.767 500.602 794.767 498.894V416.205C794.767 414.497 796.123 413.141 797.831 413.141H880.519C882.227 413.141 883.584 414.497 883.584 416.205V498.894C883.584 500.602 882.177 501.958 880.519 501.958Z" fill="url(#paint47_linear_224_2739)"/>
<path d="M839.779 467.145L838.171 466.291L821.191 457.349V471.364C821.191 473.876 822.9 476.087 825.311 476.74L836.463 479.804C838.623 480.407 840.934 480.407 843.094 479.804L854.247 476.74C856.658 476.087 858.366 473.876 858.366 471.364V457.349L841.386 466.291L839.779 467.145Z" fill="white"/>
<path d="M813.352 463.125C813.352 464.18 812.498 465.034 811.443 465.034C810.388 465.034 809.534 464.18 809.534 463.125C809.534 462.07 810.388 461.216 811.443 461.216C812.498 461.216 813.352 462.07 813.352 463.125Z" fill="white"/>
<path d="M813.353 471.716C812.8 472.268 809.836 472.319 809.334 471.716C808.028 470.008 810.138 463.125 810.138 463.125H812.448C812.448 463.125 814.81 470.159 813.353 471.716Z" fill="white"/>
<path d="M811.947 462.472H810.842V466.742H811.947V462.472Z" fill="white"/>
<path d="M810.842 449.21V462.472H811.947V449.763L810.842 449.21Z" fill="white"/>
<path d="M869.417 447.602L839.828 434.893L811.294 447.15H837.417C837.768 446.145 838.723 445.442 839.828 445.442C841.235 445.442 842.39 446.598 842.39 448.004C842.39 449.411 841.235 450.566 839.828 450.566C838.622 450.566 837.718 449.762 837.417 448.657H812.299L839.878 463.175L869.417 447.602Z" fill="white"/>
<path d="M982.8 314.076H900.111C898.403 314.076 897.047 312.72 897.047 311.012V228.323C897.047 226.615 898.403 225.259 900.111 225.259H982.8C984.508 225.259 985.864 226.615 985.864 228.323V311.012C985.864 312.72 984.508 314.076 982.8 314.076Z" fill="url(#paint48_linear_224_2739)"/>
<path d="M973.406 275.445C973.406 268.462 968.634 262.685 962.204 260.977C958.888 253.843 951.704 248.92 943.365 248.92C933.368 248.92 925.079 255.953 923.07 265.347C922.768 265.347 922.517 265.247 922.216 265.247C915.233 265.247 909.606 270.873 909.606 277.856C909.606 284.236 914.329 289.46 920.457 290.314C920.96 290.415 921.462 290.465 922.015 290.465H958.888C959.34 290.465 959.742 290.415 960.144 290.314C967.579 289.41 973.406 283.131 973.406 275.445Z" fill="white"/>
<path d="M385.191 88.8173H302.503C300.795 88.8173 299.438 87.4609 299.438 85.7529V3.0644C299.438 1.35637 300.795 0 302.503 0H385.191C386.899 0 388.256 1.35637 388.256 3.0644V85.7529C388.256 87.4609 386.849 88.8173 385.191 88.8173Z" fill="url(#paint49_linear_224_2739)"/>
<path d="M321.142 59.4294L321.042 59.3791L320.941 59.3289C319.283 58.7261 318.178 57.219 318.178 55.4607V24.6158L316.822 24.4651C315.867 24.3647 315.063 25.068 315.063 26.0224V60.1829C315.063 60.9867 315.666 61.6398 316.42 61.7402L335.911 64.252C334.203 63.4985 332.596 62.7952 331.641 62.4435C329.28 61.5393 321.996 59.6303 321.142 59.4294Z" fill="white"/>
<path d="M366.503 59.4299L366.603 59.3796L366.704 59.3294C368.361 58.7266 369.467 57.2195 369.467 55.4612V24.6163L370.823 24.4656C371.778 24.3651 372.581 25.0684 372.581 26.0229V60.1834C372.581 60.9872 371.978 61.6403 371.225 61.7407L351.733 64.2525C353.441 63.499 355.049 62.7957 356.003 62.444C358.365 61.5398 365.649 59.6308 366.503 59.4299Z" fill="white"/>
<path d="M348.319 64.5542C348.319 65.7599 347.365 66.7646 346.109 66.7646H342.14C340.935 66.7646 339.93 65.8101 339.93 64.5542H338.322C338.322 66.6139 340.03 68.3219 342.09 68.3219H346.059C348.169 68.3219 349.826 66.6139 349.826 64.5542H348.319Z" fill="white"/>
<path d="M334 23.8633C331.237 22.8084 322.798 20.598 322.747 20.5477C322.597 20.4975 322.446 20.4473 322.346 20.4473C322.145 20.4473 321.944 20.4975 321.793 20.6482C321.492 20.8492 321.341 21.1506 321.341 21.5022V55.512C321.341 55.9139 321.592 56.3158 321.994 56.4665C322.295 56.5167 330.082 58.5764 332.795 59.5811C334.854 60.3347 339.576 62.4948 342.44 63.8009V27.6813C339.978 26.5258 335.759 24.5164 334 23.8633ZM338.873 53.0504C336.211 51.8448 333.197 50.4884 331.689 49.9358C330.283 49.4334 327.319 48.5794 324.807 47.8761V46.7207C327.419 47.424 330.534 48.3283 332.041 48.8808C333.448 49.4334 336.261 50.6391 338.823 51.8448L338.873 53.0504ZM338.873 49.4334C336.211 48.2278 333.197 46.8714 331.689 46.3188C330.283 45.8164 327.319 44.9624 324.807 44.2591V43.1037C327.419 43.807 330.534 44.7113 332.041 45.2638C333.448 45.8164 336.261 47.0221 338.823 48.2278L338.873 49.4334ZM338.873 45.7662C336.211 44.5605 333.197 43.2042 331.689 42.6516C330.283 42.1492 327.319 41.2952 324.807 40.5919V39.4365C327.419 40.1398 330.534 41.044 332.041 41.5966C333.448 42.1492 336.261 43.3549 338.823 44.5605L338.873 45.7662ZM338.873 42.1492C336.211 40.9436 333.197 39.5872 331.689 39.0346C330.283 38.5322 327.319 37.6782 324.807 36.9749V35.8195C327.419 36.5228 330.534 37.427 332.041 37.9796C333.448 38.5322 336.261 39.7379 338.823 40.9436L338.873 42.1492ZM338.873 38.5322C336.211 37.3266 333.197 35.9702 331.689 35.4176C330.283 34.865 327.319 34.0612 324.807 33.3579V32.2025C327.369 32.9058 330.534 33.81 332.041 34.3626C333.448 34.9152 336.261 36.1209 338.823 37.3266L338.873 38.5322Z" fill="white"/>
<path d="M365.9 20.6482C365.75 20.5477 365.549 20.4473 365.348 20.4473C365.197 20.4473 365.097 20.4975 364.946 20.5477C364.846 20.5477 356.456 22.8084 353.693 23.8633C351.935 24.5164 347.715 26.5258 345.304 27.6813V63.8009C348.117 62.4948 352.889 60.3347 354.949 59.5811C357.662 58.5764 365.448 56.5167 365.75 56.4665C366.152 56.3158 366.403 55.9139 366.403 55.512V21.5022C366.353 21.1506 366.152 20.8492 365.9 20.6482ZM363.288 47.8761C360.776 48.5794 357.863 49.4334 356.406 49.9358C354.899 50.4884 351.935 51.8448 349.222 53.0504V51.8448C351.784 50.6391 354.597 49.4334 356.004 48.8808C357.511 48.3283 360.676 47.424 363.238 46.7207L363.288 47.8761ZM363.288 44.2591C360.776 44.9624 357.863 45.8164 356.406 46.3188C354.899 46.8714 351.935 48.2278 349.222 49.4334V48.2278C351.784 47.0221 354.597 45.8164 356.004 45.2638C357.511 44.7113 360.676 43.807 363.238 43.1037L363.288 44.2591ZM363.288 40.5919C360.776 41.2952 357.863 42.1492 356.406 42.6516C354.899 43.2042 351.935 44.5605 349.222 45.7662V44.5605C351.784 43.3549 354.597 42.1492 356.004 41.5966C357.511 41.044 360.676 40.1398 363.238 39.4365L363.288 40.5919ZM363.288 36.9749C360.776 37.6782 357.863 38.5322 356.406 39.0346C354.899 39.5872 351.935 40.9436 349.222 42.1492V40.9436C351.784 39.7379 354.597 38.5322 356.004 37.9796C357.511 37.427 360.676 36.5228 363.238 35.8195L363.288 36.9749ZM363.288 33.3579C360.776 34.0612 357.863 34.865 356.406 35.4176C354.899 35.9702 351.935 37.3266 349.222 38.5322V37.3266C351.784 36.1711 354.597 34.9152 356.004 34.3626C357.511 33.81 360.676 32.9058 363.238 32.2025L363.288 33.3579Z" fill="white"/>
<path d="M858.266 160.203H775.577C773.869 160.203 772.513 158.846 772.513 157.138V74.4497C772.513 72.7416 773.869 71.3853 775.577 71.3853H858.266C859.974 71.3853 861.33 72.7416 861.33 74.4497V157.138C861.33 158.846 859.974 160.203 858.266 160.203Z" fill="url(#paint50_linear_224_2739)"/>
<path d="M810.086 147.092H823.75L824.353 146.087H809.483L810.086 147.092Z" fill="white"/>
<path d="M808.831 145.031H825.007L825.61 143.976H808.229L808.831 145.031Z" fill="white"/>
<path d="M807.624 142.972H826.212L826.815 141.917H807.021L807.624 142.972Z" fill="white"/>
<path d="M806.417 140.862H827.416L828.019 139.807H805.814L806.417 140.862Z" fill="white"/>
<path d="M816.92 92.7358C805.566 92.7358 796.373 101.929 796.373 113.282C796.373 120.265 799.839 126.444 805.215 130.162V136.642L805.817 138.099H828.072L828.675 136.642V130.162C834 126.444 837.516 120.265 837.516 113.282C837.466 101.979 828.273 92.7358 816.92 92.7358Z" fill="white"/>
<path d="M817.47 84.4971H816.415V89.0183H817.47V84.4971Z" fill="white"/>
<path d="M845.703 112.78H841.182V113.835H845.703V112.78Z" fill="white"/>
<path d="M792.654 112.78H788.133V113.835H792.654V112.78Z" fill="white"/>
<path d="M796.989 92.6232L796.243 93.3691L799.44 96.5661L800.186 95.8202L796.989 92.6232Z" fill="white"/>
<path d="M836.87 92.5483L833.675 95.7471L834.421 96.4926L837.616 93.2938L836.87 92.5483Z" fill="white"/>
<path d="M813.806 138.199C813.605 135.436 813.354 129.408 813.354 126.343C813.354 125.289 813.404 124.234 813.454 123.179C813.504 122.425 813.504 121.722 813.555 120.968C812.399 121.169 810.993 121.32 809.636 121.069C808.431 120.817 806.471 119.813 806.019 118.356C805.517 116.799 806.019 115.141 807.476 113.734C808.23 112.981 809.435 112.227 811.244 112.679C812.349 112.981 813.052 114.387 813.303 115.191C813.906 116.899 814.107 118.607 814.107 120.315C816.72 119.863 817.574 119.712 818.93 119.411C819.131 119.361 819.382 119.31 819.633 119.26C820.286 116.748 821.643 114.186 822.446 113.131C823.401 111.875 824.807 111.423 826.716 111.725C827.872 111.926 829.429 113.232 829.228 115.141C829.128 116.296 827.922 117.653 826.516 118.255C825.662 118.607 823.2 119.109 821.743 119.411C821.442 119.461 821.191 119.511 820.99 119.562C820.638 119.612 820.337 119.712 820.085 119.763C820.035 120.014 819.985 120.215 819.935 120.466C819.482 122.978 819.081 128.001 819.03 130.563C818.98 133.276 819.03 135.687 819.131 138.199H818.578C818.428 135.637 818.428 133.276 818.478 130.563C818.528 128.001 818.93 122.927 819.382 120.365C819.432 120.215 819.432 120.064 819.483 119.863C819.332 119.913 819.181 119.913 819.03 119.963C817.674 120.265 816.82 120.466 814.107 120.918C814.107 121.672 814.057 122.475 814.007 123.229C813.957 124.234 813.906 125.289 813.906 126.343C813.957 129.408 814.158 135.436 814.358 138.199H813.806ZM810.139 113.131C809.285 113.131 808.481 113.483 807.778 114.136C806.873 115.04 805.919 116.447 806.471 118.205C806.823 119.26 808.431 120.265 809.687 120.516C810.942 120.767 812.299 120.617 813.454 120.416H813.504C813.504 118.708 813.354 117.05 812.751 115.392C812.55 114.839 811.947 113.433 811.093 113.232C810.792 113.131 810.44 113.131 810.139 113.131ZM825.561 112.177C824.406 112.177 823.501 112.579 822.848 113.433C822.195 114.287 820.889 116.598 820.186 119.109C820.387 119.059 820.588 119.009 820.839 118.959C821.04 118.909 821.291 118.858 821.592 118.808C822.949 118.557 825.461 118.055 826.264 117.703C827.52 117.201 828.575 115.995 828.676 115.091C828.826 113.533 827.52 112.428 826.616 112.277C826.214 112.227 825.863 112.177 825.561 112.177Z" fill="#005D92"/>
<g opacity="0.4">
<path opacity="0.3" d="M238.451 891.991C180.73 891.891 74.38 894.302 87.4916 881.994C100.603 869.687 169.879 881.743 226.696 877.624C283.462 873.505 334.904 868.782 392.977 874.861C451.05 880.939 435.276 887.922 409.756 889.932C362.936 893.549 354.596 895.106 327.469 893.147C247.945 887.269 260.906 892.042 238.451 891.991Z" fill="#005D92"/>
</g>
<path d="M330.985 803.927H146.267C146.167 803.927 146.066 803.827 146.066 803.726V772.228C146.066 772.128 146.167 772.027 146.267 772.027H330.935C331.035 772.027 331.136 772.128 331.136 772.228V803.726C331.136 803.827 331.035 803.927 330.985 803.927Z" fill="url(#paint51_linear_224_2739)"/>
<path d="M310.137 772.078H304.561V803.927H310.137V772.078Z" fill="#EDF6F8"/>
<path d="M301.999 772.078H296.423V803.927H301.999V772.078Z" fill="#EDF6F8"/>
<path d="M183.492 800.511H152.396C152.044 800.511 151.793 800.21 151.793 799.908V776.147C151.793 775.795 152.044 775.544 152.396 775.544H183.492C183.844 775.544 184.095 775.845 184.095 776.147V799.908C184.095 800.21 183.844 800.511 183.492 800.511Z" fill="#EDF6F8"/>
<path d="M386.947 831.406H171.686C170.279 831.406 169.023 831.959 167.918 832.763H390.715C389.66 831.959 388.404 831.406 386.947 831.406Z" fill="#96D1E3"/>
<path d="M386.948 831.407H171.686C169.928 831.407 168.421 832.11 167.266 833.215H391.469C390.263 832.11 388.706 831.407 386.948 831.407Z" fill="#96D1E3"/>
<path d="M418.094 856.926H191.931C191.379 856.926 190.927 856.474 190.927 855.921V832.411C190.927 831.858 191.379 831.406 191.931 831.406H418.094C418.647 831.406 419.099 831.858 419.099 832.411V855.921C419.099 856.474 418.647 856.926 418.094 856.926Z" fill="url(#paint52_linear_224_2739)"/>
<path d="M417.091 833.215H192.888C192.285 833.768 191.833 834.471 191.481 835.225H418.498C418.146 834.471 417.694 833.818 417.091 833.215Z" fill="#EDF6F8"/>
<path d="M192.586 854.716H417.442C417.944 854.113 418.346 853.46 418.648 852.707H191.38C191.631 853.46 192.033 854.113 192.586 854.716Z" fill="#EDF6F8"/>
<path d="M214.538 850.094H200.07C199.919 850.094 199.818 849.994 199.818 849.843V838.44C199.818 838.289 199.919 838.188 200.07 838.188H214.538C214.688 838.188 214.789 838.289 214.789 838.44V849.843C214.789 849.994 214.638 850.094 214.538 850.094Z" fill="#EDF6F8"/>
<path d="M288.637 840.75H220.115V842.358H288.637V840.75Z" fill="#EDF6F8"/>
<path d="M297.529 843.363H220.115V844.97H297.529V843.363Z" fill="#EDF6F8"/>
<path d="M277.786 846.025H220.115V847.633H277.786V846.025Z" fill="#EDF6F8"/>
<path d="M408.048 840.75H394.735V842.358H408.048V840.75Z" fill="#EDF6F8"/>
<path d="M409.806 843.363H394.735V844.97H409.806V843.363Z" fill="#EDF6F8"/>
<path d="M405.938 846.025H394.735V847.633H405.938V846.025Z" fill="#EDF6F8"/>
<path d="M273.769 827.638H266.736V831.506H273.769V827.638Z" fill="#FAAD17"/>
<path d="M273.769 803.926H266.736V807.794H273.769V803.926Z" fill="#FAAD17"/>
<path d="M171.238 803.926H266.737V807.794V827.638V831.506H171.238C163.653 831.506 157.474 825.327 157.474 817.741C157.474 810.105 163.653 803.926 171.238 803.926Z" fill="url(#paint53_linear_224_2739)"/>
<path d="M391.473 805.835H255.936C249.405 805.835 244.08 811.16 244.08 817.691C244.08 824.222 249.405 829.547 255.936 829.547H391.422C390.016 826.482 389.162 822.313 389.162 817.691C389.212 813.069 390.066 808.9 391.473 805.835Z" fill="#EDF6F8"/>
<path d="M255.935 827.638C250.459 827.638 245.988 823.167 245.988 817.691C245.988 812.216 250.459 807.745 255.935 807.745H392.074V803.876H255.935C248.349 803.876 242.17 810.056 242.17 817.641C242.17 825.227 248.349 831.406 255.935 831.406H392.074V827.538H255.935V827.638Z" fill="url(#paint54_linear_224_2739)"/>
<path d="M267.639 814.326H281.001V833.365L274.069 827.437L267.639 833.365V814.326Z" fill="url(#paint55_linear_224_2739)"/>
<path d="M268.29 880.638H261.257V884.506H268.29V880.638Z" fill="#FAAD17"/>
<path d="M268.29 856.926H261.257V860.794H268.29V856.926Z" fill="#FAAD17"/>
<path d="M154.305 856.926H283.411V860.794V880.638V884.506H154.305C146.719 884.506 140.54 878.327 140.54 870.741C140.54 863.105 146.719 856.926 154.305 856.926Z" fill="url(#paint56_linear_224_2739)"/>
<path d="M367.556 858.835H272.66C266.13 858.835 260.805 864.16 260.805 870.691C260.805 877.221 266.13 882.546 272.66 882.546H367.606C366.2 879.482 365.346 875.312 365.346 870.691C365.346 866.069 366.2 861.899 367.556 858.835Z" fill="#EDF6F8"/>
<path d="M272.661 880.638C267.185 880.638 262.714 876.167 262.714 870.691C262.714 865.215 267.185 860.744 272.661 860.744H368.26V856.876H272.661C265.076 856.876 258.896 863.055 258.896 870.641C258.896 878.226 265.076 884.405 272.661 884.405H368.26V880.537L272.661 880.638Z" fill="url(#paint57_linear_224_2739)"/>
<path d="M318.979 869.586H332.341V888.625L325.409 882.698L318.979 888.625V869.586Z" fill="#0074E2"/>
<defs>
<linearGradient id="paint0_linear_224_2739" x1="5.9947e-05" y1="470.036" x2="793.61" y2="470.036" gradientUnits="userSpaceOnUse">
<stop stop-color="#292930"/>
<stop offset="1" stop-color="#878787"/>
</linearGradient>
<linearGradient id="paint1_linear_224_2739" x1="189.924" y1="729.1" x2="268.794" y2="729.1" gradientUnits="userSpaceOnUse">
<stop offset="2.77045e-07" stop-color="#FFA400"/>
<stop offset="1" stop-color="#FFDE00"/>
</linearGradient>
<linearGradient id="paint2_linear_224_2739" x1="141.385" y1="650.013" x2="195.552" y2="650.013" gradientUnits="userSpaceOnUse">
<stop offset="2.77045e-07" stop-color="#FFA400"/>
<stop offset="1" stop-color="#FFDE00"/>
</linearGradient>
<linearGradient id="paint3_linear_224_2739" x1="167.715" y1="754.177" x2="225.089" y2="754.177" gradientUnits="userSpaceOnUse">
<stop offset="2.77045e-07" stop-color="#FFA400"/>
<stop offset="1" stop-color="#FFDE00"/>
</linearGradient>
<linearGradient id="paint4_linear_224_2739" x1="211.27" y1="704.064" x2="252.329" y2="704.064" gradientUnits="userSpaceOnUse">
<stop offset="2.77045e-07" stop-color="#FFA400"/>
<stop offset="1" stop-color="#FFDE00"/>
</linearGradient>
<linearGradient id="paint5_linear_224_2739" x1="199.92" y1="674.068" x2="225.763" y2="674.068" gradientUnits="userSpaceOnUse">
<stop offset="2.77045e-07" stop-color="#FFA400"/>
<stop offset="1" stop-color="#FFDE00"/>
</linearGradient>
<linearGradient id="paint6_linear_224_2739" x1="173.483" y1="702.061" x2="205.849" y2="702.061" gradientUnits="userSpaceOnUse">
<stop offset="2.77045e-07" stop-color="#FFA400"/>
<stop offset="1" stop-color="#FFDE00"/>
</linearGradient>
<linearGradient id="paint7_linear_224_2739" x1="232.061" y1="764.904" x2="251.089" y2="764.904" gradientUnits="userSpaceOnUse">
<stop offset="2.77045e-07" stop-color="#FFA400"/>
<stop offset="1" stop-color="#FFDE00"/>
</linearGradient>
<linearGradient id="paint8_linear_224_2739" x1="216.851" y1="793.211" x2="242.37" y2="793.211" gradientUnits="userSpaceOnUse">
<stop offset="2.77045e-07" stop-color="#FFA400"/>
<stop offset="1" stop-color="#FFDE00"/>
</linearGradient>
<linearGradient id="paint9_linear_224_2739" x1="192.988" y1="633.622" x2="228.557" y2="633.622" gradientUnits="userSpaceOnUse">
<stop offset="2.77045e-07" stop-color="#FFA400"/>
<stop offset="1" stop-color="#FFDE00"/>
</linearGradient>
<linearGradient id="paint10_linear_224_2739" x1="180.387" y1="597.155" x2="199.276" y2="597.155" gradientUnits="userSpaceOnUse">
<stop offset="2.77045e-07" stop-color="#FFA400"/>
<stop offset="1" stop-color="#FFDE00"/>
</linearGradient>
<linearGradient id="paint11_linear_224_2739" x1="545.798" y1="466.918" x2="599.249" y2="466.918" gradientUnits="userSpaceOnUse">
<stop offset="2.77045e-07" stop-color="#FFA400"/>
<stop offset="1" stop-color="#FFDE00"/>
</linearGradient>
<linearGradient id="paint12_linear_224_2739" x1="544.126" y1="381.445" x2="590.505" y2="381.445" gradientUnits="userSpaceOnUse">
<stop offset="2.77045e-07" stop-color="#FFA400"/>
<stop offset="1" stop-color="#FFDE00"/>
</linearGradient>
<linearGradient id="paint13_linear_224_2739" x1="522.266" y1="470.353" x2="567.649" y2="470.353" gradientUnits="userSpaceOnUse">
<stop offset="2.77045e-07" stop-color="#FFA400"/>
<stop offset="1" stop-color="#FFDE00"/>
</linearGradient>
<linearGradient id="paint14_linear_224_2739" x1="576.589" y1="450.352" x2="627.946" y2="450.352" gradientUnits="userSpaceOnUse">
<stop offset="2.77045e-07" stop-color="#FFA400"/>
<stop offset="1" stop-color="#FFDE00"/>
</linearGradient>
<linearGradient id="paint15_linear_224_2739" x1="585.784" y1="416.226" x2="617.452" y2="416.226" gradientUnits="userSpaceOnUse">
<stop offset="2.77045e-07" stop-color="#FFA400"/>
<stop offset="1" stop-color="#FFDE00"/>
</linearGradient>
<linearGradient id="paint16_linear_224_2739" x1="555.153" y1="431.105" x2="580.611" y2="431.105" gradientUnits="userSpaceOnUse">
<stop offset="2.77045e-07" stop-color="#FFA400"/>
<stop offset="1" stop-color="#FFDE00"/>
</linearGradient>
<linearGradient id="paint17_linear_224_2739" x1="563.277" y1="504.539" x2="589.046" y2="504.539" gradientUnits="userSpaceOnUse">
<stop offset="2.77045e-07" stop-color="#FFA400"/>
<stop offset="1" stop-color="#FFDE00"/>
</linearGradient>
<linearGradient id="paint18_linear_224_2739" x1="539.607" y1="516.713" x2="558.239" y2="516.713" gradientUnits="userSpaceOnUse">
<stop offset="2.77045e-07" stop-color="#FFA400"/>
<stop offset="1" stop-color="#FFDE00"/>
</linearGradient>
<linearGradient id="paint19_linear_224_2739" x1="593.972" y1="379.184" x2="634.628" y2="379.184" gradientUnits="userSpaceOnUse">
<stop offset="2.77045e-07" stop-color="#FFA400"/>
<stop offset="1" stop-color="#FFDE00"/>
</linearGradient>
<linearGradient id="paint20_linear_224_2739" x1="594.925" y1="341.728" x2="616.728" y2="341.728" gradientUnits="userSpaceOnUse">
<stop offset="2.77045e-07" stop-color="#FFA400"/>
<stop offset="1" stop-color="#FFDE00"/>
</linearGradient>
<linearGradient id="paint21_linear_224_2739" x1="119.644" y1="477.633" x2="617.407" y2="477.633" gradientUnits="userSpaceOnUse">
<stop stop-color="#27DCFA"/>
<stop offset="1" stop-color="#334665"/>
</linearGradient>
<linearGradient id="paint22_linear_224_2739" x1="142.013" y1="473.366" x2="639.611" y2="473.366" gradientUnits="userSpaceOnUse">
<stop stop-color="#27DCFA"/>
<stop offset="1" stop-color="#334665"/>
</linearGradient>
<linearGradient id="paint23_linear_224_2739" x1="677.689" y1="813.461" x2="779.961" y2="813.461" gradientUnits="userSpaceOnUse">
<stop stop-color="#292930"/>
<stop offset="1" stop-color="#878787"/>
</linearGradient>
<linearGradient id="paint24_linear_224_2739" x1="625.978" y1="840.118" x2="740.936" y2="840.118" gradientUnits="userSpaceOnUse">
<stop stop-color="#292930"/>
<stop offset="1" stop-color="#878787"/>
</linearGradient>
<linearGradient id="paint25_linear_224_2739" x1="412.335" y1="495.323" x2="511.134" y2="495.323" gradientUnits="userSpaceOnUse">
<stop offset="2.77045e-07" stop-color="#FFA400"/>
<stop offset="1" stop-color="#FFDE00"/>
</linearGradient>
<linearGradient id="paint26_linear_224_2739" x1="287.701" y1="544.437" x2="485.051" y2="544.437" gradientUnits="userSpaceOnUse">
<stop offset="2.77045e-07" stop-color="#FFA400"/>
<stop offset="1" stop-color="#FFDE00"/>
</linearGradient>
<linearGradient id="paint27_linear_224_2739" x1="341.682" y1="403.664" x2="400.935" y2="403.664" gradientUnits="userSpaceOnUse">
<stop stop-color="#334463"/>
<stop offset="1" stop-color="#87EC7E"/>
</linearGradient>
<linearGradient id="paint28_linear_224_2739" x1="316.697" y1="305.476" x2="431.628" y2="305.476" gradientUnits="userSpaceOnUse">
<stop stop-color="#292930"/>
<stop offset="1" stop-color="#878787"/>
</linearGradient>
<linearGradient id="paint29_linear_224_2739" x1="344.471" y1="296.068" x2="426.823" y2="296.068" gradientUnits="userSpaceOnUse">
<stop stop-color="#292930"/>
<stop offset="1" stop-color="#878787"/>
</linearGradient>
<linearGradient id="paint30_linear_224_2739" x1="286.744" y1="519.972" x2="394.997" y2="519.972" gradientUnits="userSpaceOnUse">
<stop offset="2.77045e-07" stop-color="#FFA400"/>
<stop offset="1" stop-color="#FFDE00"/>
</linearGradient>
<linearGradient id="paint31_linear_224_2739" x1="340.859" y1="603.91" x2="476.594" y2="603.91" gradientUnits="userSpaceOnUse">
<stop offset="2.77045e-07" stop-color="#FFA400"/>
<stop offset="1" stop-color="#FFDE00"/>
</linearGradient>
<linearGradient id="paint32_linear_224_2739" x1="523.11" y1="689.842" x2="730.734" y2="689.842" gradientUnits="userSpaceOnUse">
<stop stop-color="#334463"/>
<stop offset="1" stop-color="#87EC7E"/>
</linearGradient>
<linearGradient id="paint33_linear_224_2739" x1="494.611" y1="544.28" x2="672.365" y2="544.28" gradientUnits="userSpaceOnUse">
<stop stop-color="#292930"/>
<stop offset="1" stop-color="#878787"/>
</linearGradient>
<linearGradient id="paint34_linear_224_2739" x1="501.368" y1="543.176" x2="679.489" y2="543.176" gradientUnits="userSpaceOnUse">
<stop stop-color="#292930"/>
<stop offset="1" stop-color="#878787"/>
</linearGradient>
<linearGradient id="paint35_linear_224_2739" x1="464.136" y1="615.994" x2="659.716" y2="615.994" gradientUnits="userSpaceOnUse">
<stop stop-color="#292930"/>
<stop offset="1" stop-color="#878787"/>
</linearGradient>
<linearGradient id="paint36_linear_224_2739" x1="457.17" y1="609.884" x2="661.004" y2="609.884" gradientUnits="userSpaceOnUse">
<stop stop-color="#292930"/>
<stop offset="1" stop-color="#878787"/>
</linearGradient>
<linearGradient id="paint37_linear_224_2739" x1="350.282" y1="728.72" x2="669.271" y2="728.72" gradientUnits="userSpaceOnUse">
<stop stop-color="#334463"/>
<stop offset="1" stop-color="#87EC7E"/>
</linearGradient>
<linearGradient id="paint38_linear_224_2739" x1="690.427" y1="192.656" x2="737.096" y2="192.656" gradientUnits="userSpaceOnUse">
<stop stop-color="#27DCFA"/>
<stop offset="1" stop-color="#334665"/>
</linearGradient>
<linearGradient id="paint39_linear_224_2739" x1="558.055" y1="99.718" x2="602.514" y2="99.718" gradientUnits="userSpaceOnUse">
<stop stop-color="#27DCFA"/>
<stop offset="1" stop-color="#334665"/>
</linearGradient>
<linearGradient id="paint40_linear_224_2739" x1="705.598" y1="331.91" x2="738.844" y2="331.91" gradientUnits="userSpaceOnUse">
<stop stop-color="#27DCFA"/>
<stop offset="1" stop-color="#334665"/>
</linearGradient>
<linearGradient id="paint41_linear_224_2739" x1="479.234" y1="194.916" x2="508.889" y2="194.916" gradientUnits="userSpaceOnUse">
<stop stop-color="#292930"/>
<stop offset="1" stop-color="#878787"/>
</linearGradient>
<linearGradient id="paint42_linear_224_2739" x1="716.349" y1="268.687" x2="913.826" y2="268.687" gradientUnits="userSpaceOnUse">
<stop stop-color="#292930"/>
<stop offset="1" stop-color="#878787"/>
</linearGradient>
<linearGradient id="paint43_linear_224_2739" x1="711.375" y1="268.712" x2="721.332" y2="268.712" gradientUnits="userSpaceOnUse">
<stop stop-color="#292930"/>
<stop offset="1" stop-color="#878787"/>
</linearGradient>
<linearGradient id="paint44_linear_224_2739" x1="713.735" y1="368.958" x2="836.964" y2="368.958" gradientUnits="userSpaceOnUse">
<stop stop-color="#292930"/>
<stop offset="1" stop-color="#878787"/>
</linearGradient>
<linearGradient id="paint45_linear_224_2739" x1="711.375" y1="368.984" x2="721.332" y2="368.984" gradientUnits="userSpaceOnUse">
<stop stop-color="#292930"/>
<stop offset="1" stop-color="#878787"/>
</linearGradient>
<linearGradient id="paint46_linear_224_2739" x1="836.034" y1="367.929" x2="836.034" y2="447.804" gradientUnits="userSpaceOnUse">
<stop stop-color="#292930"/>
<stop offset="1" stop-color="#878787"/>
</linearGradient>
<linearGradient id="paint47_linear_224_2739" x1="794.767" y1="457.55" x2="883.584" y2="457.55" gradientUnits="userSpaceOnUse">
<stop stop-color="#7FD378"/>
<stop offset="1" stop-color="#E4CF06"/>
</linearGradient>
<linearGradient id="paint48_linear_224_2739" x1="897.047" y1="269.667" x2="985.864" y2="269.667" gradientUnits="userSpaceOnUse">
<stop stop-color="#334463"/>
<stop offset="1" stop-color="#87EC7E"/>
</linearGradient>
<linearGradient id="paint49_linear_224_2739" x1="299.438" y1="44.4086" x2="388.256" y2="44.4086" gradientUnits="userSpaceOnUse">
<stop stop-color="#292930"/>
<stop offset="1" stop-color="#878787"/>
</linearGradient>
<linearGradient id="paint50_linear_224_2739" x1="772.513" y1="115.794" x2="861.33" y2="115.794" gradientUnits="userSpaceOnUse">
<stop offset="2.77045e-07" stop-color="#FFA400"/>
<stop offset="1" stop-color="#FFDE00"/>
</linearGradient>
<linearGradient id="paint51_linear_224_2739" x1="146.066" y1="787.977" x2="331.136" y2="787.977" gradientUnits="userSpaceOnUse">
<stop stop-color="#334463"/>
<stop offset="1" stop-color="#87EC7E"/>
</linearGradient>
<linearGradient id="paint52_linear_224_2739" x1="190.927" y1="844.166" x2="419.099" y2="844.166" gradientUnits="userSpaceOnUse">
<stop stop-color="#292930"/>
<stop offset="1" stop-color="#878787"/>
</linearGradient>
<linearGradient id="paint53_linear_224_2739" x1="157.474" y1="817.716" x2="266.737" y2="817.716" gradientUnits="userSpaceOnUse">
<stop stop-color="#87EC7E"/>
<stop offset="1" stop-color="#F6DE02"/>
</linearGradient>
<linearGradient id="paint54_linear_224_2739" x1="242.17" y1="817.641" x2="392.074" y2="817.641" gradientUnits="userSpaceOnUse">
<stop stop-color="#87EC7E"/>
<stop offset="1" stop-color="#F6DE02"/>
</linearGradient>
<linearGradient id="paint55_linear_224_2739" x1="267.659" y1="823.845" x2="281.022" y2="823.845" gradientUnits="userSpaceOnUse">
<stop stop-color="#27DCFA"/>
<stop offset="1" stop-color="#334665"/>
</linearGradient>
<linearGradient id="paint56_linear_224_2739" x1="140.54" y1="870.716" x2="283.411" y2="870.716" gradientUnits="userSpaceOnUse">
<stop stop-color="#27DCFA"/>
<stop offset="1" stop-color="#334665"/>
</linearGradient>
<linearGradient id="paint57_linear_224_2739" x1="258.896" y1="870.641" x2="368.26" y2="870.641" gradientUnits="userSpaceOnUse">
<stop stop-color="#27DCFA"/>
<stop offset="1" stop-color="#334665"/>
</linearGradient>
</defs>
</svg>
