<svg width="1019" height="894" viewBox="0 0 1019 894" fill="none" xmlns="http://www.w3.org/2000/svg">
<path opacity="0.12" d="M578.093 747.813C742.666 668.39 826.61 468.903 826.61 337.134C826.61 205.365 783.006 128.705 682.132 136.391C581.258 144.077 469.985 256.957 372.276 240.128C274.567 223.299 72.0656 275.745 39.4122 421.128C-6.65418 625.84 197.806 931.275 578.093 747.813Z" fill="url(#paint0_linear_3_5111)"/>
<path d="M153.248 175.273C171.031 308.298 226.944 639.705 360.672 823.066C373.03 840.046 394.883 847.129 414.877 840.799L616.374 776.748C642.798 768.359 656.914 739.724 647.47 713.652C609.491 608.759 521.729 352.706 501.283 173.615C498.57 149.703 478.827 131.316 454.815 130.362L218.655 112.176C164.199 112.176 149.279 145.181 153.248 175.273Z" fill="url(#paint1_linear_3_5111)"/>
<path d="M175.452 167.084C193.236 300.109 249.149 631.516 382.877 814.878C395.235 831.857 417.088 838.941 437.082 832.611L638.578 768.56C665.002 760.17 679.119 731.536 669.674 705.463C631.696 600.571 543.934 344.518 523.487 165.426C520.775 141.514 501.032 123.128 477.019 122.173L225.789 111.875C195.497 110.619 171.434 137.043 175.452 167.084Z" fill="url(#paint2_linear_3_5111)"/>
<path d="M213.18 157.238C213.18 157.238 270.298 612.628 388.302 766.802L633.504 693.256C633.504 693.256 519.669 394.151 499.625 163.618C499.675 163.618 334.7 169.245 213.18 157.238Z" fill="white"/>
<path d="M538.463 782.547C544.755 780.049 546.709 770.101 542.828 760.328C538.946 750.555 530.7 744.658 524.408 747.157C518.116 749.656 516.162 759.604 520.043 769.376C523.924 779.149 532.171 785.046 538.463 782.547Z" fill="#302E3D"/>
<path opacity="0.32" d="M668.668 741.182C663.293 753.791 652.693 764.089 638.577 768.56L519.467 806.438C493.847 793.528 463.052 773.885 438.688 745.703L482.594 692.101L609.038 674.92L668.668 741.182Z" fill="#3D53A3"/>
<path d="M714.985 783.23L710.715 848.486C710.715 848.486 778.684 867.224 812.995 844.317C812.995 844.317 759.293 831.406 746.533 807.745C733.773 784.084 738.797 771.273 738.797 771.273L714.985 783.23Z" fill="url(#paint3_linear_3_5111)"/>
<path opacity="0.32" d="M714.986 783.23L730.659 775.343L743.319 801.064C744.223 803.174 745.328 805.384 746.584 807.745C724.38 814.427 720.712 837.837 720.913 850.898C714.634 849.592 710.816 848.537 710.816 848.537" fill="#3D53A3"/>
<path d="M658.971 820.655L684.29 880.938C684.29 880.938 753.515 867.324 773.911 831.456C773.911 831.456 720.108 843.914 698.105 828.441C676.101 812.969 674.845 799.204 674.845 799.204L658.971 820.655Z" fill="url(#paint4_linear_3_5111)"/>
<path opacity="0.32" d="M658.971 820.655L669.47 806.589L692.277 823.971C694.086 825.428 695.995 826.935 698.155 828.492C681.275 844.417 688.459 866.973 694.437 878.577C688.208 880.235 684.34 880.989 684.34 880.989" fill="#3D53A3"/>
<path d="M445.318 389.279C464.559 393.549 514.644 483.019 536.195 528.734C557.747 574.448 530.77 605.193 509.62 600.923C488.471 596.653 448.986 461.618 448.986 461.618L445.318 389.279Z" fill="url(#paint5_linear_3_5111)"/>
<path opacity="0.32" d="M480.886 467.798C506.908 545.563 553.577 566.461 553.577 566.461L544.133 600.873L474.154 585.501L449.036 514.417L480.886 467.798Z" fill="#3D53A3"/>
<path d="M381.619 384.657C329.524 400.08 325.305 406.962 322.592 431.025C319.879 455.088 317.166 533.657 336.357 589.871C355.547 646.085 343.992 651.461 358.259 666.632C372.526 681.803 366.197 695.166 378.304 701.445C390.41 707.725 383.277 701.445 383.277 701.445L518.06 626.493C518.06 626.493 484.904 445.543 445.369 389.329L381.619 384.657Z" fill="url(#paint6_linear_3_5111)"/>
<path d="M376.896 402.189C387.195 417.863 407.139 425.951 407.139 425.951L414.975 408.971L433.914 416.758C433.914 416.758 432.558 387.772 413.619 383.451C406.234 381.743 392.972 380.99 386.893 381.542C376.846 382.396 371.32 393.699 376.896 402.189Z" fill="url(#paint7_linear_3_5111)"/>
<path opacity="0.32" d="M484.402 579.071C484.402 579.071 484.352 579.071 484.251 579.071C482.041 578.87 507.41 622.575 507.41 622.575C493.796 640.057 449.287 631.266 436.125 642.519C422.964 653.772 397.092 629.357 383.327 640.61C369.563 651.863 378.756 682.808 419.397 676.478C423.466 675.825 426.882 675.574 429.745 675.524L383.327 701.345C383.327 701.345 390.461 707.574 378.354 701.345C366.247 695.116 372.577 681.703 358.31 666.532C343.993 651.36 355.647 645.985 336.407 589.771C321.788 546.97 319.879 491.208 320.984 456.445C325.958 454.234 330.73 452.677 332.036 453.531C334.85 455.44 363.233 428.664 363.233 428.664C363.233 428.664 388.301 444.287 401.412 467.647C414.524 491.007 423.014 539.987 443.158 558.524C462.148 576.207 484 579.02 484.402 579.071Z" fill="#3D53A3"/>
<path d="M290.44 333.567C290.44 362.503 314.202 354.616 313.599 367.928C312.594 391.439 327.364 389.027 327.364 389.027" stroke="#423F50" stroke-width="3" stroke-miterlimit="10"/>
<path d="M328.068 393.398L337.01 396.261L337.864 393.448L334.146 391.991L338.014 391.137L337.864 386.767L330.429 386.515L328.068 393.398Z" fill="#94AFC4"/>
<path d="M329.373 394.101C319.878 388.977 325.806 385.511 330.428 386.515L329.373 394.101Z" fill="#94AFC4"/>
<path d="M366.397 343.463L289.637 334.773L317.769 212.297L436.778 197.779L435.271 262.583L366.397 343.463Z" fill="#32313D"/>
<path d="M436.527 209.735C423.214 230.734 393.525 229.327 393.525 229.327L413.669 258.866L435.221 262.584L436.527 209.735Z" fill="#302E3D"/>
<path opacity="0.79" d="M396.941 307.595L366.397 343.464L289.637 334.722L304.105 271.727C302.095 303.325 315.157 324.575 325.254 309.956C335.352 295.337 312.193 262.584 379.961 231.839L396.74 297.498L396.941 307.595Z" fill="#23222D"/>
<path d="M458.329 300.662C471.34 293.026 461.996 267.004 449.789 254.094C436.527 240.078 410.404 237.516 420.853 250.024C420.853 250.024 387.798 244.649 368.105 264.342C348.363 284.084 334.548 315.432 380.765 368.933L458.329 300.662Z" fill="url(#paint8_linear_3_5111)"/>
<path d="M352.18 288.958C353.587 284.637 355.546 280.669 357.857 277.001L352.18 288.958Z" fill="#ED4343"/>
<path d="M379.759 336.431L381.668 384.657C382.02 393.499 389.505 400.381 398.296 400.08C407.138 399.728 414.02 392.243 413.719 383.452L412.613 355.973L379.759 336.431Z" fill="#F58B68"/>
<path d="M380.764 368.983C389.154 385.461 413.568 387.42 413.568 387.42L412.664 364.362L379.86 345.925L380.764 368.983Z" fill="#EF6E4A"/>
<path d="M461.543 318.948C465.511 370.29 443.86 385.16 416.18 382.346C391.715 379.885 378.502 347.483 379.859 324.977C381.215 302.471 403.42 290.816 415.125 292.675C426.83 294.534 449.687 292.826 455.766 297.347C461.844 301.868 461.543 318.948 461.543 318.948Z" fill="#F58B68"/>
<path d="M437.229 318.697C439.389 315.985 444.714 315.733 445.92 317.894C447.125 320.004 445.166 319.551 443.106 319.2C439.188 318.547 438.686 320.506 437.53 320.154C437.078 320.004 436.626 319.451 437.229 318.697Z" fill="#232F36"/>
<path d="M416.633 320.205C414.121 317.844 408.796 318.346 407.892 320.657C406.988 322.968 408.846 322.164 410.856 321.511C414.624 320.305 415.427 322.114 416.482 321.662C417.035 321.461 417.336 320.858 416.633 320.205Z" fill="#232F36"/>
<path d="M380.814 331.357C379.508 320.355 369.812 318.296 365.743 322.415C361.674 326.534 363.131 343.213 369.561 350.145C375.991 357.078 382.874 352.707 383.577 349.141C384.18 345.473 380.814 331.357 380.814 331.357Z" fill="#F58B68"/>
<path d="M379.96 334.472C378.704 329.448 372.525 328.795 371.521 331.257C369.762 335.326 372.073 345.021 379.659 343.816L379.96 334.472Z" fill="#EF6E4A"/>
<path d="M438.434 332.06C438.635 334.321 439.79 336.079 441.096 335.978C442.402 335.878 443.307 334.019 443.106 331.759C442.905 329.498 441.749 327.74 440.443 327.84C439.187 327.941 438.233 329.799 438.434 332.06Z" fill="#232F36"/>
<path d="M411.257 334.07C411.458 336.33 412.613 338.088 413.92 337.988C415.226 337.888 416.13 336.029 415.929 333.768C415.728 331.508 414.573 329.749 413.266 329.85C412.061 329.9 411.157 331.859 411.257 334.07Z" fill="#232F36"/>
<path d="M427.835 339.445C428.488 343.113 432.356 344.419 433.361 345.976C436.174 350.095 427.734 351.201 427.734 351.201" stroke="#EF6E4A" stroke-width="3" stroke-miterlimit="10" stroke-linecap="round"/>
<path d="M436.426 362.302C430.398 365.97 421.656 361.75 421.656 361.75C421.656 361.75 424.721 369.536 431.252 369.134C437.832 368.833 436.426 362.302 436.426 362.302Z" fill="white"/>
<path d="M377.549 305.284C380.161 332.11 425.123 316.939 417.035 307.092C417.035 307.092 446.322 318.094 456.671 305.485C467.02 292.926 451.145 267.155 423.314 272.53C395.483 277.855 376.193 291.268 377.549 305.284Z" fill="url(#paint9_linear_3_5111)"/>
<path d="M322.591 431.025C334.999 404.5 376.143 415.853 389.505 456.896C402.868 497.939 421.606 550.637 427.434 578.266C433.261 605.947 390.611 641.614 368.256 612.176C345.8 582.738 309.228 459.559 322.591 431.025Z" fill="url(#paint10_linear_3_5111)"/>
<path d="M504.446 589.57C519.516 584.747 530.066 586.505 538.305 596.553C546.594 606.6 541.419 607.956 541.419 607.956L500.376 614.839L504.446 589.57Z" fill="#F58B68"/>
<path d="M373.882 617.953C385.688 636.49 410.354 630.412 420.903 635.134C431.453 639.856 434.166 623.68 445.619 631.065C457.073 638.449 467.171 618.003 476.615 623.228C486.059 628.402 509.62 617.953 509.62 617.953L509.419 581.381L404.476 571.786L373.882 617.953Z" fill="url(#paint11_linear_3_5111)"/>
<path d="M763.714 632.572C762.96 600.27 734.627 583.893 712.624 586.556C689.917 585.501 667.261 590.575 615.819 604.842L556.139 635.536C556.139 635.536 578.795 681.703 663.041 667.134C676.203 664.874 687.255 661.407 696.398 657.137C696.046 675.423 695.142 688.836 696.699 711.593C697.704 719.631 699.211 778.507 699.211 778.507L700.115 793.176L744.825 793.478C744.775 793.428 764.518 667.335 763.714 632.572Z" fill="url(#paint12_linear_3_5111)"/>
<path opacity="0.25" d="M757.033 706.117C749.949 749.119 744.825 793.427 744.825 793.427L710.062 793.226C710.062 793.226 704.084 793.779 701.22 783.732C695.192 767.706 698.005 722.494 696.8 708.98C695.594 696.673 696.448 681.803 696.448 656.835C692.429 657.84 667.462 666.28 663.041 667.033C578.845 681.602 556.139 635.435 556.139 635.435L615.819 604.741C640.485 597.909 658.57 593.136 673.189 590.222L687.958 593.739C666.809 630.261 681.729 639.303 705.44 628.1C729.152 616.898 746.533 618.556 750.703 623.127C754.822 627.698 710.514 629.055 698.206 650.405C685.898 671.755 723.927 670.901 721.968 697.527C719.908 723.599 742.263 734.45 757.033 706.117Z" fill="black"/>
<path d="M390.511 225.811L420.954 250.075C381.921 272.43 350.473 318.697 350.473 318.697L335.603 289.158C335.503 289.158 348.112 247.312 390.511 225.811Z" fill="#32313D"/>
<path d="M358.912 275.444C358.56 275.946 358.208 276.499 357.857 277.052L358.761 275.143C358.761 275.092 358.811 275.193 358.912 275.444Z" fill="#423F50"/>
<path d="M538.355 498.994L527.604 612.779L686.802 584.797L705.038 493.016C706.897 483.773 699.512 475.283 690.118 475.735L555.787 482.467C546.694 482.919 539.309 489.952 538.355 498.994Z" fill="url(#paint13_linear_3_5111)"/>
<path d="M545.488 499.748L534.385 609.865L693.985 585.551L712.221 493.77C714.08 484.526 706.695 476.037 697.301 476.489L562.97 483.22C553.827 483.672 546.392 490.705 545.488 499.748Z" fill="url(#paint14_linear_3_5111)"/>
<path d="M636.71 541.194C635.294 549.781 629.136 556.374 622.977 555.984C616.747 555.593 612.925 548.35 614.27 539.806C615.615 531.219 621.844 524.626 628.003 525.016C634.232 525.363 638.126 532.65 636.71 541.194Z" fill="white"/>
<path d="M497.11 633.828L683.586 608.157L692.729 598.16L558.449 612.327L507.409 622.625L497.11 633.828Z" fill="url(#paint15_linear_3_5111)"/>
<path d="M493.644 624.082L534.436 609.916L693.986 585.601L692.68 598.16L536.847 619.109L497.111 633.828C493.544 635.184 489.827 632.271 490.178 628.453C490.379 626.443 491.735 624.735 493.644 624.082Z" fill="url(#paint16_linear_3_5111)"/>
<path d="M695.543 804.63C695.543 804.63 673.038 750.224 670.727 742.437C660.579 714.757 660.328 701.545 648.874 675.021C635.813 642.116 617.075 633.727 611.197 630.512C589.947 619.711 553.426 616.847 518.009 626.392C464.759 640.76 383.276 701.395 383.276 701.395C403.973 733.194 434.768 755.7 474.706 744.849C514.643 733.998 538.003 720.936 565.432 704.158C567.793 702.701 570.255 701.344 572.766 699.988C573.068 700.741 573.369 701.545 573.671 702.299C587.034 734.45 659.926 836.781 659.926 836.781L702.275 817.842L695.543 804.63Z" fill="url(#paint17_linear_3_5111)"/>
<path opacity="0.25" d="M659.926 836.781C659.926 836.781 589.747 738.821 572.566 699.737C549.909 713.05 508.716 735.656 474.756 744.849C434.819 755.7 403.974 733.194 383.327 701.395C383.327 701.395 421.456 673.012 462.649 650.456C443.71 712.999 519.366 706.017 548.704 698.632C578.042 691.247 557.897 662.412 571.26 652.515C584.622 642.619 613.81 683.461 592.108 697.527C570.355 711.593 596.679 739.725 616.573 733.395C636.416 727.065 625.916 738.318 632.95 753.088C639.983 767.857 666.708 791.769 670.225 753.088C670.476 750.124 670.878 747.863 671.38 746.105C680.624 780.667 687.958 809.804 687.958 809.804C687.958 809.804 673.239 833.465 659.926 836.781Z" fill="black"/>
<path d="M750.535 228C732.553 228 718 213.431 718 195.5C718 177.569 732.553 163 750.465 163H750.535C768.447 163 783 177.569 783 195.5C782.93 213.501 768.447 228 750.535 228Z" fill="url(#paint18_linear_3_5111)"/>
<path d="M766.976 188.426L759.559 191.788V187.375C759.559 186.535 758.929 185.904 758.09 185.904H734.581C733.741 185.904 733.111 186.535 733.111 187.375V203.695C733.111 204.466 733.741 205.166 734.581 205.166H758.09C758.929 205.166 759.559 204.536 759.559 203.695V199.283L766.976 202.645C767.396 202.785 767.745 202.505 767.745 202.084V188.986C767.815 188.566 767.396 188.286 766.976 188.426Z" fill="white"/>
<path d="M32.535 462C14.5533 462 0 447.431 0 429.5C0 411.569 14.5533 397 32.465 397H32.535C50.4467 397 65 411.569 65 429.5C64.93 447.501 50.4467 462 32.535 462Z" fill="url(#paint19_linear_3_5111)"/>
<path d="M601.535 118C583.553 118 569 103.431 569 85.5C569 67.569 583.553 53 601.465 53H601.535C619.447 53 634 67.569 634 85.5C633.93 103.501 619.447 118 601.535 118Z" fill="url(#paint20_linear_3_5111)"/>
<path d="M691.083 352.728C699.827 337.015 719.634 331.382 735.302 340.101C750.971 348.819 756.626 368.62 747.916 384.272L747.882 384.333C739.173 399.985 719.366 405.618 703.697 396.9C688.002 388.086 682.374 368.38 691.083 352.728Z" fill="url(#paint21_linear_3_5111)"/>
<path d="M597 72V98.4063L615.541 85.2382L597 72Z" fill="white"/>
<path d="M86.535 699C68.5533 699 54 684.431 54 666.5C54 648.569 68.5533 634 86.465 634H86.535C104.447 634 119 648.569 119 666.5C118.93 684.501 104.447 699 86.535 699Z" fill="url(#paint22_linear_3_5111)"/>
<path d="M714.77 370.963C714.77 373.187 712.973 374.984 710.749 374.984C708.525 374.984 706.729 373.187 706.729 370.963C706.729 368.739 708.525 366.943 710.749 366.943C712.973 366.943 714.77 368.739 714.77 370.963Z" fill="black"/>
<path d="M726.915 362.067C729.135 362.067 730.935 360.267 730.935 358.047C730.935 355.827 729.135 354.027 726.915 354.027C724.695 354.027 722.895 355.827 722.895 358.047C722.895 360.267 724.695 362.067 726.915 362.067Z" fill="black"/>
<path d="M726.915 384.649C729.135 384.649 730.935 382.849 730.935 380.629C730.935 378.408 729.135 376.608 726.915 376.608C724.695 376.608 722.895 378.408 722.895 380.629C722.895 382.849 724.695 384.649 726.915 384.649Z" fill="black"/>
<path d="M726.915 381.143L709.722 371.22L726.744 357.534L727.514 358.475L711.86 371.049L727.514 380.116L726.915 381.143Z" fill="black"/>
<path d="M527.013 233.77C505.544 233.77 488.158 216.384 488.158 194.915C488.158 173.446 505.544 156.061 527.013 156.061H527.145C548.614 156.061 566 173.446 566 194.915C565.868 216.384 548.482 233.77 527.013 233.77Z" fill="url(#paint23_linear_3_5111)"/>
<path d="M541.496 178.32H512.519C510.807 178.32 509.358 179.769 509.358 181.481V197.55C509.358 199.394 510.807 200.711 512.519 200.711H513.441V211.38L524.11 200.711H541.628C543.34 200.711 544.789 199.262 544.789 197.55V181.481C544.789 179.769 543.34 178.32 541.496 178.32Z" fill="white"/>
<path d="M946.826 267.406H749.348V269.968H946.826V267.406Z" fill="url(#paint24_linear_3_5111)"/>
<path d="M749.348 273.686C752.095 273.686 754.322 271.459 754.322 268.712C754.322 265.966 752.095 263.739 749.348 263.739C746.601 263.739 744.375 265.966 744.375 268.712C744.375 271.459 746.601 273.686 749.348 273.686Z" fill="url(#paint25_linear_3_5111)"/>
<path d="M869.589 412.667H746.36V415.229H869.589V412.667Z" fill="url(#paint26_linear_3_5111)"/>
<path d="M748.973 418.947C751.72 418.947 753.947 416.72 753.947 413.973C753.947 411.227 751.72 409 748.973 409C746.227 409 744 411.227 744 413.973C744 416.72 746.227 418.947 748.973 418.947Z" fill="url(#paint27_linear_3_5111)"/>
<path d="M869.562 414H867V493.875H869.562V414Z" fill="url(#paint28_linear_3_5111)"/>
<path d="M913.519 562.817H830.831C829.123 562.817 827.767 561.461 827.767 559.753V477.064C827.767 475.356 829.123 474 830.831 474H913.519C915.227 474 916.584 475.356 916.584 477.064V559.753C916.584 561.461 915.177 562.817 913.519 562.817Z" fill="url(#paint29_linear_3_5111)"/>
<path d="M872.778 528.003L871.171 527.149L854.191 518.207V532.223C854.191 534.735 855.899 536.945 858.31 537.598L869.463 540.663C871.623 541.266 873.934 541.266 876.094 540.663L887.246 537.598C889.658 536.945 891.366 534.735 891.366 532.223V518.207L874.386 527.149L872.778 528.003Z" fill="black"/>
<path d="M846.353 523.984C846.353 525.039 845.499 525.893 844.444 525.893C843.389 525.893 842.535 525.039 842.535 523.984C842.535 522.929 843.389 522.075 844.444 522.075C845.499 522.075 846.353 522.929 846.353 523.984Z" fill="black"/>
<path d="M846.353 532.574C845.8 533.127 842.836 533.177 842.334 532.574C841.028 530.866 843.138 523.984 843.138 523.984H845.448C845.448 523.984 847.81 531.017 846.353 532.574Z" fill="black"/>
<path d="M844.947 523.331H843.842V527.601H844.947V523.331Z" fill="black"/>
<path d="M843.842 510.069V523.331H844.947V510.621L843.842 510.069Z" fill="black"/>
<path d="M902.417 508.461L872.828 495.751L844.294 508.009H870.417C870.769 507.004 871.723 506.301 872.828 506.301C874.235 506.301 875.39 507.456 875.39 508.863C875.39 510.269 874.235 511.425 872.828 511.425C871.623 511.425 870.718 510.621 870.417 509.516H845.299L872.879 524.034L902.417 508.461Z" fill="black"/>
<path d="M1015.75 313.817H933.064C931.356 313.817 930 312.461 930 310.753V228.064C930 226.356 931.356 225 933.064 225H1015.75C1017.46 225 1018.82 226.356 1018.82 228.064V310.753C1018.82 312.461 1017.41 313.817 1015.75 313.817Z" fill="url(#paint30_linear_3_5111)"/>
<path d="M1005.8 275.525C1005.8 268.542 1001.03 262.765 994.597 261.057C991.282 253.923 984.098 249 975.759 249C965.762 249 957.473 256.033 955.463 265.427C955.162 265.427 954.911 265.327 954.609 265.327C947.626 265.327 942 270.953 942 277.936C942 284.316 946.722 289.54 952.851 290.394C953.353 290.495 953.856 290.545 954.408 290.545H991.282C991.734 290.545 992.136 290.495 992.537 290.394C999.972 289.49 1005.8 283.211 1005.8 275.525Z" fill="#DAEDFF"/>
<path d="M418.191 88.8173H335.503C333.795 88.8173 332.438 87.4609 332.438 85.7529V3.0644C332.438 1.35637 333.795 0 335.503 0H418.191C419.899 0 421.256 1.35637 421.256 3.0644V85.7529C421.256 87.4609 419.849 88.8173 418.191 88.8173Z" fill="url(#paint31_linear_3_5111)"/>
<g opacity="0.4">
<path opacity="0.3" d="M271.45 891.991C213.729 891.891 107.38 894.302 120.491 881.994C133.603 869.686 202.878 881.743 259.695 877.624C316.462 873.504 367.904 868.782 425.976 874.861C484.049 880.939 468.275 887.922 442.755 889.932C395.935 893.548 387.596 895.106 360.469 893.147C280.945 887.269 293.906 892.041 271.45 891.991Z" fill="#005D92"/>
</g>
<path d="M364.918 830.9H180.2C180.099 830.9 179.999 830.799 179.999 830.699V799.201C179.999 799.1 180.099 799 180.2 799H364.867C364.968 799 365.068 799.1 365.068 799.201V830.699C365.068 830.799 364.968 830.9 364.918 830.9Z" fill="url(#paint32_linear_3_5111)"/>
<path d="M344.069 799.051H338.493V830.9H344.069V799.051Z" fill="#EDF6F8"/>
<path d="M335.931 799.051H330.355V830.9H335.931V799.051Z" fill="#EDF6F8"/>
<path d="M217.425 827.484H186.329C185.977 827.484 185.726 827.182 185.726 826.881V803.119C185.726 802.768 185.977 802.517 186.329 802.517H217.425C217.776 802.517 218.028 802.818 218.028 803.119V826.881C218.028 827.182 217.776 827.484 217.425 827.484Z" fill="#EDF6F8"/>
<path d="M419.948 831.406H204.686C203.28 831.406 202.024 831.959 200.919 832.763H423.715C422.66 831.959 421.404 831.406 419.948 831.406Z" fill="#96D1E3"/>
<path d="M419.948 831.407H204.687C202.928 831.407 201.421 832.11 200.266 833.215H424.469C423.264 832.11 421.706 831.407 419.948 831.407Z" fill="#96D1E3"/>
<path d="M451.095 856.926H224.932C224.379 856.926 223.927 856.474 223.927 855.922V832.411C223.927 831.859 224.379 831.406 224.932 831.406H451.095C451.647 831.406 452.099 831.859 452.099 832.411V855.922C452.099 856.474 451.647 856.926 451.095 856.926Z" fill="url(#paint33_linear_3_5111)"/>
<path d="M450.092 833.216H225.889C225.286 833.768 224.834 834.471 224.482 835.225H451.498C451.147 834.471 450.695 833.818 450.092 833.216Z" fill="#EDF6F8"/>
<path d="M225.587 854.716H450.443C450.945 854.114 451.347 853.461 451.649 852.707H224.381C224.632 853.461 225.034 854.114 225.587 854.716Z" fill="#EDF6F8"/>
<path d="M247.538 850.095H233.07C232.919 850.095 232.819 849.994 232.819 849.843V838.44C232.819 838.289 232.919 838.189 233.07 838.189H247.538C247.689 838.189 247.789 838.289 247.789 838.44V849.843C247.789 849.994 247.638 850.095 247.538 850.095Z" fill="#EDF6F8"/>
<path d="M321.637 840.751H253.115V842.358H321.637V840.751Z" fill="#EDF6F8"/>
<path d="M330.529 843.363H253.115V844.971H330.529V843.363Z" fill="#EDF6F8"/>
<path d="M310.786 846.026H253.115V847.633H310.786V846.026Z" fill="#EDF6F8"/>
<path d="M441.049 840.751H427.736V842.358H441.049V840.751Z" fill="#EDF6F8"/>
<path d="M442.807 843.363H427.736V844.971H442.807V843.363Z" fill="#EDF6F8"/>
<path d="M438.939 846.026H427.736V847.633H438.939V846.026Z" fill="#EDF6F8"/>
<path d="M301.29 880.638H294.257V884.506H301.29V880.638Z" fill="#FAAD17"/>
<path d="M301.29 856.926H294.257V860.794H301.29V856.926Z" fill="#FAAD17"/>
<path d="M187.305 856.926H316.411V860.794V880.637V884.506H187.305C179.719 884.506 173.54 878.327 173.54 870.741C173.54 863.105 179.719 856.926 187.305 856.926Z" fill="url(#paint34_linear_3_5111)"/>
<path d="M400.557 858.835H305.661C299.13 858.835 293.805 864.16 293.805 870.691C293.805 877.221 299.13 882.546 305.661 882.546H400.607C399.2 879.482 398.346 875.312 398.346 870.691C398.346 866.069 399.2 861.899 400.557 858.835Z" fill="#EDF6F8"/>
<path d="M305.661 880.638C300.185 880.638 295.714 876.167 295.714 870.691C295.714 865.215 300.185 860.744 305.661 860.744H401.26V856.876H305.661C298.076 856.876 291.896 863.055 291.896 870.641C291.896 878.226 298.076 884.405 305.661 884.405H401.26V880.537L305.661 880.638Z" fill="url(#paint35_linear_3_5111)"/>
<path d="M351.979 869.586H365.342V888.625L358.409 882.697L351.979 888.625V869.586Z" fill="#343A5D"/>
<path d="M27.4583 440.036H26.6666C20.3333 440.036 17.1666 438.452 17.1666 430.536V422.619C17.1666 416.286 20.3333 413.119 26.6666 413.119H39.3333C45.6666 413.119 48.8333 416.286 48.8333 422.619V430.536C48.8333 436.869 45.6666 440.036 39.3333 440.036H38.5416C38.0508 440.036 37.5758 440.273 37.275 440.669L34.9 443.836C33.855 445.229 32.145 445.229 31.1 443.836L28.725 440.669C28.4716 440.321 27.9016 440.036 27.4583 440.036Z" stroke="black" stroke-width="1.5" stroke-miterlimit="10" stroke-linecap="round" stroke-linejoin="round"/>
<path d="M26.6667 423.775L23.5 426.942L26.6667 430.108M39.3333 423.775L42.5 426.942L39.3333 430.108M34.5833 423.252L31.4167 430.631" stroke="black" stroke-width="1.5" stroke-miterlimit="10" stroke-linecap="round" stroke-linejoin="round"/>
<path d="M354.142 59.4296L354.042 59.3794L353.941 59.3292C352.283 58.7263 351.178 57.2192 351.178 55.461V24.6161L349.822 24.4654C348.867 24.3649 348.063 25.0682 348.063 26.0227V60.1832C348.063 60.9869 348.666 61.64 349.42 61.7405L368.911 64.2523C367.203 63.4987 365.596 62.7954 364.641 62.4438C362.28 61.5395 354.996 59.6306 354.142 59.4296Z" fill="white"/>
<path d="M399.503 59.4299L399.604 59.3796L399.704 59.3294C401.362 58.7266 402.467 57.2195 402.467 55.4612V24.6163L403.823 24.4656C404.778 24.3651 405.582 25.0684 405.582 26.0229V60.1834C405.582 60.9872 404.979 61.6403 404.225 61.7407L384.734 64.2525C386.442 63.499 388.049 62.7957 389.004 62.444C391.365 61.5398 398.649 59.6308 399.503 59.4299Z" fill="white"/>
<path d="M381.319 64.5542C381.319 65.7599 380.364 66.7646 379.108 66.7646H375.14C373.934 66.7646 372.929 65.8101 372.929 64.5542H371.322C371.322 66.6139 373.03 68.3219 375.09 68.3219H379.058C381.168 68.3219 382.826 66.6139 382.826 64.5542H381.319Z" fill="white"/>
<path d="M367 23.8633C364.237 22.8084 355.798 20.598 355.748 20.5477C355.597 20.4975 355.446 20.4473 355.346 20.4473C355.145 20.4473 354.944 20.4975 354.793 20.6482C354.492 20.8492 354.341 21.1506 354.341 21.5022V55.512C354.341 55.9139 354.592 56.3158 354.994 56.4665C355.295 56.5167 363.082 58.5764 365.795 59.5811C367.854 60.3347 372.577 62.4948 375.44 63.8009V27.6813C372.979 26.5258 368.759 24.5164 367 23.8633ZM371.873 53.0504C369.211 51.8448 366.197 50.4884 364.69 49.9358C363.283 49.4334 360.319 48.5794 357.807 47.8761V46.7207C360.42 47.424 363.534 48.3283 365.041 48.8808C366.448 49.4334 369.261 50.6391 371.823 51.8448L371.873 53.0504ZM371.873 49.4334C369.211 48.2278 366.197 46.8714 364.69 46.3188C363.283 45.8164 360.319 44.9624 357.807 44.2591V43.1037C360.42 43.807 363.534 44.7113 365.041 45.2638C366.448 45.8164 369.261 47.0221 371.823 48.2278L371.873 49.4334ZM371.873 45.7662C369.211 44.5605 366.197 43.2042 364.69 42.6516C363.283 42.1492 360.319 41.2952 357.807 40.5919V39.4365C360.42 40.1398 363.534 41.044 365.041 41.5966C366.448 42.1492 369.261 43.3549 371.823 44.5605L371.873 45.7662ZM371.873 42.1492C369.211 40.9436 366.197 39.5872 364.69 39.0346C363.283 38.5322 360.319 37.6782 357.807 36.9749V35.8195C360.42 36.5228 363.534 37.427 365.041 37.9796C366.448 38.5322 369.261 39.7379 371.823 40.9436L371.873 42.1492ZM371.873 38.5322C369.211 37.3266 366.197 35.9702 364.69 35.4176C363.283 34.865 360.319 34.0612 357.807 33.3579V32.2025C360.369 32.9058 363.534 33.81 365.041 34.3626C366.448 34.9152 369.261 36.1209 371.823 37.3266L371.873 38.5322Z" fill="white"/>
<path d="M398.901 20.6482C398.75 20.5477 398.549 20.4473 398.348 20.4473C398.198 20.4473 398.097 20.4975 397.946 20.5477C397.846 20.5477 389.457 22.8084 386.694 23.8633C384.935 24.5164 380.716 26.5258 378.304 27.6813V63.8009C381.117 62.4948 385.89 60.3347 387.95 59.5811C390.662 58.5764 398.449 56.5167 398.75 56.4665C399.152 56.3158 399.403 55.9139 399.403 55.512V21.5022C399.353 21.1506 399.152 20.8492 398.901 20.6482ZM396.289 47.8761C393.777 48.5794 390.863 49.4334 389.406 49.9358C387.899 50.4884 384.935 51.8448 382.223 53.0504V51.8448C384.785 50.6391 387.598 49.4334 389.004 48.8808C390.512 48.3283 393.676 47.424 396.238 46.7207L396.289 47.8761ZM396.289 44.2591C393.777 44.9624 390.863 45.8164 389.406 46.3188C387.899 46.8714 384.935 48.2278 382.223 49.4334V48.2278C384.785 47.0221 387.598 45.8164 389.004 45.2638C390.512 44.7113 393.676 43.807 396.238 43.1037L396.289 44.2591ZM396.289 40.5919C393.777 41.2952 390.863 42.1492 389.406 42.6516C387.899 43.2042 384.935 44.5605 382.223 45.7662V44.5605C384.785 43.3549 387.598 42.1492 389.004 41.5966C390.512 41.044 393.676 40.1398 396.238 39.4365L396.289 40.5919ZM396.289 36.9749C393.777 37.6782 390.863 38.5322 389.406 39.0346C387.899 39.5872 384.935 40.9436 382.223 42.1492V40.9436C384.785 39.7379 387.598 38.5322 389.004 37.9796C390.512 37.427 393.676 36.5228 396.238 35.8195L396.289 36.9749ZM396.289 33.3579C393.777 34.0612 390.863 34.865 389.406 35.4176C387.899 35.9702 384.935 37.3266 382.223 38.5322V37.3266C384.785 36.1711 387.598 34.9152 389.004 34.3626C390.512 33.81 393.676 32.9058 396.238 32.2025L396.289 33.3579Z" fill="white"/>
<rect x="356.013" y="31.917" width="18.012" height="20.5012" transform="rotate(3.62026 356.013 31.917)" fill="#0087FF"/>
<rect x="378.836" y="33.3044" width="18.012" height="20.5012" transform="rotate(-4.60608 378.836 33.3044)" fill="#0087FF"/>
<path d="M219.44 821V820.8L219.84 820.66C220.107 820.58 220.28 820.46 220.36 820.3C220.453 820.14 220.5 819.927 220.5 819.66V809.18C220.5 808.913 220.453 808.7 220.36 808.54C220.267 808.38 220.087 808.253 219.82 808.16L219.44 808V807.8H224.3C226.287 807.8 227.72 808.167 228.6 808.9C229.493 809.62 229.94 810.573 229.94 811.76C229.94 812.52 229.753 813.22 229.38 813.86C229.02 814.487 228.42 814.987 227.58 815.36C226.74 815.733 225.607 815.92 224.18 815.92H223.5V819.6C223.5 820.12 223.76 820.46 224.28 820.62L224.88 820.8V821H219.44ZM223.5 815.52H224.26C224.913 815.52 225.447 815.413 225.86 815.2C226.273 814.987 226.58 814.613 226.78 814.08C226.98 813.547 227.08 812.807 227.08 811.86C227.08 810.9 226.967 810.153 226.74 809.62C226.527 809.087 226.207 808.72 225.78 808.52C225.353 808.307 224.82 808.2 224.18 808.2H223.5V815.52ZM233.414 821.3C232.64 821.3 231.987 821.08 231.454 820.64C230.934 820.2 230.674 819.567 230.674 818.74C230.674 818.113 230.994 817.54 231.634 817.02C232.274 816.487 233.28 816.087 234.654 815.82C234.867 815.78 235.107 815.74 235.374 815.7C235.64 815.647 235.92 815.593 236.214 815.54V813.96C236.214 813.053 236.1 812.42 235.874 812.06C235.66 811.687 235.32 811.5 234.854 811.5C234.534 811.5 234.28 811.607 234.094 811.82C233.907 812.02 233.787 812.373 233.734 812.88L233.694 813.1C233.667 813.673 233.527 814.093 233.274 814.36C233.02 814.627 232.707 814.76 232.334 814.76C231.987 814.76 231.7 814.653 231.474 814.44C231.247 814.227 231.134 813.94 231.134 813.58C231.134 813.033 231.32 812.573 231.694 812.2C232.08 811.827 232.587 811.547 233.214 811.36C233.84 811.173 234.52 811.08 235.254 811.08C236.44 811.08 237.354 811.373 237.994 811.96C238.647 812.533 238.974 813.473 238.974 814.78V819.2C238.974 819.8 239.254 820.1 239.814 820.1H240.254L240.434 820.26C240.18 820.58 239.9 820.827 239.594 821C239.3 821.173 238.88 821.26 238.334 821.26C237.747 821.26 237.28 821.127 236.934 820.86C236.6 820.58 236.38 820.213 236.274 819.76C235.874 820.187 235.46 820.553 235.034 820.86C234.62 821.153 234.08 821.3 233.414 821.3ZM234.634 820.08C234.9 820.08 235.147 820.02 235.374 819.9C235.614 819.767 235.894 819.567 236.214 819.3V815.94C236.08 815.967 235.947 815.993 235.814 816.02C235.68 816.047 235.527 816.073 235.354 816.1C234.74 816.26 234.247 816.533 233.874 816.92C233.514 817.293 233.334 817.8 233.334 818.44C233.334 818.987 233.46 819.4 233.714 819.68C233.967 819.947 234.274 820.08 234.634 820.08ZM240.806 821V820.8L241.086 820.72C241.553 820.587 241.786 820.26 241.786 819.74V813.48C241.786 813.187 241.74 812.973 241.646 812.84C241.553 812.693 241.373 812.593 241.106 812.54L240.806 812.46V812.26L244.226 811.1L244.426 811.3L244.586 812.5C245.053 812.087 245.58 811.747 246.166 811.48C246.753 811.213 247.333 811.08 247.906 811.08C248.786 811.08 249.46 811.32 249.926 811.8C250.406 812.28 250.646 813.013 250.646 814V819.76C250.646 820.28 250.9 820.607 251.406 820.74L251.586 820.8V821H246.866V820.8L247.126 820.72C247.593 820.573 247.826 820.247 247.826 819.74V813.36C247.826 812.507 247.4 812.08 246.546 812.08C245.96 812.08 245.32 812.373 244.626 812.96V819.76C244.626 820.28 244.86 820.607 245.326 820.74L245.506 820.8V821H240.806ZM256.071 821.3C255.218 821.3 254.551 821.087 254.071 820.66C253.604 820.233 253.371 819.553 253.371 818.62V811.78H251.991V811.58L252.471 811.5C252.884 811.407 253.238 811.273 253.531 811.1C253.838 810.927 254.138 810.693 254.431 810.4L256.071 808.58H256.271L256.211 811.38H258.451V811.78H256.191V818.98C256.191 819.447 256.291 819.8 256.491 820.04C256.704 820.28 256.971 820.4 257.291 820.4C257.571 820.4 257.818 820.333 258.031 820.2C258.244 820.053 258.458 819.86 258.671 819.62L258.871 819.82C258.604 820.273 258.238 820.633 257.771 820.9C257.304 821.167 256.738 821.3 256.071 821.3ZM264.499 821.3C263.486 821.3 262.606 821.093 261.859 820.68C261.112 820.253 260.532 819.653 260.119 818.88C259.719 818.107 259.519 817.2 259.519 816.16C259.519 815.12 259.732 814.22 260.159 813.46C260.599 812.7 261.192 812.113 261.939 811.7C262.699 811.287 263.552 811.08 264.499 811.08C265.446 811.08 266.292 811.287 267.039 811.7C267.786 812.1 268.372 812.68 268.799 813.44C269.239 814.2 269.459 815.107 269.459 816.16C269.459 817.213 269.252 818.127 268.839 818.9C268.439 819.66 267.866 820.253 267.119 820.68C266.386 821.093 265.512 821.3 264.499 821.3ZM264.499 820.9C264.966 820.9 265.339 820.767 265.619 820.5C265.899 820.233 266.099 819.76 266.219 819.08C266.352 818.4 266.419 817.44 266.419 816.2C266.419 814.947 266.352 813.98 266.219 813.3C266.099 812.62 265.899 812.147 265.619 811.88C265.339 811.613 264.966 811.48 264.499 811.48C264.032 811.48 263.652 811.613 263.359 811.88C263.079 812.147 262.872 812.62 262.739 813.3C262.619 813.98 262.559 814.947 262.559 816.2C262.559 817.44 262.619 818.4 262.739 819.08C262.872 819.76 263.079 820.233 263.359 820.5C263.652 820.767 264.032 820.9 264.499 820.9ZM270.338 821V820.8L270.618 820.72C271.084 820.587 271.318 820.26 271.318 819.74V813.48C271.318 813.187 271.271 812.973 271.178 812.84C271.084 812.693 270.904 812.593 270.638 812.54L270.338 812.46V812.26L273.758 811.1L273.958 811.3L274.118 812.5C274.584 812.087 275.111 811.747 275.698 811.48C276.284 811.213 276.864 811.08 277.438 811.08C278.318 811.08 278.991 811.32 279.458 811.8C279.938 812.28 280.178 813.013 280.178 814V819.76C280.178 820.28 280.431 820.607 280.938 820.74L281.118 820.8V821H276.398V820.8L276.658 820.72C277.124 820.573 277.358 820.247 277.358 819.74V813.36C277.358 812.507 276.931 812.08 276.078 812.08C275.491 812.08 274.851 812.373 274.158 812.96V819.76C274.158 820.28 274.391 820.607 274.858 820.74L275.038 820.8V821H270.338ZM286.92 811.08C287.787 811.08 288.527 811.26 289.14 811.62C289.753 811.967 290.22 812.447 290.54 813.06C290.873 813.66 291.04 814.347 291.04 815.12C291.04 815.267 291.033 815.42 291.02 815.58C291.007 815.727 290.98 815.86 290.94 815.98H284.98C284.993 817.42 285.247 818.46 285.74 819.1C286.247 819.727 286.993 820.04 287.98 820.04C288.647 820.04 289.187 819.933 289.6 819.72C290.013 819.507 290.4 819.193 290.76 818.78L290.96 818.96C290.547 819.693 289.993 820.267 289.3 820.68C288.62 821.093 287.8 821.3 286.84 821.3C285.893 821.3 285.053 821.1 284.32 820.7C283.587 820.287 283.013 819.7 282.6 818.94C282.187 818.18 281.98 817.273 281.98 816.22C281.98 815.127 282.22 814.2 282.7 813.44C283.18 812.667 283.793 812.08 284.54 811.68C285.3 811.28 286.093 811.08 286.92 811.08ZM286.86 811.48C286.473 811.48 286.14 811.6 285.86 811.84C285.593 812.067 285.38 812.48 285.22 813.08C285.073 813.667 284.993 814.5 284.98 815.58H288.4C288.533 814.127 288.48 813.08 288.24 812.44C288 811.8 287.54 811.48 286.86 811.48Z" fill="white"/>
<path d="M401.49 849.27C400.52 849.27 399.64 849.075 398.85 848.685C398.07 848.285 397.45 847.695 396.99 846.915C396.53 846.135 396.3 845.18 396.3 844.05C396.3 843.19 396.44 842.435 396.72 841.785C397 841.135 397.38 840.59 397.86 840.15C398.35 839.71 398.91 839.38 399.54 839.16C400.18 838.94 400.855 838.83 401.565 838.83C402.135 838.83 402.66 838.895 403.14 839.025C403.62 839.155 404.07 839.335 404.49 839.565L404.55 841.41H404.4L403.65 840.21C403.55 840.02 403.44 839.85 403.32 839.7C403.2 839.54 403.05 839.42 402.87 839.34C402.72 839.27 402.57 839.22 402.42 839.19C402.28 839.15 402.1 839.13 401.88 839.13C401.3 839.13 400.77 839.285 400.29 839.595C399.82 839.905 399.44 840.42 399.15 841.14C398.87 841.85 398.73 842.825 398.73 844.065C398.73 845.295 398.865 846.27 399.135 846.99C399.405 847.7 399.77 848.21 400.23 848.52C400.7 848.82 401.225 848.97 401.805 848.97C402.125 848.97 402.38 848.95 402.57 848.91C402.76 848.86 402.95 848.79 403.14 848.7C403.33 848.62 403.475 848.505 403.575 848.355C403.675 848.195 403.765 848.025 403.845 847.845L404.505 846.375H404.655L404.61 848.52C404.19 848.74 403.72 848.92 403.2 849.06C402.68 849.2 402.11 849.27 401.49 849.27ZM405.338 849V848.85L405.638 848.745C405.978 848.635 406.148 848.35 406.148 847.89V840.21C406.148 840.01 406.123 839.85 406.073 839.73C406.033 839.61 405.918 839.51 405.728 839.43L405.338 839.25V839.1H408.233L411.008 846.36L413.618 839.1H416.573V839.25L416.333 839.34C416.143 839.41 416.013 839.51 415.943 839.64C415.873 839.76 415.838 839.92 415.838 840.12V847.965C415.838 848.165 415.863 848.32 415.913 848.43C415.963 848.54 416.083 848.635 416.273 848.715L416.573 848.85V849H412.838V848.85L413.153 848.715C413.343 848.635 413.463 848.54 413.513 848.43C413.563 848.32 413.588 848.165 413.588 847.965V844.59L413.618 840.3L410.483 849H409.733L406.463 840.405L406.508 844.14V847.92C406.508 848.14 406.538 848.32 406.598 848.46C406.668 848.59 406.798 848.685 406.988 848.745L407.318 848.85V849H405.338ZM420.458 849.27C419.908 849.27 419.348 849.2 418.778 849.06C418.208 848.93 417.733 848.755 417.353 848.535L417.428 846.495H417.578L418.043 847.47C418.183 847.75 418.333 848 418.493 848.22C418.653 848.43 418.873 848.595 419.153 848.715C419.353 848.815 419.543 848.885 419.723 848.925C419.913 848.955 420.123 848.97 420.353 848.97C420.963 848.97 421.443 848.805 421.793 848.475C422.153 848.145 422.333 847.72 422.333 847.2C422.333 846.71 422.213 846.33 421.973 846.06C421.733 845.78 421.348 845.51 420.818 845.25L420.203 844.98C419.343 844.6 418.668 844.165 418.178 843.675C417.698 843.175 417.458 842.515 417.458 841.695C417.458 841.105 417.608 840.595 417.908 840.165C418.218 839.735 418.643 839.405 419.183 839.175C419.733 838.945 420.373 838.83 421.103 838.83C421.633 838.83 422.133 838.9 422.603 839.04C423.083 839.18 423.498 839.37 423.848 839.61L423.758 841.41H423.608L422.993 840.285C422.823 839.935 422.653 839.69 422.483 839.55C422.313 839.4 422.118 839.295 421.898 839.235C421.768 839.195 421.648 839.17 421.538 839.16C421.428 839.14 421.288 839.13 421.118 839.13C420.608 839.13 420.178 839.28 419.828 839.58C419.478 839.87 419.303 840.265 419.303 840.765C419.303 841.275 419.438 841.685 419.708 841.995C419.978 842.295 420.373 842.565 420.893 842.805L421.583 843.105C422.543 843.525 423.233 843.975 423.653 844.455C424.073 844.925 424.283 845.535 424.283 846.285C424.283 847.165 423.948 847.885 423.278 848.445C422.618 848.995 421.678 849.27 420.458 849.27Z" fill="white"/>
<g filter="url(#filter0_d_3_5111)">
<path d="M184.33 875V874.85L184.645 874.73C184.965 874.6 185.125 874.345 185.125 873.965V866.135C185.125 865.735 184.965 865.48 184.645 865.37L184.33 865.25V865.1H188.29C189.35 865.1 190.26 865.3 191.02 865.7C191.79 866.09 192.38 866.655 192.79 867.395C193.21 868.125 193.42 869.005 193.42 870.035C193.42 871.085 193.195 871.98 192.745 872.72C192.295 873.46 191.665 874.025 190.855 874.415C190.055 874.805 189.11 875 188.02 875H184.33ZM187.375 874.7H188.02C188.74 874.7 189.32 874.56 189.76 874.28C190.2 873.99 190.52 873.51 190.72 872.84C190.93 872.16 191.035 871.23 191.035 870.05C191.035 868.87 190.93 867.945 190.72 867.275C190.52 866.595 190.205 866.115 189.775 865.835C189.345 865.545 188.78 865.4 188.08 865.4H187.375V874.7ZM195.827 866.78C195.487 866.78 195.197 866.675 194.957 866.465C194.727 866.245 194.612 865.97 194.612 865.64C194.612 865.3 194.727 865.025 194.957 864.815C195.197 864.605 195.487 864.5 195.827 864.5C196.167 864.5 196.452 864.605 196.682 864.815C196.912 865.025 197.027 865.3 197.027 865.64C197.027 865.97 196.912 866.245 196.682 866.465C196.452 866.675 196.167 866.78 195.827 866.78ZM194.057 875V874.85L194.267 874.79C194.467 874.73 194.602 874.64 194.672 874.52C194.752 874.4 194.792 874.24 194.792 874.04V869.345C194.792 869.135 194.752 868.98 194.672 868.88C194.602 868.77 194.467 868.695 194.267 868.655L194.057 868.61V868.46L196.802 867.575L196.952 867.725L196.907 869.855V874.055C196.907 874.255 196.942 874.415 197.012 874.535C197.092 874.655 197.227 874.745 197.417 874.805L197.567 874.85V875H194.057ZM201.501 872.405C200.811 872.405 200.226 872.29 199.746 872.06V872.57C199.746 872.88 199.901 873.065 200.211 873.125L203.031 873.65C203.501 873.74 203.926 873.86 204.306 874.01C204.686 874.15 204.991 874.355 205.221 874.625C205.451 874.885 205.566 875.245 205.566 875.705C205.566 876.195 205.406 876.645 205.086 877.055C204.766 877.475 204.291 877.81 203.661 878.06C203.041 878.32 202.266 878.45 201.336 878.45C200.536 878.45 199.901 878.365 199.431 878.195C198.961 878.035 198.626 877.825 198.426 877.565C198.236 877.305 198.141 877.03 198.141 876.74C198.141 876.38 198.261 876.015 198.501 875.645C198.751 875.285 199.056 874.995 199.416 874.775C199.106 874.655 198.881 874.5 198.741 874.31C198.601 874.12 198.531 873.915 198.531 873.695C198.531 873.495 198.581 873.31 198.681 873.14C198.791 872.96 198.921 872.78 199.071 872.6L199.566 871.97C198.836 871.55 198.471 870.89 198.471 869.99C198.471 869.27 198.726 868.685 199.236 868.235C199.756 867.785 200.516 867.56 201.516 867.56C202.026 867.56 202.471 867.62 202.851 867.74C203.241 867.86 203.561 868.03 203.811 868.25C204.131 868.2 204.431 868.12 204.711 868.01C205.001 867.89 205.261 867.73 205.491 867.53L205.701 867.68V868.445H204.006C204.366 868.845 204.546 869.36 204.546 869.99C204.546 870.69 204.286 871.27 203.766 871.73C203.256 872.18 202.501 872.405 201.501 872.405ZM201.486 872.105C201.886 872.105 202.176 871.94 202.356 871.61C202.546 871.28 202.641 870.73 202.641 869.96C202.641 869.19 202.546 868.65 202.356 868.34C202.176 868.02 201.896 867.86 201.516 867.86C201.146 867.86 200.866 868.025 200.676 868.355C200.486 868.675 200.391 869.22 200.391 869.99C200.391 870.76 200.476 871.305 200.646 871.625C200.826 871.945 201.106 872.105 201.486 872.105ZM199.251 876.26C199.251 876.85 199.431 877.295 199.791 877.595C200.161 877.895 200.741 878.045 201.531 878.045C202.361 878.045 202.986 877.91 203.406 877.64C203.826 877.37 204.036 876.99 204.036 876.5C204.036 876.22 203.931 875.995 203.721 875.825C203.521 875.655 203.176 875.525 202.686 875.435L199.971 874.925C199.891 874.905 199.811 874.885 199.731 874.865C199.591 875.065 199.476 875.29 199.386 875.54C199.296 875.8 199.251 876.04 199.251 876.26ZM207.999 866.78C207.659 866.78 207.369 866.675 207.129 866.465C206.899 866.245 206.784 865.97 206.784 865.64C206.784 865.3 206.899 865.025 207.129 864.815C207.369 864.605 207.659 864.5 207.999 864.5C208.339 864.5 208.624 864.605 208.854 864.815C209.084 865.025 209.199 865.3 209.199 865.64C209.199 865.97 209.084 866.245 208.854 866.465C208.624 866.675 208.339 866.78 207.999 866.78ZM206.229 875V874.85L206.439 874.79C206.639 874.73 206.774 874.64 206.844 874.52C206.924 874.4 206.964 874.24 206.964 874.04V869.345C206.964 869.135 206.924 868.98 206.844 868.88C206.774 868.77 206.639 868.695 206.439 868.655L206.229 868.61V868.46L208.974 867.575L209.124 867.725L209.079 869.855V874.055C209.079 874.255 209.114 874.415 209.184 874.535C209.264 874.655 209.399 874.745 209.589 874.805L209.739 874.85V875H206.229ZM213.254 875.225C212.614 875.225 212.114 875.065 211.754 874.745C211.404 874.425 211.229 873.915 211.229 873.215V868.085H210.194V867.935L210.554 867.875C210.864 867.805 211.129 867.705 211.349 867.575C211.579 867.445 211.804 867.27 212.024 867.05L213.254 865.685H213.404L213.359 867.785H215.039V868.085H213.344V873.485C213.344 873.835 213.419 874.1 213.569 874.28C213.729 874.46 213.929 874.55 214.169 874.55C214.379 874.55 214.564 874.5 214.724 874.4C214.884 874.29 215.044 874.145 215.204 873.965L215.354 874.115C215.154 874.455 214.879 874.725 214.529 874.925C214.179 875.125 213.754 875.225 213.254 875.225ZM218.013 875.225C217.433 875.225 216.943 875.06 216.543 874.73C216.153 874.4 215.958 873.925 215.958 873.305C215.958 872.835 216.198 872.405 216.678 872.015C217.158 871.615 217.913 871.315 218.943 871.115C219.103 871.085 219.283 871.055 219.483 871.025C219.683 870.985 219.893 870.945 220.113 870.905V869.72C220.113 869.04 220.028 868.565 219.858 868.295C219.698 868.015 219.443 867.875 219.093 867.875C218.853 867.875 218.663 867.955 218.523 868.115C218.383 868.265 218.293 868.53 218.253 868.91L218.223 869.075C218.203 869.505 218.098 869.82 217.908 870.02C217.718 870.22 217.483 870.32 217.203 870.32C216.943 870.32 216.728 870.24 216.558 870.08C216.388 869.92 216.303 869.705 216.303 869.435C216.303 869.025 216.443 868.68 216.723 868.4C217.013 868.12 217.393 867.91 217.863 867.77C218.333 867.63 218.843 867.56 219.393 867.56C220.283 867.56 220.968 867.78 221.448 868.22C221.938 868.65 222.183 869.355 222.183 870.335V873.65C222.183 874.1 222.393 874.325 222.813 874.325H223.143L223.278 874.445C223.088 874.685 222.878 874.87 222.648 875C222.428 875.13 222.113 875.195 221.703 875.195C221.263 875.195 220.913 875.095 220.653 874.895C220.403 874.685 220.238 874.41 220.158 874.07C219.858 874.39 219.548 874.665 219.228 874.895C218.918 875.115 218.513 875.225 218.013 875.225ZM218.928 874.31C219.128 874.31 219.313 874.265 219.483 874.175C219.663 874.075 219.873 873.925 220.113 873.725V871.205C220.013 871.225 219.913 871.245 219.813 871.265C219.713 871.285 219.598 871.305 219.468 871.325C219.008 871.445 218.638 871.65 218.358 871.94C218.088 872.22 217.953 872.6 217.953 873.08C217.953 873.49 218.048 873.8 218.238 874.01C218.428 874.21 218.658 874.31 218.928 874.31ZM223.632 875V874.85L223.812 874.79C224.172 874.67 224.352 874.42 224.352 874.04V866.015C224.352 865.815 224.312 865.665 224.232 865.565C224.152 865.455 224.012 865.375 223.812 865.325L223.617 865.28V865.13L226.362 864.485L226.542 864.62L226.482 866.72V871.85C226.482 872.22 226.482 872.59 226.482 872.96C226.492 873.32 226.497 873.68 226.497 874.04C226.497 874.24 226.537 874.405 226.617 874.535C226.697 874.655 226.832 874.745 227.022 874.805L227.217 874.85V875H223.632ZM231.176 875V874.85L231.476 874.745C231.676 874.685 231.806 874.595 231.866 874.475C231.936 874.355 231.971 874.195 231.971 873.995V866.135C231.971 865.935 231.936 865.775 231.866 865.655C231.796 865.535 231.661 865.44 231.461 865.37L231.176 865.25V865.1H234.821C236.311 865.1 237.386 865.375 238.046 865.925C238.716 866.465 239.051 867.18 239.051 868.07C239.051 868.64 238.911 869.165 238.631 869.645C238.361 870.115 237.911 870.49 237.281 870.77C236.651 871.05 235.801 871.19 234.731 871.19H234.221V873.95C234.221 874.34 234.416 874.595 234.806 874.715L235.256 874.85V875H231.176ZM234.221 870.89H234.791C235.281 870.89 235.681 870.81 235.991 870.65C236.301 870.49 236.531 870.21 236.681 869.81C236.831 869.41 236.906 868.855 236.906 868.145C236.906 867.425 236.821 866.865 236.651 866.465C236.491 866.065 236.251 865.79 235.931 865.64C235.611 865.48 235.211 865.4 234.731 865.4H234.221V870.89ZM239.569 875V874.85L239.794 874.79C239.994 874.73 240.129 874.64 240.199 874.52C240.279 874.4 240.319 874.245 240.319 874.055V869.36C240.319 869.14 240.279 868.98 240.199 868.88C240.129 868.77 239.994 868.695 239.794 868.655L239.569 868.595V868.445L242.149 867.575L242.299 867.725L242.434 869.015V869.135C242.574 868.855 242.754 868.6 242.974 868.37C243.204 868.13 243.454 867.935 243.724 867.785C244.004 867.635 244.279 867.56 244.549 867.56C244.929 867.56 245.219 867.665 245.419 867.875C245.619 868.085 245.719 868.35 245.719 868.67C245.719 869.01 245.619 869.275 245.419 869.465C245.229 869.645 244.999 869.735 244.729 869.735C244.309 869.735 243.939 869.525 243.619 869.105L243.589 869.075C243.489 868.935 243.374 868.86 243.244 868.85C243.114 868.83 242.994 868.89 242.884 869.03C242.784 869.12 242.699 869.23 242.629 869.36C242.569 869.48 242.509 869.62 242.449 869.78V873.965C242.449 874.365 242.624 874.615 242.974 874.715L243.454 874.85V875H239.569ZM249.75 875.225C248.99 875.225 248.33 875.07 247.77 874.76C247.21 874.44 246.775 873.99 246.465 873.41C246.165 872.83 246.015 872.15 246.015 871.37C246.015 870.59 246.175 869.915 246.495 869.345C246.825 868.775 247.27 868.335 247.83 868.025C248.4 867.715 249.04 867.56 249.75 867.56C250.46 867.56 251.095 867.715 251.655 868.025C252.215 868.325 252.655 868.76 252.975 869.33C253.305 869.9 253.47 870.58 253.47 871.37C253.47 872.16 253.315 872.845 253.005 873.425C252.705 873.995 252.275 874.44 251.715 874.76C251.165 875.07 250.51 875.225 249.75 875.225ZM249.75 874.925C250.1 874.925 250.38 874.825 250.59 874.625C250.8 874.425 250.95 874.07 251.04 873.56C251.14 873.05 251.19 872.33 251.19 871.4C251.19 870.46 251.14 869.735 251.04 869.225C250.95 868.715 250.8 868.36 250.59 868.16C250.38 867.96 250.1 867.86 249.75 867.86C249.4 867.86 249.115 867.96 248.895 868.16C248.685 868.36 248.53 868.715 248.43 869.225C248.34 869.735 248.295 870.46 248.295 871.4C248.295 872.33 248.34 873.05 248.43 873.56C248.53 874.07 248.685 874.425 248.895 874.625C249.115 874.825 249.4 874.925 249.75 874.925ZM257.399 872.405C256.709 872.405 256.124 872.29 255.644 872.06V872.57C255.644 872.88 255.799 873.065 256.109 873.125L258.929 873.65C259.399 873.74 259.824 873.86 260.204 874.01C260.584 874.15 260.889 874.355 261.119 874.625C261.349 874.885 261.464 875.245 261.464 875.705C261.464 876.195 261.304 876.645 260.984 877.055C260.664 877.475 260.189 877.81 259.559 878.06C258.939 878.32 258.164 878.45 257.234 878.45C256.434 878.45 255.799 878.365 255.329 878.195C254.859 878.035 254.524 877.825 254.324 877.565C254.134 877.305 254.039 877.03 254.039 876.74C254.039 876.38 254.159 876.015 254.399 875.645C254.649 875.285 254.954 874.995 255.314 874.775C255.004 874.655 254.779 874.5 254.639 874.31C254.499 874.12 254.429 873.915 254.429 873.695C254.429 873.495 254.479 873.31 254.579 873.14C254.689 872.96 254.819 872.78 254.969 872.6L255.464 871.97C254.734 871.55 254.369 870.89 254.369 869.99C254.369 869.27 254.624 868.685 255.134 868.235C255.654 867.785 256.414 867.56 257.414 867.56C257.924 867.56 258.369 867.62 258.749 867.74C259.139 867.86 259.459 868.03 259.709 868.25C260.029 868.2 260.329 868.12 260.609 868.01C260.899 867.89 261.159 867.73 261.389 867.53L261.599 867.68V868.445H259.904C260.264 868.845 260.444 869.36 260.444 869.99C260.444 870.69 260.184 871.27 259.664 871.73C259.154 872.18 258.399 872.405 257.399 872.405ZM257.384 872.105C257.784 872.105 258.074 871.94 258.254 871.61C258.444 871.28 258.539 870.73 258.539 869.96C258.539 869.19 258.444 868.65 258.254 868.34C258.074 868.02 257.794 867.86 257.414 867.86C257.044 867.86 256.764 868.025 256.574 868.355C256.384 868.675 256.289 869.22 256.289 869.99C256.289 870.76 256.374 871.305 256.544 871.625C256.724 871.945 257.004 872.105 257.384 872.105ZM255.149 876.26C255.149 876.85 255.329 877.295 255.689 877.595C256.059 877.895 256.639 878.045 257.429 878.045C258.259 878.045 258.884 877.91 259.304 877.64C259.724 877.37 259.934 876.99 259.934 876.5C259.934 876.22 259.829 875.995 259.619 875.825C259.419 875.655 259.074 875.525 258.584 875.435L255.869 874.925C255.789 874.905 255.709 874.885 255.629 874.865C255.489 875.065 255.374 875.29 255.284 875.54C255.194 875.8 255.149 876.04 255.149 876.26ZM262.098 875V874.85L262.323 874.79C262.523 874.73 262.658 874.64 262.728 874.52C262.808 874.4 262.848 874.245 262.848 874.055V869.36C262.848 869.14 262.808 868.98 262.728 868.88C262.658 868.77 262.523 868.695 262.323 868.655L262.098 868.595V868.445L264.678 867.575L264.828 867.725L264.963 869.015V869.135C265.103 868.855 265.283 868.6 265.503 868.37C265.733 868.13 265.983 867.935 266.253 867.785C266.533 867.635 266.808 867.56 267.078 867.56C267.458 867.56 267.748 867.665 267.948 867.875C268.148 868.085 268.248 868.35 268.248 868.67C268.248 869.01 268.148 869.275 267.948 869.465C267.758 869.645 267.528 869.735 267.258 869.735C266.838 869.735 266.468 869.525 266.148 869.105L266.118 869.075C266.018 868.935 265.903 868.86 265.773 868.85C265.643 868.83 265.523 868.89 265.413 869.03C265.313 869.12 265.228 869.23 265.158 869.36C265.098 869.48 265.038 869.62 264.978 869.78V873.965C264.978 874.365 265.153 874.615 265.503 874.715L265.983 874.85V875H262.098ZM270.587 875.225C270.007 875.225 269.517 875.06 269.117 874.73C268.727 874.4 268.532 873.925 268.532 873.305C268.532 872.835 268.772 872.405 269.252 872.015C269.732 871.615 270.487 871.315 271.517 871.115C271.677 871.085 271.857 871.055 272.057 871.025C272.257 870.985 272.467 870.945 272.687 870.905V869.72C272.687 869.04 272.602 868.565 272.432 868.295C272.272 868.015 272.017 867.875 271.667 867.875C271.427 867.875 271.237 867.955 271.097 868.115C270.957 868.265 270.867 868.53 270.827 868.91L270.797 869.075C270.777 869.505 270.672 869.82 270.482 870.02C270.292 870.22 270.057 870.32 269.777 870.32C269.517 870.32 269.302 870.24 269.132 870.08C268.962 869.92 268.877 869.705 268.877 869.435C268.877 869.025 269.017 868.68 269.297 868.4C269.587 868.12 269.967 867.91 270.437 867.77C270.907 867.63 271.417 867.56 271.967 867.56C272.857 867.56 273.542 867.78 274.022 868.22C274.512 868.65 274.757 869.355 274.757 870.335V873.65C274.757 874.1 274.967 874.325 275.387 874.325H275.717L275.852 874.445C275.662 874.685 275.452 874.87 275.222 875C275.002 875.13 274.687 875.195 274.277 875.195C273.837 875.195 273.487 875.095 273.227 874.895C272.977 874.685 272.812 874.41 272.732 874.07C272.432 874.39 272.122 874.665 271.802 874.895C271.492 875.115 271.087 875.225 270.587 875.225ZM271.502 874.31C271.702 874.31 271.887 874.265 272.057 874.175C272.237 874.075 272.447 873.925 272.687 873.725V871.205C272.587 871.225 272.487 871.245 272.387 871.265C272.287 871.285 272.172 871.305 272.042 871.325C271.582 871.445 271.212 871.65 270.932 871.94C270.662 872.22 270.527 872.6 270.527 873.08C270.527 873.49 270.622 873.8 270.812 874.01C271.002 874.21 271.232 874.31 271.502 874.31ZM276.131 875V874.85L276.341 874.79C276.531 874.74 276.661 874.655 276.731 874.535C276.811 874.415 276.856 874.255 276.866 874.055V869.36C276.866 869.14 276.831 868.98 276.761 868.88C276.691 868.77 276.556 868.695 276.356 868.655L276.131 868.595V868.445L278.696 867.575L278.846 867.725L278.966 868.745C279.296 868.415 279.671 868.135 280.091 867.905C280.521 867.675 280.966 867.56 281.426 867.56C281.906 867.56 282.291 867.66 282.581 867.86C282.871 868.05 283.091 868.35 283.241 868.76C283.631 868.39 284.051 868.1 284.501 867.89C284.961 867.67 285.406 867.56 285.836 867.56C286.546 867.56 287.066 867.73 287.396 868.07C287.736 868.41 287.906 868.945 287.906 869.675V874.07C287.906 874.46 288.086 874.705 288.446 874.805L288.611 874.85V875H285.146V874.85L285.296 874.805C285.486 874.745 285.616 874.655 285.686 874.535C285.766 874.415 285.806 874.255 285.806 874.055V869.465C285.806 869.045 285.731 868.76 285.581 868.61C285.431 868.45 285.191 868.37 284.861 868.37C284.601 868.37 284.346 868.43 284.096 868.55C283.856 868.66 283.601 868.83 283.331 869.06C283.381 869.22 283.411 869.395 283.421 869.585C283.441 869.775 283.451 869.975 283.451 870.185V874.07C283.461 874.46 283.641 874.705 283.991 874.805L284.126 874.85V875H280.646V874.85L280.856 874.79C281.046 874.73 281.176 874.645 281.246 874.535C281.326 874.415 281.366 874.255 281.366 874.055V869.48C281.366 869.08 281.291 868.795 281.141 868.625C281.001 868.455 280.756 868.37 280.406 868.37C280.176 868.37 279.946 868.43 279.716 868.55C279.486 868.66 279.246 868.825 278.996 869.045V874.07C278.996 874.46 279.171 874.705 279.521 874.805L279.656 874.85V875H276.131Z" fill="white"/>
</g>
<path d="M79.6667 662.333L76 666L79.6667 669.667M94.3333 662.333L98 666L94.3333 669.667" stroke="white" stroke-width="1.5" stroke-miterlimit="10" stroke-linecap="round" stroke-linejoin="round"/>
<path d="M88.8333 661.728L85.1666 670.272M87 684.333C97.1255 684.333 105.333 676.126 105.333 666C105.333 655.875 97.1255 647.667 87 647.667C76.8745 647.667 68.6666 655.875 68.6666 666C68.6666 676.126 76.8745 684.333 87 684.333Z" stroke="white" stroke-width="1.5" stroke-miterlimit="10" stroke-linecap="round" stroke-linejoin="round"/>
<defs>
<filter id="filter0_d_3_5111" x="180.33" y="864.485" width="112.281" height="21.9648" filterUnits="userSpaceOnUse" color-interpolation-filters="sRGB">
<feFlood flood-opacity="0" result="BackgroundImageFix"/>
<feColorMatrix in="SourceAlpha" type="matrix" values="0 0 0 0 0 0 0 0 0 0 0 0 0 0 0 0 0 0 127 0" result="hardAlpha"/>
<feOffset dy="4"/>
<feGaussianBlur stdDeviation="2"/>
<feComposite in2="hardAlpha" operator="out"/>
<feColorMatrix type="matrix" values="0 0 0 0 0 0 0 0 0 0 0 0 0 0 0 0 0 0 0.1 0"/>
<feBlend mode="normal" in2="BackgroundImageFix" result="effect1_dropShadow_3_5111"/>
<feBlend mode="normal" in="SourceGraphic" in2="effect1_dropShadow_3_5111" result="shape"/>
</filter>
<linearGradient id="paint0_linear_3_5111" x1="33.0001" y1="470.036" x2="826.61" y2="470.036" gradientUnits="userSpaceOnUse">
<stop stop-color="#292930"/>
<stop offset="1" stop-color="#878787"/>
</linearGradient>
<linearGradient id="paint1_linear_3_5111" x1="152.644" y1="477.632" x2="650.407" y2="477.632" gradientUnits="userSpaceOnUse">
<stop stop-color="#1B609D"/>
<stop offset="1" stop-color="#113F8A"/>
</linearGradient>
<linearGradient id="paint2_linear_3_5111" x1="695.499" y1="675" x2="200.999" y2="157.5" gradientUnits="userSpaceOnUse">
<stop stop-color="#4D98DA"/>
<stop offset="1" stop-color="#073965"/>
</linearGradient>
<linearGradient id="paint3_linear_3_5111" x1="710.688" y1="813.461" x2="812.96" y2="813.461" gradientUnits="userSpaceOnUse">
<stop stop-color="#292930"/>
<stop offset="1" stop-color="#878787"/>
</linearGradient>
<linearGradient id="paint4_linear_3_5111" x1="658.977" y1="840.118" x2="773.935" y2="840.118" gradientUnits="userSpaceOnUse">
<stop stop-color="#292930"/>
<stop offset="1" stop-color="#878787"/>
</linearGradient>
<linearGradient id="paint5_linear_3_5111" x1="445.334" y1="495.323" x2="544.133" y2="495.323" gradientUnits="userSpaceOnUse">
<stop offset="2.77045e-07" stop-color="#FFA400"/>
<stop offset="1" stop-color="#FFDE00"/>
</linearGradient>
<linearGradient id="paint6_linear_3_5111" x1="320.7" y1="544.437" x2="518.05" y2="544.437" gradientUnits="userSpaceOnUse">
<stop offset="2.77045e-07" stop-color="#FFA400"/>
<stop offset="1" stop-color="#FFDE00"/>
</linearGradient>
<linearGradient id="paint7_linear_3_5111" x1="374.682" y1="403.663" x2="433.934" y2="403.663" gradientUnits="userSpaceOnUse">
<stop stop-color="#073966"/>
<stop offset="1" stop-color="#4289C8"/>
</linearGradient>
<linearGradient id="paint8_linear_3_5111" x1="349.696" y1="305.476" x2="464.627" y2="305.476" gradientUnits="userSpaceOnUse">
<stop stop-color="#292930"/>
<stop offset="1" stop-color="#878787"/>
</linearGradient>
<linearGradient id="paint9_linear_3_5111" x1="377.47" y1="296.068" x2="459.821" y2="296.068" gradientUnits="userSpaceOnUse">
<stop stop-color="#292930"/>
<stop offset="1" stop-color="#878787"/>
</linearGradient>
<linearGradient id="paint10_linear_3_5111" x1="319.743" y1="519.971" x2="427.996" y2="519.971" gradientUnits="userSpaceOnUse">
<stop offset="2.77045e-07" stop-color="#FFA400"/>
<stop offset="1" stop-color="#FFDE00"/>
</linearGradient>
<linearGradient id="paint11_linear_3_5111" x1="373.858" y1="603.91" x2="509.592" y2="603.91" gradientUnits="userSpaceOnUse">
<stop offset="2.77045e-07" stop-color="#FFA400"/>
<stop offset="1" stop-color="#FFDE00"/>
</linearGradient>
<linearGradient id="paint12_linear_3_5111" x1="556.142" y1="689.904" x2="763.734" y2="689.904" gradientUnits="userSpaceOnUse">
<stop/>
<stop offset="1" stop-color="#9B9B9B"/>
</linearGradient>
<linearGradient id="paint13_linear_3_5111" x1="527.61" y1="544.28" x2="705.364" y2="544.28" gradientUnits="userSpaceOnUse">
<stop stop-color="#292930"/>
<stop offset="1" stop-color="#878787"/>
</linearGradient>
<linearGradient id="paint14_linear_3_5111" x1="534.366" y1="543.177" x2="712.487" y2="543.177" gradientUnits="userSpaceOnUse">
<stop stop-color="#292930"/>
<stop offset="1" stop-color="#878787"/>
</linearGradient>
<linearGradient id="paint15_linear_3_5111" x1="497.135" y1="615.994" x2="692.715" y2="615.994" gradientUnits="userSpaceOnUse">
<stop stop-color="#292930"/>
<stop offset="1" stop-color="#878787"/>
</linearGradient>
<linearGradient id="paint16_linear_3_5111" x1="490.169" y1="609.884" x2="694.002" y2="609.884" gradientUnits="userSpaceOnUse">
<stop stop-color="#292930"/>
<stop offset="1" stop-color="#878787"/>
</linearGradient>
<linearGradient id="paint17_linear_3_5111" x1="383.281" y1="728.719" x2="702.27" y2="728.719" gradientUnits="userSpaceOnUse">
<stop/>
<stop offset="1" stop-color="#9B9B9B"/>
</linearGradient>
<linearGradient id="paint18_linear_3_5111" x1="718" y1="195.5" x2="783" y2="195.5" gradientUnits="userSpaceOnUse">
<stop stop-color="#4D97D9"/>
<stop offset="1" stop-color="#2E6EA6"/>
</linearGradient>
<linearGradient id="paint19_linear_3_5111" x1="0" y1="429.5" x2="65" y2="429.5" gradientUnits="userSpaceOnUse">
<stop stop-color="#FFBA00"/>
<stop offset="1" stop-color="#F17809"/>
</linearGradient>
<linearGradient id="paint20_linear_3_5111" x1="569" y1="85.5" x2="634" y2="85.5" gradientUnits="userSpaceOnUse">
<stop stop-color="#FFBA00"/>
<stop offset="1" stop-color="#F17809"/>
</linearGradient>
<linearGradient id="paint21_linear_3_5111" x1="735.302" y1="340.101" x2="703.697" y2="396.9" gradientUnits="userSpaceOnUse">
<stop stop-color="#FFBA00"/>
<stop offset="1" stop-color="#F17809"/>
</linearGradient>
<linearGradient id="paint22_linear_3_5111" x1="54" y1="666.5" x2="119" y2="666.5" gradientUnits="userSpaceOnUse">
<stop stop-color="#4D97D9"/>
<stop offset="1" stop-color="#2E6EA6"/>
</linearGradient>
<linearGradient id="paint23_linear_3_5111" x1="488.158" y1="194.915" x2="565.908" y2="194.915" gradientUnits="userSpaceOnUse">
<stop stop-color="#292930"/>
<stop offset="1" stop-color="#878787"/>
</linearGradient>
<linearGradient id="paint24_linear_3_5111" x1="749.348" y1="268.687" x2="946.826" y2="268.687" gradientUnits="userSpaceOnUse">
<stop stop-color="#292930"/>
<stop offset="1" stop-color="#878787"/>
</linearGradient>
<linearGradient id="paint25_linear_3_5111" x1="744.375" y1="268.712" x2="754.332" y2="268.712" gradientUnits="userSpaceOnUse">
<stop stop-color="#292930"/>
<stop offset="1" stop-color="#878787"/>
</linearGradient>
<linearGradient id="paint26_linear_3_5111" x1="746.36" y1="413.948" x2="869.589" y2="413.948" gradientUnits="userSpaceOnUse">
<stop stop-color="#292930"/>
<stop offset="1" stop-color="#878787"/>
</linearGradient>
<linearGradient id="paint27_linear_3_5111" x1="744" y1="413.973" x2="753.957" y2="413.973" gradientUnits="userSpaceOnUse">
<stop stop-color="#292930"/>
<stop offset="1" stop-color="#878787"/>
</linearGradient>
<linearGradient id="paint28_linear_3_5111" x1="868.281" y1="414" x2="868.281" y2="493.875" gradientUnits="userSpaceOnUse">
<stop stop-color="#292930"/>
<stop offset="1" stop-color="#878787"/>
</linearGradient>
<linearGradient id="paint29_linear_3_5111" x1="822.501" y1="473.859" x2="901.001" y2="562.859" gradientUnits="userSpaceOnUse">
<stop stop-color="#F1F1F1"/>
<stop offset="1" stop-color="#BDBDBD"/>
</linearGradient>
<linearGradient id="paint30_linear_3_5111" x1="924.734" y1="224.859" x2="1003.23" y2="313.859" gradientUnits="userSpaceOnUse">
<stop stop-color="#DFDFDF"/>
<stop offset="1" stop-color="#878787"/>
</linearGradient>
<linearGradient id="paint31_linear_3_5111" x1="332.438" y1="44.4086" x2="421.256" y2="44.4086" gradientUnits="userSpaceOnUse">
<stop stop-color="#292930"/>
<stop offset="1" stop-color="#878787"/>
</linearGradient>
<linearGradient id="paint32_linear_3_5111" x1="179.999" y1="814.95" x2="365.068" y2="814.95" gradientUnits="userSpaceOnUse">
<stop stop-color="#AE1904"/>
<stop offset="1" stop-color="#888888"/>
</linearGradient>
<linearGradient id="paint33_linear_3_5111" x1="223.927" y1="844.166" x2="452.099" y2="844.166" gradientUnits="userSpaceOnUse">
<stop stop-color="#629F13"/>
<stop offset="1" stop-color="#878787"/>
</linearGradient>
<linearGradient id="paint34_linear_3_5111" x1="173.54" y1="870.716" x2="316.411" y2="870.716" gradientUnits="userSpaceOnUse">
<stop stop-color="#4681C6"/>
<stop offset="1" stop-color="#073965"/>
</linearGradient>
<linearGradient id="paint35_linear_3_5111" x1="291.896" y1="870.641" x2="401.26" y2="870.641" gradientUnits="userSpaceOnUse">
<stop stop-color="#438BCA"/>
<stop offset="1" stop-color="#083A67"/>
</linearGradient>
</defs>
</svg>
