<svg width="1018" height="894" viewBox="0 0 1018 894" fill="none" xmlns="http://www.w3.org/2000/svg">
<path opacity="0.76" d="M577.624 747.813C742.066 668.39 825.943 468.903 825.943 337.133C825.943 205.364 782.373 128.704 681.58 136.39C580.787 144.077 469.603 256.957 371.973 240.128C274.342 223.299 72.0031 275.745 39.3758 421.128C-6.65363 625.84 197.643 931.275 577.624 747.813Z" fill="#DAEDFD"/>
<path d="M153.126 175.272C170.896 308.297 226.763 639.704 360.384 823.065C372.733 840.045 394.568 847.129 414.546 840.799L615.881 776.748C642.284 768.358 656.389 739.724 646.952 713.651C609.004 608.759 521.312 352.706 500.882 173.614C498.172 149.702 478.445 131.316 454.451 130.361L218.481 112.176C164.069 112.176 149.161 145.181 153.126 175.272Z" fill="url(#paint0_linear_1960_1293)"/>
<path d="M175.314 167.084C193.084 300.109 248.951 631.516 382.572 814.878C394.921 831.858 416.756 838.941 436.734 832.611L638.069 768.56C664.472 760.171 678.577 731.536 669.14 705.464C631.192 600.571 543.5 344.518 523.07 165.427C520.36 141.514 500.633 123.128 476.639 122.173L225.61 111.875C195.342 110.619 171.299 137.043 175.314 167.084Z" fill="url(#paint1_linear_1960_1293)"/>
<path d="M213.008 157.238C213.008 157.238 270.08 612.628 387.99 766.802L632.995 693.256C632.995 693.256 519.252 394.151 499.224 163.618C499.274 163.618 334.431 169.245 213.008 157.238Z" fill="white"/>
<path d="M538.036 782.548C544.323 780.049 546.275 770.101 542.397 760.328C538.519 750.556 530.279 744.659 523.992 747.157C517.706 749.656 515.753 759.604 519.631 769.377C523.509 779.15 531.749 785.047 538.036 782.548Z" fill="#302E3D"/>
<path opacity="0.32" d="M668.124 741.181C662.753 753.79 652.162 764.089 638.057 768.56L519.043 806.438C493.443 793.527 462.673 773.885 438.328 745.702L482.199 692.101L608.542 674.92L668.124 741.181Z" fill="#3D53A3"/>
<path d="M714.415 783.23L710.148 848.486C710.148 848.486 778.063 867.224 812.347 844.317C812.347 844.317 758.688 831.406 745.938 807.745C733.188 784.084 738.208 771.273 738.208 771.273L714.415 783.23Z" fill="url(#paint2_linear_1960_1293)"/>
<path opacity="0.32" d="M714.416 783.23L730.077 775.343L742.727 801.064C743.63 803.174 744.734 805.384 745.989 807.745C723.803 814.426 720.139 837.836 720.339 850.898C714.065 849.592 710.25 848.537 710.25 848.537" fill="#3D53A3"/>
<path d="M658.445 820.655L683.744 880.938C683.744 880.938 752.914 867.324 773.293 831.456C773.293 831.456 719.533 843.914 697.548 828.441C675.562 812.969 674.307 799.204 674.307 799.204L658.445 820.655Z" fill="url(#paint3_linear_1960_1293)"/>
<path opacity="0.32" d="M658.445 820.655L668.936 806.589L691.725 823.971C693.532 825.427 695.44 826.934 697.598 828.492C680.732 844.417 687.91 866.973 693.883 878.577C687.659 880.235 683.794 880.988 683.794 880.988" fill="#3D53A3"/>
<path d="M444.961 389.278C464.186 393.548 514.231 483.019 535.765 528.733C557.299 574.448 530.344 605.193 509.211 600.923C488.079 596.653 448.625 461.618 448.625 461.618L444.961 389.278Z" fill="url(#paint4_linear_1960_1293)"/>
<path opacity="0.32" d="M480.504 467.798C506.505 545.563 553.137 566.461 553.137 566.461L543.7 600.873L473.778 585.501L448.68 514.417L480.504 467.798Z" fill="#3D53A3"/>
<path d="M381.317 384.657C329.265 400.08 325.048 406.962 322.338 431.025C319.627 455.088 316.916 533.657 336.091 589.871C355.266 646.085 343.721 651.461 357.976 666.632C372.232 681.803 365.907 695.166 378.005 701.445C390.102 707.725 382.974 701.445 382.974 701.445L517.649 626.493C517.649 626.493 484.52 445.543 445.016 389.329L381.317 384.657Z" fill="url(#paint5_linear_1960_1293)"/>
<path d="M376.592 402.19C386.882 417.864 406.81 425.952 406.81 425.952L414.64 408.972L433.564 416.759C433.564 416.759 432.209 387.772 413.285 383.452C405.906 381.744 392.654 380.99 386.581 381.543C376.541 382.397 371.02 393.7 376.592 402.19Z" fill="url(#paint6_linear_1960_1293)"/>
<path opacity="0.32" d="M484.016 579.071C484.016 579.071 483.966 579.071 483.866 579.071C481.657 578.87 507.006 622.575 507.006 622.575C493.403 640.057 448.93 631.266 435.778 642.519C422.627 653.772 396.776 629.357 383.023 640.61C369.269 651.863 378.455 682.808 419.063 676.478C423.129 675.825 426.542 675.574 429.403 675.524L383.023 701.345C383.023 701.345 390.15 707.574 378.053 701.345C365.956 695.116 372.281 681.703 358.025 666.532C343.719 651.36 355.365 645.985 336.14 589.771C321.533 546.97 319.625 491.208 320.73 456.445C325.699 454.234 330.468 452.677 331.773 453.531C334.584 455.44 362.944 428.664 362.944 428.664C362.944 428.664 387.992 444.287 401.093 467.647C414.194 491.007 422.677 539.987 442.806 558.524C461.78 576.207 483.615 579.02 484.016 579.071Z" fill="#3D53A3"/>
<path d="M290.211 333.566C290.211 362.502 313.953 354.615 313.351 367.928C312.347 391.438 327.105 389.027 327.105 389.027" stroke="#423F50" stroke-width="3" stroke-miterlimit="10"/>
<path d="M327.805 393.398L336.74 396.261L337.593 393.448L333.878 391.991L337.743 391.137L337.593 386.767L330.164 386.516L327.805 393.398Z" fill="#94AFC4"/>
<path d="M329.114 394.101C319.627 388.977 325.55 385.511 330.168 386.515L329.114 394.101Z" fill="#94AFC4"/>
<path d="M366.105 343.464L289.406 334.773L317.516 212.297L436.43 197.779L434.924 262.584L366.105 343.464Z" fill="#32313D"/>
<path d="M436.178 209.735C422.877 230.734 393.211 229.327 393.211 229.327L413.339 258.866L434.873 262.584L436.178 209.735Z" fill="#302E3D"/>
<path opacity="0.79" d="M396.624 307.595L366.105 343.463L289.406 334.722L303.863 271.726C301.855 303.325 314.906 324.575 324.995 309.956C335.084 295.337 311.944 262.583 379.658 231.839L396.424 297.497L396.624 307.595Z" fill="#23222D"/>
<path d="M457.966 300.663C470.966 293.027 461.63 267.004 449.432 254.094C436.181 240.078 410.079 237.516 420.52 250.025C420.52 250.025 387.491 244.649 367.814 264.342C348.087 284.085 334.283 315.432 380.464 368.933L457.966 300.663Z" fill="url(#paint7_linear_1960_1293)"/>
<path d="M351.906 288.958C353.312 284.638 355.269 280.669 357.578 277.002L351.906 288.958Z" fill="#ED4343"/>
<path d="M379.445 336.431L381.353 384.657C381.704 393.499 389.183 400.381 397.968 400.08C406.802 399.728 413.679 392.243 413.378 383.452L412.273 355.972L379.445 336.431Z" fill="#FBAC91"/>
<path d="M380.45 368.983C388.833 385.461 413.228 387.42 413.228 387.42L412.325 364.361L379.547 345.925L380.45 368.983Z" fill="#EE9375"/>
<path d="M461.166 318.948C465.132 370.29 443.497 385.16 415.84 382.346C391.394 379.885 378.193 347.483 379.548 324.977C380.903 302.471 403.09 290.816 414.786 292.675C426.481 294.534 449.32 292.826 455.394 297.347C461.468 301.868 461.166 318.948 461.166 318.948Z" fill="#FBAC91"/>
<path d="M436.868 318.697C439.027 315.984 444.348 315.733 445.552 317.893C446.757 320.003 444.799 319.551 442.741 319.199C438.826 318.546 438.324 320.505 437.17 320.154C436.718 320.003 436.266 319.45 436.868 318.697Z" fill="#232F36"/>
<path d="M416.289 320.204C413.779 317.843 408.459 318.345 407.555 320.656C406.652 322.967 408.509 322.163 410.517 321.51C414.281 320.305 415.084 322.113 416.139 321.661C416.691 321.46 416.992 320.857 416.289 320.204Z" fill="#232F36"/>
<path d="M380.504 331.357C379.199 320.355 369.512 318.295 365.446 322.415C361.38 326.534 362.835 343.212 369.261 350.145C375.686 357.077 382.562 352.707 383.265 349.14C383.868 345.473 380.504 331.357 380.504 331.357Z" fill="#FBAC91"/>
<path d="M379.647 334.472C378.392 329.448 372.218 328.795 371.214 331.257C369.457 335.326 371.766 345.021 379.346 343.816L379.647 334.472Z" fill="#EE9375"/>
<path d="M438.074 332.06C438.274 334.32 439.429 336.079 440.734 335.978C442.039 335.878 442.943 334.019 442.742 331.758C442.541 329.498 441.387 327.74 440.081 327.84C438.827 327.941 437.873 329.799 438.074 332.06Z" fill="#232F36"/>
<path d="M410.922 334.07C411.122 336.33 412.277 338.088 413.582 337.988C414.887 337.888 415.791 336.029 415.59 333.768C415.389 331.508 414.235 329.749 412.93 329.85C411.725 329.9 410.821 331.859 410.922 334.07Z" fill="#232F36"/>
<path d="M427.483 339.445C428.136 343.113 432.001 344.419 433.005 345.976C435.816 350.095 427.383 351.201 427.383 351.201" stroke="#EE9375" stroke-width="3" stroke-miterlimit="10" stroke-linecap="round"/>
<path d="M436.07 362.303C430.047 365.97 421.312 361.75 421.312 361.75C421.312 361.75 424.374 369.537 430.9 369.135C437.476 368.833 436.07 362.303 436.07 362.303Z" fill="white"/>
<path d="M377.247 305.284C379.857 332.11 424.782 316.939 416.701 307.092C416.701 307.092 445.965 318.094 456.305 305.485C466.645 292.926 450.784 267.155 422.975 272.53C395.167 277.855 375.892 291.268 377.247 305.284Z" fill="url(#paint8_linear_1960_1293)"/>
<path d="M322.334 431.025C334.732 404.501 375.842 415.854 389.194 456.897C402.546 497.94 421.269 550.637 427.092 578.267C432.915 605.947 390.299 641.615 367.962 612.177C345.524 582.738 308.982 459.56 322.334 431.025Z" fill="url(#paint9_linear_1960_1293)"/>
<path d="M504.042 589.57C519.101 584.747 529.642 586.506 537.874 596.553C546.157 606.6 540.986 607.956 540.986 607.956L499.977 614.839L504.042 589.57Z" fill="#EE9375"/>
<path d="M373.578 617.953C385.374 636.49 410.02 630.412 420.561 635.134C431.102 639.856 433.813 623.68 445.258 631.065C456.702 638.449 466.792 618.003 476.228 623.228C485.665 628.402 509.207 617.953 509.207 617.953L509.006 581.381L404.147 571.786L373.578 617.953Z" fill="url(#paint10_linear_1960_1293)"/>
<path d="M763.104 632.572C762.351 600.27 734.041 583.893 712.055 586.556C689.366 585.501 666.728 590.575 615.328 604.842L555.695 635.536C555.695 635.536 578.334 681.703 662.512 667.134C675.663 664.874 686.706 661.407 695.842 657.137C695.49 675.423 694.587 688.836 696.143 711.593C697.147 719.631 698.653 778.507 698.653 778.507L699.556 793.176L744.23 793.478C744.18 793.428 763.907 667.335 763.104 632.572Z" fill="url(#paint11_linear_1960_1293)"/>
<path opacity="0.25" d="M756.428 706.117C749.35 749.119 744.23 793.427 744.23 793.427L709.495 793.226C709.495 793.226 703.522 793.779 700.661 783.732C694.637 767.707 697.448 722.494 696.243 708.981C695.039 696.673 695.892 681.803 695.892 656.836C691.876 657.84 666.929 666.28 662.512 667.034C578.384 681.602 555.695 635.435 555.695 635.435L615.328 604.741C639.974 597.909 658.044 593.136 672.651 590.223L687.409 593.739C666.276 630.261 681.185 639.303 704.877 628.101C728.569 616.898 745.937 618.556 750.103 623.127C754.219 627.699 709.947 629.055 697.649 650.405C685.351 671.756 723.349 670.902 721.391 697.527C719.333 723.599 741.67 734.45 756.428 706.117Z" fill="black"/>
<path d="M390.2 225.811L420.619 250.075C381.617 272.43 350.194 318.697 350.194 318.697L335.337 289.158C335.236 289.158 347.835 247.312 390.2 225.811Z" fill="#32313D"/>
<path d="M358.625 275.445C358.274 275.947 357.922 276.5 357.57 277.052L358.475 275.143C358.475 275.093 358.525 275.194 358.625 275.445Z" fill="#423F50"/>
<path d="M537.922 498.994L527.18 612.779L686.25 584.797L704.471 493.016C706.328 483.773 698.949 475.283 689.563 475.735L555.339 482.467C546.254 482.919 538.875 489.952 537.922 498.994Z" fill="url(#paint12_linear_1960_1293)"/>
<path d="M545.039 499.748L533.945 609.866L693.417 585.551L711.638 493.77C713.495 484.527 706.117 476.037 696.73 476.489L562.507 483.221C553.371 483.673 545.942 490.706 545.039 499.748Z" fill="url(#paint13_linear_1960_1293)"/>
<path d="M636.191 541.194C634.776 549.781 628.623 556.374 622.469 555.984C616.244 555.593 612.425 548.35 613.769 539.806C615.113 531.219 621.337 524.626 627.491 525.016C633.716 525.363 637.606 532.65 636.191 541.194Z" fill="white"/>
<path d="M496.703 633.828L683.03 608.157L692.165 598.16L557.992 612.327L506.993 622.625L496.703 633.828Z" fill="url(#paint14_linear_1960_1293)"/>
<path d="M493.244 624.082L534.003 609.916L693.425 585.602L692.12 598.161L536.413 619.109L496.708 633.828C493.144 635.184 489.43 632.271 489.781 628.453C489.982 626.443 491.337 624.735 493.244 624.082Z" fill="url(#paint15_linear_1960_1293)"/>
<path d="M694.985 804.63C694.985 804.63 672.498 750.224 670.189 742.438C660.049 714.758 659.798 701.546 648.353 675.021C635.303 642.116 616.58 633.727 610.707 630.512C589.474 619.711 552.982 616.848 517.594 626.392C464.386 640.76 382.969 701.395 382.969 701.395C403.649 733.194 434.419 755.7 474.325 744.849C514.231 733.998 537.572 720.937 564.978 704.158C567.338 702.701 569.797 701.345 572.307 699.988C572.608 700.742 572.909 701.546 573.211 702.299C586.563 734.45 659.397 836.781 659.397 836.781L701.712 817.842L694.985 804.63Z" fill="url(#paint16_linear_1960_1293)"/>
<path opacity="0.25" d="M659.393 836.781C659.393 836.781 589.27 738.821 572.103 699.738C549.465 713.05 508.304 735.656 474.372 744.85C434.466 755.701 403.646 733.195 383.016 701.395C383.016 701.395 421.114 673.012 462.275 650.456C443.351 713 518.946 706.017 548.26 698.632C577.574 691.248 557.446 662.412 570.798 652.516C584.15 642.619 613.314 683.461 591.629 697.527C569.894 711.593 596.197 739.725 616.074 733.396C635.902 727.066 625.411 738.319 632.438 753.088C639.466 767.858 666.17 791.77 669.683 753.088C669.934 750.124 670.336 747.864 670.838 746.105C680.074 780.668 687.402 809.805 687.402 809.805C687.402 809.805 672.695 833.466 659.393 836.781Z" fill="black"/>
<path d="M749.939 228C731.971 228 717.43 213.431 717.43 195.5C717.43 177.569 731.971 163 749.869 163H749.939C767.836 163 782.378 177.569 782.378 195.5C782.308 213.501 767.836 228 749.939 228Z" fill="url(#paint17_linear_1960_1293)"/>
<path d="M766.361 188.426L758.95 191.788V187.375C758.95 186.535 758.321 185.904 757.482 185.904H733.992C733.153 185.904 732.523 186.535 732.523 187.375V203.695C732.523 204.466 733.153 205.166 733.992 205.166H757.482C758.321 205.166 758.95 204.536 758.95 203.695V199.283L766.361 202.645C766.78 202.785 767.13 202.505 767.13 202.084V188.986C767.2 188.566 766.78 188.286 766.361 188.426Z" fill="white"/>
<path d="M32.5089 462C14.5416 462 0 447.431 0 429.5C0 411.569 14.5416 397 32.439 397H32.5089C50.4062 397 64.9479 411.569 64.9479 429.5C64.878 447.501 50.4062 462 32.5089 462Z" fill="url(#paint18_linear_1960_1293)"/>
<path d="M601.048 118C583.081 118 568.539 103.431 568.539 85.5C568.539 67.569 583.081 53 600.978 53H601.048C618.945 53 633.487 67.569 633.487 85.5C633.417 103.501 618.945 118 601.048 118Z" fill="url(#paint19_linear_1960_1293)"/>
<path d="M690.526 352.728C699.262 337.015 719.053 331.382 734.709 340.101C750.365 348.819 756.015 368.62 747.313 384.272L747.279 384.333C738.577 399.985 718.786 405.618 703.13 396.9C687.446 388.086 681.823 368.38 690.526 352.728Z" fill="url(#paint20_linear_1960_1293)"/>
<path d="M596.516 72V98.4063L615.042 85.2382L596.516 72Z" fill="white"/>
<path d="M86.4698 699C68.5025 699 53.9609 684.431 53.9609 666.5C53.9609 648.569 68.5026 634 86.3999 634H86.4698C104.367 634 118.909 648.569 118.909 666.5C118.839 684.501 104.367 699 86.4698 699Z" fill="url(#paint21_linear_1960_1293)"/>
<path d="M714.198 370.964C714.198 373.188 712.403 374.984 710.181 374.984C707.959 374.984 706.164 373.188 706.164 370.964C706.164 368.74 707.959 366.943 710.181 366.943C712.403 366.943 714.198 368.74 714.198 370.964Z" fill="black"/>
<path d="M726.33 362.068C728.548 362.068 730.347 360.268 730.347 358.048C730.347 355.827 728.548 354.027 726.33 354.027C724.111 354.027 722.312 355.827 722.312 358.048C722.312 360.268 724.111 362.068 726.33 362.068Z" fill="black"/>
<path d="M726.33 384.65C728.548 384.65 730.347 382.85 730.347 380.63C730.347 378.409 728.548 376.609 726.33 376.609C724.111 376.609 722.312 378.409 722.312 380.63C722.312 382.85 724.111 384.65 726.33 384.65Z" fill="black"/>
<path d="M726.335 381.143L709.156 371.221L726.164 357.535L726.934 358.476L711.293 371.05L726.934 380.117L726.335 381.143Z" fill="black"/>
<path d="M526.589 233.77C505.138 233.77 487.766 216.384 487.766 194.915C487.766 173.446 505.138 156.061 526.589 156.061H526.721C548.173 156.061 565.545 173.446 565.545 194.915C565.413 216.384 548.041 233.77 526.589 233.77Z" fill="url(#paint22_linear_1960_1293)"/>
<path d="M541.065 178.32H512.112C510.401 178.32 508.953 179.769 508.953 181.481V197.55C508.953 199.394 510.401 200.711 512.112 200.711H513.033V211.38L523.693 200.711H541.197C542.907 200.711 544.355 199.262 544.355 197.55V181.481C544.355 179.769 542.907 178.32 541.065 178.32Z" fill="white"/>
<path d="M946.062 267.406H748.742V269.968H946.062V267.406Z" fill="url(#paint23_linear_1960_1293)"/>
<path d="M748.743 273.686C751.487 273.686 753.712 271.459 753.712 268.713C753.712 265.966 751.487 263.739 748.743 263.739C745.998 263.739 743.773 265.966 743.773 268.713C743.773 271.459 745.998 273.686 748.743 273.686Z" fill="url(#paint24_linear_1960_1293)"/>
<path d="M868.888 412.667H745.758V415.229H868.888V412.667Z" fill="url(#paint25_linear_1960_1293)"/>
<path d="M748.368 418.947C751.112 418.947 753.337 416.72 753.337 413.973C753.337 411.227 751.112 409 748.368 409C745.623 409 743.398 411.227 743.398 413.973C743.398 416.72 745.623 418.947 748.368 418.947Z" fill="url(#paint26_linear_1960_1293)"/>
<path d="M868.865 414H866.305V493.875H868.865V414Z" fill="url(#paint27_linear_1960_1293)"/>
<path d="M912.786 562.817H830.163C828.457 562.817 827.102 561.461 827.102 559.753V477.064C827.102 475.356 828.457 474 830.163 474H912.786C914.492 474 915.848 475.356 915.848 477.064V559.753C915.848 561.461 914.442 562.817 912.786 562.817Z" fill="url(#paint28_linear_1960_1293)"/>
<path d="M872.072 528.003L870.466 527.149L853.5 518.207V532.223C853.5 534.735 855.207 536.945 857.616 537.598L868.76 540.663C870.918 541.265 873.227 541.265 875.385 540.663L886.529 537.598C888.938 536.945 890.645 534.735 890.645 532.223V518.207L873.679 527.149L872.072 528.003Z" fill="black"/>
<path d="M845.666 523.983C845.666 525.038 844.813 525.892 843.759 525.892C842.705 525.892 841.852 525.038 841.852 523.983C841.852 522.928 842.705 522.074 843.759 522.074C844.813 522.074 845.666 522.928 845.666 523.983Z" fill="black"/>
<path d="M845.668 532.574C845.116 533.126 842.155 533.177 841.653 532.574C840.348 530.866 842.456 523.983 842.456 523.983H844.765C844.765 523.983 847.124 531.016 845.668 532.574Z" fill="black"/>
<path d="M844.269 523.33H843.164V527.6H844.269V523.33Z" fill="black"/>
<path d="M843.164 510.068V523.331H844.269V510.621L843.164 510.068Z" fill="black"/>
<path d="M901.694 508.461L872.128 495.751L843.617 508.009H869.719C870.07 507.004 871.024 506.301 872.128 506.301C873.534 506.301 874.688 507.456 874.688 508.863C874.688 510.269 873.534 511.425 872.128 511.425C870.924 511.425 870.02 510.621 869.719 509.516H844.621L872.179 524.034L901.694 508.461Z" fill="black"/>
<path d="M1014.93 313.817H932.312C930.605 313.817 929.25 312.461 929.25 310.753V228.064C929.25 226.356 930.605 225 932.312 225H1014.93C1016.64 225 1018 226.356 1018 228.064V310.753C1018 312.461 1016.59 313.817 1014.93 313.817Z" fill="url(#paint29_linear_1960_1293)"/>
<path d="M1004.99 275.525C1004.99 268.542 1000.22 262.765 993.797 261.057C990.484 253.923 983.306 249 974.974 249C964.985 249 956.702 256.033 954.695 265.427C954.393 265.427 954.143 265.327 953.841 265.327C946.864 265.327 941.242 270.953 941.242 277.936C941.242 284.316 945.961 289.54 952.085 290.394C952.586 290.495 953.088 290.545 953.641 290.545H990.484C990.936 290.545 991.338 290.495 991.739 290.394C999.168 289.49 1004.99 283.211 1004.99 275.525Z" fill="#DAEDFF"/>
<path d="M417.856 88.8173H335.234C333.527 88.8173 332.172 87.4609 332.172 85.7529V3.0644C332.172 1.35637 333.527 0 335.234 0H417.856C419.563 0 420.918 1.35637 420.918 3.0644V85.7529C420.918 87.4609 419.512 88.8173 417.856 88.8173Z" fill="url(#paint30_linear_1960_1293)"/>
<g opacity="0.4">
<path opacity="0.3" d="M271.227 891.991C213.552 891.891 107.288 894.302 120.389 881.994C133.49 869.687 202.71 881.743 259.482 877.624C316.203 873.505 367.603 868.782 425.629 874.861C483.656 880.939 467.894 887.922 442.395 889.932C395.612 893.549 387.28 895.106 360.174 893.147C280.714 887.269 293.665 892.042 271.227 891.991Z" fill="#005D92"/>
</g>
<path d="M364.614 830.9H180.045C179.944 830.9 179.844 830.799 179.844 830.699V799.201C179.844 799.1 179.944 799 180.045 799H364.564C364.664 799 364.765 799.1 364.765 799.201V830.699C364.765 830.799 364.664 830.9 364.614 830.9Z" fill="url(#paint31_linear_1960_1293)"/>
<path d="M343.783 799.051H338.211V830.9H343.783V799.051Z" fill="#EDF6F8"/>
<path d="M335.658 799.051H330.086V830.9H335.658V799.051Z" fill="#EDF6F8"/>
<path d="M217.236 827.484H186.165C185.813 827.484 185.562 827.182 185.562 826.881V803.119C185.562 802.768 185.813 802.517 186.165 802.517H217.236C217.587 802.517 217.838 802.818 217.838 803.119V826.881C217.838 827.182 217.587 827.484 217.236 827.484Z" fill="#EDF6F8"/>
<path d="M419.611 831.406H204.522C203.117 831.406 201.862 831.959 200.758 832.763H423.376C422.322 831.959 421.067 831.406 419.611 831.406Z" fill="#96D1E3"/>
<path d="M419.607 831.406H204.519C202.762 831.406 201.256 832.11 200.102 833.215H424.125C422.92 832.11 421.364 831.406 419.607 831.406Z" fill="#96D1E3"/>
<path d="M450.735 856.926H224.754C224.202 856.926 223.75 856.474 223.75 855.921V832.411C223.75 831.858 224.202 831.406 224.754 831.406H450.735C451.287 831.406 451.739 831.858 451.739 832.411V855.921C451.739 856.474 451.287 856.926 450.735 856.926Z" fill="url(#paint32_linear_1960_1293)"/>
<path d="M449.734 833.215H225.71C225.108 833.767 224.656 834.471 224.305 835.224H451.139C450.788 834.471 450.336 833.818 449.734 833.215Z" fill="#EDF6F8"/>
<path d="M225.408 854.715H450.084C450.586 854.113 450.987 853.46 451.289 852.706H224.203C224.454 853.46 224.856 854.113 225.408 854.715Z" fill="#EDF6F8"/>
<path d="M247.34 850.094H232.884C232.733 850.094 232.633 849.994 232.633 849.843V838.44C232.633 838.289 232.733 838.188 232.884 838.188H247.34C247.491 838.188 247.591 838.289 247.591 838.44V849.843C247.591 849.994 247.441 850.094 247.34 850.094Z" fill="#EDF6F8"/>
<path d="M321.381 840.75H252.914V842.358H321.381V840.75Z" fill="#EDF6F8"/>
<path d="M330.266 843.362H252.914V844.97H330.266V843.362Z" fill="#EDF6F8"/>
<path d="M310.539 846.025H252.914V847.633H310.539V846.025Z" fill="#EDF6F8"/>
<path d="M440.692 840.75H427.391V842.358H440.692V840.75Z" fill="#EDF6F8"/>
<path d="M442.449 843.362H427.391V844.97H442.449V843.362Z" fill="#EDF6F8"/>
<path d="M438.584 846.025H427.391V847.633H438.584V846.025Z" fill="#EDF6F8"/>
<path d="M301.051 880.638H294.023V884.506H301.051V880.638Z" fill="#FAAD17"/>
<path d="M301.051 856.926H294.023V860.794H301.051V856.926Z" fill="#FAAD17"/>
<path d="M187.152 856.926H316.155V860.794V880.637V884.505H187.152C179.573 884.505 173.398 878.326 173.398 870.741C173.398 863.105 179.573 856.926 187.152 856.926Z" fill="url(#paint33_linear_1960_1293)"/>
<path d="M400.228 858.835H305.409C298.883 858.835 293.562 864.16 293.562 870.691C293.562 877.221 298.883 882.546 305.409 882.546H400.279C398.873 879.482 398.02 875.312 398.02 870.691C398.02 866.069 398.873 861.899 400.228 858.835Z" fill="#EDF6F8"/>
<path d="M305.418 880.638C299.946 880.638 295.479 876.167 295.479 870.691C295.479 865.215 299.946 860.744 305.418 860.744H400.94V856.876H305.418C297.838 856.876 291.664 863.055 291.664 870.641C291.664 878.226 297.838 884.405 305.418 884.405H400.94V880.537L305.418 880.638Z" fill="url(#paint34_linear_1960_1293)"/>
<path d="M351.688 869.586H365.04V888.625L358.113 882.698L351.688 888.625V869.586Z" fill="#343A5D"/>
<path d="M79.6667 662.333L76 666L79.6667 669.666M94.3333 662.333L98 666L94.3333 669.666" stroke="white" stroke-width="1.5" stroke-miterlimit="10" stroke-linecap="round" stroke-linejoin="round"/>
<path d="M88.8307 661.729L85.1641 670.272M86.9974 684.334C97.1229 684.334 105.331 676.126 105.331 666C105.331 655.875 97.1229 647.667 86.9974 647.667C76.8719 647.667 68.6641 655.875 68.6641 666C68.6641 676.126 76.8719 684.334 86.9974 684.334Z" stroke="white" stroke-width="1.5" stroke-miterlimit="10" stroke-linecap="round" stroke-linejoin="round"/>
<path d="M27.4557 440.036H26.6641C20.3307 440.036 17.1641 438.452 17.1641 430.536V422.619C17.1641 416.286 20.3307 413.119 26.6641 413.119H39.3307C45.6641 413.119 48.8307 416.286 48.8307 422.619V430.536C48.8307 436.869 45.6641 440.036 39.3307 440.036H38.5391C38.0482 440.036 37.5732 440.273 37.2724 440.669L34.8974 443.836C33.8524 445.229 32.1424 445.229 31.0974 443.836L28.7224 440.669C28.4691 440.321 27.8991 440.036 27.4557 440.036Z" stroke="black" stroke-width="1.5" stroke-miterlimit="10" stroke-linecap="round" stroke-linejoin="round"/>
<path d="M26.6667 423.775L23.5 426.942L26.6667 430.109M39.3333 423.775L42.5 426.942L39.3333 430.109M34.5833 423.253L31.4167 430.631" stroke="black" stroke-width="1.5" stroke-miterlimit="10" stroke-linecap="round" stroke-linejoin="round"/>
<rect x="356.016" y="31.917" width="18.012" height="20.5012" transform="rotate(3.62026 356.016 31.917)" fill="#0087FF"/>
<rect x="378.836" y="33.3047" width="18.012" height="20.5012" transform="rotate(-4.60608 378.836 33.3047)" fill="#0087FF"/>
<path d="M354.141 59.4299L354.041 59.3796L353.94 59.3294C352.282 58.7266 351.177 57.2195 351.177 55.4612V24.6163L349.821 24.4656C348.866 24.3651 348.062 25.0684 348.062 26.0229V60.1834C348.062 60.9872 348.665 61.6403 349.419 61.7407L368.91 64.2525C367.202 63.499 365.595 62.7957 364.64 62.444C362.279 61.5398 354.995 59.6308 354.141 59.4299Z" fill="white"/>
<path d="M399.504 59.4299L399.604 59.3796L399.705 59.3294C401.362 58.7266 402.468 57.2195 402.468 55.4612V24.6163L403.824 24.4656C404.779 24.3651 405.582 25.0684 405.582 26.0229V60.1834C405.582 60.9872 404.979 61.6403 404.226 61.7407L384.734 64.2525C386.442 63.499 388.05 62.7957 389.004 62.444C391.366 61.5398 398.65 59.6308 399.504 59.4299Z" fill="white"/>
<path d="M381.317 64.5547C381.317 65.7604 380.363 66.7651 379.107 66.7651H375.138C373.933 66.7651 372.928 65.8106 372.928 64.5547H371.32C371.32 66.6144 373.028 68.3224 375.088 68.3224H379.057C381.167 68.3224 382.824 66.6144 382.824 64.5547H381.317Z" fill="white"/>
<path d="M367.003 23.8633C364.24 22.8084 355.801 20.598 355.75 20.5477C355.6 20.4975 355.449 20.4473 355.348 20.4473C355.148 20.4473 354.947 20.4975 354.796 20.6482C354.494 20.8492 354.344 21.1506 354.344 21.5022V55.512C354.344 55.9139 354.595 56.3158 354.997 56.4665C355.298 56.5167 363.085 58.5764 365.798 59.5811C367.857 60.3347 372.579 62.4948 375.443 63.8009V27.6813C372.981 26.5258 368.761 24.5164 367.003 23.8633ZM371.876 53.0504C369.214 51.8448 366.199 50.4884 364.692 49.9358C363.286 49.4334 360.322 48.5794 357.81 47.8761V46.7207C360.422 47.424 363.537 48.3283 365.044 48.8808C366.451 49.4334 369.264 50.6391 371.826 51.8448L371.876 53.0504ZM371.876 49.4334C369.214 48.2278 366.199 46.8714 364.692 46.3188C363.286 45.8164 360.322 44.9624 357.81 44.2591V43.1037C360.422 43.807 363.537 44.7113 365.044 45.2638C366.451 45.8164 369.264 47.0221 371.826 48.2278L371.876 49.4334ZM371.876 45.7662C369.214 44.5605 366.199 43.2042 364.692 42.6516C363.286 42.1492 360.322 41.2952 357.81 40.5919V39.4365C360.422 40.1398 363.537 41.044 365.044 41.5966C366.451 42.1492 369.264 43.3549 371.826 44.5605L371.876 45.7662ZM371.876 42.1492C369.214 40.9436 366.199 39.5872 364.692 39.0346C363.286 38.5322 360.322 37.6782 357.81 36.9749V35.8195C360.422 36.5228 363.537 37.427 365.044 37.9796C366.451 38.5322 369.264 39.7379 371.826 40.9436L371.876 42.1492ZM371.876 38.5322C369.214 37.3266 366.199 35.9702 364.692 35.4176C363.286 34.865 360.322 34.0612 357.81 33.3579V32.2025C360.372 32.9058 363.537 33.81 365.044 34.3626C366.451 34.9152 369.264 36.1209 371.826 37.3266L371.876 38.5322Z" fill="white"/>
<path d="M398.901 20.6482C398.751 20.5477 398.55 20.4473 398.349 20.4473C398.198 20.4473 398.098 20.4975 397.947 20.5477C397.846 20.5477 389.457 22.8084 386.694 23.8633C384.936 24.5164 380.716 26.5258 378.305 27.6813V63.8009C381.118 62.4948 385.89 60.3347 387.95 59.5811C390.663 58.5764 398.449 56.5167 398.751 56.4665C399.153 56.3158 399.404 55.9139 399.404 55.512V21.5022C399.354 21.1506 399.153 20.8492 398.901 20.6482ZM396.289 47.8761C393.777 48.5794 390.864 49.4334 389.407 49.9358C387.9 50.4884 384.936 51.8448 382.223 53.0504V51.8448C384.785 50.6391 387.598 49.4334 389.005 48.8808C390.512 48.3283 393.677 47.424 396.239 46.7207L396.289 47.8761ZM396.289 44.2591C393.777 44.9624 390.864 45.8164 389.407 46.3188C387.9 46.8714 384.936 48.2278 382.223 49.4334V48.2278C384.785 47.0221 387.598 45.8164 389.005 45.2638C390.512 44.7113 393.677 43.807 396.239 43.1037L396.289 44.2591ZM396.289 40.5919C393.777 41.2952 390.864 42.1492 389.407 42.6516C387.9 43.2042 384.936 44.5605 382.223 45.7662V44.5605C384.785 43.3549 387.598 42.1492 389.005 41.5966C390.512 41.044 393.677 40.1398 396.239 39.4365L396.289 40.5919ZM396.289 36.9749C393.777 37.6782 390.864 38.5322 389.407 39.0346C387.9 39.5872 384.936 40.9436 382.223 42.1492V40.9436C384.785 39.7379 387.598 38.5322 389.005 37.9796C390.512 37.427 393.677 36.5228 396.239 35.8195L396.289 36.9749ZM396.289 33.3579C393.777 34.0612 390.864 34.865 389.407 35.4176C387.9 35.9702 384.936 37.3266 382.223 38.5322V37.3266C384.785 36.1711 387.598 34.9152 389.005 34.3626C390.512 33.81 393.677 32.9058 396.239 32.2025L396.289 33.3579Z" fill="white"/>
<path d="M219.44 821V820.8L219.84 820.66C220.107 820.58 220.28 820.46 220.36 820.3C220.453 820.14 220.5 819.927 220.5 819.66V809.18C220.5 808.913 220.453 808.7 220.36 808.54C220.267 808.38 220.087 808.253 219.82 808.16L219.44 808V807.8H224.3C226.287 807.8 227.72 808.167 228.6 808.9C229.493 809.62 229.94 810.573 229.94 811.76C229.94 812.52 229.753 813.22 229.38 813.86C229.02 814.487 228.42 814.987 227.58 815.36C226.74 815.733 225.607 815.92 224.18 815.92H223.5V819.6C223.5 820.12 223.76 820.46 224.28 820.62L224.88 820.8V821H219.44ZM223.5 815.52H224.26C224.913 815.52 225.447 815.413 225.86 815.2C226.273 814.987 226.58 814.613 226.78 814.08C226.98 813.547 227.08 812.807 227.08 811.86C227.08 810.9 226.967 810.153 226.74 809.62C226.527 809.087 226.207 808.72 225.78 808.52C225.353 808.307 224.82 808.2 224.18 808.2H223.5V815.52ZM233.414 821.3C232.64 821.3 231.987 821.08 231.454 820.64C230.934 820.2 230.674 819.567 230.674 818.74C230.674 818.113 230.994 817.54 231.634 817.02C232.274 816.487 233.28 816.087 234.654 815.82C234.867 815.78 235.107 815.74 235.374 815.7C235.64 815.647 235.92 815.593 236.214 815.54V813.96C236.214 813.053 236.1 812.42 235.874 812.06C235.66 811.687 235.32 811.5 234.854 811.5C234.534 811.5 234.28 811.607 234.094 811.82C233.907 812.02 233.787 812.373 233.734 812.88L233.694 813.1C233.667 813.673 233.527 814.093 233.274 814.36C233.02 814.627 232.707 814.76 232.334 814.76C231.987 814.76 231.7 814.653 231.474 814.44C231.247 814.227 231.134 813.94 231.134 813.58C231.134 813.033 231.32 812.573 231.694 812.2C232.08 811.827 232.587 811.547 233.214 811.36C233.84 811.173 234.52 811.08 235.254 811.08C236.44 811.08 237.354 811.373 237.994 811.96C238.647 812.533 238.974 813.473 238.974 814.78V819.2C238.974 819.8 239.254 820.1 239.814 820.1H240.254L240.434 820.26C240.18 820.58 239.9 820.827 239.594 821C239.3 821.173 238.88 821.26 238.334 821.26C237.747 821.26 237.28 821.127 236.934 820.86C236.6 820.58 236.38 820.213 236.274 819.76C235.874 820.187 235.46 820.553 235.034 820.86C234.62 821.153 234.08 821.3 233.414 821.3ZM234.634 820.08C234.9 820.08 235.147 820.02 235.374 819.9C235.614 819.767 235.894 819.567 236.214 819.3V815.94C236.08 815.967 235.947 815.993 235.814 816.02C235.68 816.047 235.527 816.073 235.354 816.1C234.74 816.26 234.247 816.533 233.874 816.92C233.514 817.293 233.334 817.8 233.334 818.44C233.334 818.987 233.46 819.4 233.714 819.68C233.967 819.947 234.274 820.08 234.634 820.08ZM240.806 821V820.8L241.086 820.72C241.553 820.587 241.786 820.26 241.786 819.74V813.48C241.786 813.187 241.74 812.973 241.646 812.84C241.553 812.693 241.373 812.593 241.106 812.54L240.806 812.46V812.26L244.226 811.1L244.426 811.3L244.586 812.5C245.053 812.087 245.58 811.747 246.166 811.48C246.753 811.213 247.333 811.08 247.906 811.08C248.786 811.08 249.46 811.32 249.926 811.8C250.406 812.28 250.646 813.013 250.646 814V819.76C250.646 820.28 250.9 820.607 251.406 820.74L251.586 820.8V821H246.866V820.8L247.126 820.72C247.593 820.573 247.826 820.247 247.826 819.74V813.36C247.826 812.507 247.4 812.08 246.546 812.08C245.96 812.08 245.32 812.373 244.626 812.96V819.76C244.626 820.28 244.86 820.607 245.326 820.74L245.506 820.8V821H240.806ZM256.071 821.3C255.218 821.3 254.551 821.087 254.071 820.66C253.604 820.233 253.371 819.553 253.371 818.62V811.78H251.991V811.58L252.471 811.5C252.884 811.407 253.238 811.273 253.531 811.1C253.838 810.927 254.138 810.693 254.431 810.4L256.071 808.58H256.271L256.211 811.38H258.451V811.78H256.191V818.98C256.191 819.447 256.291 819.8 256.491 820.04C256.704 820.28 256.971 820.4 257.291 820.4C257.571 820.4 257.818 820.333 258.031 820.2C258.244 820.053 258.458 819.86 258.671 819.62L258.871 819.82C258.604 820.273 258.238 820.633 257.771 820.9C257.304 821.167 256.738 821.3 256.071 821.3ZM264.499 821.3C263.486 821.3 262.606 821.093 261.859 820.68C261.112 820.253 260.532 819.653 260.119 818.88C259.719 818.107 259.519 817.2 259.519 816.16C259.519 815.12 259.732 814.22 260.159 813.46C260.599 812.7 261.192 812.113 261.939 811.7C262.699 811.287 263.552 811.08 264.499 811.08C265.446 811.08 266.292 811.287 267.039 811.7C267.786 812.1 268.372 812.68 268.799 813.44C269.239 814.2 269.459 815.107 269.459 816.16C269.459 817.213 269.252 818.127 268.839 818.9C268.439 819.66 267.866 820.253 267.119 820.68C266.386 821.093 265.512 821.3 264.499 821.3ZM264.499 820.9C264.966 820.9 265.339 820.767 265.619 820.5C265.899 820.233 266.099 819.76 266.219 819.08C266.352 818.4 266.419 817.44 266.419 816.2C266.419 814.947 266.352 813.98 266.219 813.3C266.099 812.62 265.899 812.147 265.619 811.88C265.339 811.613 264.966 811.48 264.499 811.48C264.032 811.48 263.652 811.613 263.359 811.88C263.079 812.147 262.872 812.62 262.739 813.3C262.619 813.98 262.559 814.947 262.559 816.2C262.559 817.44 262.619 818.4 262.739 819.08C262.872 819.76 263.079 820.233 263.359 820.5C263.652 820.767 264.032 820.9 264.499 820.9ZM270.338 821V820.8L270.618 820.72C271.084 820.587 271.318 820.26 271.318 819.74V813.48C271.318 813.187 271.271 812.973 271.178 812.84C271.084 812.693 270.904 812.593 270.638 812.54L270.338 812.46V812.26L273.758 811.1L273.958 811.3L274.118 812.5C274.584 812.087 275.111 811.747 275.698 811.48C276.284 811.213 276.864 811.08 277.438 811.08C278.318 811.08 278.991 811.32 279.458 811.8C279.938 812.28 280.178 813.013 280.178 814V819.76C280.178 820.28 280.431 820.607 280.938 820.74L281.118 820.8V821H276.398V820.8L276.658 820.72C277.124 820.573 277.358 820.247 277.358 819.74V813.36C277.358 812.507 276.931 812.08 276.078 812.08C275.491 812.08 274.851 812.373 274.158 812.96V819.76C274.158 820.28 274.391 820.607 274.858 820.74L275.038 820.8V821H270.338ZM286.92 811.08C287.787 811.08 288.527 811.26 289.14 811.62C289.753 811.967 290.22 812.447 290.54 813.06C290.873 813.66 291.04 814.347 291.04 815.12C291.04 815.267 291.033 815.42 291.02 815.58C291.007 815.727 290.98 815.86 290.94 815.98H284.98C284.993 817.42 285.247 818.46 285.74 819.1C286.247 819.727 286.993 820.04 287.98 820.04C288.647 820.04 289.187 819.933 289.6 819.72C290.013 819.507 290.4 819.193 290.76 818.78L290.96 818.96C290.547 819.693 289.993 820.267 289.3 820.68C288.62 821.093 287.8 821.3 286.84 821.3C285.893 821.3 285.053 821.1 284.32 820.7C283.587 820.287 283.013 819.7 282.6 818.94C282.187 818.18 281.98 817.273 281.98 816.22C281.98 815.127 282.22 814.2 282.7 813.44C283.18 812.667 283.793 812.08 284.54 811.68C285.3 811.28 286.093 811.08 286.92 811.08ZM286.86 811.48C286.473 811.48 286.14 811.6 285.86 811.84C285.593 812.067 285.38 812.48 285.22 813.08C285.073 813.667 284.993 814.5 284.98 815.58H288.4C288.533 814.127 288.48 813.08 288.24 812.44C288 811.8 287.54 811.48 286.86 811.48Z" fill="white"/>
<path d="M401.49 849.27C400.52 849.27 399.64 849.075 398.85 848.685C398.07 848.285 397.45 847.695 396.99 846.915C396.53 846.135 396.3 845.18 396.3 844.05C396.3 843.19 396.44 842.435 396.72 841.785C397 841.135 397.38 840.59 397.86 840.15C398.35 839.71 398.91 839.38 399.54 839.16C400.18 838.94 400.855 838.83 401.565 838.83C402.135 838.83 402.66 838.895 403.14 839.025C403.62 839.155 404.07 839.335 404.49 839.565L404.55 841.41H404.4L403.65 840.21C403.55 840.02 403.44 839.85 403.32 839.7C403.2 839.54 403.05 839.42 402.87 839.34C402.72 839.27 402.57 839.22 402.42 839.19C402.28 839.15 402.1 839.13 401.88 839.13C401.3 839.13 400.77 839.285 400.29 839.595C399.82 839.905 399.44 840.42 399.15 841.14C398.87 841.85 398.73 842.825 398.73 844.065C398.73 845.295 398.865 846.27 399.135 846.99C399.405 847.7 399.77 848.21 400.23 848.52C400.7 848.82 401.225 848.97 401.805 848.97C402.125 848.97 402.38 848.95 402.57 848.91C402.76 848.86 402.95 848.79 403.14 848.7C403.33 848.62 403.475 848.505 403.575 848.355C403.675 848.195 403.765 848.025 403.845 847.845L404.505 846.375H404.655L404.61 848.52C404.19 848.74 403.72 848.92 403.2 849.06C402.68 849.2 402.11 849.27 401.49 849.27ZM405.338 849V848.85L405.638 848.745C405.978 848.635 406.148 848.35 406.148 847.89V840.21C406.148 840.01 406.123 839.85 406.073 839.73C406.033 839.61 405.918 839.51 405.728 839.43L405.338 839.25V839.1H408.233L411.008 846.36L413.618 839.1H416.573V839.25L416.333 839.34C416.143 839.41 416.013 839.51 415.943 839.64C415.873 839.76 415.838 839.92 415.838 840.12V847.965C415.838 848.165 415.863 848.32 415.913 848.43C415.963 848.54 416.083 848.635 416.273 848.715L416.573 848.85V849H412.838V848.85L413.153 848.715C413.343 848.635 413.463 848.54 413.513 848.43C413.563 848.32 413.588 848.165 413.588 847.965V844.59L413.618 840.3L410.483 849H409.733L406.463 840.405L406.508 844.14V847.92C406.508 848.14 406.538 848.32 406.598 848.46C406.668 848.59 406.798 848.685 406.988 848.745L407.318 848.85V849H405.338ZM420.458 849.27C419.908 849.27 419.348 849.2 418.778 849.06C418.208 848.93 417.733 848.755 417.353 848.535L417.428 846.495H417.578L418.043 847.47C418.183 847.75 418.333 848 418.493 848.22C418.653 848.43 418.873 848.595 419.153 848.715C419.353 848.815 419.543 848.885 419.723 848.925C419.913 848.955 420.123 848.97 420.353 848.97C420.963 848.97 421.443 848.805 421.793 848.475C422.153 848.145 422.333 847.72 422.333 847.2C422.333 846.71 422.213 846.33 421.973 846.06C421.733 845.78 421.348 845.51 420.818 845.25L420.203 844.98C419.343 844.6 418.668 844.165 418.178 843.675C417.698 843.175 417.458 842.515 417.458 841.695C417.458 841.105 417.608 840.595 417.908 840.165C418.218 839.735 418.643 839.405 419.183 839.175C419.733 838.945 420.373 838.83 421.103 838.83C421.633 838.83 422.133 838.9 422.603 839.04C423.083 839.18 423.498 839.37 423.848 839.61L423.758 841.41H423.608L422.993 840.285C422.823 839.935 422.653 839.69 422.483 839.55C422.313 839.4 422.118 839.295 421.898 839.235C421.768 839.195 421.648 839.17 421.538 839.16C421.428 839.14 421.288 839.13 421.118 839.13C420.608 839.13 420.178 839.28 419.828 839.58C419.478 839.87 419.303 840.265 419.303 840.765C419.303 841.275 419.438 841.685 419.708 841.995C419.978 842.295 420.373 842.565 420.893 842.805L421.583 843.105C422.543 843.525 423.233 843.975 423.653 844.455C424.073 844.925 424.283 845.535 424.283 846.285C424.283 847.165 423.948 847.885 423.278 848.445C422.618 848.995 421.678 849.27 420.458 849.27Z" fill="white"/>
<g filter="url(#filter0_d_1960_1293)">
<path d="M184.33 875V874.85L184.645 874.73C184.965 874.6 185.125 874.345 185.125 873.965V866.135C185.125 865.735 184.965 865.48 184.645 865.37L184.33 865.25V865.1H188.29C189.35 865.1 190.26 865.3 191.02 865.7C191.79 866.09 192.38 866.655 192.79 867.395C193.21 868.125 193.42 869.005 193.42 870.035C193.42 871.085 193.195 871.98 192.745 872.72C192.295 873.46 191.665 874.025 190.855 874.415C190.055 874.805 189.11 875 188.02 875H184.33ZM187.375 874.7H188.02C188.74 874.7 189.32 874.56 189.76 874.28C190.2 873.99 190.52 873.51 190.72 872.84C190.93 872.16 191.035 871.23 191.035 870.05C191.035 868.87 190.93 867.945 190.72 867.275C190.52 866.595 190.205 866.115 189.775 865.835C189.345 865.545 188.78 865.4 188.08 865.4H187.375V874.7ZM195.827 866.78C195.487 866.78 195.197 866.675 194.957 866.465C194.727 866.245 194.612 865.97 194.612 865.64C194.612 865.3 194.727 865.025 194.957 864.815C195.197 864.605 195.487 864.5 195.827 864.5C196.167 864.5 196.452 864.605 196.682 864.815C196.912 865.025 197.027 865.3 197.027 865.64C197.027 865.97 196.912 866.245 196.682 866.465C196.452 866.675 196.167 866.78 195.827 866.78ZM194.057 875V874.85L194.267 874.79C194.467 874.73 194.602 874.64 194.672 874.52C194.752 874.4 194.792 874.24 194.792 874.04V869.345C194.792 869.135 194.752 868.98 194.672 868.88C194.602 868.77 194.467 868.695 194.267 868.655L194.057 868.61V868.46L196.802 867.575L196.952 867.725L196.907 869.855V874.055C196.907 874.255 196.942 874.415 197.012 874.535C197.092 874.655 197.227 874.745 197.417 874.805L197.567 874.85V875H194.057ZM201.501 872.405C200.811 872.405 200.226 872.29 199.746 872.06V872.57C199.746 872.88 199.901 873.065 200.211 873.125L203.031 873.65C203.501 873.74 203.926 873.86 204.306 874.01C204.686 874.15 204.991 874.355 205.221 874.625C205.451 874.885 205.566 875.245 205.566 875.705C205.566 876.195 205.406 876.645 205.086 877.055C204.766 877.475 204.291 877.81 203.661 878.06C203.041 878.32 202.266 878.45 201.336 878.45C200.536 878.45 199.901 878.365 199.431 878.195C198.961 878.035 198.626 877.825 198.426 877.565C198.236 877.305 198.141 877.03 198.141 876.74C198.141 876.38 198.261 876.015 198.501 875.645C198.751 875.285 199.056 874.995 199.416 874.775C199.106 874.655 198.881 874.5 198.741 874.31C198.601 874.12 198.531 873.915 198.531 873.695C198.531 873.495 198.581 873.31 198.681 873.14C198.791 872.96 198.921 872.78 199.071 872.6L199.566 871.97C198.836 871.55 198.471 870.89 198.471 869.99C198.471 869.27 198.726 868.685 199.236 868.235C199.756 867.785 200.516 867.56 201.516 867.56C202.026 867.56 202.471 867.62 202.851 867.74C203.241 867.86 203.561 868.03 203.811 868.25C204.131 868.2 204.431 868.12 204.711 868.01C205.001 867.89 205.261 867.73 205.491 867.53L205.701 867.68V868.445H204.006C204.366 868.845 204.546 869.36 204.546 869.99C204.546 870.69 204.286 871.27 203.766 871.73C203.256 872.18 202.501 872.405 201.501 872.405ZM201.486 872.105C201.886 872.105 202.176 871.94 202.356 871.61C202.546 871.28 202.641 870.73 202.641 869.96C202.641 869.19 202.546 868.65 202.356 868.34C202.176 868.02 201.896 867.86 201.516 867.86C201.146 867.86 200.866 868.025 200.676 868.355C200.486 868.675 200.391 869.22 200.391 869.99C200.391 870.76 200.476 871.305 200.646 871.625C200.826 871.945 201.106 872.105 201.486 872.105ZM199.251 876.26C199.251 876.85 199.431 877.295 199.791 877.595C200.161 877.895 200.741 878.045 201.531 878.045C202.361 878.045 202.986 877.91 203.406 877.64C203.826 877.37 204.036 876.99 204.036 876.5C204.036 876.22 203.931 875.995 203.721 875.825C203.521 875.655 203.176 875.525 202.686 875.435L199.971 874.925C199.891 874.905 199.811 874.885 199.731 874.865C199.591 875.065 199.476 875.29 199.386 875.54C199.296 875.8 199.251 876.04 199.251 876.26ZM207.999 866.78C207.659 866.78 207.369 866.675 207.129 866.465C206.899 866.245 206.784 865.97 206.784 865.64C206.784 865.3 206.899 865.025 207.129 864.815C207.369 864.605 207.659 864.5 207.999 864.5C208.339 864.5 208.624 864.605 208.854 864.815C209.084 865.025 209.199 865.3 209.199 865.64C209.199 865.97 209.084 866.245 208.854 866.465C208.624 866.675 208.339 866.78 207.999 866.78ZM206.229 875V874.85L206.439 874.79C206.639 874.73 206.774 874.64 206.844 874.52C206.924 874.4 206.964 874.24 206.964 874.04V869.345C206.964 869.135 206.924 868.98 206.844 868.88C206.774 868.77 206.639 868.695 206.439 868.655L206.229 868.61V868.46L208.974 867.575L209.124 867.725L209.079 869.855V874.055C209.079 874.255 209.114 874.415 209.184 874.535C209.264 874.655 209.399 874.745 209.589 874.805L209.739 874.85V875H206.229ZM213.254 875.225C212.614 875.225 212.114 875.065 211.754 874.745C211.404 874.425 211.229 873.915 211.229 873.215V868.085H210.194V867.935L210.554 867.875C210.864 867.805 211.129 867.705 211.349 867.575C211.579 867.445 211.804 867.27 212.024 867.05L213.254 865.685H213.404L213.359 867.785H215.039V868.085H213.344V873.485C213.344 873.835 213.419 874.1 213.569 874.28C213.729 874.46 213.929 874.55 214.169 874.55C214.379 874.55 214.564 874.5 214.724 874.4C214.884 874.29 215.044 874.145 215.204 873.965L215.354 874.115C215.154 874.455 214.879 874.725 214.529 874.925C214.179 875.125 213.754 875.225 213.254 875.225ZM218.013 875.225C217.433 875.225 216.943 875.06 216.543 874.73C216.153 874.4 215.958 873.925 215.958 873.305C215.958 872.835 216.198 872.405 216.678 872.015C217.158 871.615 217.913 871.315 218.943 871.115C219.103 871.085 219.283 871.055 219.483 871.025C219.683 870.985 219.893 870.945 220.113 870.905V869.72C220.113 869.04 220.028 868.565 219.858 868.295C219.698 868.015 219.443 867.875 219.093 867.875C218.853 867.875 218.663 867.955 218.523 868.115C218.383 868.265 218.293 868.53 218.253 868.91L218.223 869.075C218.203 869.505 218.098 869.82 217.908 870.02C217.718 870.22 217.483 870.32 217.203 870.32C216.943 870.32 216.728 870.24 216.558 870.08C216.388 869.92 216.303 869.705 216.303 869.435C216.303 869.025 216.443 868.68 216.723 868.4C217.013 868.12 217.393 867.91 217.863 867.77C218.333 867.63 218.843 867.56 219.393 867.56C220.283 867.56 220.968 867.78 221.448 868.22C221.938 868.65 222.183 869.355 222.183 870.335V873.65C222.183 874.1 222.393 874.325 222.813 874.325H223.143L223.278 874.445C223.088 874.685 222.878 874.87 222.648 875C222.428 875.13 222.113 875.195 221.703 875.195C221.263 875.195 220.913 875.095 220.653 874.895C220.403 874.685 220.238 874.41 220.158 874.07C219.858 874.39 219.548 874.665 219.228 874.895C218.918 875.115 218.513 875.225 218.013 875.225ZM218.928 874.31C219.128 874.31 219.313 874.265 219.483 874.175C219.663 874.075 219.873 873.925 220.113 873.725V871.205C220.013 871.225 219.913 871.245 219.813 871.265C219.713 871.285 219.598 871.305 219.468 871.325C219.008 871.445 218.638 871.65 218.358 871.94C218.088 872.22 217.953 872.6 217.953 873.08C217.953 873.49 218.048 873.8 218.238 874.01C218.428 874.21 218.658 874.31 218.928 874.31ZM223.632 875V874.85L223.812 874.79C224.172 874.67 224.352 874.42 224.352 874.04V866.015C224.352 865.815 224.312 865.665 224.232 865.565C224.152 865.455 224.012 865.375 223.812 865.325L223.617 865.28V865.13L226.362 864.485L226.542 864.62L226.482 866.72V871.85C226.482 872.22 226.482 872.59 226.482 872.96C226.492 873.32 226.497 873.68 226.497 874.04C226.497 874.24 226.537 874.405 226.617 874.535C226.697 874.655 226.832 874.745 227.022 874.805L227.217 874.85V875H223.632ZM231.176 875V874.85L231.476 874.745C231.676 874.685 231.806 874.595 231.866 874.475C231.936 874.355 231.971 874.195 231.971 873.995V866.135C231.971 865.935 231.936 865.775 231.866 865.655C231.796 865.535 231.661 865.44 231.461 865.37L231.176 865.25V865.1H234.821C236.311 865.1 237.386 865.375 238.046 865.925C238.716 866.465 239.051 867.18 239.051 868.07C239.051 868.64 238.911 869.165 238.631 869.645C238.361 870.115 237.911 870.49 237.281 870.77C236.651 871.05 235.801 871.19 234.731 871.19H234.221V873.95C234.221 874.34 234.416 874.595 234.806 874.715L235.256 874.85V875H231.176ZM234.221 870.89H234.791C235.281 870.89 235.681 870.81 235.991 870.65C236.301 870.49 236.531 870.21 236.681 869.81C236.831 869.41 236.906 868.855 236.906 868.145C236.906 867.425 236.821 866.865 236.651 866.465C236.491 866.065 236.251 865.79 235.931 865.64C235.611 865.48 235.211 865.4 234.731 865.4H234.221V870.89ZM239.569 875V874.85L239.794 874.79C239.994 874.73 240.129 874.64 240.199 874.52C240.279 874.4 240.319 874.245 240.319 874.055V869.36C240.319 869.14 240.279 868.98 240.199 868.88C240.129 868.77 239.994 868.695 239.794 868.655L239.569 868.595V868.445L242.149 867.575L242.299 867.725L242.434 869.015V869.135C242.574 868.855 242.754 868.6 242.974 868.37C243.204 868.13 243.454 867.935 243.724 867.785C244.004 867.635 244.279 867.56 244.549 867.56C244.929 867.56 245.219 867.665 245.419 867.875C245.619 868.085 245.719 868.35 245.719 868.67C245.719 869.01 245.619 869.275 245.419 869.465C245.229 869.645 244.999 869.735 244.729 869.735C244.309 869.735 243.939 869.525 243.619 869.105L243.589 869.075C243.489 868.935 243.374 868.86 243.244 868.85C243.114 868.83 242.994 868.89 242.884 869.03C242.784 869.12 242.699 869.23 242.629 869.36C242.569 869.48 242.509 869.62 242.449 869.78V873.965C242.449 874.365 242.624 874.615 242.974 874.715L243.454 874.85V875H239.569ZM249.75 875.225C248.99 875.225 248.33 875.07 247.77 874.76C247.21 874.44 246.775 873.99 246.465 873.41C246.165 872.83 246.015 872.15 246.015 871.37C246.015 870.59 246.175 869.915 246.495 869.345C246.825 868.775 247.27 868.335 247.83 868.025C248.4 867.715 249.04 867.56 249.75 867.56C250.46 867.56 251.095 867.715 251.655 868.025C252.215 868.325 252.655 868.76 252.975 869.33C253.305 869.9 253.47 870.58 253.47 871.37C253.47 872.16 253.315 872.845 253.005 873.425C252.705 873.995 252.275 874.44 251.715 874.76C251.165 875.07 250.51 875.225 249.75 875.225ZM249.75 874.925C250.1 874.925 250.38 874.825 250.59 874.625C250.8 874.425 250.95 874.07 251.04 873.56C251.14 873.05 251.19 872.33 251.19 871.4C251.19 870.46 251.14 869.735 251.04 869.225C250.95 868.715 250.8 868.36 250.59 868.16C250.38 867.96 250.1 867.86 249.75 867.86C249.4 867.86 249.115 867.96 248.895 868.16C248.685 868.36 248.53 868.715 248.43 869.225C248.34 869.735 248.295 870.46 248.295 871.4C248.295 872.33 248.34 873.05 248.43 873.56C248.53 874.07 248.685 874.425 248.895 874.625C249.115 874.825 249.4 874.925 249.75 874.925ZM257.399 872.405C256.709 872.405 256.124 872.29 255.644 872.06V872.57C255.644 872.88 255.799 873.065 256.109 873.125L258.929 873.65C259.399 873.74 259.824 873.86 260.204 874.01C260.584 874.15 260.889 874.355 261.119 874.625C261.349 874.885 261.464 875.245 261.464 875.705C261.464 876.195 261.304 876.645 260.984 877.055C260.664 877.475 260.189 877.81 259.559 878.06C258.939 878.32 258.164 878.45 257.234 878.45C256.434 878.45 255.799 878.365 255.329 878.195C254.859 878.035 254.524 877.825 254.324 877.565C254.134 877.305 254.039 877.03 254.039 876.74C254.039 876.38 254.159 876.015 254.399 875.645C254.649 875.285 254.954 874.995 255.314 874.775C255.004 874.655 254.779 874.5 254.639 874.31C254.499 874.12 254.429 873.915 254.429 873.695C254.429 873.495 254.479 873.31 254.579 873.14C254.689 872.96 254.819 872.78 254.969 872.6L255.464 871.97C254.734 871.55 254.369 870.89 254.369 869.99C254.369 869.27 254.624 868.685 255.134 868.235C255.654 867.785 256.414 867.56 257.414 867.56C257.924 867.56 258.369 867.62 258.749 867.74C259.139 867.86 259.459 868.03 259.709 868.25C260.029 868.2 260.329 868.12 260.609 868.01C260.899 867.89 261.159 867.73 261.389 867.53L261.599 867.68V868.445H259.904C260.264 868.845 260.444 869.36 260.444 869.99C260.444 870.69 260.184 871.27 259.664 871.73C259.154 872.18 258.399 872.405 257.399 872.405ZM257.384 872.105C257.784 872.105 258.074 871.94 258.254 871.61C258.444 871.28 258.539 870.73 258.539 869.96C258.539 869.19 258.444 868.65 258.254 868.34C258.074 868.02 257.794 867.86 257.414 867.86C257.044 867.86 256.764 868.025 256.574 868.355C256.384 868.675 256.289 869.22 256.289 869.99C256.289 870.76 256.374 871.305 256.544 871.625C256.724 871.945 257.004 872.105 257.384 872.105ZM255.149 876.26C255.149 876.85 255.329 877.295 255.689 877.595C256.059 877.895 256.639 878.045 257.429 878.045C258.259 878.045 258.884 877.91 259.304 877.64C259.724 877.37 259.934 876.99 259.934 876.5C259.934 876.22 259.829 875.995 259.619 875.825C259.419 875.655 259.074 875.525 258.584 875.435L255.869 874.925C255.789 874.905 255.709 874.885 255.629 874.865C255.489 875.065 255.374 875.29 255.284 875.54C255.194 875.8 255.149 876.04 255.149 876.26ZM262.098 875V874.85L262.323 874.79C262.523 874.73 262.658 874.64 262.728 874.52C262.808 874.4 262.848 874.245 262.848 874.055V869.36C262.848 869.14 262.808 868.98 262.728 868.88C262.658 868.77 262.523 868.695 262.323 868.655L262.098 868.595V868.445L264.678 867.575L264.828 867.725L264.963 869.015V869.135C265.103 868.855 265.283 868.6 265.503 868.37C265.733 868.13 265.983 867.935 266.253 867.785C266.533 867.635 266.808 867.56 267.078 867.56C267.458 867.56 267.748 867.665 267.948 867.875C268.148 868.085 268.248 868.35 268.248 868.67C268.248 869.01 268.148 869.275 267.948 869.465C267.758 869.645 267.528 869.735 267.258 869.735C266.838 869.735 266.468 869.525 266.148 869.105L266.118 869.075C266.018 868.935 265.903 868.86 265.773 868.85C265.643 868.83 265.523 868.89 265.413 869.03C265.313 869.12 265.228 869.23 265.158 869.36C265.098 869.48 265.038 869.62 264.978 869.78V873.965C264.978 874.365 265.153 874.615 265.503 874.715L265.983 874.85V875H262.098ZM270.587 875.225C270.007 875.225 269.517 875.06 269.117 874.73C268.727 874.4 268.532 873.925 268.532 873.305C268.532 872.835 268.772 872.405 269.252 872.015C269.732 871.615 270.487 871.315 271.517 871.115C271.677 871.085 271.857 871.055 272.057 871.025C272.257 870.985 272.467 870.945 272.687 870.905V869.72C272.687 869.04 272.602 868.565 272.432 868.295C272.272 868.015 272.017 867.875 271.667 867.875C271.427 867.875 271.237 867.955 271.097 868.115C270.957 868.265 270.867 868.53 270.827 868.91L270.797 869.075C270.777 869.505 270.672 869.82 270.482 870.02C270.292 870.22 270.057 870.32 269.777 870.32C269.517 870.32 269.302 870.24 269.132 870.08C268.962 869.92 268.877 869.705 268.877 869.435C268.877 869.025 269.017 868.68 269.297 868.4C269.587 868.12 269.967 867.91 270.437 867.77C270.907 867.63 271.417 867.56 271.967 867.56C272.857 867.56 273.542 867.78 274.022 868.22C274.512 868.65 274.757 869.355 274.757 870.335V873.65C274.757 874.1 274.967 874.325 275.387 874.325H275.717L275.852 874.445C275.662 874.685 275.452 874.87 275.222 875C275.002 875.13 274.687 875.195 274.277 875.195C273.837 875.195 273.487 875.095 273.227 874.895C272.977 874.685 272.812 874.41 272.732 874.07C272.432 874.39 272.122 874.665 271.802 874.895C271.492 875.115 271.087 875.225 270.587 875.225ZM271.502 874.31C271.702 874.31 271.887 874.265 272.057 874.175C272.237 874.075 272.447 873.925 272.687 873.725V871.205C272.587 871.225 272.487 871.245 272.387 871.265C272.287 871.285 272.172 871.305 272.042 871.325C271.582 871.445 271.212 871.65 270.932 871.94C270.662 872.22 270.527 872.6 270.527 873.08C270.527 873.49 270.622 873.8 270.812 874.01C271.002 874.21 271.232 874.31 271.502 874.31ZM276.131 875V874.85L276.341 874.79C276.531 874.74 276.661 874.655 276.731 874.535C276.811 874.415 276.856 874.255 276.866 874.055V869.36C276.866 869.14 276.831 868.98 276.761 868.88C276.691 868.77 276.556 868.695 276.356 868.655L276.131 868.595V868.445L278.696 867.575L278.846 867.725L278.966 868.745C279.296 868.415 279.671 868.135 280.091 867.905C280.521 867.675 280.966 867.56 281.426 867.56C281.906 867.56 282.291 867.66 282.581 867.86C282.871 868.05 283.091 868.35 283.241 868.76C283.631 868.39 284.051 868.1 284.501 867.89C284.961 867.67 285.406 867.56 285.836 867.56C286.546 867.56 287.066 867.73 287.396 868.07C287.736 868.41 287.906 868.945 287.906 869.675V874.07C287.906 874.46 288.086 874.705 288.446 874.805L288.611 874.85V875H285.146V874.85L285.296 874.805C285.486 874.745 285.616 874.655 285.686 874.535C285.766 874.415 285.806 874.255 285.806 874.055V869.465C285.806 869.045 285.731 868.76 285.581 868.61C285.431 868.45 285.191 868.37 284.861 868.37C284.601 868.37 284.346 868.43 284.096 868.55C283.856 868.66 283.601 868.83 283.331 869.06C283.381 869.22 283.411 869.395 283.421 869.585C283.441 869.775 283.451 869.975 283.451 870.185V874.07C283.461 874.46 283.641 874.705 283.991 874.805L284.126 874.85V875H280.646V874.85L280.856 874.79C281.046 874.73 281.176 874.645 281.246 874.535C281.326 874.415 281.366 874.255 281.366 874.055V869.48C281.366 869.08 281.291 868.795 281.141 868.625C281.001 868.455 280.756 868.37 280.406 868.37C280.176 868.37 279.946 868.43 279.716 868.55C279.486 868.66 279.246 868.825 278.996 869.045V874.07C278.996 874.46 279.171 874.705 279.521 874.805L279.656 874.85V875H276.131Z" fill="white"/>
</g>
<defs>
<filter id="filter0_d_1960_1293" x="180.328" y="864.485" width="112.281" height="21.9648" filterUnits="userSpaceOnUse" color-interpolation-filters="sRGB">
<feFlood flood-opacity="0" result="BackgroundImageFix"/>
<feColorMatrix in="SourceAlpha" type="matrix" values="0 0 0 0 0 0 0 0 0 0 0 0 0 0 0 0 0 0 127 0" result="hardAlpha"/>
<feOffset dy="4"/>
<feGaussianBlur stdDeviation="2"/>
<feComposite in2="hardAlpha" operator="out"/>
<feColorMatrix type="matrix" values="0 0 0 0 0 0 0 0 0 0 0 0 0 0 0 0 0 0 0.1 0"/>
<feBlend mode="normal" in2="BackgroundImageFix" result="effect1_dropShadow_1960_1293"/>
<feBlend mode="normal" in="SourceGraphic" in2="effect1_dropShadow_1960_1293" result="shape"/>
</filter>
<linearGradient id="paint0_linear_1960_1293" x1="152.523" y1="477.632" x2="683.581" y2="700.696" gradientUnits="userSpaceOnUse">
<stop stop-color="#073AD1"/>
<stop offset="1" stop-color="#0F7EEF"/>
</linearGradient>
<linearGradient id="paint1_linear_1960_1293" x1="694.944" y1="675" x2="200.426" y2="157.897" gradientUnits="userSpaceOnUse">
<stop stop-color="#1088F3"/>
<stop offset="1" stop-color="#0739D0"/>
</linearGradient>
<linearGradient id="paint2_linear_1960_1293" x1="710.122" y1="813.461" x2="812.312" y2="813.461" gradientUnits="userSpaceOnUse">
<stop stop-color="#292930"/>
<stop offset="1" stop-color="#878787"/>
</linearGradient>
<linearGradient id="paint3_linear_1960_1293" x1="658.452" y1="840.118" x2="773.317" y2="840.118" gradientUnits="userSpaceOnUse">
<stop stop-color="#292930"/>
<stop offset="1" stop-color="#878787"/>
</linearGradient>
<linearGradient id="paint4_linear_1960_1293" x1="444.976" y1="495.323" x2="543.696" y2="495.323" gradientUnits="userSpaceOnUse">
<stop offset="2.77045e-07" stop-color="#F98012"/>
<stop offset="1" stop-color="#FF7A00"/>
</linearGradient>
<linearGradient id="paint5_linear_1960_1293" x1="320.447" y1="544.437" x2="517.639" y2="544.437" gradientUnits="userSpaceOnUse">
<stop offset="2.77045e-07" stop-color="#F98012"/>
<stop offset="1" stop-color="#FF7A00"/>
</linearGradient>
<linearGradient id="paint6_linear_1960_1293" x1="374.379" y1="403.664" x2="433.583" y2="403.664" gradientUnits="userSpaceOnUse">
<stop stop-color="#0739D1"/>
<stop offset="1" stop-color="#107FEF"/>
</linearGradient>
<linearGradient id="paint7_linear_1960_1293" x1="349.42" y1="305.476" x2="464.258" y2="305.476" gradientUnits="userSpaceOnUse">
<stop stop-color="#292930"/>
<stop offset="1" stop-color="#878787"/>
</linearGradient>
<linearGradient id="paint8_linear_1960_1293" x1="377.168" y1="296.068" x2="459.453" y2="296.068" gradientUnits="userSpaceOnUse">
<stop stop-color="#292930"/>
<stop offset="1" stop-color="#878787"/>
</linearGradient>
<linearGradient id="paint9_linear_1960_1293" x1="319.488" y1="519.972" x2="427.654" y2="519.972" gradientUnits="userSpaceOnUse">
<stop stop-color="#F98012"/>
<stop offset="1" stop-color="#FF7A00"/>
</linearGradient>
<linearGradient id="paint10_linear_1960_1293" x1="373.554" y1="603.91" x2="509.179" y2="603.91" gradientUnits="userSpaceOnUse">
<stop offset="2.77045e-07" stop-color="#F98012"/>
<stop offset="1" stop-color="#FF7A00"/>
</linearGradient>
<linearGradient id="paint11_linear_1960_1293" x1="555.698" y1="689.904" x2="763.124" y2="689.904" gradientUnits="userSpaceOnUse">
<stop/>
<stop offset="1" stop-color="#9B9B9B"/>
</linearGradient>
<linearGradient id="paint12_linear_1960_1293" x1="527.186" y1="544.28" x2="704.796" y2="544.28" gradientUnits="userSpaceOnUse">
<stop stop-color="#292930"/>
<stop offset="1" stop-color="#878787"/>
</linearGradient>
<linearGradient id="paint13_linear_1960_1293" x1="533.926" y1="543.177" x2="711.905" y2="543.177" gradientUnits="userSpaceOnUse">
<stop stop-color="#292930"/>
<stop offset="1" stop-color="#878787"/>
</linearGradient>
<linearGradient id="paint14_linear_1960_1293" x1="496.728" y1="615.994" x2="692.151" y2="615.994" gradientUnits="userSpaceOnUse">
<stop stop-color="#292930"/>
<stop offset="1" stop-color="#878787"/>
</linearGradient>
<linearGradient id="paint15_linear_1960_1293" x1="489.772" y1="609.885" x2="693.442" y2="609.885" gradientUnits="userSpaceOnUse">
<stop stop-color="#292930"/>
<stop offset="1" stop-color="#878787"/>
</linearGradient>
<linearGradient id="paint16_linear_1960_1293" x1="382.973" y1="728.72" x2="701.706" y2="728.72" gradientUnits="userSpaceOnUse">
<stop/>
<stop offset="1" stop-color="#9B9B9B"/>
</linearGradient>
<linearGradient id="paint17_linear_1960_1293" x1="717.43" y1="195.5" x2="782.378" y2="195.5" gradientUnits="userSpaceOnUse">
<stop stop-color="#4D97D9"/>
<stop offset="1" stop-color="#2E6EA6"/>
</linearGradient>
<linearGradient id="paint18_linear_1960_1293" x1="0" y1="429.5" x2="64.9479" y2="429.5" gradientUnits="userSpaceOnUse">
<stop stop-color="#FFBA00"/>
<stop offset="1" stop-color="#F17809"/>
</linearGradient>
<linearGradient id="paint19_linear_1960_1293" x1="568.539" y1="85.5" x2="633.487" y2="85.5" gradientUnits="userSpaceOnUse">
<stop stop-color="#FFBA00"/>
<stop offset="1" stop-color="#F17809"/>
</linearGradient>
<linearGradient id="paint20_linear_1960_1293" x1="734.709" y1="340.101" x2="703.091" y2="396.878" gradientUnits="userSpaceOnUse">
<stop stop-color="#FFBA00"/>
<stop offset="1" stop-color="#F17809"/>
</linearGradient>
<linearGradient id="paint21_linear_1960_1293" x1="53.9609" y1="666.5" x2="118.909" y2="666.5" gradientUnits="userSpaceOnUse">
<stop stop-color="#4D97D9"/>
<stop offset="1" stop-color="#2E6EA6"/>
</linearGradient>
<linearGradient id="paint22_linear_1960_1293" x1="487.766" y1="194.915" x2="565.453" y2="194.915" gradientUnits="userSpaceOnUse">
<stop stop-color="#292930"/>
<stop offset="1" stop-color="#878787"/>
</linearGradient>
<linearGradient id="paint23_linear_1960_1293" x1="748.742" y1="268.687" x2="946.062" y2="268.687" gradientUnits="userSpaceOnUse">
<stop stop-color="#292930"/>
<stop offset="1" stop-color="#878787"/>
</linearGradient>
<linearGradient id="paint24_linear_1960_1293" x1="743.773" y1="268.713" x2="753.722" y2="268.713" gradientUnits="userSpaceOnUse">
<stop stop-color="#292930"/>
<stop offset="1" stop-color="#878787"/>
</linearGradient>
<linearGradient id="paint25_linear_1960_1293" x1="745.758" y1="413.948" x2="868.888" y2="413.948" gradientUnits="userSpaceOnUse">
<stop stop-color="#292930"/>
<stop offset="1" stop-color="#878787"/>
</linearGradient>
<linearGradient id="paint26_linear_1960_1293" x1="743.398" y1="413.973" x2="753.347" y2="413.973" gradientUnits="userSpaceOnUse">
<stop stop-color="#292930"/>
<stop offset="1" stop-color="#878787"/>
</linearGradient>
<linearGradient id="paint27_linear_1960_1293" x1="867.585" y1="414" x2="867.585" y2="493.875" gradientUnits="userSpaceOnUse">
<stop stop-color="#292930"/>
<stop offset="1" stop-color="#878787"/>
</linearGradient>
<linearGradient id="paint28_linear_1960_1293" x1="821.84" y1="473.859" x2="900.348" y2="562.796" gradientUnits="userSpaceOnUse">
<stop stop-color="#F1F1F1"/>
<stop offset="1" stop-color="#BDBDBD"/>
</linearGradient>
<linearGradient id="paint29_linear_1960_1293" x1="923.989" y1="224.859" x2="1002.5" y2="313.796" gradientUnits="userSpaceOnUse">
<stop stop-color="#DFDFDF"/>
<stop offset="1" stop-color="#878787"/>
</linearGradient>
<linearGradient id="paint30_linear_1960_1293" x1="332.172" y1="44.4086" x2="420.918" y2="44.4086" gradientUnits="userSpaceOnUse">
<stop stop-color="#292930"/>
<stop offset="1" stop-color="#878787"/>
</linearGradient>
<linearGradient id="paint31_linear_1960_1293" x1="179.844" y1="814.95" x2="364.765" y2="814.95" gradientUnits="userSpaceOnUse">
<stop stop-color="#AE1904"/>
<stop offset="1" stop-color="#888888"/>
</linearGradient>
<linearGradient id="paint32_linear_1960_1293" x1="223.75" y1="844.166" x2="451.739" y2="844.166" gradientUnits="userSpaceOnUse">
<stop stop-color="#629F13"/>
<stop offset="1" stop-color="#878787"/>
</linearGradient>
<linearGradient id="paint33_linear_1960_1293" x1="173.398" y1="870.716" x2="316.155" y2="870.716" gradientUnits="userSpaceOnUse">
<stop stop-color="#4681C6"/>
<stop offset="1" stop-color="#073965"/>
</linearGradient>
<linearGradient id="paint34_linear_1960_1293" x1="291.664" y1="870.641" x2="400.94" y2="870.641" gradientUnits="userSpaceOnUse">
<stop stop-color="#438BCA"/>
<stop offset="1" stop-color="#083A67"/>
</linearGradient>
</defs>
</svg>
