<svg width="57" height="57" viewBox="0 0 57 57" fill="none" xmlns="http://www.w3.org/2000/svg">
<path d="M28.9808 30.746C28.7683 30.7193 28.5533 30.7193 28.3408 30.746C26.0794 30.6699 23.936 29.7177 22.3636 28.0905C20.7912 26.4634 19.9129 24.2887 19.9142 22.026C19.9142 17.1993 23.8075 13.2793 28.6608 13.2793C30.9527 13.2753 33.1543 14.1721 34.791 15.7764C36.4278 17.3806 37.3685 19.5638 37.4105 21.8553C37.4525 24.1467 36.5923 26.3629 35.0155 28.026C33.4386 29.6892 31.2713 30.666 28.9808 30.746ZM46.6342 48.346C41.7336 52.8502 35.3169 55.3445 28.6608 55.3326C21.7275 55.3326 15.4342 52.6926 10.6875 48.346C10.9542 45.8393 12.5542 43.386 15.4075 41.466C22.7142 36.6126 34.6608 36.6126 41.9142 41.466C44.7675 43.386 46.3675 45.8393 46.6342 48.346Z" stroke="black" stroke-width="3" stroke-linecap="round" stroke-linejoin="round"/>
<path d="M28.6667 55.3333C43.3947 55.3333 55.3333 43.3947 55.3333 28.6667C55.3333 13.9387 43.3947 2 28.6667 2C13.9387 2 2 13.9387 2 28.6667C2 43.3947 13.9387 55.3333 28.6667 55.3333Z" stroke="black" stroke-width="3" stroke-linecap="round" stroke-linejoin="round"/>
</svg>
