<svg width="38" height="38" viewBox="0 0 38 38" fill="none" xmlns="http://www.w3.org/2000/svg">
<mask id="mask0_1302_1308" style="mask-type:alpha" maskUnits="userSpaceOnUse" x="0" y="0" width="38" height="38">
<rect width="38" height="38" fill="#D9D9D9"/>
</mask>
<g mask="url(#mask0_1302_1308)">
<path d="M5.23719 32.4583C4.4374 32.4583 3.76042 32.1812 3.20625 31.627C2.65208 31.0728 2.375 30.3959 2.375 29.5961V11.5705C2.375 10.7707 2.65208 10.0938 3.20625 9.53958C3.76042 8.98542 4.4374 8.70833 5.23719 8.70833H10.0724L13.0016 5.54167H21.8621V7.91663H14.0368L11.132 11.0833H5.23719C5.09509 11.0833 4.97836 11.129 4.887 11.2203C4.79564 11.3117 4.74996 11.4284 4.74996 11.5705V29.5961C4.74996 29.7382 4.79564 29.8549 4.887 29.9463C4.97836 30.0376 5.09509 30.0833 5.23719 30.0833H29.5961C29.7382 30.0833 29.8549 30.0376 29.9463 29.9463C30.0376 29.8549 30.0833 29.7382 30.0833 29.5961V16.1378H32.4583V29.5961C32.4583 30.3959 32.1812 31.0728 31.627 31.627C31.0728 32.1812 30.3959 32.4583 29.5961 32.4583H5.23719ZM30.0833 11.0833V7.91663H26.9166V5.54167H30.0833V2.375H32.4583V5.54167H35.6249V7.91663H32.4583V11.0833H30.0833ZM17.4166 27.0993C19.2334 27.0993 20.7736 26.4675 22.0372 25.2039C23.3008 23.9403 23.9326 22.4001 23.9326 20.5833C23.9326 18.7665 23.3008 17.2263 22.0372 15.9627C20.7736 14.6991 19.2334 14.0673 17.4166 14.0673C15.5999 14.0673 14.0597 14.6991 12.7961 15.9627C11.5325 17.2263 10.9007 18.7665 10.9007 20.5833C10.9007 22.4001 11.5325 23.9403 12.7961 25.2039C14.0597 26.4675 15.5999 27.0993 17.4166 27.0993ZM17.4166 24.7243C16.2474 24.7243 15.2649 24.3265 14.4692 23.5308C13.6734 22.735 13.2756 21.7525 13.2756 20.5833C13.2756 19.4141 13.6734 18.4316 14.4692 17.6358C15.2649 16.8401 16.2474 16.4422 17.4166 16.4422C18.5859 16.4422 19.5684 16.8401 20.3641 17.6358C21.1598 18.4316 21.5577 19.4141 21.5577 20.5833C21.5577 21.7525 21.1598 22.735 20.3641 23.5308C19.5684 24.3265 18.5859 24.7243 17.4166 24.7243Z" fill="#1C1B1F"/>
</g>
</svg>
