<svg width="43" height="55" viewBox="0 0 43 55" fill="none" xmlns="http://www.w3.org/2000/svg">
<path d="M12.3081 34.5955L15.6782 52.3381H17.8483H25.1524H27.3203L30.6904 34.5955C37.572 35.1085 43 40.855 43 47.8874V54.3609H-0.000422135V47.8874C-0.000422135 40.855 5.42649 35.1096 12.3081 34.5955Z" fill="#0B68C3"/>
<path d="M25.1533 52.3382H17.8492L19.66 40.4097H19.7242L17.9461 37.1359H25.0564L23.2783 40.4097H23.3414L25.1533 52.3382Z" fill="#0B68C3"/>
<path d="M40.1553 20.6595V21.821C40.1553 23.81 38.4784 25.4246 36.4183 25.4246H36.1983C35.0746 29.3753 32.2839 32.6644 28.6046 34.5464C26.4824 35.6326 24.0662 36.2538 21.4986 36.2538C18.9311 36.2538 16.5149 35.6337 14.3916 34.5464C10.7134 32.6644 7.92374 29.3753 6.80003 25.4246H6.58008C4.51994 25.4246 2.84309 23.8089 2.84309 21.821V20.6595C2.84309 18.938 4.104 17.5025 5.78194 17.1466C5.72314 16.6291 5.68285 16.1062 5.68285 15.5702L5.69047 15.4196C5.6872 15.0386 5.70027 14.6434 5.75145 14.2199V14.2188C5.9812 11.7615 6.83487 9.48646 8.1524 7.55533C8.83076 6.55865 9.64088 5.66131 10.5446 4.87095C12.9587 2.75533 16.0881 1.44753 19.5256 1.36457L19.6987 1.22702C19.8468 1.06436 20.0091 1.03598 20.118 1.03598C20.376 1.03598 20.5568 1.20737 20.7027 1.34819H20.7495C21.5792 0.514168 22.2042 0 22.7389 0H22.7421C23.2528 0.0392995 25.645 0.890788 26.4094 1.46609C26.5793 1.59381 26.7698 1.75756 26.9702 1.93877C32.8446 3.67778 37.1337 9.12076 37.1337 15.5724C37.1337 15.6707 37.126 15.7678 37.125 15.865C37.1326 16.2995 37.1184 16.7263 37.0781 17.1488C38.8203 17.4501 40.1553 18.8932 40.1553 20.6595ZM6.17937 19.2469C5.52714 19.4183 5.04042 19.9783 5.04042 20.6595V21.821C5.04042 22.5677 5.61643 23.1801 6.36121 23.2839C6.29044 22.7129 6.24471 22.1354 6.24471 21.547C6.24471 20.9772 6.29697 20.4205 6.36775 19.8692C6.30241 19.6628 6.236 19.4565 6.17937 19.2469ZM34.3952 19.6683C34.3505 19.3823 34.2885 19.1039 34.2231 18.8245C32.433 17.5494 30.1399 15.5626 29.2612 13.9994C29.2612 13.9994 14.7673 17.4042 9.48735 17.795C9.336 17.807 9.19227 17.8125 9.05507 17.8136C8.86125 18.4173 8.70554 19.0319 8.60537 19.6683C8.50846 20.2829 8.44312 20.9062 8.44312 21.5459C8.44312 22.0023 8.47252 22.452 8.52152 22.8963C8.60537 23.6572 8.76543 24.393 8.98429 25.1069C10.5817 30.3174 15.5828 34.1349 21.4997 34.1349C27.4166 34.1349 32.4189 30.3196 34.0152 25.108C34.234 24.3941 34.3941 23.6583 34.4768 22.8985C34.5269 22.4531 34.5563 22.0033 34.5563 21.547C34.5563 20.9073 34.4921 20.284 34.3952 19.6683ZM37.9579 20.6595C37.9579 19.9259 37.3983 19.3288 36.6709 19.212C36.6665 19.4947 36.6567 19.7731 36.6502 20.0558C36.7112 20.546 36.7547 21.0405 36.7547 21.547C36.7547 22.1354 36.7101 22.7129 36.6393 23.2839C37.383 23.1791 37.959 22.5677 37.959 21.821V20.6595H37.9579Z" fill="#0B68C3"/>
</svg>
