<svg width="53" height="54" viewBox="0 0 53 54" fill="none" xmlns="http://www.w3.org/2000/svg">
<path fill-rule="evenodd" clip-rule="evenodd" d="M29.5655 0H41.0675V53.9021H0V0H11.4951V2.7855C12.0522 2.88927 12.6151 2.98212 13.178 3.06951L13.1727 3.91541L3.26562 3.93743V50.7174H37.7874V13.856C37.7874 13.2279 37.5379 12.6599 37.12 12.2448C37.0977 12.2222 37.0748 12.2001 37.0514 12.1785C37.0751 12.2002 37.0983 12.2223 37.1211 12.2449L37.1791 12.1903L29.554 4.54385L29.4844 4.59846C29.879 4.99717 30.1169 5.55973 30.1169 6.16053V9.29012C30.1169 9.59921 30.1787 9.89442 30.2906 10.1639C30.1781 9.89402 30.1159 9.59864 30.1159 9.28996V6.16037C30.1159 5.55957 29.8722 5.00247 29.4834 4.5983C29.0744 4.17061 28.5097 3.89467 27.8819 3.88319L27.8769 3.06951C28.4397 2.98212 29.0026 2.88927 29.5597 2.7855C29.5655 1.857 29.5655 0.923037 29.5655 0Z" fill="#FEFEFE"/>
<path d="M26.6927 3.44727H14.3672V5.35888H26.6927V3.44727Z" fill="white"/>
<path d="M10.6488 18.9352C10.4863 18.9352 10.3238 18.8806 10.2019 18.7768L7.30627 16.4282C7.01612 16.1934 6.9871 15.7838 7.23663 15.5161C7.48616 15.243 7.92138 15.2103 8.20572 15.4506L10.4921 17.3076L12.5928 14.1507C12.7959 13.8448 13.2195 13.752 13.5444 13.9431C13.8636 14.1343 13.9623 14.533 13.765 14.8389L11.2407 18.6348C11.1362 18.7932 10.9563 18.9024 10.759 18.9352C10.7184 18.9352 10.6836 18.9352 10.6488 18.9352Z" fill="white"/>
<path d="M10.6488 27.0676C10.4863 27.0676 10.3238 27.013 10.2019 26.9092L7.30627 24.5607C7.01612 24.3258 6.9871 23.9162 7.23663 23.6431C7.48616 23.37 7.92138 23.3427 8.20572 23.5775L10.4921 25.4345L12.5928 22.2776C12.7959 21.9718 13.2195 21.8789 13.5444 22.0701C13.8636 22.2613 13.9623 22.66 13.765 22.9658L11.2407 26.7617C11.1362 26.9201 10.9563 27.0294 10.759 27.0567C10.7184 27.0676 10.6836 27.0676 10.6488 27.0676Z" fill="white"/>
<path d="M10.6488 35.2067C10.4863 35.2067 10.3238 35.1521 10.2019 35.0483L7.30627 32.6997C7.01612 32.4649 6.9871 32.0552 7.23663 31.7876C7.48616 31.5145 7.92138 31.4872 8.20572 31.7221L10.4921 33.5791L12.5928 30.4222C12.7959 30.1163 13.2195 30.0235 13.5444 30.2146C13.8636 30.4058 13.9623 30.8045 13.765 31.1104L11.2407 34.9063C11.1362 35.0647 10.9563 35.1739 10.759 35.2012C10.7184 35.2012 10.6836 35.2067 10.6488 35.2067Z" fill="white"/>
<path d="M10.6488 43.3318C10.4863 43.3318 10.3238 43.2771 10.2019 43.1734L7.30627 40.8248C7.01612 40.59 6.9871 40.1803 7.23663 39.9127C7.48616 39.6396 7.92138 39.6123 8.20572 39.8472L10.4921 41.6987L12.5928 38.5418C12.7959 38.2359 13.2195 38.1431 13.5444 38.3397C13.8636 38.5309 13.9623 38.9296 13.765 39.23L11.2407 43.0259C11.1362 43.1843 10.9563 43.2935 10.759 43.3208C10.7184 43.3318 10.6836 43.3318 10.6488 43.3318Z" fill="white"/>
<path d="M33.7923 17.0401H18.0431C17.6601 17.0401 17.3525 16.7507 17.3525 16.3902C17.3525 16.0297 17.6601 15.7402 18.0431 15.7402H33.7923C34.1753 15.7402 34.4829 16.0297 34.4829 16.3902C34.4829 16.7507 34.1753 17.0401 33.7923 17.0401Z" fill="white"/>
<path d="M33.7923 25.1729H18.0431C17.6601 25.1729 17.3525 24.8835 17.3525 24.523C17.3525 24.1625 17.6601 23.873 18.0431 23.873H33.7923C34.1753 23.873 34.4829 24.1625 34.4829 24.523C34.4829 24.8835 34.1753 25.1729 33.7923 25.1729Z" fill="white"/>
<path d="M33.7923 33.3058H18.0431C17.6601 33.3058 17.3525 33.0163 17.3525 32.6558C17.3525 32.2953 17.6601 32.0059 18.0431 32.0059H33.7923C34.1753 32.0059 34.4829 32.2953 34.4829 32.6558C34.4829 33.0163 34.1753 33.3058 33.7923 33.3058Z" fill="white"/>
<path d="M33.7923 41.4386H18.0431C17.6601 41.4386 17.3525 41.1491 17.3525 40.7886C17.3525 40.4281 17.6601 40.1387 18.0431 40.1387H33.7923C34.1753 40.1387 34.4829 40.4281 34.4829 40.7886C34.4829 41.1491 34.1753 41.4386 33.7923 41.4386Z" fill="white"/>
<path d="M27.6045 43.0926L29.9663 36.0742L32.6995 37.5107L27.6045 43.0926Z" fill="#E9E9E9"/>
<path d="M48.7676 7.33539L47.3749 6.60352C43.806 12.0598 40.3881 17.6035 37.1152 23.2236L38.8271 24.1194L48.7676 7.33539Z" fill="#E9E9E9"/>
<path d="M50.1584 8.06781L48.7657 7.33594L38.8311 24.1254L40.5487 25.0266C43.897 19.4447 47.1119 13.7972 50.1584 8.06781Z" fill="#EFEFEF"/>
<path d="M31.3281 36.7904L32.7208 37.5223C35.4192 33.4041 38.0131 29.2313 40.5432 25.0203L38.8255 24.1191L31.3281 36.7904Z" fill="#EFEFEF"/>
<path d="M37.1206 23.2246C34.6427 27.4629 32.2403 31.7395 29.9365 36.0652L31.3292 36.7971L38.8266 24.1258L37.1206 23.2246Z" fill="#E9E9E9"/>
<path d="M43.4715 25.0693C43.3032 24.9819 43.1756 24.8289 43.1408 24.6323C43.1117 24.4685 43.0479 23.8458 43.5818 22.5842C43.8951 21.8523 45.2646 19.8478 47.168 17.1006C48.0442 15.8389 48.8683 14.6482 49.1352 14.2004C49.6749 13.2828 50.8181 10.5519 51.2881 9.39947L47.0403 7.17107C46.7096 6.9963 46.5877 6.60305 46.7734 6.28627C46.9591 5.97495 47.3769 5.86025 47.7135 6.03503L53 8.8096L52.7911 9.33393C52.7214 9.50871 51.085 13.5832 50.3422 14.8285C50.0521 15.3146 49.2513 16.4725 48.3286 17.8106C46.9881 19.744 45.1486 22.393 44.8642 23.0648C44.4696 24.0042 44.5044 24.4248 44.5044 24.4302C44.5393 24.7743 44.2781 25.102 43.9125 25.1457C43.7559 25.1676 43.5992 25.1403 43.4715 25.0693Z" fill="#E9E9E9"/>
</svg>
