<svg width="46" height="53" viewBox="0 0 46 53" fill="none" xmlns="http://www.w3.org/2000/svg">
<path d="M6.49174 0.911865C6.03732 0.911865 5.64781 0.976203 5.25831 1.10488C2.72653 1.61959 0.714091 3.61407 0.194752 6.12326C0 6.50929 0 6.89532 0 7.34569V42.7317C0 48.0718 4.34946 52.3825 9.73761 52.3825H45.4422V45.9486H9.73761C7.91992 45.9486 6.49174 44.5332 6.49174 42.7317C6.49174 40.9302 7.91992 39.5148 9.73761 39.5148H45.4422V4.12878C45.4422 2.32731 44.014 0.911865 42.1963 0.911865H38.9504V20.2133L32.4587 13.7795L25.9669 20.2133V0.911865H6.49174Z" fill="#FEFEFE"/>
</svg>
