<svg width="28" height="21" viewBox="0 0 28 21" fill="none" xmlns="http://www.w3.org/2000/svg">
<path d="M0 0H20.2381V20.2381H0V0Z" fill="white" fill-opacity="0.01"/>
<path d="M10.1191 8.43268C11.982 8.43268 13.4921 6.92252 13.4921 5.05965C13.4921 3.19678 11.982 1.68663 10.1191 1.68663C8.25625 1.68663 6.74609 3.19678 6.74609 5.05965C6.74609 6.92252 8.25625 8.43268 10.1191 8.43268Z" stroke="#324864" stroke-width="2" stroke-linecap="round" stroke-linejoin="round"/>
<path d="M17.7089 18.5519C17.7089 14.3604 14.311 10.9626 10.1196 10.9626C5.92813 10.9626 2.53027 14.3604 2.53027 18.5519" stroke="#324864" stroke-width="2" stroke-linecap="round" stroke-linejoin="round"/>
<path d="M17.8096 3.50799H27.4737V13.1721H17.8096V3.50799Z" fill="white" fill-opacity="0.01"/>
<path d="M26.4667 5.72254L21.2068 10.9573L18.8159 8.57784" stroke="#324864" stroke-width="2" stroke-linecap="round" stroke-linejoin="round"/>
</svg>
