<svg width="23" height="26" viewBox="0 0 23 26" fill="none" xmlns="http://www.w3.org/2000/svg">
<path d="M18.0725 8.83673C18.0725 6.88514 17.3458 5.01349 16.052 3.63352C14.7583 2.25353 13.0036 1.47827 11.174 1.47827C9.34439 1.47827 7.58972 2.25353 6.29599 3.63352C5.00226 5.01349 4.27545 6.88514 4.27545 8.83673C4.27545 17.4216 0.826172 19.8744 0.826172 19.8744H21.5218C21.5218 19.8744 18.0725 17.4216 18.0725 8.83673Z" stroke="#212B36" stroke-width="1.2" stroke-linecap="round" stroke-linejoin="round"/>
<path d="M13.1647 23.3235C12.9626 23.672 12.6725 23.9613 12.3233 24.1622C11.9742 24.3633 11.5785 24.4692 11.1756 24.4692C10.7727 24.4692 10.377 24.3633 10.0279 24.1622C9.67885 23.9613 9.38865 23.672 9.18652 23.3235" stroke="#212B36" stroke-width="1.2" stroke-linecap="round" stroke-linejoin="round"/>
</svg>
