<svg width="26" height="26" viewBox="0 0 26 26" fill="none" xmlns="http://www.w3.org/2000/svg">
<mask id="mask0_1697_7042" style="mask-type:alpha" maskUnits="userSpaceOnUse" x="0" y="0" width="26" height="26">
<rect width="26" height="26" fill="#D9D9D9"/>
</mask>
<g mask="url(#mask0_1697_7042)">
<mask id="mask1_1697_7042" style="mask-type:alpha" maskUnits="userSpaceOnUse" x="0" y="0" width="26" height="26">
<rect width="26" height="26" fill="#D9D9D9"/>
</mask>
<g mask="url(#mask1_1697_7042)">
<path d="M7.31901 23.8319C6.50651 23.8319 5.80686 23.5566 5.22005 23.0059C4.63325 22.4552 4.33984 21.7736 4.33984 20.9611V5.84857C4.33984 5.16246 4.552 4.54857 4.9763 4.0069C5.40061 3.46523 5.95582 3.12218 6.64193 2.97773L17.3398 0.865234V18.1986L7.07526 20.2569C6.91276 20.293 6.77734 20.3788 6.66901 20.5142C6.56068 20.6496 6.50651 20.7986 6.50651 20.9611C6.50651 21.1597 6.58776 21.3267 6.75026 21.4621C6.91276 21.5975 7.10234 21.6652 7.31901 21.6652H19.5065V4.3319H21.6732V23.8319H7.31901ZM9.75651 17.5215L15.1732 16.4652V3.5194L9.75651 4.57565V17.5215ZM7.58984 17.9548V5.00898L7.18359 5.09023C6.98498 5.12635 6.82248 5.21211 6.69609 5.34753C6.56971 5.48294 6.50651 5.64996 6.50651 5.84857V18.2257C6.59679 18.1895 6.69158 18.1579 6.79089 18.1309C6.89019 18.1038 6.98498 18.0812 7.07526 18.0632L7.58984 17.9548Z" fill="white"/>
</g>
</g>
</svg>
