<svg width="26" height="26" viewBox="0 0 26 26" fill="none" xmlns="http://www.w3.org/2000/svg">
<mask id="mask0_1697_7028" style="mask-type:alpha" maskUnits="userSpaceOnUse" x="0" y="0" width="26" height="26">
<rect width="26" height="26" fill="#D9D9D9"/>
</mask>
<g mask="url(#mask0_1697_7028)">
<mask id="mask1_1697_7028" style="mask-type:alpha" maskUnits="userSpaceOnUse" x="0" y="0" width="26" height="26">
<rect width="26" height="26" fill="#D9D9D9"/>
</mask>
<g mask="url(#mask1_1697_7028)">
<path d="M5.41667 23.8444C4.82083 23.8444 4.31076 23.6322 3.88646 23.2079C3.46215 22.7836 3.25 22.2736 3.25 21.6777V6.51107C3.25 5.91523 3.46215 5.40516 3.88646 4.98086C4.31076 4.55655 4.82083 4.3444 5.41667 4.3444H6.5V2.17773H8.66667V4.3444H17.3333V2.17773H19.5V4.3444H20.5833C21.1792 4.3444 21.6892 4.55655 22.1135 4.98086C22.5378 5.40516 22.75 5.91523 22.75 6.51107V21.6777C22.75 22.2736 22.5378 22.7836 22.1135 23.2079C21.6892 23.6322 21.1792 23.8444 20.5833 23.8444H5.41667ZM5.41667 21.6777H20.5833V10.8444H5.41667V21.6777ZM5.41667 8.67773H20.5833V6.51107H5.41667V8.67773ZM13 15.1777C12.6931 15.1777 12.4358 15.0739 12.2281 14.8663C12.0205 14.6586 11.9167 14.4013 11.9167 14.0944C11.9167 13.7875 12.0205 13.5302 12.2281 13.3225C12.4358 13.1149 12.6931 13.0111 13 13.0111C13.3069 13.0111 13.5642 13.1149 13.7719 13.3225C13.9795 13.5302 14.0833 13.7875 14.0833 14.0944C14.0833 14.4013 13.9795 14.6586 13.7719 14.8663C13.5642 15.0739 13.3069 15.1777 13 15.1777ZM8.66667 15.1777C8.35972 15.1777 8.10243 15.0739 7.89479 14.8663C7.68715 14.6586 7.58333 14.4013 7.58333 14.0944C7.58333 13.7875 7.68715 13.5302 7.89479 13.3225C8.10243 13.1149 8.35972 13.0111 8.66667 13.0111C8.97361 13.0111 9.2309 13.1149 9.43854 13.3225C9.64618 13.5302 9.75 13.7875 9.75 14.0944C9.75 14.4013 9.64618 14.6586 9.43854 14.8663C9.2309 15.0739 8.97361 15.1777 8.66667 15.1777ZM17.3333 15.1777C17.0264 15.1777 16.7691 15.0739 16.5615 14.8663C16.3538 14.6586 16.25 14.4013 16.25 14.0944C16.25 13.7875 16.3538 13.5302 16.5615 13.3225C16.7691 13.1149 17.0264 13.0111 17.3333 13.0111C17.6403 13.0111 17.8976 13.1149 18.1052 13.3225C18.3128 13.5302 18.4167 13.7875 18.4167 14.0944C18.4167 14.4013 18.3128 14.6586 18.1052 14.8663C17.8976 15.0739 17.6403 15.1777 17.3333 15.1777ZM13 19.5111C12.6931 19.5111 12.4358 19.4072 12.2281 19.1996C12.0205 18.992 11.9167 18.7347 11.9167 18.4277C11.9167 18.1208 12.0205 17.8635 12.2281 17.6559C12.4358 17.4482 12.6931 17.3444 13 17.3444C13.3069 17.3444 13.5642 17.4482 13.7719 17.6559C13.9795 17.8635 14.0833 18.1208 14.0833 18.4277C14.0833 18.7347 13.9795 18.992 13.7719 19.1996C13.5642 19.4072 13.3069 19.5111 13 19.5111ZM8.66667 19.5111C8.35972 19.5111 8.10243 19.4072 7.89479 19.1996C7.68715 18.992 7.58333 18.7347 7.58333 18.4277C7.58333 18.1208 7.68715 17.8635 7.89479 17.6559C8.10243 17.4482 8.35972 17.3444 8.66667 17.3444C8.97361 17.3444 9.2309 17.4482 9.43854 17.6559C9.64618 17.8635 9.75 18.1208 9.75 18.4277C9.75 18.7347 9.64618 18.992 9.43854 19.1996C9.2309 19.4072 8.97361 19.5111 8.66667 19.5111ZM17.3333 19.5111C17.0264 19.5111 16.7691 19.4072 16.5615 19.1996C16.3538 18.992 16.25 18.7347 16.25 18.4277C16.25 18.1208 16.3538 17.8635 16.5615 17.6559C16.7691 17.4482 17.0264 17.3444 17.3333 17.3444C17.6403 17.3444 17.8976 17.4482 18.1052 17.6559C18.3128 17.8635 18.4167 18.1208 18.4167 18.4277C18.4167 18.7347 18.3128 18.992 18.1052 19.1996C17.8976 19.4072 17.6403 19.5111 17.3333 19.5111Z" fill="white"/>
</g>
</g>
</svg>
