<svg width="60" height="52" viewBox="0 0 60 52" fill="none" xmlns="http://www.w3.org/2000/svg">
<path d="M1.07409 50.4103C1.75745 51.084 2.70211 51.4704 3.66766 51.4704H55.4571C56.4218 51.4704 57.3673 51.084 58.0507 50.4095C58.7324 49.7358 59.1247 48.8035 59.1247 47.8505V17.9187H0V47.8512C0 48.8042 0.392332 49.7366 1.07409 50.4103ZM47.2213 20.3468H55.6838V27.778H47.2213V20.3468ZM47.2213 29.8332H55.6838V37.2643H47.2213V29.8332ZM36.2746 20.3468H44.7395V27.778H36.2746V20.3468ZM36.2746 29.8332H44.7395V37.2643H36.2746V29.8332ZM36.2746 39.3195H44.7395V46.7499H36.2746V39.3195ZM25.3303 20.3468H33.7944V27.778H25.3303V20.3468ZM25.3303 29.8332H33.7944V37.2643H25.3303V29.8332ZM25.3303 39.3195H33.7944V46.7499H25.3303V39.3195ZM14.386 20.3468H22.8509V27.778H14.386V20.3468ZM14.386 29.8332H22.8509V37.2643H14.386V29.8332ZM14.386 39.3195H22.8509V46.7499H14.386V39.3195ZM3.44175 29.8332H11.9058V37.2643H3.44175V29.8332ZM3.44175 39.3195H11.9058V46.7499H3.44175V39.3195Z" fill="white"/>
<path d="M59.1247 14.469H0V16.6115H59.1247V14.469Z" fill="white"/>
<path d="M6.08034 4.16846H3.66766C2.70211 4.16846 1.75745 4.5541 1.07409 5.22778C0.392332 5.90147 0 6.83384 0 7.78604V11.9916H59.1247V7.78604C59.1247 6.83384 58.7324 5.90147 58.0499 5.22778C57.3681 4.5541 56.4226 4.16846 55.4571 4.16846H49.2369V8.90647C49.2369 9.79043 48.5101 10.507 47.6145 10.507H44.196C43.2996 10.507 42.5753 9.78964 42.5753 8.90647V4.16846H16.5519V8.90647C16.5519 9.79043 15.8251 10.507 14.9303 10.507H11.5103C10.6139 10.507 9.8895 9.78964 9.8895 8.90647V4.16846H6.08034Z" fill="white"/>
<path d="M59.1247 11.9915H0V14.4688H59.1247V11.9915Z" fill="white"/>
<path d="M11.5117 8.90549H14.9318V4.16827V0H11.5117V4.16827V8.90549Z" fill="white"/>
<path d="M44.1953 8.90549H47.6137V4.16827V0H44.1953V4.16827V8.90549Z" fill="white"/>
</svg>
