<svg width="27" height="27" viewBox="0 0 27 27" fill="none" xmlns="http://www.w3.org/2000/svg">
<path d="M5.39052 1.35244V2.68108L8.09103 2.68904V1.35249C8.08332 -0.461953 5.38413 -0.439657 5.39052 1.35244ZM18.8958 1.35244V2.6969H8.09103V6.75401C8.00215 8.59469 5.31974 8.49921 5.39052 6.75401V2.6969H1.34501C0.59931 2.69987 -0.00282418 3.3065 2.29398e-05 4.05191V9.45347H26.9999V4.05191C27.0028 3.30238 26.3942 2.69404 25.6444 2.6969H21.5989V1.35244C21.5693 -0.467436 18.8707 -0.434056 18.8958 1.35244ZM18.8958 2.70481H21.5989V6.75401C21.5698 8.56275 18.8715 8.53055 18.8958 6.75401V2.70481ZM2.29398e-05 12.1424V25.6424C-0.00428345 26.3888 0.598274 26.997 1.34501 27C9.44481 27 17.5446 27 25.6444 27C26.3953 27.0028 27.0043 26.3929 26.9999 25.6424V12.1424H2.29398e-05ZM5.39052 13.4974H8.09103C9.88982 13.4824 9.90701 16.1813 8.09103 16.1995H5.39052C3.61144 16.2206 3.58291 13.5227 5.39052 13.4974ZM12.1497 13.4974H14.8502C16.6501 13.5023 16.644 16.2016 14.8502 16.1995H12.1497C10.3374 16.1816 10.3543 13.4827 12.1497 13.4974ZM18.8958 13.4974H21.5989C23.3793 13.4634 23.4193 16.1596 21.5989 16.1995H18.8958C17.0905 16.1816 17.1073 13.4827 18.8958 13.4974ZM5.39052 18.899H8.09103C9.88279 18.8692 9.91409 21.5667 8.09103 21.5984H5.39052C3.59772 21.5959 3.59668 18.8963 5.39052 18.899ZM12.1497 18.899H14.8502C16.6635 18.9252 16.6307 21.6226 14.8502 21.5984H12.1497C10.3775 21.6475 10.3139 18.9558 12.1497 18.899ZM18.8958 18.899H21.5989C23.416 18.9258 23.3825 21.6231 21.5989 21.5984H18.8958C17.0833 21.5667 17.1145 18.8692 18.8958 18.899Z" fill="#324864"/>
</svg>
