<svg width="14" height="15" viewBox="0 0 14 15" fill="none" xmlns="http://www.w3.org/2000/svg">
<path d="M12.1875 1.21618L8.93466 1.21619V0.406345C8.93466 0.181839 8.75286 0 8.52841 0C8.30395 0 8.12216 0.181839 8.12216 0.406345V1.21599H4.87216V0.406345C4.87216 0.181839 4.69036 0 4.46591 0C4.24145 0 4.05966 0.181839 4.05966 0.406345V1.21599H0.8125C0.363797 1.21599 0 1.57987 0 2.02868V12.1873C0 12.6361 0.363797 13 0.8125 13H12.1875C12.6362 13 13 12.6361 13 12.1873V2.02868C13 1.58006 12.6362 1.21618 12.1875 1.21618ZM12.1875 12.1873H0.8125V2.02868H4.05966V2.43807C4.05966 2.66256 4.24145 2.84442 4.46591 2.84442C4.69036 2.84442 4.87216 2.66256 4.87216 2.43807V2.02888H8.12216V2.43827C8.12216 2.66278 8.30395 2.84462 8.52841 2.84462C8.75286 2.84462 8.93466 2.66278 8.93466 2.43827V2.02888H12.1875V12.1873ZM9.34375 6.49867H10.1562C10.3805 6.49867 10.5625 6.31662 10.5625 6.09232V5.27963C10.5625 5.05533 10.3805 4.87329 10.1562 4.87329H9.34375C9.1195 4.87329 8.9375 5.05533 8.9375 5.27963V6.09232C8.9375 6.31662 9.1195 6.49867 9.34375 6.49867ZM9.34375 9.74923H10.1562C10.3805 9.74923 10.5625 9.56739 10.5625 9.34288V8.53019C10.5625 8.30589 10.3805 8.12384 10.1562 8.12384H9.34375C9.1195 8.12384 8.9375 8.30589 8.9375 8.53019V9.34288C8.9375 9.56759 9.1195 9.74923 9.34375 9.74923ZM6.90625 8.12384H6.09375C5.8695 8.12384 5.6875 8.30589 5.6875 8.53019V9.34288C5.6875 9.56739 5.8695 9.74923 6.09375 9.74923H6.90625C7.1305 9.74923 7.3125 9.56739 7.3125 9.34288V8.53019C7.3125 8.30609 7.1305 8.12384 6.90625 8.12384ZM6.90625 4.87329H6.09375C5.8695 4.87329 5.6875 5.05533 5.6875 5.27963V6.09232C5.6875 6.31662 5.8695 6.49867 6.09375 6.49867H6.90625C7.1305 6.49867 7.3125 6.31662 7.3125 6.09232V5.27963C7.3125 5.05512 7.1305 4.87329 6.90625 4.87329ZM3.65625 4.87329H2.84375C2.6195 4.87329 2.4375 5.05533 2.4375 5.27963V6.09232C2.4375 6.31662 2.6195 6.49867 2.84375 6.49867H3.65625C3.8805 6.49867 4.0625 6.31662 4.0625 6.09232V5.27963C4.0625 5.05512 3.8805 4.87329 3.65625 4.87329ZM3.65625 8.12384H2.84375C2.6195 8.12384 2.4375 8.30589 2.4375 8.53019V9.34288C2.4375 9.56739 2.6195 9.74923 2.84375 9.74923H3.65625C3.8805 9.74923 4.0625 9.56739 4.0625 9.34288V8.53019C4.0625 8.30609 3.8805 8.12384 3.65625 8.12384Z" fill="black"/>
<circle cx="10.5" cy="11.5" r="3.3" fill="white" stroke="black" stroke-width="0.4"/>
<path d="M9.10156 12.0008L9.90156 12.8008L11.9016 10.8008" stroke="black" stroke-linecap="round" stroke-linejoin="round"/>
</svg>
