<svg width="18" height="22" viewBox="0 0 18 22" fill="none" xmlns="http://www.w3.org/2000/svg">
<path d="M1 20.5975H16.5M2 12.5975H14M8 20.5975V16.8475M14.01 20.5875L2.01 20.6075L2 5.6675C2 4.9975 2.34 4.3775 2.89 4.0075L6.89 1.3375C7.56 0.8875 8.44 0.8875 9.11 1.3375L13.11 4.0075C13.67 4.3775 14 4.9975 14 5.6675L14.01 20.5875Z" stroke="#324864" stroke-width="1.5" stroke-miterlimit="10" stroke-linecap="round" stroke-linejoin="round"/>
<path d="M8 9.09766C8.39782 9.09766 8.77936 8.93962 9.06066 8.65832C9.34196 8.37701 9.5 7.99548 9.5 7.59766C9.5 7.19983 9.34196 6.8183 9.06066 6.537C8.77936 6.25569 8.39782 6.09766 8 6.09766C7.60218 6.09766 7.22064 6.25569 6.93934 6.537C6.65804 6.8183 6.5 7.19983 6.5 7.59766C6.5 7.99548 6.65804 8.37701 6.93934 8.65832C7.22064 8.93962 7.60218 9.09766 8 9.09766Z" stroke="#324864" stroke-width="1.5" stroke-miterlimit="10" stroke-linecap="round" stroke-linejoin="round"/>
</svg>
