<svg width="26" height="26" viewBox="0 0 26 26" fill="none" xmlns="http://www.w3.org/2000/svg">
<mask id="mask0_1697_7049" style="mask-type:alpha" maskUnits="userSpaceOnUse" x="0" y="0" width="26" height="26">
<rect width="26" height="26" fill="#D9D9D9"/>
</mask>
<g mask="url(#mask0_1697_7049)">
<path d="M4.32682 23.8444C3.73099 23.8444 3.22092 23.6322 2.79661 23.2079C2.37231 22.7836 2.16016 22.2736 2.16016 21.6777V9.76107C2.16016 9.16523 2.37231 8.65516 2.79661 8.23086C3.22092 7.80655 3.73099 7.5944 4.32682 7.5944H9.74349V4.3444C9.74349 3.74857 9.95564 3.2385 10.3799 2.81419C10.8043 2.38989 11.3143 2.17773 11.9102 2.17773H14.0768C14.6727 2.17773 15.1827 2.38989 15.607 2.81419C16.0313 3.2385 16.2435 3.74857 16.2435 4.3444V7.5944H21.6602C22.256 7.5944 22.7661 7.80655 23.1904 8.23086C23.6147 8.65516 23.8268 9.16523 23.8268 9.76107V21.6777C23.8268 22.2736 23.6147 22.7836 23.1904 23.2079C22.7661 23.6322 22.256 23.8444 21.6602 23.8444H4.32682ZM4.32682 21.6777H21.6602V9.76107H16.2435C16.2435 10.3569 16.0313 10.867 15.607 11.2913C15.1827 11.7156 14.6727 11.9277 14.0768 11.9277H11.9102C11.3143 11.9277 10.8043 11.7156 10.3799 11.2913C9.95564 10.867 9.74349 10.3569 9.74349 9.76107H4.32682V21.6777ZM6.49349 19.5111H12.9935V19.0236C12.9935 18.7166 12.9077 18.4322 12.7362 18.1704C12.5647 17.9086 12.3254 17.7055 12.0185 17.5611C11.6574 17.3986 11.2918 17.2767 10.9216 17.1954C10.5515 17.1142 10.1588 17.0736 9.74349 17.0736C9.32821 17.0736 8.9355 17.1142 8.56536 17.1954C8.19522 17.2767 7.8296 17.3986 7.46849 17.5611C7.16154 17.7055 6.92231 17.9086 6.75078 18.1704C6.57925 18.4322 6.49349 18.7166 6.49349 19.0236V19.5111ZM15.1602 17.8861H19.4935V16.2611H15.1602V17.8861ZM9.74349 16.2611C10.1949 16.2611 10.5786 16.1031 10.8945 15.7871C11.2105 15.4711 11.3685 15.0875 11.3685 14.6361C11.3685 14.1847 11.2105 13.801 10.8945 13.485C10.5786 13.1691 10.1949 13.0111 9.74349 13.0111C9.2921 13.0111 8.90842 13.1691 8.59245 13.485C8.27647 13.801 8.11849 14.1847 8.11849 14.6361C8.11849 15.0875 8.27647 15.4711 8.59245 15.7871C8.90842 16.1031 9.2921 16.2611 9.74349 16.2611ZM15.1602 14.6361H19.4935V13.0111H15.1602V14.6361ZM11.9102 9.76107H14.0768V4.3444H11.9102V9.76107Z" fill="white"/>
</g>
</svg>
