<svg width="39" height="34" viewBox="0 0 39 34" fill="none" xmlns="http://www.w3.org/2000/svg">
<path d="M37.7955 3.69463C37.3639 3.5737 36.8907 3.49526 36.4012 3.43709V1.4885C36.4012 0.885818 35.9754 0.372035 35.3891 0.267448C32.9476 -0.17247 24.7892 -0.971253 19.5007 6.37794C14.2114 -0.970599 6.053 -0.171817 3.61217 0.267448C3.0265 0.372035 2.60009 0.885818 2.60009 1.4885V3.43709C2.11062 3.49526 1.63805 3.5737 1.20579 3.69528C0.495316 3.89465 0 4.55028 0 5.28893V29.5322C0 30.0211 0.213207 30.482 0.584369 30.7977C0.952932 31.1108 1.43655 31.2448 1.90911 31.1618C11.8973 29.4511 17.3003 32.7038 18.7174 33.7431C18.9514 33.9144 19.2257 34.0006 19.5 34C19.7743 34 20.0486 33.9144 20.2826 33.7431C21.6997 32.7044 27.1001 29.4505 37.0909 31.1618C37.5667 31.2454 38.0471 31.1101 38.4156 30.7977C38.7868 30.4826 39 30.0211 39 29.5322V5.28893C39 4.54963 38.504 3.894 37.7942 3.69463H37.7955ZM35.1012 1.54406V25.9854C32.6954 25.6056 25.2917 25.0611 20.1507 31.3075V7.73691C24.9407 0.436094 32.7175 1.12702 35.1012 1.54406ZM3.90013 1.54406C6.28246 1.12833 14.0613 0.436748 18.8506 7.73757V31.3088C15.0422 26.6809 9.99213 25.7775 6.65102 25.7775C5.48228 25.7775 4.5235 25.8873 3.90013 25.9854V1.54406ZM1.69071 29.8734C1.4853 29.9041 1.30004 29.7394 1.30004 29.5328V5.28893C1.30004 5.13139 1.40275 4.99674 1.5555 4.95425C1.79796 4.88627 2.15612 4.80587 2.60009 4.74508V26.0632C2.60009 26.4299 2.75869 26.775 3.0356 27.011C3.31056 27.2456 3.67522 27.3457 4.02753 27.2881C6.05625 26.9561 12.4083 26.4109 17.1313 31.333C14.2836 30.0094 9.20041 28.5844 1.69071 29.8734ZM37.7013 29.5328C37.7013 29.7407 37.5154 29.9048 37.3099 29.8734C29.8197 28.5876 24.7444 30.0022 21.8797 31.3226C26.6015 26.4129 32.9457 26.958 34.9718 27.2881C35.3306 27.3496 35.6907 27.2469 35.965 27.0116C36.242 26.7757 36.4006 26.4299 36.4006 26.0638V4.74508C36.8445 4.80587 37.2027 4.88627 37.4451 4.9536C37.5973 4.99608 37.7006 5.13074 37.7006 5.28893V29.5322L37.7013 29.5328Z" fill="black"/>
</svg>
