<svg width="42" height="46" viewBox="0 0 42 46" fill="none" xmlns="http://www.w3.org/2000/svg">
<path d="M0.217239 36.3332C0.266801 37.0469 0.583993 37.7507 1.03004 38.39C2.1303 39.9611 3.51306 41.899 5.08911 43.0191C6.07042 43.7179 8.1966 45.1155 9.46537 45.0015C10.9225 42.3153 13.0734 39.9165 14.9072 37.5227C17.5141 34.1228 20.3242 30.8815 23.2335 27.7344C23.6845 27.2487 24.1454 26.7679 24.6063 26.2822C23.2632 30.3512 19.3429 38.0728 26.222 38.851C28.1847 39.074 29.8301 37.2452 29.5773 35.3271C29.3741 33.8007 28.7348 32.4724 27.9963 31.1244C27.5106 30.2372 26.2815 28.6017 25.8701 27.1892C26.9902 28.8198 28.4969 29.9299 30.1076 31.169C32.209 32.7946 35.599 35.575 34.4145 38.5932C34.2757 38.9501 34.8308 39.4804 35.1431 39.1681C36.8331 37.5227 35.1728 34.7324 33.9189 33.2803C32.6006 31.7538 30.8659 30.6287 29.2651 29.3848C30.3753 29.7614 31.9464 29.8952 32.1743 28.4332C32.3825 27.0901 30.8461 25.7024 29.8202 25.1076C28.5861 24.3939 27.5007 24.2849 26.3162 24.4931C28.1202 22.6345 29.9639 20.8107 31.8571 19.0512C32.6848 18.2781 33.5868 17.5644 34.5136 16.8656C36.0104 15.6563 37.5369 14.4966 39.0584 13.317C39.8415 12.6182 40.57 11.8748 41.2094 11.057C41.2292 11.0025 41.254 10.948 41.2738 10.8835C41.7744 9.19845 39.6829 6.82447 38.7115 5.70438C37.9928 4.88167 30.5834 -2.0123 30.0135 0.852337C29.6467 2.69602 33.4679 5.08982 34.6276 6.03149C34.7862 6.16035 34.9052 5.93237 34.7664 5.81342C33.4927 4.72803 32.1297 3.58316 31.2079 2.17067C30.5487 1.16457 31.6193 1.15962 32.2784 1.58584C32.9227 2.00216 33.5769 2.41352 34.1915 2.87939C35.5395 3.89044 36.9322 4.96592 37.9234 6.34868C38.4785 7.12184 42.0569 11.9739 38.0721 10.0311C37.3931 9.69902 36.7042 9.38183 36.0401 9.01508C33.8049 7.78596 32.3478 5.90263 30.7371 4.06886C30.519 3.87557 30.3257 3.64759 30.1473 3.4097C29.9887 3.24119 29.5079 2.54733 29.3444 2.37882C29.3394 2.36891 29.2701 2.73566 29.2601 2.73071C29.2601 2.70593 28.8091 3.94496 28.4919 4.65864C28.3036 5.10965 28.0905 5.56066 27.8526 6.01166C27.5899 6.53701 27.3124 7.06236 27.0348 7.58771C26.9952 7.6571 23.7489 14.5858 20.4878 17.3067C20.2945 17.5545 20.1012 17.8023 19.903 18.0451C19.8038 18.1641 19.7047 18.283 19.6056 18.402C19.5858 18.3574 19.556 18.3128 19.5362 18.2632C19.5164 18.2136 19.4867 18.169 19.4569 18.1244C22.2869 14.5164 24.6807 10.5862 26.6086 6.4032C26.6235 6.37346 26.6136 6.34372 26.6037 6.31399C26.3112 6.84925 26.0585 7.43407 25.7661 7.93464C25.0722 9.13402 24.413 10.3284 23.6548 11.4882C22.2175 13.6887 20.6464 15.7802 18.9117 17.7478C18.7135 17.6982 18.5053 17.723 18.3319 17.8568C17.306 18.6547 15.7993 19.9582 15.3929 21.1923C15.383 21.2171 15.3879 21.2468 15.383 21.2716C15.264 21.3757 15.1451 21.4847 15.0261 21.5838C13.4104 23.1648 11.6758 24.6269 9.84204 25.9551C9.57936 26.1682 9.31173 26.3813 9.02923 26.5845C7.44823 27.7096 5.88209 28.8544 4.28622 29.9597C3.56758 30.4553 2.73991 31.1838 1.85276 31.5109C1.91223 31.5308 1.97171 31.5407 2.03118 31.5258C4.77192 30.8369 7.47301 28.9585 9.75778 27.3379C11.9137 25.8064 14.0101 24.161 15.8687 22.2727C15.9182 22.3223 15.9629 22.3718 16.0174 22.4214C15.1401 23.3135 14.2233 24.166 13.2618 24.9639C11.091 26.763 8.68726 28.2696 6.54126 30.0885C5.56985 30.7378 4.59845 31.3672 3.62705 31.9768C2.92328 32.4179 0.375835 33.3298 0.192459 34.4251C0.0735116 35.0595 0.0883801 35.7088 0.217239 36.3332ZM26.341 25.4843C27.5156 25.5091 28.6357 25.5983 29.6467 26.421C29.7508 26.5052 31.7432 28.3886 30.4496 28.3638C29.6913 28.3489 28.9727 28.0169 28.373 27.5708C27.5899 26.981 27.0001 26.1881 26.341 25.4843ZM24.869 27.4172C25.4489 29.5235 27.6246 32.4724 27.9914 33.424C28.819 35.5601 28.1103 38.4941 25.2457 37.5425C23.0154 36.8041 23.1889 34.782 23.402 32.9036C23.625 30.9806 24.3288 29.241 24.869 27.4172ZM22.6933 21.5342C21.9994 20.9048 21.3502 19.9186 20.5522 19.304C20.8347 18.9571 21.1222 18.62 21.3948 18.2632C23.3574 15.7455 25.092 13.0345 26.6532 10.2541C27.6147 8.53433 29.2304 6.10583 29.5823 3.94496C30.7718 5.93237 32.5659 7.62736 34.2807 9.12907C35.5693 10.2591 36.7835 11.3147 38.424 11.8896C38.5479 11.9342 38.6669 11.9689 38.7908 11.9987C38.3497 12.2217 36.055 14.0009 35.262 14.5362C33.7851 15.5373 32.5163 16.816 31.2129 18.0303C29.28 19.8393 27.4512 21.7325 25.6917 23.6951C24.5518 23.3383 23.5556 22.3124 22.6933 21.5342ZM23.5408 25.6974C17.8016 24.8301 15.9827 21.113 15.9827 21.113C18.5846 24.5823 23.5408 25.6974 23.5408 25.6974ZM1.91719 34.6432C1.9618 34.6184 2.0064 34.6135 2.05596 34.6184C2.11048 34.5738 2.165 34.5342 2.22943 34.4995C2.58627 34.2963 3.01745 34.0832 3.35447 33.8552C4.66288 32.9631 5.91678 32.0363 7.16077 31.05C7.55726 30.7378 7.95375 30.4354 8.3552 30.1331C11.5073 28.1953 14.3818 25.8659 16.9888 23.259C18.1435 24.161 19.5214 24.9688 20.7158 25.4C21.479 25.6776 22.5446 26.1781 23.4813 26.2376C23.4714 26.2525 23.4565 26.2624 23.4466 26.2773C19.3974 31.0797 15.1302 35.7831 11.3537 40.8185C10.8927 41.6115 10.2484 42.6721 9.70822 43.1777C9.62892 43.2966 9.51493 43.3759 9.3712 43.4155C9.25721 43.4651 9.15313 43.48 9.06392 43.4453C6.59577 43.2916 -0.64017 36.1697 1.91719 34.6432Z" fill="#324864"/>
<path d="M29.8613 5.12939C29.8613 5.12939 25.4404 15.4976 21.1484 19.2544C21.1484 19.2544 22.1595 20.0275 22.4271 20.7808C22.6947 21.5342 25.5049 23.135 25.5049 23.135C25.5049 23.135 33.8659 14.0058 37.9993 12.2315C37.9943 12.2315 32.2551 9.55026 29.8613 5.12939Z" fill="#324864"/>
<path d="M22.9584 26.4409C22.9584 26.4409 14.2009 36.5613 11.8914 39.3268C9.57684 42.0923 9.82465 43.1678 8.87803 42.8803C7.92645 42.5929 3.05458 39.4953 1.93945 35.7336C1.93945 35.7336 2.10301 35.238 2.39542 35.1141C2.68287 34.9902 13.2146 27.665 16.9763 23.8687C16.9714 23.8687 18.8696 25.6975 22.9584 26.4409Z" fill="#324864"/>
</svg>
