<svg width="26" height="26" viewBox="0 0 26 26" fill="none" xmlns="http://www.w3.org/2000/svg">
<mask id="mask0_1697_7018" style="mask-type:alpha" maskUnits="userSpaceOnUse" x="0" y="0" width="26" height="26">
<rect width="26" height="26" fill="#D9D9D9"/>
</mask>
<g mask="url(#mask0_1697_7018)">
<path d="M16.5685 18.1027L18.0852 16.5861L14.0768 12.5777V7.5944H11.9102V13.4444L16.5685 18.1027ZM12.9935 23.8444C11.4949 23.8444 10.0865 23.56 8.76849 22.9913C7.45043 22.4225 6.30391 21.6506 5.32891 20.6756C4.35391 19.7006 3.58203 18.5541 3.01328 17.2361C2.44453 15.918 2.16016 14.5097 2.16016 13.0111C2.16016 11.5125 2.44453 10.1041 3.01328 8.78607C3.58203 7.46801 4.35391 6.32148 5.32891 5.34648C6.30391 4.37148 7.45043 3.59961 8.76849 3.03086C10.0865 2.46211 11.4949 2.17773 12.9935 2.17773C14.4921 2.17773 15.9004 2.46211 17.2185 3.03086C18.5365 3.59961 19.6831 4.37148 20.6581 5.34648C21.6331 6.32148 22.4049 7.46801 22.9737 8.78607C23.5424 10.1041 23.8268 11.5125 23.8268 13.0111C23.8268 14.5097 23.5424 15.918 22.9737 17.2361C22.4049 18.5541 21.6331 19.7006 20.6581 20.6756C19.6831 21.6506 18.5365 22.4225 17.2185 22.9913C15.9004 23.56 14.4921 23.8444 12.9935 23.8444ZM12.9935 21.6777C15.3949 21.6777 17.4397 20.8336 19.1279 19.1454C20.8161 17.4572 21.6602 15.4125 21.6602 13.0111C21.6602 10.6097 20.8161 8.56489 19.1279 6.87669C17.4397 5.1885 15.3949 4.3444 12.9935 4.3444C10.5921 4.3444 8.54731 5.1885 6.85911 6.87669C5.17092 8.56489 4.32682 10.6097 4.32682 13.0111C4.32682 15.4125 5.17092 17.4572 6.85911 19.1454C8.54731 20.8336 10.5921 21.6777 12.9935 21.6777Z" fill="white"/>
</g>
</svg>
