<svg width="71" height="71" viewBox="0 0 71 71" fill="none" xmlns="http://www.w3.org/2000/svg">
<path d="M43.4371 35.1682L68.6238 10.0401C69.7267 8.93711 70.3464 7.44116 70.3464 5.88134C70.3464 4.32151 69.7267 2.82557 68.6238 1.7226C67.5208 0.619639 66.0249 0 64.465 0C62.9052 0 61.4093 0.619639 60.3063 1.7226L35.1782 26.9093L10.0501 1.7226C8.9471 0.619639 7.45116 -1.16216e-08 5.89133 0C4.33151 1.16216e-08 2.83556 0.619639 1.7326 1.7226C0.629636 2.82557 0.0099962 4.32151 0.00999619 5.88134C0.00999618 7.44116 0.629636 8.93711 1.7326 10.0401L26.9193 35.1682L1.7326 60.2963C1.1836 60.8408 0.747845 61.4886 0.450474 62.2024C0.153103 62.9162 0 63.6818 0 64.455C0 65.2283 0.153103 65.9939 0.450474 66.7076C0.747845 67.4214 1.1836 68.0692 1.7326 68.6138C2.27712 69.1628 2.92495 69.5985 3.63872 69.8959C4.3525 70.1933 5.11809 70.3464 5.89133 70.3464C6.66458 70.3464 7.43017 70.1933 8.14394 69.8959C8.85772 69.5985 9.50555 69.1628 10.0501 68.6138L35.1782 43.4271L60.3063 68.6138C60.8508 69.1628 61.4987 69.5985 62.2124 69.8959C62.9262 70.1933 63.6918 70.3464 64.465 70.3464C65.2383 70.3464 66.0039 70.1933 66.7176 69.8959C67.4314 69.5985 68.0792 69.1628 68.6238 68.6138C69.1728 68.0692 69.6085 67.4214 69.9059 66.7076C70.2033 65.9939 70.3564 65.2283 70.3564 64.455C70.3564 63.6818 70.2033 62.9162 69.9059 62.2024C69.6085 61.4886 69.1728 60.8408 68.6238 60.2963L43.4371 35.1682Z" fill="#231F20"/>
</svg>
