<svg width="47" height="31" viewBox="0 0 47 31" fill="none" xmlns="http://www.w3.org/2000/svg">
<path d="M45.937 17.2444V8.88037L44.6602 9.31315V17.2444H45.937Z" fill="#AAD4C8"/>
<path d="M38.2578 13.8562L23.9499 18.708C23.8187 18.7533 23.6798 18.7753 23.5421 18.7753C23.4038 18.7753 23.2644 18.7533 23.1332 18.708L8.82588 13.8562V25.8554H8.84078L8.80859 26.0205C8.80859 27.4482 15.4058 30.635 23.5338 30.635C31.6612 30.635 38.2411 27.4482 38.2411 26.0205L38.2077 25.8554H38.2584V13.8562H38.2578Z" fill="#324864"/>
<path d="M8.82405 11.4848L23.5403 16.4749L38.2566 11.4848L44.6594 9.31319L45.9363 8.88041L46.6087 8.6521L23.5403 0.883545L0.470703 8.6521L8.82405 11.4848Z" fill="#324864"/>
<path d="M43.7891 19.2036V24.087C43.7891 24.9203 44.4639 25.5951 45.2978 25.5951C46.1312 25.5951 46.806 24.9197 46.806 24.087V19.2036C46.806 18.7911 46.6397 18.4173 46.372 18.1455H44.2242C43.956 18.4173 43.7891 18.7911 43.7891 19.2036Z" fill="#AAD4C8"/>
<path d="M44.0332 17.2446V18.146H44.2258H46.3735H46.5649V17.2446H45.9378H44.6609H44.0332Z" fill="#82BFAB"/>
</svg>
