<svg width="98" height="82" viewBox="0 0 98 82" fill="none" xmlns="http://www.w3.org/2000/svg">
<path d="M82.5437 28.6262H73.2344V31.3156H82.5437V28.6262Z" fill="#FEFEFE"/>
<path d="M71.165 28.6262H67.2344V31.3156H71.165V28.6262Z" fill="#FEFEFE"/>
<path d="M82.5437 49.3135H73.2344V52.0028H82.5437V49.3135Z" fill="#FEFEFE"/>
<path d="M71.165 38.9705H67.2344V41.6598H71.165V38.9705Z" fill="#FEFEFE"/>
<path d="M7.24056 0.491699C3.2355 0.514455 0 3.7665 0 7.7695V12.0766H26.0474C28.563 12.0849 30.609 10.0513 30.6172 7.53573C30.6172 7.52332 30.6172 7.51091 30.6172 7.4985V0.491699H7.24056ZM8.55628 7.8026C7.73499 7.8026 7.07093 7.13647 7.07093 6.31725C7.07093 5.49803 7.73706 4.8319 8.55628 4.8319C9.3755 4.8319 10.0416 5.49803 10.0416 6.31725C10.0416 7.13647 9.3755 7.8026 8.55628 7.8026ZM15.3272 7.8026C14.506 7.8026 13.8419 7.13647 13.8419 6.31725C13.8419 5.49803 14.508 4.8319 15.3272 4.8319C16.1465 4.8319 16.8126 5.49803 16.8126 6.31725C16.8126 7.13647 16.1465 7.8026 15.3272 7.8026ZM23.5836 6.31725C23.5836 7.13647 22.9174 7.8026 22.0982 7.8026C21.2769 7.8026 20.6129 7.13854 20.6129 6.31725C20.6129 5.49596 21.2769 4.8319 22.0982 4.8319C22.9195 4.8319 23.5836 5.49596 23.5836 6.31725Z" fill="#FEFEFE"/>
<path d="M32.6871 7.49849C32.7057 9.20313 32.0561 10.8457 30.877 12.0766H53.0579C55.6066 12.0911 57.6877 10.0472 57.7188 7.49849V0.491699H32.6871V7.49849ZM52.0422 4.8319C52.8634 4.8319 53.5275 5.49803 53.5275 6.31725C53.5275 7.13647 52.8614 7.8026 52.0422 7.8026C51.2209 7.8026 50.5568 7.13647 50.5568 6.31725C50.5568 5.49803 51.2229 4.8319 52.0422 4.8319ZM45.2712 4.8319C46.0925 4.8319 46.7565 5.49803 46.7565 6.31725C46.7565 7.13647 46.0904 7.8026 45.2712 7.8026C44.4499 7.8026 43.7858 7.13647 43.7858 6.31725C43.7858 5.49803 44.452 4.8319 45.2712 4.8319ZM38.5002 4.8319C39.3215 4.8319 39.9856 5.49803 39.9856 6.31725C39.9856 7.13647 39.3195 7.8026 38.5002 7.8026C37.6789 7.8026 37.0149 7.13647 37.0149 6.31725C37.0149 5.49803 37.681 4.8319 38.5002 4.8319Z" fill="#FEFEFE"/>
<path d="M49.9449 26.9631C42.5161 20.8438 32.1103 19.8633 23.6699 24.4889L35.2693 42.1952L49.9428 26.9631H49.9449Z" fill="#FEFEFE"/>
<path d="M33.9493 71.6537C45.5466 71.6806 55.4331 63.2505 57.2371 51.7959H33.788C32.9067 51.7959 32.0833 51.3491 31.6034 50.6106L18.3614 30.397C8.59288 39.0008 7.64747 53.8936 16.2513 63.6622C20.7281 68.7451 27.1763 71.6578 33.9493 71.6537Z" fill="#FEFEFE"/>
<path d="M88.7499 38.9705H73.2344V41.6598H88.7499V38.9705Z" fill="#FEFEFE"/>
<path d="M0 74.7221C0 78.7272 3.2355 81.9772 7.24056 81.9999H89.9899C93.9949 81.9772 97.2284 78.7251 97.2304 74.7221V14.1455H0V74.7221ZM65.1651 27.5923C65.1651 27.0213 65.6285 26.5579 66.1994 26.5579H83.5768C84.1478 26.5579 84.6112 27.0213 84.6112 27.5923V32.3504C84.6112 32.9213 84.1478 33.3847 83.5768 33.3847H66.1994C65.6285 33.3847 65.1651 32.9213 65.1651 32.3504V27.5923ZM65.1651 37.9359C65.1651 37.365 65.6285 36.9016 66.1994 36.9016H89.783C90.354 36.9016 90.8174 37.365 90.8174 37.9359V42.694C90.8174 43.265 90.354 43.7284 89.783 43.7284H66.1994C65.6285 43.7284 65.1651 43.265 65.1651 42.694V37.9359ZM65.1651 48.2796C65.1651 47.7086 65.6285 47.2452 66.1994 47.2452H83.5768C84.1478 47.2452 84.6112 47.7086 84.6112 48.2796V53.0377C84.6112 53.6086 84.1478 54.072 83.5768 54.072H66.1994C65.6285 54.072 65.1651 53.6086 65.1651 53.0377V48.2796ZM65.1651 58.6232C65.1651 58.0523 65.6285 57.5889 66.1994 57.5889H87.7143C88.2852 57.5889 88.7486 58.0523 88.7486 58.6232V63.3813C88.7486 63.9523 88.2852 64.4157 87.7143 64.4157H66.1994C65.6285 64.4157 65.1651 63.9523 65.1651 63.3813V58.6232ZM55.1296 29.6279C55.4213 29.6362 55.6944 29.7665 55.8847 29.9879C59.7636 34.508 61.9503 40.2343 62.0723 46.1902C62.0847 46.7611 61.6296 47.2328 61.0586 47.2452C61.0524 47.2452 61.0442 47.2452 61.0379 47.2452H40.121C39.55 47.2452 39.0866 46.7818 39.0866 46.2109C39.0866 45.944 39.1901 45.6854 39.3763 45.493L54.3559 29.9444C54.5566 29.7334 54.838 29.6196 55.1296 29.6279ZM21.1962 23.9161C21.2583 23.6431 21.4279 23.4052 21.6658 23.2603C31.3392 17.3707 43.733 18.5374 52.1383 26.1255C52.5624 26.5083 52.5955 27.162 52.2148 27.5861C52.2065 27.5943 52.2003 27.6026 52.192 27.6109L35.8594 44.5641C35.6649 44.7669 35.396 44.8807 35.1147 44.8807C35.0816 44.8807 35.0505 44.8807 35.0174 44.8765C34.7051 44.8476 34.4216 44.6759 34.2479 44.4131L21.339 24.7085C21.1859 24.4747 21.1342 24.1871 21.1942 23.9141L21.1962 23.9161ZM8.45284 45.3048C9.19345 38.5193 12.6089 32.309 17.9421 28.0495C18.389 27.6916 19.0385 27.764 19.3964 28.2108C19.4171 28.2356 19.4357 28.2625 19.4544 28.2915L33.3335 49.4795C33.4328 49.6325 33.6045 49.7277 33.7886 49.7298H58.4169C58.9878 49.7298 59.4512 50.1932 59.4512 50.7641C59.4512 50.8014 59.4512 50.8386 59.445 50.8759C57.908 64.9577 45.2452 75.1255 31.1634 73.5864C17.0815 72.0493 6.9137 59.3866 8.45284 45.3048ZM3.72372 20.4634C3.72372 19.8924 4.18711 19.429 4.75808 19.429C5.32905 19.429 5.79245 19.8924 5.79245 20.4634V21.7667C5.79245 22.3377 5.32905 22.8011 4.75808 22.8011C4.18711 22.8011 3.72372 22.3377 3.72372 21.7667V20.4634ZM3.72372 25.6973C3.72372 25.1263 4.18711 24.6629 4.75808 24.6629C5.32905 24.6629 5.79245 25.1263 5.79245 25.6973V49.6946C5.79245 50.2656 5.32905 50.729 4.75808 50.729C4.18711 50.729 3.72372 50.2656 3.72372 49.6946V25.6973Z" fill="#FEFEFE"/>
<path d="M55.0374 32.218L42.5547 45.1766H59.961C59.6528 40.4619 57.9378 35.9479 55.0395 32.218H55.0374Z" fill="#FEFEFE"/>
<path d="M71.165 59.6575H67.2344V62.3468H71.165V59.6575Z" fill="#FEFEFE"/>
<path d="M71.165 49.3135H67.2344V52.0028H71.165V49.3135Z" fill="#FEFEFE"/>
<path d="M89.9897 0.491699H59.7862V7.4985C59.7862 9.28381 59.0269 10.8354 57.8809 12.0766H97.2302V7.7695C97.2302 3.76443 93.9947 0.514455 89.9897 0.491699Z" fill="#FEFEFE"/>
<path d="M86.6811 59.6575H73.2344V62.3468H86.6811V59.6575Z" fill="#FEFEFE"/>
</svg>
