<svg width="41" height="27" viewBox="0 0 41 27" fill="none" xmlns="http://www.w3.org/2000/svg">
<path d="M39.2592 14.6974V7.52441L38.1621 7.89557V14.6974H39.2592Z" fill="#AAD4C8"/>
<path d="M32.6597 11.7915L20.3609 15.9524C20.2481 15.9912 20.1287 16.0101 20.0104 16.0101C19.8915 16.0101 19.7716 15.9912 19.6589 15.9524L7.36056 11.7915V22.082H7.37337L7.3457 22.2236C7.3457 23.448 13.0165 26.181 20.0032 26.181C26.9894 26.181 32.6453 23.448 32.6453 22.2236L32.6166 22.082H32.6602V11.7915H32.6597Z" fill="#324864"/>
<path d="M7.36006 9.75816L20.0099 14.0376L32.6597 9.75816L38.1635 7.89576L39.261 7.52461L39.839 7.32881L20.0099 0.666504L0.179688 7.32881L7.36006 9.75816Z" fill="#324864"/>
<path d="M37.416 16.3779V20.5659C37.416 21.2806 37.9961 21.8593 38.7129 21.8593C39.4293 21.8593 40.0093 21.28 40.0093 20.5659V16.3779C40.0093 16.0241 39.8663 15.7036 39.6363 15.4705H37.7901C37.5595 15.7036 37.416 16.0241 37.416 16.3779Z" fill="#AAD4C8"/>
<path d="M37.625 14.6978V15.4707H37.7905H39.6367H39.8012V14.6978H39.2621H38.1646H37.625Z" fill="#82BFAB"/>
</svg>
