<svg width="23" height="25" viewBox="0 0 23 25" fill="none" xmlns="http://www.w3.org/2000/svg">
<path d="M21.7256 5.57162C17.9192 5.19257 14.0899 4.9973 10.2721 4.9973C8.00881 4.9973 5.74553 5.11216 3.48225 5.34189L1.15039 5.57162M7.43727 4.41149L7.68875 2.90676C7.87164 1.81554 8.00881 1 9.9406 1H12.9354C14.8672 1 15.0158 1.86149 15.1873 2.91824L15.4388 4.41149M19.268 9.20135L18.5251 20.7682C18.3993 22.5716 18.2964 23.973 15.1073 23.973H7.76876C4.5796 23.973 4.47672 22.5716 4.35099 20.7682L3.60799 9.20135M9.52909 17.6554H13.3355M8.58034 13.0608H14.2957" stroke="#0873CD" stroke-width="1.5" stroke-linecap="round" stroke-linejoin="round"/>
</svg>
