<svg width="27" height="27" viewBox="0 0 27 27" fill="none" xmlns="http://www.w3.org/2000/svg">
<path d="M18.5 1H8.5C3.5 1 1 3.5122 1 8.53661V24.8659C1 25.5568 1.5625 26.122 2.25 26.122H18.5C23.5 26.122 26 23.6098 26 18.5854V8.53661C26 3.5122 23.5 1 18.5 1Z" stroke="#626262" stroke-width="1.5" stroke-linecap="round" stroke-linejoin="round"/>
<path d="M14.639 8.33558L8.15146 14.8547C7.90146 15.106 7.66396 15.5958 7.61396 15.9475L7.26396 18.4346C7.13896 19.339 7.76396 19.9671 8.66396 19.8415L11.139 19.4898C11.489 19.4395 11.9765 19.2009 12.2265 18.9496L18.714 12.4305C19.8265 11.3125 20.364 10.0062 18.714 8.34814C17.064 6.67752 15.764 7.20509 14.639 8.33558Z" stroke="#626262" stroke-width="1.5" stroke-miterlimit="10" stroke-linecap="round" stroke-linejoin="round"/>
<path d="M13.7129 9.26514C13.9843 10.2388 14.5006 11.1259 15.2121 11.8409C15.9236 12.5559 16.8064 13.0748 17.7754 13.3475" stroke="#626262" stroke-width="1.5" stroke-miterlimit="10" stroke-linecap="round" stroke-linejoin="round"/>
</svg>
