<svg width="27" height="27" viewBox="0 0 27 27" fill="none" xmlns="http://www.w3.org/2000/svg">
<path d="M18.5 1H8.5C3.5 1 1 3.5122 1 8.53661V24.8659C1 25.5568 1.5625 26.122 2.25 26.122H18.5C23.5 26.122 26 23.6098 26 18.5854V8.53661C26 3.5122 23.5 1 18.5 1Z" stroke="#148A12" stroke-width="1.5" stroke-linecap="round" stroke-linejoin="round"/>
<path d="M14.6382 8.33539L8.15073 14.8546C7.90073 15.1058 7.66323 15.5957 7.61323 15.9474L7.26323 18.4344C7.13823 19.3388 7.76323 19.9669 8.66323 19.8413L11.1382 19.4896C11.4882 19.4393 11.9757 19.2007 12.2257 18.9494L18.7132 12.4303C19.8257 11.3124 20.3632 10.006 18.7132 8.34795C17.0632 6.67734 15.7632 7.2049 14.6382 8.33539Z" stroke="#148A12" stroke-width="1.5" stroke-miterlimit="10" stroke-linecap="round" stroke-linejoin="round"/>
<path d="M13.7124 9.26514C13.9838 10.2388 14.5001 11.1259 15.2116 11.8409C15.9232 12.5559 16.8059 13.0748 17.7749 13.3475" stroke="#148A12" stroke-width="1.5" stroke-miterlimit="10" stroke-linecap="round" stroke-linejoin="round"/>
</svg>
