<svg width="14" height="16" viewBox="0 0 14 16" fill="none" xmlns="http://www.w3.org/2000/svg">
<path d="M12.4444 1.60001H9.19333C8.86667 0.672008 8.01111 7.62939e-06 7 7.62939e-06C5.98889 7.62939e-06 5.13333 0.672008 4.80667 1.60001H1.55556C0.7 1.60001 0 2.32001 0 3.20001V14.4C0 15.28 0.7 16 1.55556 16H12.4444C13.3 16 14 15.28 14 14.4V3.20001C14 2.32001 13.3 1.60001 12.4444 1.60001ZM7 1.60001C7.42778 1.60001 7.77778 1.96001 7.77778 2.40001C7.77778 2.84001 7.42778 3.20001 7 3.20001C6.57222 3.20001 6.22222 2.84001 6.22222 2.40001C6.22222 1.96001 6.57222 1.60001 7 1.60001ZM5.44444 12.8L2.33333 9.60001L3.43 8.47201L5.44444 10.536L10.57 5.26401L11.6667 6.40001L5.44444 12.8Z" fill="white"/>
</svg>
