<svg width="16" height="19" viewBox="0 0 16 19" fill="none" xmlns="http://www.w3.org/2000/svg">
<path d="M11.6347 11.652L11.6347 11.552L11.5347 11.552L11.098 11.552H10.998L10.998 11.652L10.998 13.2832L9.36678 13.2832H9.26678L9.26678 13.3832V13.8199L9.26678 13.9199H9.36678L10.998 13.9199L10.998 15.5511L10.998 15.6511H11.098L11.5347 15.6511L11.6347 15.6511L11.6347 15.5511L11.6347 13.9199H13.2659H13.3659V13.8199V13.3832V13.2832H13.2659H11.6347L11.6347 11.652Z" fill="white" stroke="white" stroke-width="0.2"/>
<path fill-rule="evenodd" clip-rule="evenodd" d="M9.17581 1.62289H12.4207C13.2747 1.62289 13.9733 2.35319 13.9733 3.24577V8.69234C13.1845 8.24394 12.2747 7.98828 11.306 7.98828C8.2893 7.98828 5.84375 10.4679 5.84375 13.5267C5.84375 14.5079 6.09541 15.4296 6.53687 16.2289H1.55259C0.698666 16.2289 0 15.4986 0 14.606V3.24577C0 2.35319 0.698666 1.62289 1.55259 1.62289H4.79751C5.12355 0.681612 5.97748 0 6.98666 0C7.99584 0 8.84977 0.681612 9.17581 1.62289ZM7.76296 2.43433C7.76296 1.98804 7.41362 1.62289 6.98666 1.62289C6.5597 1.62289 6.21036 1.98804 6.21036 2.43433C6.21036 2.88062 6.5597 3.24577 6.98666 3.24577C7.41362 3.24577 7.76296 2.88062 7.76296 2.43433Z" fill="white"/>
<path d="M11.297 8.75391C8.70251 8.75391 6.60156 10.8889 6.60156 13.5195C6.60156 16.1501 8.70251 18.2851 11.297 18.2851C13.8961 18.2851 16.0018 16.1501 16.0018 13.5195C16.0018 10.8889 13.8961 8.75391 11.297 8.75391ZM11.3017 17.332C9.22423 17.332 7.54159 15.6259 7.54159 13.5195C7.54159 11.4131 9.22423 9.70703 11.3017 9.70703C13.3791 9.70703 15.0618 11.4131 15.0618 13.5195C15.0618 15.6259 13.3791 17.332 11.3017 17.332Z" fill="white"/>
</svg>
