<svg width="26" height="27" viewBox="0 0 26 27" fill="none" xmlns="http://www.w3.org/2000/svg">
<path d="M13.1265 24.0928C11.2993 25.5648 9.27469 26.2225 7.05265 26.066C4.8306 25.9095 3.03607 24.9828 1.66906 23.2859C0.302039 21.589 -0.221416 19.6384 0.0986906 17.4339C0.418797 15.2295 1.49244 13.3913 3.31961 11.9194L15.8318 1.83965C17.1425 0.783676 18.6139 0.313149 20.2457 0.428067C21.8775 0.542985 23.1837 1.20912 24.1644 2.42646C25.1451 3.64381 25.5179 5.06192 25.2828 6.68079C25.0478 8.29967 24.2748 9.63709 22.964 10.6931L11.6435 19.8128C10.8094 20.4848 9.88886 20.7853 8.88199 20.7144C7.87513 20.6435 7.05966 20.2207 6.43559 19.446C5.81152 18.6714 5.572 17.7846 5.71705 16.7857C5.8621 15.7868 6.3517 14.9514 7.18584 14.2794L18.5064 5.15968L19.8437 6.81969L8.52314 15.9394C8.18551 16.2114 7.98793 16.5455 7.93041 16.9416C7.8729 17.3377 7.97044 17.6925 8.22304 18.0061C8.47564 18.3196 8.80158 18.4905 9.20085 18.5186C9.60012 18.5467 9.96857 18.4248 10.3062 18.1528L21.6267 9.03305C22.4609 8.36106 22.9505 7.52563 23.0955 6.52675C23.2406 5.52787 23.001 4.64109 22.377 3.86642C21.7529 3.09175 20.9374 2.66896 19.9306 2.59805C18.9237 2.52714 18.0032 2.82768 17.1691 3.49966L4.65691 13.5794C3.34611 14.6354 2.57317 15.9728 2.33809 17.5917C2.10302 19.2105 2.47582 20.6286 3.45651 21.846C4.43719 23.0633 5.74344 23.7295 7.37526 23.8444C9.00707 23.9593 10.4784 23.4888 11.7892 22.4328L24.3013 12.3531L25.6386 14.0131L13.1265 24.0928Z" fill="#1C1B1F"/>
</svg>
