<svg width="80" height="47" viewBox="0 0 80 47" fill="none" xmlns="http://www.w3.org/2000/svg">
<path d="M14.5168 19.2607L19.0022 28.2979L29.033 29.7473L21.7749 36.7821L23.4881 46.7151L14.5168 42.0251L5.54488 46.7151L7.25813 36.7821L0 29.7473L10.0308 28.2979L14.5168 19.2607Z" fill="white"/>
<path d="M65.0363 19.2607L69.5217 28.2979L79.5526 29.7473L72.2944 36.7821L74.0077 46.7151L65.0363 42.0251L56.0644 46.7151L57.7777 36.7821L50.5195 29.7473L60.5504 28.2979L65.0363 19.2607Z" fill="white"/>
<path d="M39.9889 0.676514L44.4749 9.71369L54.5057 11.1631L47.247 18.1978L48.9608 28.1309L39.9889 23.4409L31.017 28.1309L32.7308 18.1978L25.4727 11.1631L35.503 9.71369L39.9889 0.676514Z" fill="white"/>
</svg>
