<svg width="50" height="59" viewBox="0 0 50 59" fill="none" xmlns="http://www.w3.org/2000/svg">
<path d="M28.9875 24.3711C29.7114 24.3711 30.2983 23.7894 30.2983 23.0718C30.2983 22.3542 29.7114 21.7725 28.9875 21.7725C28.2636 21.7725 27.6768 22.3542 27.6768 23.0718C27.6768 23.7894 28.2636 24.3711 28.9875 24.3711Z" fill="#0B68C3"/>
<path d="M20.384 24.3711C21.1079 24.3711 21.6947 23.7894 21.6947 23.0718C21.6947 22.3542 21.1079 21.7725 20.384 21.7725C19.6601 21.7725 19.0732 22.3542 19.0732 23.0718C19.0732 23.7894 19.6601 24.3711 20.384 24.3711Z" fill="#0B68C3"/>
<path d="M27.4923 32.1671C27.7107 31.9839 27.7443 31.6674 27.5595 31.4508C27.3746 31.2343 27.0554 31.201 26.8369 31.3842C26.2319 31.8839 25.4757 32.1671 24.6859 32.1671C23.8961 32.1671 23.1399 31.8839 22.535 31.3842C22.3165 31.201 21.9972 31.2343 21.8124 31.4508C21.6275 31.6674 21.6611 31.9839 21.8796 32.1671C22.6694 32.8335 23.6609 33.1999 24.6859 33.1999C25.711 33.1999 26.7193 32.8335 27.5091 32.1671H27.4923Z" fill="#0B68C3"/>
<path d="M48.4473 49.9408C48.2288 48.7914 43.3051 46.7092 39.6249 44.9434C38.9696 44.6269 38.2638 44.2271 37.5244 43.7607C36.1632 45.01 34.4996 45.9762 32.6343 46.5093C32.5335 47.6587 31.5588 48.5582 30.3825 48.5582H24.1312C22.8877 48.5582 21.8626 47.5421 21.8626 46.3094V42.8445C21.8626 41.6118 22.8877 40.5956 24.1312 40.5956H30.3825C31.1387 40.5956 31.7941 40.9621 32.2142 41.5118C32.6343 41.3286 33.0376 41.0954 33.4241 40.8289C32.9536 40.4624 32.5166 40.1292 32.1301 39.8127L30.3657 38.3635V36.0813C32.1301 34.1989 33.8442 30.2509 34.4828 29.518C34.4996 29.5013 34.5164 29.468 34.55 29.4347V22.3383C34.55 21.7553 34.718 21.1889 35.0037 20.7225V17.7573C34.0627 8.49542 24.6858 9.07846 24.6858 9.07846C24.6858 9.07846 15.3089 8.49542 14.3678 17.7573V20.8558C14.6199 21.2889 14.7543 21.8053 14.7543 22.3383V29.3181C14.7543 29.3181 14.8552 29.4513 14.8888 29.518C15.5105 30.2509 17.2414 34.1989 19.0059 36.0813V37.5639L19.0731 37.5139V38.0136L17.4598 39.6461C15.5441 41.1953 12.2168 43.744 9.74659 44.9268C6.06641 46.6925 1.1427 48.7748 0.924246 49.9242L0 58.0534H49.3883L48.4641 49.9242L48.4473 49.9408ZM16.6196 28.9016C16.6196 28.9016 14.9896 22.1051 16.6196 17.4242C18.2497 12.7432 21.6778 15.8083 21.6778 15.8083C21.6778 15.8083 26.2486 12.3768 31.7941 14.8255C31.7941 14.8255 34.5332 18.1238 32.4494 28.2686C30.3657 38.4134 24.6858 36.8309 24.6858 36.8309C24.6858 36.8309 19.8965 37.9637 16.6364 28.9016H16.6196Z" fill="#0B68C3"/>
<path d="M13.1914 22.3719V32.1668C13.1914 33.0164 12.4856 33.7161 11.6286 33.7161H7.67954C6.82252 33.7161 6.11673 33.0164 6.11673 32.1668V22.3719C6.11673 21.5223 6.82252 20.8227 7.67954 20.8227H11.6286C12.4856 20.8227 13.1914 21.5223 13.1914 22.3719ZM37.894 16.5582V18.8237H41.3893V16.5582C41.3893 7.42953 33.8945 0 24.6857 0C15.4768 0 7.98203 7.42953 7.98203 16.5582V18.8237H11.4774V16.5582C11.4774 9.32855 17.4093 3.46489 24.6857 3.46489C31.962 3.46489 37.894 9.34521 37.894 16.5582ZM1.94922 27.2694C1.94922 29.2517 3.17595 30.9508 4.92361 31.6504V22.8883C3.17595 23.5879 1.94922 25.287 1.94922 27.2694ZM31.105 43.4944V42.8447C31.105 42.4449 30.7857 42.1284 30.3824 42.1284H24.1311C23.7278 42.1284 23.4085 42.4449 23.4085 42.8447V46.3096C23.4085 46.7094 23.7278 47.0259 24.1311 47.0259H30.3824C30.7857 47.0259 31.105 46.7094 31.105 46.3096V45.2935C36.1127 44.3939 39.9273 40.0461 39.9273 34.8322H38.1461C38.1461 39.08 35.1213 42.6448 31.0882 43.511L31.105 43.4944ZM44.4477 22.8883V31.6504C46.1954 30.9508 47.4221 29.2517 47.4221 27.2694C47.4221 25.287 46.1954 23.5879 44.4477 22.8883ZM41.6078 20.8227H37.6587C36.8017 20.8227 36.0959 21.5223 36.0959 22.3719V32.1668C36.0959 33.0164 36.8017 33.7161 37.6587 33.7161H41.6078C42.4648 33.7161 43.1706 33.0164 43.1706 32.1668V22.3719C43.1706 21.5223 42.4648 20.8227 41.6078 20.8227Z" fill="#0B68C3"/>
</svg>
