<svg width="50" height="59" viewBox="0 0 50 59" fill="none" xmlns="http://www.w3.org/2000/svg">
<path d="M29.2014 24.3711C29.9253 24.3711 30.5121 23.7894 30.5121 23.0718C30.5121 22.3542 29.9253 21.7725 29.2014 21.7725C28.4775 21.7725 27.8906 22.3542 27.8906 23.0718C27.8906 23.7894 28.4775 24.3711 29.2014 24.3711Z" fill="white"/>
<path d="M20.5959 24.3711C21.3198 24.3711 21.9067 23.7894 21.9067 23.0718C21.9067 22.3542 21.3198 21.7725 20.5959 21.7725C19.872 21.7725 19.2852 22.3542 19.2852 23.0718C19.2852 23.7894 19.872 24.3711 20.5959 24.3711Z" fill="white"/>
<path d="M27.7061 32.167C27.9246 31.9838 27.9582 31.6673 27.7734 31.4507C27.5885 31.2342 27.2692 31.2008 27.0508 31.3841C26.4458 31.8838 25.6896 32.167 24.8998 32.167C24.11 32.167 23.3538 31.8838 22.7488 31.3841C22.5304 31.2008 22.2111 31.2342 22.0262 31.4507C21.8414 31.6673 21.875 31.9838 22.0935 32.167C22.8833 32.8333 23.8747 33.1998 24.8998 33.1998C25.9249 33.1998 26.9331 32.8333 27.723 32.167H27.7061Z" fill="white"/>
<path d="M48.6602 49.941C48.4417 48.7916 43.518 46.7093 39.8378 44.9435C39.1825 44.627 38.4767 44.2272 37.7373 43.7608C36.3761 45.0102 34.7125 45.9763 32.8472 46.5094C32.7463 47.6588 31.7717 48.5583 30.5954 48.5583H24.3441C23.1006 48.5583 22.0755 47.5422 22.0755 46.3095V42.8446C22.0755 41.6119 23.1006 40.5958 24.3441 40.5958H30.5954C31.3516 40.5958 32.007 40.9622 32.4271 41.512C32.8472 41.3287 33.2505 41.0955 33.637 40.829C33.1665 40.4625 32.7295 40.1293 32.343 39.8128L30.5786 38.3636V36.0814C32.343 34.199 34.0571 30.2511 34.6957 29.5181C34.7125 29.5014 34.7293 29.4681 34.7629 29.4348V22.3385C34.7629 21.7554 34.9309 21.189 35.2166 20.7226V17.7575C34.2756 8.49554 24.8987 9.07858 24.8987 9.07858C24.8987 9.07858 15.5218 8.49554 14.5807 17.7575V20.8559C14.8328 21.289 14.9672 21.8054 14.9672 22.3385V29.3182C14.9672 29.3182 15.068 29.4515 15.1017 29.5181C15.7234 30.2511 17.4543 34.199 19.2187 36.0814V37.564L19.286 37.514V38.0138L17.6727 39.6462C15.757 41.1955 12.4297 43.7441 9.95948 44.9269C6.2793 46.6926 1.35559 48.7749 1.13714 49.9243L0.212891 58.0535H49.6012L48.677 49.9243L48.6602 49.941ZM16.8325 28.9018C16.8325 28.9018 15.2025 22.1052 16.8325 17.4243C18.4625 12.7434 21.8907 15.8085 21.8907 15.8085C21.8907 15.8085 26.4615 12.3769 32.007 14.8256C32.007 14.8256 34.7461 18.1239 32.6623 28.2687C30.5786 38.4135 24.8987 36.831 24.8987 36.831C24.8987 36.831 20.1094 37.9638 16.8493 28.9018H16.8325Z" fill="white"/>
<path d="M13.4043 22.3719V32.1669C13.4043 33.0164 12.6985 33.7161 11.8415 33.7161H7.89244C7.03541 33.7161 6.32962 33.0164 6.32962 32.1669V22.3719C6.32962 21.5223 7.03541 20.8227 7.89244 20.8227H11.8415C12.6985 20.8227 13.4043 21.5223 13.4043 22.3719ZM38.1069 16.5582V18.8237H41.6022V16.5582C41.6022 7.42953 34.1074 0 24.8986 0C15.6897 0 8.19492 7.42953 8.19492 16.5582V18.8237H11.6902V16.5582C11.6902 9.32855 17.6222 3.46489 24.8986 3.46489C32.1749 3.46489 38.1069 9.34521 38.1069 16.5582ZM2.16211 27.2694C2.16211 29.2517 3.38884 30.9508 5.1365 31.6504V22.8883C3.38884 23.5879 2.16211 25.287 2.16211 27.2694ZM31.3179 43.4944V42.8447C31.3179 42.4449 30.9986 42.1284 30.5953 42.1284H24.344C23.9407 42.1284 23.6214 42.4449 23.6214 42.8447V46.3096C23.6214 46.7094 23.9407 47.0259 24.344 47.0259H30.5953C30.9986 47.0259 31.3179 46.7094 31.3179 46.3096V45.2935C36.3256 44.3939 40.1402 40.0461 40.1402 34.8322H38.3589C38.3589 39.08 35.3341 42.6448 31.3011 43.511L31.3179 43.4944ZM44.6606 22.8883V31.6504C46.4083 30.9508 47.635 29.2517 47.635 27.2694C47.635 25.287 46.4083 23.5879 44.6606 22.8883ZM41.8207 20.8227H37.8716C37.0146 20.8227 36.3088 21.5223 36.3088 22.3719V32.1669C36.3088 33.0164 37.0146 33.7161 37.8716 33.7161H41.8207C42.6777 33.7161 43.3835 33.0164 43.3835 32.1669V22.3719C43.3835 21.5223 42.6777 20.8227 41.8207 20.8227Z" fill="white"/>
</svg>
