<svg width="25" height="25" viewBox="0 0 25 25" fill="none" xmlns="http://www.w3.org/2000/svg">
<path d="M15.4811 9.72913L9.69716 15.5413C8.93016 14.7705 8.49927 13.7252 8.49927 12.6352C8.49927 12.0955 8.60505 11.5611 8.81059 11.0624C9.01612 10.5638 9.31738 10.1108 9.69716 9.72913C10.0769 9.3475 10.5278 9.04477 11.024 8.83823C11.5202 8.63169 12.052 8.52539 12.5891 8.52539C13.6738 8.52539 14.7141 8.95839 15.4811 9.72913Z" stroke="#010743" stroke-width="1.5" stroke-linecap="round" stroke-linejoin="round"/>
<path d="M19.2417 5.47899C17.2413 3.96277 14.9551 3.13574 12.589 3.13574C8.55395 3.13574 4.79325 5.52493 2.17562 9.66007C1.14686 11.2797 1.14686 14.002 2.17562 15.6216C3.07865 17.0459 4.13027 18.2749 5.27334 19.2628M8.4968 21.2844C9.7999 21.8357 11.183 22.1344 12.589 22.1344C16.624 22.1344 20.3847 19.7452 23.0024 15.6101C24.0311 13.9905 24.0311 11.2682 23.0024 9.64858C22.6251 9.05128 22.2136 8.48844 21.7907 7.96007" stroke="#010743" stroke-width="1.5" stroke-linecap="round" stroke-linejoin="round"/>
<path d="M16.6011 13.4392C16.4462 14.2405 16.0566 14.977 15.4823 15.5541C14.9079 16.1313 14.175 16.5228 13.3776 16.6784M9.69693 15.5412L1.1582 24.1217M24.0196 1.14868L15.4809 9.72909" stroke="#010743" stroke-width="1.5" stroke-linecap="round" stroke-linejoin="round"/>
</svg>
