<svg width="46" height="52" viewBox="0 0 46 52" fill="none" xmlns="http://www.w3.org/2000/svg">
<path d="M6.49174 0C6.03732 0 5.64781 0.0643382 5.25831 0.193015C2.72653 0.707721 0.714091 2.70221 0.194752 5.2114C0 5.59743 0 5.98346 0 6.43382V41.8199C0 47.1599 4.34946 51.4706 9.73761 51.4706H45.4422V45.0368H9.73761C7.91992 45.0368 6.49174 43.6213 6.49174 41.8199C6.49174 40.0184 7.91992 38.6029 9.73761 38.6029H45.4422V3.21691C45.4422 1.41544 44.014 0 42.1963 0H38.9504V19.3015L32.4587 12.8676L25.9669 19.3015V0H6.49174Z" fill="#0B68C3"/>
</svg>
