<svg width="27" height="27" viewBox="0 0 27 27" fill="none" xmlns="http://www.w3.org/2000/svg">
<path d="M18.441 23.9669C18.441 21.1798 15.6791 18.907 12.2625 18.907C8.84587 18.907 6.08398 21.1678 6.08398 23.9669M12.2625 16.2276C13.1497 16.2276 14.0006 15.8734 14.6279 15.2431C15.2553 14.6127 15.6077 13.7578 15.6077 12.8663C15.6077 11.9748 15.2553 11.1199 14.6279 10.4895C14.0006 9.85914 13.1497 9.505 12.2625 9.505C11.3753 9.505 10.5244 9.85914 9.89708 10.4895C9.26974 11.1199 8.91729 11.9748 8.91729 12.8663C8.91729 13.7578 9.26974 14.6127 9.89708 15.2431C10.5244 15.8734 11.3753 16.2276 12.2625 16.2276Z" stroke="black" stroke-width="1.5" stroke-linecap="round" stroke-linejoin="round"/>
<path d="M23.6189 14.7562C23.6189 21.0362 18.5594 26.12 12.3094 26.12C6.05948 26.12 1 21.0362 1 14.7562C1 8.47625 6.05948 3.39246 12.3094 3.39246C13.8689 3.39246 15.357 3.70346 16.7142 4.27763C16.5594 4.75611 16.4761 5.25851 16.4761 5.78483C16.4761 6.68197 16.7261 7.53126 17.1665 8.24898C17.4046 8.65568 17.7142 9.0265 18.0713 9.33751C18.9046 10.1031 20.0118 10.5696 21.2379 10.5696C21.7617 10.5696 22.2617 10.4858 22.726 10.3184C23.2974 11.682 23.6189 13.1892 23.6189 14.7562Z" stroke="black" stroke-width="1.5" stroke-linecap="round" stroke-linejoin="round"/>
<path d="M23.0103 5.76083H19.4627M21.2365 4.0144V7.591M25.9984 5.78476C25.9984 6.16754 25.9507 6.53835 25.8555 6.89721C25.7484 7.37569 25.5579 7.8422 25.3079 8.2489C24.7365 9.21781 23.8198 9.97141 22.7246 10.3183C22.2603 10.4858 21.7603 10.5695 21.2365 10.5695C20.0644 10.573 18.934 10.1331 18.0698 9.33743C17.7127 9.02642 17.4032 8.65561 17.1651 8.2489C16.7119 7.50777 16.4729 6.65459 16.4746 5.78476C16.4746 5.25843 16.558 4.75604 16.7127 4.27756C17.0273 3.32225 17.634 2.49109 18.4463 1.90257C19.2586 1.31404 20.235 0.998184 21.2365 1.00001C22.6412 1.00001 23.915 1.61006 24.7722 2.59094C25.5341 3.44023 25.9984 4.56465 25.9984 5.78476Z" stroke="black" stroke-width="1.5" stroke-miterlimit="10" stroke-linecap="round" stroke-linejoin="round"/>
</svg>
