<svg width="28" height="28" viewBox="0 0 28 28" fill="none" xmlns="http://www.w3.org/2000/svg">
<path d="M19.599 16.7623V9.26238C19.599 8.56324 19.0298 7.99121 18.334 7.99121H14.6655" stroke="black" stroke-width="1.5" stroke-linecap="round" stroke-linejoin="round"/>
<path d="M16.5625 6.08447L14.2855 7.99123L16.5625 9.89799M8.33999 11.4234V16.7623M8.33999 16.7623C8.94389 16.7623 9.52305 17.0034 9.95007 17.4325C10.3771 17.8616 10.617 18.4436 10.617 19.0504C10.617 19.6573 10.3771 20.2393 9.95007 20.6684C9.52305 21.0975 8.94389 21.3386 8.33999 21.3386C7.73609 21.3386 7.15693 21.0975 6.72991 20.6684C6.30289 20.2393 6.06299 19.6573 6.06299 19.0504C6.06299 18.4436 6.30289 17.8616 6.72991 17.4325C7.15693 17.0034 7.73609 16.7623 8.33999 16.7623ZM8.52974 11.0421C9.18396 11.0421 9.81139 10.7809 10.274 10.316C10.7366 9.85117 10.9965 9.22068 10.9965 8.56326C10.9965 7.90585 10.7366 7.27536 10.274 6.81049C9.81139 6.34563 9.18396 6.08447 8.52974 6.08447C7.87552 6.08447 7.24809 6.34563 6.78548 6.81049C6.32288 7.27536 6.06299 7.90585 6.06299 8.56326C6.06299 9.22068 6.32288 9.85117 6.78548 10.316C7.24809 10.7809 7.87552 11.0421 8.52974 11.0421ZM19.5985 21.3386C20.2024 21.3386 20.7815 21.0975 21.2086 20.6684C21.6356 20.2393 21.8755 19.6573 21.8755 19.0504C21.8755 18.4436 21.6356 17.8616 21.2086 17.4325C20.7815 17.0034 20.2024 16.7623 19.5985 16.7623C18.9946 16.7623 18.4154 17.0034 17.9884 17.4325C17.5614 17.8616 17.3215 18.4436 17.3215 19.0504C17.3215 19.6573 17.5614 20.2393 17.9884 20.6684C18.4154 21.0975 18.9946 21.3386 19.5985 21.3386Z" stroke="black" stroke-width="1.5" stroke-linecap="round" stroke-linejoin="round"/>
<path d="M9.855 26.4235H17.445C23.77 26.4235 26.3 23.8811 26.3 17.5253V9.89822C26.3 3.54235 23.77 1 17.445 1H9.855C3.53 1 1 3.54235 1 9.89822V17.5253C1 23.8811 3.53 26.4235 9.855 26.4235Z" stroke="black" stroke-width="1.5" stroke-linecap="round" stroke-linejoin="round"/>
</svg>
