<svg width="28" height="29" viewBox="0 0 28 29" fill="none" xmlns="http://www.w3.org/2000/svg">
<path d="M10.1 28.1295H17.9C24.4 28.1295 27 25.4785 27 18.851V10.8979C27 4.2704 24.4 1.61938 17.9 1.61938H10.1C3.6 1.61938 1 4.2704 1 10.8979V18.851C1 25.4785 3.6 28.1295 10.1 28.1295Z" stroke="black" stroke-width="1.5" stroke-linecap="round" stroke-linejoin="round"/>
<path d="M18.641 23.4905V18.321M18.641 8.84365V6.25891M18.641 8.84365C19.0849 8.84365 19.5244 8.93279 19.9345 9.10598C20.3446 9.27918 20.7172 9.53303 21.031 9.85305C21.3449 10.1731 21.5939 10.553 21.7637 10.9711C21.9336 11.3892 22.021 11.8374 22.021 12.29C22.021 12.7425 21.9336 13.1907 21.7637 13.6088C21.5939 14.0269 21.3449 14.4069 21.031 14.7269C20.7172 15.0469 20.3446 15.3008 19.9345 15.4739C19.5244 15.6471 19.0849 15.7363 18.641 15.7363C17.7446 15.7363 16.8849 15.3732 16.251 14.7269C15.6171 14.0806 15.261 13.204 15.261 12.29C15.261 11.3759 15.6171 10.4994 16.251 9.85305C16.8849 9.20674 17.7446 8.84365 18.641 8.84365ZM9.359 23.4905V20.9058M9.359 20.9058C9.80287 20.9058 10.2424 20.8166 10.6525 20.6434C11.0626 20.4702 11.4352 20.2164 11.749 19.8964C12.0629 19.5763 12.3119 19.1964 12.4817 18.7783C12.6516 18.3602 12.739 17.912 12.739 17.4594C12.739 17.0069 12.6516 16.5587 12.4817 16.1406C12.3119 15.7225 12.0629 15.3425 11.749 15.0225C11.4352 14.7025 11.0626 14.4487 10.6525 14.2755C10.2424 14.1023 9.80287 14.0131 9.359 14.0131C8.46257 14.0131 7.60286 14.3762 6.96898 15.0225C6.33511 15.6688 5.979 16.5454 5.979 17.4594C5.979 18.3735 6.33511 19.25 6.96898 19.8964C7.60286 20.5427 8.46257 20.9058 9.359 20.9058ZM9.359 11.4284V6.25891" stroke="black" stroke-width="1.5" stroke-miterlimit="10" stroke-linecap="round" stroke-linejoin="round"/>
</svg>
