<svg width="27" height="27" viewBox="0 0 27 27" fill="none" xmlns="http://www.w3.org/2000/svg">
<path d="M19.659 15.25V19C19.659 24 17.6687 26 12.693 26H7.96602C2.99029 26 1 24 1 19V14.25C1 9.24994 2.99029 7.24994 7.96602 7.24994H11.6978" stroke="black" stroke-width="1.5" stroke-linecap="round" stroke-linejoin="round"/>
<path d="M12.9421 1H17.9178M7.21997 4.75001C7.21997 2.675 8.88684 1 10.9518 1H14.2109M25.879 8.50002V16.2375C25.879 18.175 24.3116 19.7501 22.3835 19.7501M25.879 8.50002H22.1472C19.3483 8.50002 18.4154 7.56252 18.4154 4.75001V1L25.879 8.50002ZM19.6593 15.25H15.6787C12.6933 15.25 11.6981 14.25 11.6981 11.25V7.25002L19.6593 15.25Z" stroke="black" stroke-width="1.5" stroke-linecap="round" stroke-linejoin="round"/>
</svg>
