<svg width="21" height="23" viewBox="0 0 21 23" fill="none" xmlns="http://www.w3.org/2000/svg">
<path d="M6.1499 4.81348C5.71134 4.81348 5.34766 4.44979 5.34766 4.01123V0.802246C5.34766 0.363685 5.71134 0 6.1499 0C6.58846 0 6.95215 0.363685 6.95215 0.802246V4.01123C6.95215 4.44979 6.58846 4.81348 6.1499 4.81348Z" fill="#626262"/>
<path d="M14.7075 4.81348C14.269 4.81348 13.9053 4.44979 13.9053 4.01123V0.802246C13.9053 0.363685 14.269 0 14.7075 0C15.1461 0 15.5098 0.363685 15.5098 0.802246V4.01123C15.5098 4.44979 15.1461 4.81348 14.7075 4.81348Z" fill="#626262"/>
<path d="M6.6849 14.1744C6.54584 14.1744 6.40678 14.1423 6.27842 14.0888C6.13937 14.0353 6.0324 13.9605 5.92544 13.8642C5.7329 13.661 5.61523 13.3935 5.61523 13.1047C5.61523 12.9657 5.64732 12.8266 5.70081 12.6983C5.75429 12.5699 5.82917 12.4522 5.92544 12.3453C6.0324 12.249 6.13937 12.1741 6.27842 12.1206C6.6635 11.9602 7.14485 12.0458 7.44436 12.3453C7.6369 12.5485 7.75456 12.8266 7.75456 13.1047C7.75456 13.1689 7.74386 13.2438 7.73316 13.3187C7.72247 13.3828 7.70108 13.447 7.66899 13.5112C7.64759 13.5754 7.6155 13.6396 7.57272 13.7037C7.54063 13.7572 7.48714 13.8107 7.44436 13.8642C7.24112 14.0567 6.96301 14.1744 6.6849 14.1744Z" fill="#626262"/>
<path d="M10.431 14.1752C10.2919 14.1752 10.1529 14.1432 10.0245 14.0897C9.88546 14.0362 9.7785 13.9613 9.67153 13.865C9.47899 13.6618 9.36133 13.3944 9.36133 13.1056C9.36133 12.9665 9.39342 12.8275 9.4469 12.6991C9.50038 12.5708 9.57526 12.4531 9.67153 12.3461C9.7785 12.2499 9.88546 12.175 10.0245 12.1215C10.4096 11.9503 10.8909 12.0466 11.1904 12.3461C11.383 12.5494 11.5007 12.8275 11.5007 13.1056C11.5007 13.1698 11.49 13.2446 11.4793 13.3195C11.4686 13.3837 11.4472 13.4479 11.4151 13.5121C11.3937 13.5762 11.3616 13.6404 11.3188 13.7046C11.2867 13.7581 11.2332 13.8116 11.1904 13.865C10.9872 14.0576 10.7091 14.1752 10.431 14.1752Z" fill="#626262"/>
<path d="M14.1732 14.1752C14.0341 14.1752 13.8951 14.1432 13.7667 14.0897C13.6276 14.0362 13.5207 13.9613 13.4137 13.865C13.3709 13.8116 13.3281 13.7581 13.2854 13.7046C13.2426 13.6404 13.2105 13.5762 13.1891 13.5121C13.157 13.4479 13.1356 13.3837 13.1249 13.3195C13.1142 13.2446 13.1035 13.1698 13.1035 13.1056C13.1035 12.8275 13.2212 12.5494 13.4137 12.3461C13.5207 12.2499 13.6276 12.175 13.7667 12.1215C14.1625 11.9503 14.6331 12.0466 14.9326 12.3461C15.1252 12.5494 15.2428 12.8275 15.2428 13.1056C15.2428 13.1698 15.2321 13.2446 15.2214 13.3195C15.2107 13.3837 15.1894 13.4479 15.1573 13.5121C15.1359 13.5762 15.1038 13.6404 15.061 13.7046C15.0289 13.7581 14.9754 13.8116 14.9326 13.865C14.7294 14.0576 14.4513 14.1752 14.1732 14.1752Z" fill="#626262"/>
<path d="M6.6849 17.9132C6.54584 17.9132 6.40678 17.8812 6.27842 17.8277C6.15007 17.7743 6.0324 17.6993 5.92544 17.603C5.7329 17.3998 5.61523 17.1216 5.61523 16.8435C5.61523 16.7045 5.64732 16.5654 5.70081 16.4371C5.75429 16.298 5.82917 16.1805 5.92544 16.0842C6.32121 15.6884 7.04858 15.6884 7.44436 16.0842C7.6369 16.2874 7.75456 16.5654 7.75456 16.8435C7.75456 17.1216 7.6369 17.3998 7.44436 17.603C7.24112 17.7955 6.96301 17.9132 6.6849 17.9132Z" fill="#626262"/>
<path d="M10.431 17.913C10.1529 17.913 9.87477 17.7953 9.67153 17.6028C9.47899 17.3995 9.36133 17.1214 9.36133 16.8433C9.36133 16.7042 9.39342 16.5652 9.4469 16.4368C9.50038 16.2978 9.57526 16.1802 9.67153 16.0839C10.0673 15.6882 10.7947 15.6882 11.1904 16.0839C11.2867 16.1802 11.3616 16.2978 11.4151 16.4368C11.4686 16.5652 11.5007 16.7042 11.5007 16.8433C11.5007 17.1214 11.383 17.3995 11.1904 17.6028C10.9872 17.7953 10.7091 17.913 10.431 17.913Z" fill="#626262"/>
<path d="M14.1732 17.9159C13.8951 17.9159 13.617 17.7982 13.4137 17.6057C13.3174 17.5094 13.2426 17.3918 13.1891 17.2527C13.1356 17.1244 13.1035 16.9853 13.1035 16.8462C13.1035 16.7072 13.1356 16.5681 13.1891 16.4398C13.2426 16.3007 13.3174 16.183 13.4137 16.0868C13.6597 15.8408 14.0341 15.7231 14.3764 15.798C14.4513 15.8087 14.5155 15.8301 14.5796 15.8622C14.6438 15.8835 14.708 15.9156 14.7722 15.9584C14.8257 15.9905 14.8792 16.044 14.9326 16.0868C15.1252 16.29 15.2428 16.5681 15.2428 16.8462C15.2428 17.1244 15.1252 17.4025 14.9326 17.6057C14.7294 17.7982 14.4513 17.9159 14.1732 17.9159Z" fill="#626262"/>
<path d="M19.5226 9.19043H1.33838C0.899818 9.19043 0.536133 8.82675 0.536133 8.38818C0.536133 7.94962 0.899818 7.58594 1.33838 7.58594H19.5226C19.9612 7.58594 20.3249 7.94962 20.3249 8.38818C20.3249 8.82675 19.9612 9.19043 19.5226 9.19043Z" fill="#626262"/>
<path d="M14.7079 23.0004H6.15056C2.24629 23.0004 0 20.7541 0 16.8499V7.75773C0 3.85347 2.24629 1.60718 6.15056 1.60718H14.7079C18.6121 1.60718 20.8584 3.85347 20.8584 7.75773V16.8499C20.8584 20.7541 18.6121 23.0004 14.7079 23.0004ZM6.15056 3.21167C3.09132 3.21167 1.60449 4.6985 1.60449 7.75773V16.8499C1.60449 19.9091 3.09132 21.3959 6.15056 21.3959H14.7079C17.7671 21.3959 19.2539 19.9091 19.2539 16.8499V7.75773C19.2539 4.6985 17.7671 3.21167 14.7079 3.21167H6.15056Z" fill="#626262"/>
</svg>
