<svg width="24" height="24" viewBox="0 0 24 24" fill="none" xmlns="http://www.w3.org/2000/svg">
<path d="M4.3 9.8H6.5C8.7 9.8 9.8 8.7 9.8 6.5V4.3C9.8 2.1 8.7 1 6.5 1H4.3C2.1 1 1 2.1 1 4.3V6.5C1 8.7 2.1 9.8 4.3 9.8Z" stroke="#626262" stroke-width="1.5" stroke-miterlimit="10" stroke-linecap="round" stroke-linejoin="round"/>
<path d="M17.5002 9.8H19.7002C21.9002 9.8 23.0002 8.7 23.0002 6.5V4.3C23.0002 2.1 21.9002 1 19.7002 1H17.5002C15.3002 1 14.2002 2.1 14.2002 4.3V6.5C14.2002 8.7 15.3002 9.8 17.5002 9.8Z" stroke="#626262" stroke-width="1.5" stroke-miterlimit="10" stroke-linecap="round" stroke-linejoin="round"/>
<path d="M17.5002 23.0002H19.7002C21.9002 23.0002 23.0002 21.9002 23.0002 19.7002V17.5002C23.0002 15.3002 21.9002 14.2002 19.7002 14.2002H17.5002C15.3002 14.2002 14.2002 15.3002 14.2002 17.5002V19.7002C14.2002 21.9002 15.3002 23.0002 17.5002 23.0002Z" stroke="#626262" stroke-width="1.5" stroke-miterlimit="10" stroke-linecap="round" stroke-linejoin="round"/>
<path d="M4.3 23.0002H6.5C8.7 23.0002 9.8 21.9002 9.8 19.7002V17.5002C9.8 15.3002 8.7 14.2002 6.5 14.2002H4.3C2.1 14.2002 1 15.3002 1 17.5002V19.7002C1 21.9002 2.1 23.0002 4.3 23.0002Z" stroke="#626262" stroke-width="1.5" stroke-miterlimit="10" stroke-linecap="round" stroke-linejoin="round"/>
</svg>
