<svg width="23" height="24" viewBox="0 0 23 24" fill="none" xmlns="http://www.w3.org/2000/svg">
<path d="M3.43197 9.23637H5.71995C8.00793 9.23637 9.15192 8.08182 9.15192 5.77273V3.46364C9.15192 1.15455 8.00793 0 5.71995 0H3.43197C1.14399 0 0 1.15455 0 3.46364V5.77273C0 8.08182 1.14399 9.23637 3.43197 9.23637Z" fill="#0866C7"/>
<path d="M17.1595 9.23637H19.4475C21.7355 9.23637 22.8795 8.08182 22.8795 5.77273V3.46364C22.8795 1.15455 21.7355 0 19.4475 0H17.1595C14.8715 0 13.7275 1.15455 13.7275 3.46364V5.77273C13.7275 8.08182 14.8715 9.23637 17.1595 9.23637Z" fill="#0866C7"/>
<path d="M17.1595 23.0899H19.4475C21.7355 23.0899 22.8795 21.9353 22.8795 19.6262V17.3172C22.8795 15.0081 21.7355 13.8535 19.4475 13.8535H17.1595C14.8715 13.8535 13.7275 15.0081 13.7275 17.3172V19.6262C13.7275 21.9353 14.8715 23.0899 17.1595 23.0899Z" fill="#0866C7"/>
<path d="M3.43197 23.0899H5.71995C8.00793 23.0899 9.15192 21.9353 9.15192 19.6262V17.3172C9.15192 15.0081 8.00793 13.8535 5.71995 13.8535H3.43197C1.14399 13.8535 0 15.0081 0 17.3172V19.6262C0 21.9353 1.14399 23.0899 3.43197 23.0899Z" fill="#0866C7"/>
</svg>
