<svg width="27" height="26" viewBox="0 0 27 26" fill="none" xmlns="http://www.w3.org/2000/svg">
<g clip-path="url(#clip0_1313_1355)">
<path d="M21.8409 9.4178C21.8409 11.1615 21.3285 12.7609 20.4467 14.0957C19.1599 16.0198 17.1223 17.3786 14.7511 17.7274C14.346 17.7995 13.929 17.8356 13.5 17.8356C13.0711 17.8356 12.654 17.7995 12.2489 17.7274C9.87771 17.3786 7.84016 16.0198 6.55329 14.0957C5.67155 12.7609 5.15918 11.1615 5.15918 9.4178C5.15918 4.76396 8.88873 1 13.5 1C18.1113 1 21.8409 4.76396 21.8409 9.4178Z" stroke="#0673ED" stroke-width="1.7" stroke-linecap="round" stroke-linejoin="round"/>
<path d="M24.5215 20.8076L22.5554 21.2766C22.1145 21.3848 21.769 21.7215 21.6737 22.1665L21.2566 23.9342C21.0302 24.8962 19.8148 25.1849 19.1833 24.4273L13.4996 17.8373L7.8159 24.4393C7.18438 25.1969 5.969 24.9083 5.74261 23.9462L5.32556 22.1785C5.21832 21.7336 4.87277 21.3848 4.44382 21.2886L2.47776 20.8196C1.57218 20.6032 1.25047 19.4607 1.90582 18.7993L6.55286 14.1094C7.83973 16.0335 9.87728 17.3924 12.2485 17.7411C12.6536 17.8133 13.0707 17.8493 13.4996 17.8493C13.9286 17.8493 14.3456 17.8133 14.7508 17.7411C17.1219 17.3924 19.1595 16.0335 20.4464 14.1094L25.0934 18.7993C25.7488 19.4487 25.427 20.5911 24.5215 20.8076Z" stroke="#0673ED" stroke-width="1.7" stroke-linecap="round" stroke-linejoin="round"/>
<path d="M14.1902 5.78621L14.8933 7.2052C14.9886 7.3976 15.2388 7.59002 15.4652 7.6261L16.7402 7.84254C17.5504 7.97482 17.7411 8.57611 17.1572 9.16535L16.1682 10.1635C16.0014 10.3318 15.9061 10.6565 15.9656 10.897L16.2516 12.1356C16.478 13.1097 15.9656 13.4945 15.1077 12.9774L13.9162 12.2679C13.7017 12.1356 13.3442 12.1356 13.1298 12.2679L11.9382 12.9774C11.0803 13.4825 10.5679 13.1097 10.7943 12.1356L11.0803 10.897C11.128 10.6685 11.0445 10.3318 10.8777 10.1635L9.88871 9.16535C9.30485 8.57611 9.4955 7.98685 10.3058 7.84254L11.5807 7.6261C11.7952 7.59002 12.0455 7.3976 12.1408 7.2052L12.8438 5.78621C13.1893 5.01658 13.8089 5.01658 14.1902 5.78621Z" stroke="#0673ED" stroke-width="1.7" stroke-linecap="round" stroke-linejoin="round"/>
</g>
<defs>
<clipPath id="clip0_1313_1355">
<rect width="27" height="26" fill="white"/>
</clipPath>
</defs>
</svg>
