<svg width="27" height="26" viewBox="0 0 27 26" fill="none" xmlns="http://www.w3.org/2000/svg">
<path d="M21.8409 9.4178C21.8409 11.1615 21.3285 12.7609 20.4467 14.0957C19.1599 16.0198 17.1223 17.3786 14.7511 17.7274C14.346 17.7995 13.929 17.8356 13.5 17.8356C13.0711 17.8356 12.654 17.7995 12.2489 17.7274C9.87771 17.3786 7.84016 16.0198 6.55329 14.0957C5.67155 12.7609 5.15918 11.1615 5.15918 9.4178C5.15918 4.76396 8.88873 1 13.5 1C18.1113 1 21.8409 4.76396 21.8409 9.4178Z" stroke="#626262" stroke-width="1.7" stroke-linecap="round" stroke-linejoin="round"/>
<path d="M24.5215 20.8073L22.5554 21.2763C22.1145 21.3845 21.769 21.7212 21.6737 22.1662L21.2566 23.9339C21.0302 24.8959 19.8148 25.1846 19.1833 24.427L13.4996 17.837L7.8159 24.439C7.18438 25.1966 5.969 24.908 5.74261 23.9459L5.32556 22.1782C5.21832 21.7333 4.87277 21.3845 4.44382 21.2883L2.47776 20.8193C1.57218 20.6029 1.25047 19.4604 1.90582 18.799L6.55286 14.1091C7.83973 16.0332 9.87728 17.3921 12.2485 17.7408C12.6536 17.813 13.0707 17.849 13.4996 17.849C13.9286 17.849 14.3456 17.813 14.7508 17.7408C17.1219 17.3921 19.1595 16.0332 20.4464 14.1091L25.0934 18.799C25.7488 19.4484 25.427 20.5908 24.5215 20.8073Z" stroke="#626262" stroke-width="1.7" stroke-linecap="round" stroke-linejoin="round"/>
<path d="M14.1902 5.78572L14.8933 7.20471C14.9886 7.39711 15.2388 7.58953 15.4652 7.62561L16.7402 7.84205C17.5504 7.97433 17.7411 8.57562 17.1572 9.16486L16.1682 10.163C16.0014 10.3313 15.9061 10.656 15.9656 10.8965L16.2516 12.1351C16.478 13.1092 15.9656 13.494 15.1077 12.9769L13.9162 12.2674C13.7017 12.1351 13.3442 12.1351 13.1298 12.2674L11.9382 12.9769C11.0803 13.482 10.5679 13.1092 10.7943 12.1351L11.0803 10.8965C11.128 10.668 11.0445 10.3313 10.8777 10.163L9.88871 9.16486C9.30485 8.57562 9.4955 7.98636 10.3058 7.84205L11.5807 7.62561C11.7952 7.58953 12.0455 7.39711 12.1408 7.20471L12.8438 5.78572C13.1893 5.01609 13.8089 5.01609 14.1902 5.78572Z" stroke="#626262" stroke-width="1.7" stroke-linecap="round" stroke-linejoin="round"/>
</svg>
