<svg width="24" height="24" viewBox="0 0 24 24" fill="none" xmlns="http://www.w3.org/2000/svg">
<path d="M22.6765 8.70805H14.9797V1.75831C17.6773 2.50324 19.9472 4.44027 21.1514 7.07672C21.3301 7.47045 21.7837 7.63863 22.1662 7.45265C22.5468 7.26765 22.7111 6.80071 22.5324 6.40895C20.9832 3.02163 17.9214 0.628545 14.3445 0.0102404C14.1205 -0.0263632 13.8966 0.0359619 13.7246 0.184355C13.5535 0.334727 13.4555 0.553359 13.4555 0.784852V9.49354C13.4555 9.92784 13.7957 10.279 14.2176 10.279H22.6765C23.0984 10.279 23.4396 9.92784 23.4396 9.49354C23.4396 9.06024 23.0984 8.70805 22.6765 8.70805ZM19.6262 12.5742H11.2375V6.52173C11.2375 6.08941 10.8963 5.73722 10.4744 5.73722C10.0525 5.73722 9.71138 6.08941 9.71138 6.52173V13.3597C9.71138 13.794 10.0525 14.1442 10.4744 14.1442H18.8295C18.4442 18.5406 14.8442 21.9952 10.4744 21.9952C5.84903 21.9952 2.08567 18.1211 2.08567 13.3597C2.08567 8.59725 5.84903 4.7232 10.4744 4.7232C10.8963 4.7232 11.2375 4.37102 11.2375 3.9387C11.2375 3.5044 10.8963 3.1532 10.4744 3.1532C5.00814 3.1532 0.55957 7.73162 0.55957 13.3597C0.55957 18.9867 5.00814 23.5652 10.4744 23.5652C15.9417 23.5652 20.3883 18.9867 20.3883 13.3597C20.3883 12.9254 20.0481 12.5742 19.6262 12.5742Z" fill="#626262"/>
</svg>
