<svg width="11" height="19" viewBox="0 0 11 19" fill="none" xmlns="http://www.w3.org/2000/svg">
<path d="M2 14.2747C0.9 14.2747 0 15.1923 0 16.3139C0 17.4355 0.9 18.3532 2 18.3532C3.1 18.3532 4 17.4355 4 16.3139C4 15.1923 3.1 14.2747 2 14.2747ZM9 4.07848C10.1 4.07848 11 3.16082 11 2.03924C11 0.917658 10.1 0 9 0C7.9 0 7 0.917658 7 2.03924C7 3.16082 7.9 4.07848 9 4.07848ZM2 7.13734C0.9 7.13734 0 8.055 0 9.17658C0 10.2982 0.9 11.2158 2 11.2158C3.1 11.2158 4 10.2982 4 9.17658C4 8.055 3.1 7.13734 2 7.13734ZM9 7.13734C7.9 7.13734 7 8.055 7 9.17658C7 10.2982 7.9 11.2158 9 11.2158C10.1 11.2158 11 10.2982 11 9.17658C11 8.055 10.1 7.13734 9 7.13734ZM9 14.2747C7.9 14.2747 7 15.1923 7 16.3139C7 17.4355 7.9 18.3532 9 18.3532C10.1 18.3532 11 17.4355 11 16.3139C11 15.1923 10.1 14.2747 9 14.2747ZM2 0C0.9 0 0 0.917658 0 2.03924C0 3.16082 0.9 4.07848 2 4.07848C3.1 4.07848 4 3.16082 4 2.03924C4 0.917658 3.1 0 2 0Z" fill="#3D3E3E"/>
</svg>
