<svg width="21" height="22" viewBox="0 0 21 22" fill="none" xmlns="http://www.w3.org/2000/svg">
<path d="M7.49967 12.6667C9.80086 12.6667 11.6663 10.8012 11.6663 8.50004C11.6663 6.19885 9.80086 4.33337 7.49967 4.33337C5.19849 4.33337 3.33301 6.19885 3.33301 8.50004C3.33301 10.8012 5.19849 12.6667 7.49967 12.6667Z" stroke="#404B69" stroke-width="1.5" stroke-linecap="round" stroke-linejoin="round"/>
<path d="M13.3332 21C13.3332 19.4529 12.7186 17.9691 11.6246 16.8752C10.5307 15.7812 9.04693 15.1666 7.49984 15.1666C5.95274 15.1666 4.46901 15.7812 3.37505 16.8752C2.28109 17.9691 1.6665 19.4529 1.6665 21H13.3332Z" stroke="#404B69" stroke-width="1.5" stroke-linecap="round" stroke-linejoin="round"/>
<path d="M14.1663 9.33333C14.8766 9.33333 15.575 9.15178 16.1954 8.80592C16.8157 8.46006 17.3373 7.96138 17.7107 7.35721C18.0841 6.75305 18.2969 6.06347 18.3288 5.35395C18.3607 4.64443 18.2107 3.93853 17.8931 3.30328C17.5755 2.66802 17.1008 2.1245 16.514 1.72433C15.9272 1.32416 15.2479 1.08062 14.5405 1.01684C13.8332 0.953054 13.1212 1.07115 12.4723 1.3599C11.8235 1.64865 11.2591 2.09848 10.833 2.66667" stroke="#404B69" stroke-width="1.5" stroke-linecap="round" stroke-linejoin="round"/>
<path d="M14.9998 17.6667H19.9998C19.9998 16.1196 19.3853 14.6359 18.2913 13.5419C17.1973 12.448 15.7136 11.8334 14.1665 11.8334" stroke="#404B69" stroke-width="1.5" stroke-linecap="round" stroke-linejoin="round"/>
</svg>
