<svg width="92" height="46" viewBox="0 0 92 46" fill="none" xmlns="http://www.w3.org/2000/svg">
<path d="M43.3986 0.157258C32.0108 0.55359 21.7372 5.27678 14.1624 12.7147C13.6621 13.2064 13.6741 14.014 14.1893 14.4907L32.4511 31.3691C32.9094 31.7922 33.6163 31.8161 34.0865 31.4078C36.7283 29.1282 40.1309 27.7514 43.833 27.4088C44.4649 27.3492 44.9562 26.8336 44.9562 26.2019V1.66212C44.9562 0.812844 44.2493 0.130439 43.3986 0.157258Z" fill="white"/>
<path d="M1.23759 45.1451H26.4124C27.0713 45.1451 27.6075 44.6326 27.6464 43.977C27.886 40.0375 28.9134 37.0129 31.2467 34.2117C31.66 33.7141 31.6001 32.978 31.1238 32.54L13.0387 15.8583C12.5325 15.3905 11.7388 15.4262 11.2776 15.9358C4.52634 23.3797 0.309077 33.1419 0.000570023 43.8816C-0.0203965 44.5759 0.539709 45.1481 1.23759 45.1481V45.1451Z" fill="white"/>
<path d="M46.5195 1.37874V26.1956C46.5195 26.8363 47.0137 27.3578 47.6517 27.4204C51.4167 27.7839 54.6575 29.1696 57.3952 31.4552C57.8714 31.8515 58.5723 31.8217 59.0276 31.4016L77.3014 14.5083C77.8165 14.0315 77.8315 13.224 77.3313 12.7323C69.6935 5.22285 59.3031 0.475821 47.7955 0.148028C47.0976 0.127169 46.5195 0.684416 46.5195 1.37874Z" fill="white"/>
<path d="M91.3013 43.8727C90.9928 33.1419 86.7815 23.3886 80.0423 15.9507C79.581 15.4411 78.7873 15.4054 78.2811 15.8732L60.2049 32.5817C59.7377 33.0138 59.6778 33.729 60.0672 34.2296C62.4484 37.2811 63.2571 39.7484 63.6944 44.0336C63.7573 44.6594 64.2904 45.1362 64.9224 45.1362H90.0672C90.7651 45.1362 91.3252 44.564 91.3043 43.8697L91.3013 43.8727Z" fill="white"/>
<path d="M45.6009 28.7346C36.9418 28.7346 29.8431 35.3709 29.1602 43.8131C29.1033 44.5312 29.6694 45.1451 30.3942 45.1451H60.8106C61.5355 45.1451 62.1016 44.5283 62.0447 43.8131C61.3617 35.3739 54.2631 28.7346 45.6039 28.7346H45.6009Z" fill="white"/>
<path d="M47.433 36.474C46.864 35.5413 45.8426 35.0496 44.8182 35.1092L36.5245 20.5731C36.4855 20.5015 36.4376 20.436 36.3837 20.3764L29.7163 12.706C29.6025 12.5749 29.3899 12.7031 29.4558 12.864L33.2357 22.215C33.2657 22.2865 33.2986 22.3551 33.3406 22.4176L42.458 36.6379C42.0177 37.4872 42.0147 38.5361 42.5479 39.4152C43.3655 40.7562 45.1207 41.1853 46.4686 40.3747C47.8164 39.5612 48.2477 37.815 47.433 36.474Z" fill="#57575B"/>
</svg>
