<svg width="27" height="26" viewBox="0 0 27 26" fill="none" xmlns="http://www.w3.org/2000/svg">
<path d="M25.9996 23L19.8996 16.9C22.8996 12.8 22.5996 6.9 18.7996 3.2C14.6996 -0.9 7.89961 -0.9 3.79961 3.2C-0.300391 7.3 -0.300391 14.1 3.79961 18.2C5.89961 20.3 8.59961 21.3 11.2996 21.3C13.4996 21.3 15.6996 20.6 17.4996 19.3L23.5995 25.4C23.8995 25.7 24.2996 25.9 24.7996 25.9C25.1996 25.9 25.5996 25.7 25.9996 25.4C26.5996 24.7 26.5996 23.7 25.9996 23ZM16.4996 15.8C15.0996 17.2 13.2996 17.9 11.2996 17.9C9.29961 17.9 7.49954 17.1 6.09954 15.8C4.69954 14.4 3.99956 12.6 3.99956 10.6C3.99956 8.6 4.79954 6.8 6.09954 5.4C7.49954 4 9.39961 3.30001 11.2996 3.30001C13.1996 3.30001 14.9996 4 16.4996 5.4C17.8996 6.8 18.5995 8.6 18.5995 10.6C18.5995 12.6 17.8996 14.5 16.4996 15.8Z" fill="white"/>
</svg>
