<svg width="27" height="26" viewBox="0 0 27 26" fill="none" xmlns="http://www.w3.org/2000/svg">
<path d="M13.2492 17.1781C10.698 17.1781 8.62744 15.1076 8.62744 12.5564C8.62744 10.0052 10.698 7.93463 13.2492 7.93463C15.8004 7.93463 17.871 10.0052 17.871 12.5564C17.871 15.1076 15.8004 17.1781 13.2492 17.1781ZM13.2492 9.78333C11.7209 9.78333 10.4761 11.0281 10.4761 12.5564C10.4761 14.0846 11.7209 15.3294 13.2492 15.3294C14.7775 15.3294 16.0223 14.0846 16.0223 12.5564C16.0223 11.0281 14.7775 9.78333 13.2492 9.78333Z" fill="black"/>
<path d="M17.2053 25.115C16.9464 25.115 16.6876 25.078 16.4288 25.0164C15.6647 24.8069 15.0238 24.3262 14.6171 23.6483L14.4692 23.4018C13.742 22.1447 12.7437 22.1447 12.0166 23.4018L11.881 23.636C11.4743 24.3262 10.8334 24.8192 10.0693 25.0164C9.29281 25.2259 8.49171 25.115 7.81385 24.7083L5.694 23.4881C4.9422 23.0568 4.39991 22.3542 4.16574 21.5038C3.9439 20.6534 4.05482 19.7784 4.48618 19.0266C4.8436 18.398 4.9422 17.8311 4.73268 17.4737C4.52316 17.1163 3.9932 16.9067 3.26604 16.9067C1.46664 16.9067 0 15.4401 0 13.6407V11.4716C0 9.67215 1.46664 8.20551 3.26604 8.20551C3.9932 8.20551 4.52316 7.99599 4.73268 7.63858C4.9422 7.28116 4.85592 6.71422 4.48618 6.08567C4.05482 5.33386 3.9439 4.44648 4.16574 3.6084C4.38759 2.758 4.92987 2.05549 5.694 1.62413L7.82617 0.403986C9.21886 -0.421767 11.0552 0.0588952 11.8933 1.47623L12.0412 1.72273C12.7684 2.97984 13.7667 2.97984 14.4938 1.72273L14.6294 1.48856C15.4675 0.0588952 17.3039 -0.421767 18.7089 0.416311L20.8287 1.63645C21.5805 2.06782 22.1228 2.77033 22.357 3.62073C22.5788 4.47113 22.4679 5.34618 22.0365 6.09799C21.6791 6.72655 21.5805 7.29348 21.79 7.6509C21.9996 8.00832 22.5295 8.21784 23.2567 8.21784C25.0561 8.21784 26.5227 9.68447 26.5227 11.4839V13.653C26.5227 15.4524 25.0561 16.9191 23.2567 16.9191C22.5295 16.9191 21.9996 17.1286 21.79 17.486C21.5805 17.8434 21.6668 18.4103 22.0365 19.0389C22.4679 19.7907 22.5911 20.6781 22.357 21.5162C22.1351 22.3666 21.5928 23.0691 20.8287 23.5004L18.6965 24.7206C18.2282 24.9794 17.7229 25.115 17.2053 25.115ZM13.249 20.5548C14.3459 20.5548 15.3689 21.245 16.0714 22.4652L16.207 22.6993C16.3549 22.9582 16.6013 23.143 16.8971 23.217C17.1929 23.2909 17.4887 23.2539 17.7352 23.1061L19.8674 21.8736C20.1878 21.6887 20.4343 21.3806 20.5329 21.0109C20.6315 20.6411 20.5822 20.259 20.3973 19.9386C19.6948 18.7308 19.6086 17.486 20.1509 16.537C20.6931 15.588 21.8147 15.0457 23.2197 15.0457C24.0085 15.0457 24.637 14.4171 24.637 13.6284V11.4592C24.637 10.6828 24.0085 10.0419 23.2197 10.0419C21.8147 10.0419 20.6931 9.4996 20.1509 8.5506C19.6086 7.6016 19.6948 6.35681 20.3973 5.14899C20.5822 4.82855 20.6315 4.44648 20.5329 4.07674C20.4343 3.707 20.2002 3.41121 19.8797 3.21401L17.7475 1.99387C17.2176 1.67343 16.5151 1.8583 16.1946 2.40058L16.0591 2.63475C15.3566 3.8549 14.3336 4.54508 13.2367 4.54508C12.1398 4.54508 11.1169 3.8549 10.4144 2.63475L10.2788 2.38826C9.97067 1.87062 9.28049 1.68575 8.75053 1.99387L6.61835 3.22634C6.29791 3.41121 6.05142 3.71933 5.95282 4.08907C5.85422 4.45881 5.90352 4.84087 6.08839 5.16131C6.7909 6.36913 6.87717 7.61393 6.33489 8.56293C5.7926 9.51193 4.67105 10.0542 3.26604 10.0542C2.47726 10.0542 1.8487 10.6828 1.8487 11.4716V13.6407C1.8487 14.4172 2.47726 15.058 3.26604 15.058C4.67105 15.058 5.7926 15.6003 6.33489 16.5493C6.87717 17.4983 6.7909 18.7431 6.08839 19.9509C5.90352 20.2714 5.85422 20.6534 5.95282 21.0232C6.05142 21.3929 6.28559 21.6887 6.60603 21.8859L8.7382 23.1061C8.99702 23.2663 9.30513 23.3032 9.5886 23.2293C9.88439 23.1553 10.1309 22.9582 10.2911 22.6993L10.4267 22.4652C11.1292 21.2573 12.1521 20.5548 13.249 20.5548Z" fill="black"/>
</svg>
