<svg width="25" height="22" viewBox="0 0 25 22" fill="none" xmlns="http://www.w3.org/2000/svg">
<path d="M16.7073 10.7312C16.7073 13.0582 14.8269 14.9387 12.4999 14.9387C10.1729 14.9387 8.29248 13.0582 8.29248 10.7312C8.29248 8.40418 10.1729 6.5238 12.4999 6.5238C14.8269 6.5238 16.7073 8.40418 16.7073 10.7312Z" stroke="#010743" stroke-width="1.5" stroke-linecap="round" stroke-linejoin="round"/>
<path d="M12.5 20.4507C16.6487 20.4507 20.5153 18.0061 23.2067 13.7752C24.2644 12.1181 24.2644 9.33268 23.2067 7.67551C20.5153 3.44455 16.6487 1 12.5 1C8.35129 1 4.48467 3.44455 1.7933 7.67551C0.735565 9.33268 0.735565 12.1181 1.7933 13.7752C4.48467 18.0061 8.35129 20.4507 12.5 20.4507Z" stroke="#010743" stroke-width="1.5" stroke-linecap="round" stroke-linejoin="round"/>
</svg>
