<svg width="56" height="71" viewBox="0 0 56 71" fill="none" xmlns="http://www.w3.org/2000/svg">
<path d="M25.9814 52.2389L23.6511 67.5412H20.8601L16.5258 44.7803C16.9529 44.7481 17.3759 44.7173 17.81 44.7173H19.2076C21.9384 46.1107 25.0459 46.9075 28.3481 46.9075C31.6502 46.9075 34.7592 46.1121 37.4872 44.7173H38.8848C39.3203 44.7173 39.7446 44.7495 40.1689 44.7803L35.8347 67.5412H33.0465L30.7162 52.2389H30.6349L32.9218 48.0377H23.7771L26.064 52.2389H25.9814Z" fill="#686868"/>
<path d="M16.5266 44.7803L20.8609 67.5412H23.6519H33.0459H35.8341L40.1684 44.7803C49.019 45.4385 56 52.8102 56 61.8317V70.1361H0.696377V61.8317C0.696377 52.8102 7.67603 45.4399 16.5266 44.7803Z" fill="white"/>
<path d="M33.0469 67.5412H23.6529L25.9818 52.2389H26.0644L23.7776 48.0391H32.9222L30.6354 52.2389H30.7166L33.0469 67.5412Z" fill="white"/>
<path d="M52.3408 26.9027V28.3927C52.3408 30.9443 50.1842 33.0155 47.5346 33.0155H47.2517C45.8065 38.0836 42.2172 42.303 37.4853 44.7173C34.7559 46.1107 31.6483 46.9075 28.3462 46.9075C25.044 46.9075 21.9365 46.1121 19.2057 44.7173C14.4751 42.303 10.8873 38.0836 9.44203 33.0155H9.15915C6.50957 33.0155 4.35294 30.9429 4.35294 28.3927V26.9027C4.35294 24.6942 5.97461 22.8527 8.13265 22.3962C8.05703 21.7324 8.00521 21.0616 8.00521 20.374L8.01501 20.1807C8.01081 19.692 8.02762 19.185 8.09344 18.6417V18.6403C8.38892 15.4879 9.48684 12.5695 11.1813 10.0921C12.0538 8.81357 13.0957 7.66243 14.258 6.64854C17.3628 3.93454 21.3875 2.25685 25.8086 2.15042L26.0313 1.97396C26.2218 1.7653 26.4304 1.72889 26.5705 1.72889C26.9024 1.72889 27.1348 1.94876 27.3225 2.12941H27.3827C28.4498 1.0595 29.2536 0.399902 29.9412 0.399902H29.9454C30.6022 0.450317 33.6789 1.54264 34.662 2.28065C34.8805 2.4445 35.1256 2.65456 35.3832 2.88703C42.9385 5.11789 48.4547 12.1003 48.4547 20.3768C48.4547 20.5028 48.4449 20.6274 48.4435 20.7521C48.4533 21.3094 48.4351 21.857 48.3833 22.399C50.6239 22.7855 52.3408 24.6368 52.3408 26.9027ZM8.6438 25.0905C7.80495 25.3104 7.17896 26.0288 7.17896 26.9027V28.3927C7.17896 29.3506 7.91978 30.1362 8.87766 30.2693C8.78664 29.5369 8.72782 28.796 8.72782 28.0412C8.72782 27.3102 8.79504 26.596 8.88607 25.8888C8.80204 25.6241 8.71662 25.3594 8.6438 25.0905ZM44.9326 25.6311C44.8752 25.2642 44.7954 24.9071 44.7114 24.5486C42.4091 22.9129 39.4598 20.3642 38.3297 18.3588C38.3297 18.3588 19.6888 22.7267 12.8982 23.228C12.7036 23.2434 12.5187 23.2504 12.3423 23.2518C12.093 24.0262 11.8927 24.8147 11.7639 25.6311C11.6393 26.4195 11.5552 27.2192 11.5552 28.0398C11.5552 28.6252 11.5931 29.2022 11.6561 29.7721C11.7639 30.7482 11.9698 31.6921 12.2513 32.608C14.3057 39.2921 20.7377 44.1894 28.3476 44.1894C35.9574 44.1894 42.3909 39.2949 44.4439 32.6094C44.7254 31.6935 44.9312 30.7496 45.0377 29.7749C45.1021 29.2036 45.1399 28.6266 45.1399 28.0412C45.1399 27.2206 45.0573 26.4209 44.9326 25.6311ZM49.5148 26.9027C49.5148 25.9616 48.795 25.1956 47.8595 25.0457C47.8539 25.4084 47.8413 25.7655 47.8329 26.1283C47.9113 26.757 47.9673 27.3914 47.9673 28.0412C47.9673 28.796 47.9099 29.5369 47.8189 30.2693C48.7754 30.1348 49.5162 29.3506 49.5162 28.3927V26.9027H49.5148Z" fill="white"/>
</svg>
