<svg width="192" height="199" viewBox="0 0 192 199" fill="none" xmlns="http://www.w3.org/2000/svg">
<path d="M154.56 135.273H170.533C172.741 135.273 174.547 133.555 174.547 131.455C174.547 129.355 172.741 127.636 170.533 127.636H154.56C152.353 127.636 150.547 129.355 150.547 131.455C150.547 133.555 152.353 135.273 154.56 135.273Z" fill="black"/>
<path d="M154.56 154.909H170.533C172.741 154.909 174.547 153.191 174.547 151.091C174.547 148.991 172.741 147.273 170.533 147.273H154.56C152.353 147.273 150.547 148.991 150.547 151.091C150.547 153.191 152.353 154.909 154.56 154.909Z" fill="black"/>
<path d="M154.56 173.454H170.533C172.741 173.454 174.547 171.736 174.547 169.636C174.547 167.536 172.741 165.818 170.533 165.818H154.56C152.353 165.818 150.547 167.536 150.547 169.636C150.547 171.736 152.353 173.454 154.56 173.454Z" fill="black"/>
<path d="M3.9653 198.545H54.4436H80.7732H111.227H137.556H188.035C190.216 198.545 192 196.758 192 194.574V107.168C192 104.984 190.216 103.197 188.035 103.197H141.522V79.1316C145.646 80.323 149.809 81.3158 154.092 82.0306C154.33 82.0703 154.528 82.0703 154.766 82.0703C156.154 82.0703 157.462 81.3555 158.176 80.1244L169.868 58.124L181.735 59.9905L164.124 88.2654C163.133 90.251 163.965 92.6337 165.908 93.5868C166.463 93.8648 167.058 93.9839 167.653 93.9839C169.12 93.9839 170.508 93.1897 171.222 91.76L186.25 61.301C186.29 61.2215 186.29 61.1024 186.33 60.9833C186.449 60.6656 186.568 60.3479 186.607 59.9905C186.647 59.8316 186.647 59.6728 186.647 59.4742C186.647 59.1565 186.607 58.8388 186.528 58.5608C186.488 58.402 186.449 58.2431 186.409 58.124C186.29 57.7666 186.092 57.4489 185.854 57.1709C185.774 57.0915 185.774 56.9724 185.695 56.8929C185.695 56.8929 185.695 56.8532 185.656 56.8532L147.271 14.1232C146.716 13.5275 146.002 13.0906 145.209 12.8921L89.2193 0.104835C87.5143 -0.292284 85.7695 0.462242 84.8971 1.9713C84.0248 3.48035 84.223 5.34681 85.373 6.65731L93.7398 15.9896L83.919 33.1825C83.0863 34.6121 83.2053 36.3991 84.2363 37.6699C89.0343 43.6267 98.8478 51.373 104.597 56.2178H54.4436C52.2627 56.2178 50.4783 58.0049 50.4783 60.189V103.237H3.9653C1.78439 103.237 0 105.024 0 107.208V194.574C0 196.758 1.74473 198.545 3.9653 198.545ZM80.7732 194.574V156.927H111.227V194.574H80.7732ZM188.035 106.246V194.574H141.522V106.246H188.035ZM143.863 15.0329L180.109 56.2178L128.833 46.4487L91.1216 4.32925L143.863 15.0329ZM86.7728 33.6876L95.5361 18.7559L123.797 49.3874C124.352 49.983 125.066 50.4199 125.859 50.6184L166.633 58.124L154.766 78.3238C130.458 73.4789 102.753 52.5904 86.7728 33.6876ZM55.8056 59.4742H109.125C116.778 64.5573 128.912 73.3734 137.556 76.5503V107.168V194.574H115.192V156.927C115.192 154.743 113.408 152.956 111.227 152.956H80.7732C78.5923 152.956 76.8079 154.743 76.8079 156.927V194.574H55.8056V107.168V59.4742ZM4.92275 107.168L50.4783 107.208V194.574H4.92275V107.168Z" fill="black"/>
<path d="M37.4398 127.636H21.4665C19.2591 127.636 17.4531 129.355 17.4531 131.455C17.4531 133.555 19.2591 135.273 21.4665 135.273H37.4398C39.6471 135.273 41.4531 133.555 41.4531 131.455C41.4531 129.355 39.6471 127.636 37.4398 127.636Z" fill="black"/>
<path d="M37.4398 147.273H21.4665C19.2591 147.273 17.4531 148.991 17.4531 151.091C17.4531 153.191 19.2591 154.909 21.4665 154.909H37.4398C39.6471 154.909 41.4531 153.191 41.4531 151.091C41.4531 148.991 39.6471 147.273 37.4398 147.273Z" fill="black"/>
<path d="M37.4398 165.818H21.4665C19.2591 165.818 17.4531 167.536 17.4531 169.636C17.4531 171.736 19.2591 173.454 21.4665 173.454H37.4398C39.6471 173.454 41.4531 171.736 41.4531 169.636C41.4531 167.536 39.6471 165.818 37.4398 165.818Z" fill="black"/>
<path d="M75.9088 90.5455H116.091C118.241 90.5455 120 88.8274 120 86.7274C120 84.6274 118.241 82.9092 116.091 82.9092H75.9088C73.759 82.9092 72 84.6274 72 86.7274C72 88.8274 73.759 90.5455 75.9088 90.5455Z" fill="black"/>
<path d="M75.9088 112.364H116.091C118.241 112.364 120 110.645 120 108.545C120 106.445 118.241 104.727 116.091 104.727H75.9088C73.759 104.727 72 106.445 72 108.545C72 110.645 73.759 112.364 75.9088 112.364Z" fill="black"/>
<path d="M75.9088 134.182H116.091C118.241 134.182 120 132.464 120 130.364C120 128.264 118.241 126.545 116.091 126.545H75.9088C73.759 126.545 72 128.264 72 130.364C72 132.464 73.759 134.182 75.9088 134.182Z" fill="black"/>
</svg>
