<svg width="181" height="181" viewBox="0 0 181 181" fill="none" xmlns="http://www.w3.org/2000/svg">
<path d="M28.5285 155.354C27.7807 155.354 27.0343 155.068 26.4659 154.5C-8.82197 119.203 -8.82197 61.7794 26.4659 26.4829C49.8482 3.09635 84.1717 -5.64407 116.038 3.65616C117.584 4.10771 118.471 5.72731 118.021 7.27283C117.569 8.81979 115.95 9.70579 114.404 9.25709C84.5834 0.552286 52.4706 8.73432 30.5939 30.6082C-2.4148 63.6254 -2.4148 117.354 30.5939 150.374C31.7349 151.515 31.7349 153.359 30.5939 154.5C30.0185 155.068 29.2749 155.354 28.5285 155.354Z" fill="black"/>
<path d="M90.1918 181C74.3519 181.003 58.438 176.805 44.1408 168.187C42.7576 167.355 42.3146 165.564 43.1451 164.184C43.9741 162.801 45.7704 162.352 47.1478 163.19C80.2178 183.108 122.571 177.763 150.151 150.188C183.163 117.169 183.163 63.4458 150.151 30.4214C146.908 27.3203 142.473 23.2806 137.365 19.9403C136.013 19.0585 135.635 17.2495 136.519 15.902C137.399 14.5516 139.208 14.1755 140.556 15.0558C146.067 18.6568 150.758 22.9302 154.232 26.2506C189.563 61.5897 189.563 119.019 154.279 154.31C136.717 171.875 113.54 181 90.1918 181Z" fill="black"/>
<path d="M28.5289 155.354C28.5175 155.354 28.5047 155.354 28.4933 155.354L12.2973 155.17C10.6863 155.149 9.39714 153.831 9.41423 152.217C9.43275 150.608 10.6336 149.269 12.3671 149.336L25.576 149.487L25.4279 136.086C25.4094 134.474 26.7028 133.153 28.3124 133.135H28.3451C29.9405 133.135 31.2439 134.419 31.2624 136.021L31.4462 152.404C31.4547 153.189 31.1456 153.942 30.5915 154.499C30.0431 155.045 29.2981 155.354 28.5289 155.354Z" fill="black"/>
<path d="M138.234 34.2234C136.62 34.2234 135.316 32.9186 135.316 31.3062V17.1343C135.316 16.3466 135.631 15.5959 136.194 15.0475C136.758 14.4962 137.544 14.2398 138.303 14.217L154.132 14.5845C155.743 14.6216 157.018 15.9577 156.982 17.5688C156.945 19.1784 155.571 20.3479 153.998 20.4191L141.157 20.1185V31.3062C141.151 32.9186 139.846 34.2234 138.234 34.2234Z" fill="black"/>
<path d="M113.058 143.618C111.444 143.618 110.141 142.313 110.141 140.701V131.284C110.141 129.67 111.444 128.366 113.058 128.366C114.67 128.366 115.975 129.67 115.975 131.284V140.701C115.975 142.31 114.67 143.618 113.058 143.618Z" fill="black"/>
<path d="M67.5852 143.618C65.9728 143.618 64.668 142.313 64.668 140.701V131.284C64.668 129.67 65.9728 128.366 67.5852 128.366C69.1991 128.366 70.5025 129.67 70.5025 131.284V140.701C70.5025 142.31 69.1991 143.618 67.5852 143.618Z" fill="black"/>
<path d="M90.3194 96.3322C73.5252 96.3322 59.8633 82.4367 59.8633 65.359C59.8633 48.2813 73.528 34.3887 90.3194 34.3887C107.112 34.3887 120.774 48.2842 120.774 65.359C120.777 82.4367 107.112 96.3322 90.3194 96.3322ZM90.3194 40.2204C76.743 40.2204 65.6978 51.4963 65.6978 65.3562C65.6978 79.2189 76.743 90.4949 90.3194 90.4949C103.894 90.4949 114.94 79.2189 114.94 65.3562C114.942 51.4963 103.897 40.2204 90.3194 40.2204Z" fill="black"/>
<path d="M90.3229 132.81C89.4099 132.81 88.5466 132.381 87.9954 131.651L79.4686 120.35C79.0869 119.841 78.8789 119.226 78.8789 118.591V92.0261H84.7134V117.613L90.3229 125.049L95.9338 117.613V92.0261H101.768V118.591C101.768 119.226 101.56 119.841 101.179 120.35L92.6519 131.651C92.1035 132.381 91.2403 132.81 90.3229 132.81Z" fill="black"/>
<path d="M134.131 146.491H46.6126C45.0001 146.491 43.6953 145.186 43.6953 143.574V124.442C43.6953 106.401 55.0268 90.2724 71.8851 84.2983C72.8623 83.9507 73.9392 84.1487 74.7326 84.8082C79.1171 88.4747 84.6539 90.4946 90.3261 90.4946C96.011 90.4946 101.559 88.4662 105.945 84.7883C106.736 84.1202 107.814 83.9279 108.788 84.2683C125.691 90.2282 137.048 106.373 137.048 124.442V143.574C137.048 145.186 135.745 146.491 134.131 146.491ZM49.5299 140.657H131.213V124.442C131.213 109.377 122.083 95.8676 108.334 90.3336C103.132 94.2138 96.8016 96.332 90.3218 96.332C83.8633 96.332 77.5473 94.2224 72.3495 90.3621C58.6378 95.9089 49.5299 109.407 49.5299 124.442V140.657Z" fill="black"/>
</svg>
