<svg width="18" height="20" viewBox="0 0 18 20" fill="none" xmlns="http://www.w3.org/2000/svg">
<path fill-rule="evenodd" clip-rule="evenodd" d="M9.19333 1.6H12.4444C13.3 1.6 14 2.32 14 3.2V8.91337C13.5302 8.79644 13.0386 8.73438 12.5326 8.73438C9.18793 8.73438 6.47656 11.4457 6.47656 14.7904C6.47656 15.2046 6.51815 15.6091 6.59738 16H1.55556C0.7 16 0 15.28 0 14.4V3.2C0 2.32 0.7 1.6 1.55556 1.6H4.80667C5.13333 0.672 5.98889 0 7 0C8.01111 0 8.86667 0.672 9.19333 1.6ZM7.77778 2.4C7.77778 1.96 7.42778 1.6 7 1.6C6.57222 1.6 6.22222 1.96 6.22222 2.4C6.22222 2.84 6.57222 3.2 7 3.2C7.42778 3.2 7.77778 2.84 7.77778 2.4Z" fill="white"/>
<path d="M12.5417 9.58203C9.66525 9.58203 7.33594 11.9166 7.33594 14.793C7.33594 17.6695 9.66525 20.004 12.5417 20.004C15.4234 20.004 17.7579 17.6695 17.7579 14.793C17.7579 11.9166 15.4234 9.58203 12.5417 9.58203ZM12.5469 18.9618C10.2437 18.9618 8.37814 17.0963 8.37814 14.793C8.37814 12.4898 10.2437 10.6242 12.5469 10.6242C14.8502 10.6242 16.7157 12.4898 16.7157 14.793C16.7157 17.0963 14.8502 18.9618 12.5469 18.9618Z" fill="white"/>
<path d="M12.8129 12.1875H12.0312V15.3141L14.767 16.9556L15.1578 16.3146L12.8129 14.9233V12.1875Z" fill="white"/>
</svg>
