<svg width="90" height="345" viewBox="0 0 90 345" fill="none" xmlns="http://www.w3.org/2000/svg">
<g clip-path="url(#clip0_1464_1295)">
<mask id="mask0_1464_1295" style="mask-type:luminance" maskUnits="userSpaceOnUse" x="6" y="-117" width="84" height="778">
<path d="M90 -117H6V661H90V-117Z" fill="white"/>
</mask>
<g mask="url(#mask0_1464_1295)">
<path opacity="0.47" d="M7.00854 176.761C3.74313 264.893 58.8996 341.32 147.196 372.147C260.702 411.912 434.855 398.795 519.429 553.524C579.356 662.805 682.206 671.614 761.579 652.189C855.31 629.104 921.83 541.872 937.742 429.609C949.056 349.791 909.451 249.968 898.829 196.131C881.519 108.825 953.233 75.508 949.711 -5.77402C945.173 -108.191 777.726 -169.273 715.552 -54.6785C676.481 17.198 577.51 44.699 482.284 7.57298C375.084 -34.225 252.666 -63.4657 166.517 -38.6908C66.4966 -9.44502 10.5852 83.604 7.00854 176.761Z" fill="url(#paint0_linear_1464_1295)" fill-opacity="0.65"/>
</g>
</g>
<defs>
<linearGradient id="paint0_linear_1464_1295" x1="1434.36" y1="753.58" x2="867.065" y2="-132.35" gradientUnits="userSpaceOnUse">
<stop stop-color="#118DF5"/>
<stop offset="1" stop-color="#0C61E2"/>
</linearGradient>
<clipPath id="clip0_1464_1295">
<rect width="90" height="345" fill="white"/>
</clipPath>
</defs>
</svg>
