<svg width="749" height="182" viewBox="0 0 749 182" fill="none" xmlns="http://www.w3.org/2000/svg">
<path opacity="0.47" d="M1.00791 314.149C-2.2575 408.398 52.899 490.13 141.195 523.096C254.701 565.622 428.854 551.594 513.428 717.063C573.355 833.929 676.205 843.349 755.578 822.576C849.309 797.889 915.829 704.602 931.741 584.547C943.055 499.189 903.45 392.437 892.828 334.863C875.518 241.497 947.232 205.868 943.71 118.944C939.172 9.41893 771.725 -55.9031 709.551 66.6452C670.48 143.511 571.509 172.92 476.283 133.218C369.083 88.5184 246.665 57.2481 160.516 83.7426C60.496 115.018 4.58459 214.526 1.00791 314.149Z" fill="url(#paint0_linear_709_3920)" fill-opacity="0.65"/>
<defs>
<linearGradient id="paint0_linear_709_3920" x1="1428.36" y1="931.005" x2="805.592" y2="21.5689" gradientUnits="userSpaceOnUse">
<stop stop-color="#118DF5"/>
<stop offset="1" stop-color="#0C61E2"/>
</linearGradient>
</defs>
</svg>
